<svg width="14" height="14" viewBox="0 0 14 14" fill="none" xmlns="http://www.w3.org/2000/svg">
<path d="M6.53111 0.140518L6.39207 0.565369C5.65566 1.09064 5.04542 1.70088 4.56135 2.39609C3.81979 3.46723 3.2147 4.77268 2.74608 6.31245C2.2826 7.84706 2.05087 9.28898 2.05087 10.6382C2.05087 11.4982 2.25428 12.4252 2.66111 13.419L2.52979 13.8671C1.14452 12.0132 0.45188 10.1644 0.45188 8.32083C0.45188 7.25999 0.683617 6.20945 1.14709 5.16921C1.69296 3.95388 2.50147 2.87501 3.57261 1.93262C4.39141 1.21166 5.37758 0.614291 6.53111 0.140518ZM8.47771 0.140518C8.79699 0.140518 9.06477 0.251237 9.28106 0.472674C9.5025 0.694112 9.61322 0.961897 9.61322 1.27603C9.61322 1.59016 9.5025 1.85795 9.28106 2.07938C9.05962 2.30082 8.79184 2.41154 8.47771 2.41154C8.16872 2.41154 7.90351 2.30082 7.68207 2.07938C7.46064 1.85795 7.34992 1.59016 7.34992 1.27603C7.34992 0.961897 7.45806 0.694112 7.67435 0.472674C7.89579 0.251237 8.16357 0.140518 8.47771 0.140518ZM8.95663 3.69382L7.37309 9.18599C7.28555 9.50012 7.24177 9.70611 7.24177 9.80395C7.24177 9.8606 7.26495 9.91467 7.3113 9.96617C7.35764 10.0125 7.40657 10.0357 7.45806 10.0357C7.54561 10.0357 7.63315 9.99707 7.7207 9.91982C7.95243 9.72928 8.23052 9.38425 8.55495 8.88473L8.81759 9.03922C8.03998 10.3936 7.21345 11.0708 6.338 11.0708C6.00327 11.0708 5.73548 10.9781 5.53465 10.7927C5.33896 10.6022 5.24111 10.3627 5.24111 10.0743C5.24111 9.88377 5.28488 9.64174 5.37243 9.3482L6.44614 5.65586C6.54914 5.30053 6.60064 5.03274 6.60064 4.8525C6.60064 4.73921 6.55171 4.63879 6.45387 4.55125C6.35602 4.4637 6.22213 4.41993 6.05219 4.41993C5.97495 4.41993 5.88225 4.4225 5.77411 4.42765L5.87453 4.11867L8.49315 3.69382H8.95663ZM7.54303 13.8671L7.68208 13.4422C8.27429 13.0199 8.77639 12.5565 9.18837 12.0518C9.59519 11.5471 10.0149 10.8493 10.4475 9.95844C10.88 9.06239 11.2328 8.10455 11.5057 7.0849C11.8559 5.76143 12.031 4.52292 12.031 3.36939C12.031 2.50939 11.8276 1.57986 11.4208 0.580818L11.5444 0.140518C12.9296 1.99441 13.6223 3.84059 13.6223 5.67903C13.6223 6.74502 13.3905 7.79814 12.9271 8.83838C12.3863 10.0486 11.5778 11.1249 10.5015 12.0672C9.68274 12.7882 8.69657 13.3882 7.54303 13.8671Z" fill="#666666"/>
</svg>
