<svg width="26" height="27" viewBox="0 0 26 27" fill="none" xmlns="http://www.w3.org/2000/svg">
<path d="M13.0215 7.54957V13.6793L8.93149 17.7563C8.83185 17.8557 8.77588 17.9904 8.77588 18.1309C8.77588 18.2714 8.83185 18.4061 8.93149 18.5055C9.03113 18.6048 9.16626 18.6606 9.30717 18.6606C9.44807 18.6606 9.58321 18.6048 9.68285 18.5055L13.9278 14.2729C13.977 14.2237 14.0161 14.1653 14.0427 14.101C14.0692 14.0368 14.0829 13.9679 14.0827 13.8984V7.54957C14.0827 7.40926 14.0268 7.27469 13.9273 7.17547C13.8278 7.07625 13.6928 7.02051 13.5521 7.02051C13.4114 7.02051 13.2764 7.07625 13.1769 7.17547C13.0774 7.27469 13.0215 7.40926 13.0215 7.54957ZM22.042 17.6018H15.6746C15.5339 17.6018 15.3989 17.6576 15.2994 17.7568C15.1999 17.856 15.144 17.9906 15.144 18.1309C15.144 18.2712 15.1999 18.4058 15.2994 18.505C15.3989 18.6042 15.5339 18.66 15.6746 18.66H22.042C22.1828 18.66 22.3177 18.6042 22.4172 18.505C22.5167 18.4058 22.5726 18.2712 22.5726 18.1309C22.5726 17.9906 22.5167 17.856 22.4172 17.7568C22.3177 17.6576 22.1828 17.6018 22.042 17.6018Z" fill="#7A7A7A"/>
<path d="M20.9807 7.02034C20.84 7.02034 20.705 7.07608 20.6055 7.1753C20.506 7.27452 20.4501 7.40909 20.4501 7.54941V8.12927C19.6102 7.11755 18.5561 6.30371 17.3635 5.7461C16.1709 5.18849 14.8693 4.90094 13.5521 4.90408C12.0686 4.90411 10.6081 5.26893 9.2998 5.96621C7.99153 6.66349 6.87593 7.67172 6.05181 8.90158C5.22769 10.1314 4.72049 11.545 4.57514 13.017C4.4298 14.489 4.65079 15.974 5.21854 17.3405C5.7863 18.707 6.68329 19.9128 7.83006 20.851C8.97683 21.7893 10.338 22.4311 11.7929 22.7196C13.2479 23.0081 14.7518 22.9343 16.1713 22.5049C17.5909 22.0754 18.8823 21.3035 19.9312 20.2576C20.0311 20.1578 20.0872 20.0226 20.0871 19.8816C20.087 19.7406 20.0307 19.6054 19.9306 19.5058C19.8306 19.4062 19.6949 19.3502 19.5535 19.3503C19.4121 19.3504 19.2765 19.4065 19.1766 19.5063C18.0304 20.6514 16.5607 21.4199 14.9642 21.7087C13.3677 21.9976 11.7208 21.7931 10.2442 21.1225C8.76756 20.452 7.53173 19.3476 6.70229 17.9571C5.87285 16.5667 5.48942 14.9567 5.60337 13.3429C5.71733 11.7291 6.32324 10.1885 7.3399 8.9277C8.35656 7.66686 9.73541 6.74595 11.2917 6.28835C12.848 5.83075 14.5074 5.85833 16.0475 6.36739C17.5876 6.87645 18.9349 7.84268 19.9089 9.13661H18.8583C18.7175 9.13661 18.5826 9.19235 18.4831 9.29157C18.3835 9.39079 18.3276 9.52536 18.3276 9.66567C18.3276 9.80599 18.3835 9.94056 18.4831 10.0398C18.5826 10.139 18.7175 10.1947 18.8583 10.1947H20.9807C21.1215 10.1947 21.2564 10.139 21.3559 10.0398C21.4555 9.94056 21.5114 9.80599 21.5114 9.66567V7.54941C21.5114 7.40909 21.4555 7.27452 21.3559 7.1753C21.2564 7.07608 21.1215 7.02034 20.9807 7.02034Z" fill="#7A7A7A"/>
<path d="M18.8584 11.2532C18.7176 11.2532 18.5827 11.3089 18.4831 11.4081C18.3836 11.5074 18.3277 11.6419 18.3277 11.7822V12.3579C17.5719 12.4671 16.868 12.8055 16.3115 13.3272C15.7551 13.8489 15.3731 14.5286 15.2172 15.2741C15.1857 15.428 15.189 15.587 15.2268 15.7395C15.2646 15.892 15.336 16.0342 15.4357 16.1558C15.5355 16.2774 15.6612 16.3753 15.8037 16.4424C15.9461 16.5095 16.1018 16.5442 16.2594 16.5438H21.4594C21.617 16.5442 21.7727 16.5095 21.9151 16.4424C22.0576 16.3753 22.1833 16.2774 22.2831 16.1558C22.3829 16.0342 22.4542 15.892 22.492 15.7395C22.5298 15.587 22.5331 15.428 22.5016 15.2741C22.3456 14.5283 21.9633 13.8483 21.4064 13.3266C20.8496 12.8049 20.1452 12.4667 19.389 12.3579V11.7822C19.389 11.6419 19.3331 11.5074 19.2336 11.4081C19.134 11.3089 18.9991 11.2532 18.8584 11.2532Z" fill="#7A7A7A"/>
</svg>
