<svg width="10" height="10" viewBox="0 0 10 10" fill="none" xmlns="http://www.w3.org/2000/svg">
<mask id="mask0_1302_99" style="mask-type:alpha" maskUnits="userSpaceOnUse" x="0" y="0" width="10" height="10">
<rect width="10" height="10" fill="#D9D9D9"/>
</mask>
<g mask="url(#mask0_1302_99)">
<path d="M2.50957 7.20521C2.86374 6.94239 3.24956 6.73486 3.66702 6.58261C4.08449 6.43037 4.5288 6.35425 4.99995 6.35425C5.4711 6.35425 5.91541 6.43037 6.33288 6.58261C6.75034 6.73486 7.13616 6.94239 7.49032 7.20521C7.74941 6.92049 7.95467 6.59089 8.10612 6.21643C8.25756 5.84195 8.33328 5.4365 8.33328 5.00007C8.33328 4.07646 8.00863 3.29 7.35932 2.6407C6.71002 1.99139 5.92356 1.66674 4.99995 1.66674C4.07634 1.66674 3.28988 1.99139 2.64057 2.6407C1.99127 3.29 1.66662 4.07646 1.66662 5.00007C1.66662 5.4365 1.74234 5.84195 1.89378 6.21643C2.04523 6.59089 2.25049 6.92049 2.50957 7.20521ZM5.00007 5.31256C4.61965 5.31256 4.29883 5.182 4.03762 4.92086C3.7764 4.65972 3.64579 4.33895 3.64579 3.95853C3.64579 3.57811 3.77636 3.25729 4.03749 2.99607C4.29863 2.73486 4.61941 2.60425 4.99982 2.60425C5.38025 2.60425 5.70107 2.73481 5.96228 2.99595C6.2235 3.25709 6.35411 3.57786 6.35411 3.95828C6.35411 4.3387 6.22354 4.65952 5.96241 4.92074C5.70127 5.18195 5.38049 5.31256 5.00007 5.31256ZM4.99995 8.9584C4.45027 8.9584 3.93465 8.85503 3.45308 8.64829C2.97152 8.44156 2.55258 8.16005 2.19627 7.80375C1.83997 7.44744 1.55846 7.02851 1.35173 6.54694C1.14499 6.06537 1.04163 5.54975 1.04163 5.00007C1.04163 4.45039 1.14499 3.93477 1.35173 3.45321C1.55846 2.97164 1.83997 2.5527 2.19627 2.19639C2.55258 1.8401 2.97152 1.55858 3.45308 1.35185C3.93465 1.14512 4.45027 1.04175 4.99995 1.04175C5.54963 1.04175 6.06525 1.14512 6.54681 1.35185C7.02838 1.55858 7.44732 1.8401 7.80363 2.19639C8.15993 2.5527 8.44144 2.97164 8.64817 3.45321C8.85491 3.93477 8.95827 4.45039 8.95827 5.00007C8.95827 5.54975 8.85491 6.06537 8.64817 6.54694C8.44144 7.02851 8.15993 7.44744 7.80363 7.80375C7.44732 8.16005 7.02838 8.44156 6.54681 8.64829C6.06525 8.85503 5.54963 8.9584 4.99995 8.9584ZM4.99995 8.33341C5.37602 8.33341 5.7386 8.27291 6.08769 8.15192C6.43679 8.03092 6.74675 7.86172 7.01759 7.6443C6.74675 7.4349 6.44079 7.2717 6.09971 7.15472C5.75863 7.03772 5.39205 6.97923 4.99995 6.97923C4.60785 6.97923 4.2406 7.03706 3.89818 7.15271C3.55576 7.26836 3.25047 7.43223 2.98231 7.6443C3.25315 7.86172 3.56311 8.03092 3.91221 8.15192C4.2613 8.27291 4.62388 8.33341 4.99995 8.33341ZM4.99995 4.68758C5.20721 4.68758 5.38056 4.61787 5.51999 4.47845C5.65941 4.33902 5.72913 4.16567 5.72913 3.95841C5.72913 3.75114 5.65941 3.57779 5.51999 3.43836C5.38056 3.29894 5.20721 3.22923 4.99995 3.22923C4.79269 3.22923 4.61934 3.29894 4.47991 3.43836C4.34048 3.57779 4.27077 3.75114 4.27077 3.95841C4.27077 4.16567 4.34048 4.33902 4.47991 4.47845C4.61934 4.61787 4.79269 4.68758 4.99995 4.68758Z" fill="#F58634"/>
</g>
</svg>
