<svg width="14" height="14" viewBox="0 0 14 14" fill="none" xmlns="http://www.w3.org/2000/svg">
<mask id="mask0_1133_687" style="mask-type:alpha" maskUnits="userSpaceOnUse" x="0" y="0" width="14" height="14">
<rect x="0.851074" y="0.959473" width="12.978" height="12.978" fill="#D9D9D9"/>
</mask>
<g mask="url(#mask0_1133_687)">
<path d="M7.33987 12.5857C6.70207 12.5857 6.10447 12.465 5.54708 12.2238C4.98969 11.9825 4.50371 11.6546 4.08914 11.24C3.67457 10.8254 3.34666 10.3395 3.1054 9.78208C2.86414 9.22469 2.7435 8.62709 2.7435 7.98929C2.7435 7.35148 2.86414 6.75388 3.1054 6.1965C3.34666 5.63911 3.67457 5.15313 4.08914 4.73855C4.50371 4.32398 4.98969 3.99607 5.54708 3.75482C6.10447 3.51355 6.70207 3.39292 7.33987 3.39292C7.97768 3.39292 8.57528 3.51355 9.13267 3.75482C9.69005 3.99607 10.176 4.32398 10.5906 4.73855C11.0052 5.15313 11.3331 5.63911 11.5743 6.1965C11.8156 6.75388 11.9362 7.35148 11.9362 7.98929C11.9362 8.62709 11.8156 9.22469 11.5743 9.78208C11.3331 10.3395 11.0052 10.8254 10.5906 11.24C10.176 11.6546 9.69005 11.9825 9.13267 12.2238C8.57528 12.465 7.97768 12.5857 7.33987 12.5857ZM8.94758 10.1668L9.51742 9.59699L7.74542 7.82498V5.28553H6.93432V8.15359L8.94758 10.1668ZM3.96226 2.52148L4.53212 3.09134L2.44193 5.18153L1.87207 4.61168L3.96226 2.52148ZM10.7175 2.52148L12.8077 4.61168L12.2378 5.18153L10.1476 3.09134L10.7175 2.52148ZM7.33987 11.7745C8.39087 11.7745 9.28449 11.4064 10.0208 10.6702C10.757 9.93391 11.1251 9.04028 11.1251 7.98929C11.1251 6.93829 10.757 6.04467 10.0208 5.30841C9.28449 4.57216 8.39087 4.20403 7.33987 4.20403C6.28888 4.20403 5.39525 4.57216 4.65899 5.30841C3.92274 6.04467 3.55462 6.93829 3.55462 7.98929C3.55462 9.04028 3.92274 9.93391 4.65899 10.6702C5.39525 11.4064 6.28888 11.7745 7.33987 11.7745Z" fill="#666666"/>
</g>
</svg>
