<svg width="23" height="23" viewBox="0 0 23 23" fill="none" xmlns="http://www.w3.org/2000/svg">
<rect x="0.510785" y="0.831829" width="21.3966" height="21.3966" rx="3.30054" fill="white" stroke="#666666" stroke-width="0.227624"/>
<path d="M10.7964 16.9638C9.99471 16.9638 9.23824 16.8102 8.52695 16.5028C7.81564 16.1955 7.19527 15.7771 6.66583 15.2477C6.1364 14.7183 5.71802 14.0979 5.4107 13.3866C5.10337 12.6753 4.94971 11.9188 4.94971 11.1172C4.94971 10.3092 5.10337 9.55115 5.4107 8.84301C5.71802 8.13486 6.1364 7.51607 6.66583 6.98663C7.19527 6.4572 7.81564 6.03882 8.52695 5.7315C9.23824 5.42417 9.99471 5.27051 10.7964 5.27051C11.6043 5.27051 12.3624 5.42417 13.0705 5.7315C13.7787 6.03882 14.3975 6.4572 14.9269 6.98663C15.4563 7.51607 15.8747 8.13486 16.182 8.84301C16.4893 9.55115 16.643 10.3092 16.643 11.1172C16.643 11.9188 16.4893 12.6753 16.182 13.3866C15.8747 14.0979 15.4563 14.7183 14.9269 15.2477C14.3975 15.7771 13.7787 16.1955 13.0705 16.5028C12.3624 16.8102 11.6043 16.9638 10.7964 16.9638ZM10.7964 16.0277C11.1104 15.611 11.3747 15.1909 11.5893 14.7672C11.804 14.3435 11.9787 13.8803 12.1136 13.3777H9.47908C9.62189 13.8961 9.79863 14.3671 10.0093 14.7909C10.22 15.2146 10.4823 15.6268 10.7964 16.0277ZM9.60456 15.8584C9.36864 15.5199 9.15679 15.1351 8.969 14.7039C8.78121 14.2727 8.63524 13.8306 8.53108 13.3777H6.4433C6.76839 14.0168 7.20433 14.5538 7.75112 14.9885C8.29793 15.4233 8.91574 15.7132 9.60456 15.8584ZM11.9882 15.8584C12.677 15.7132 13.2948 15.4233 13.8416 14.9885C14.3884 14.5538 14.8243 14.0168 15.1494 13.3777H13.0616C12.9378 13.8345 12.7819 14.2786 12.5941 14.7098C12.4063 15.141 12.2044 15.5239 11.9882 15.8584ZM6.0563 12.4546H8.34408C8.30542 12.2258 8.27742 12.0015 8.26006 11.7817C8.2427 11.562 8.23403 11.3405 8.23403 11.1172C8.23403 10.8939 8.2427 10.6723 8.26006 10.4526C8.27742 10.2329 8.30542 10.0086 8.34408 9.77975H6.0563C5.99712 9.98885 5.95175 10.2062 5.92019 10.4319C5.88863 10.6575 5.87285 10.886 5.87285 11.1172C5.87285 11.3484 5.88863 11.5768 5.92019 11.8024C5.95175 12.0281 5.99712 12.2455 6.0563 12.4546ZM9.26723 12.4546H12.3255C12.3642 12.2258 12.3922 12.0034 12.4095 11.7876C12.4269 11.5718 12.4356 11.3484 12.4356 11.1172C12.4356 10.886 12.4269 10.6625 12.4095 10.4467C12.3922 10.2309 12.3642 10.0086 12.3255 9.77975H9.26723C9.22857 10.0086 9.20055 10.2309 9.18319 10.4467C9.16583 10.6625 9.15715 10.886 9.15715 11.1172C9.15715 11.3484 9.16583 11.5718 9.18319 11.7876C9.20055 12.0034 9.22857 12.2258 9.26723 12.4546ZM13.2486 12.4546H15.5364C15.5956 12.2455 15.641 12.0281 15.6725 11.8024C15.7041 11.5768 15.7199 11.3484 15.7199 11.1172C15.7199 10.886 15.7041 10.6575 15.6725 10.4319C15.641 10.2062 15.5956 9.98885 15.5364 9.77975H13.2486C13.2873 10.0086 13.3153 10.2329 13.3327 10.4526C13.35 10.6723 13.3587 10.8939 13.3587 11.1172C13.3587 11.3405 13.35 11.562 13.3327 11.7817C13.3153 12.0015 13.2873 12.2258 13.2486 12.4546ZM13.0616 8.85662H15.1494C14.8204 8.20961 14.3874 7.67267 13.8505 7.2458C13.3135 6.81895 12.6928 6.52701 11.9882 6.36999C12.2241 6.72821 12.434 7.11996 12.6178 7.54525C12.8016 7.97054 12.9496 8.40766 13.0616 8.85662ZM9.47908 8.85662H12.1136C11.9708 8.34218 11.7911 7.86817 11.5745 7.43459C11.358 7.00102 11.0986 6.59172 10.7964 6.20667C10.4942 6.59172 10.2348 7.00102 10.0182 7.43459C9.80159 7.86817 9.62189 8.34218 9.47908 8.85662ZM6.4433 8.85662H8.53108C8.64312 8.40766 8.79107 7.97054 8.97492 7.54525C9.15876 7.11996 9.36864 6.72821 9.60456 6.36999C8.89602 6.52701 8.27426 6.81994 7.73929 7.24878C7.20433 7.67761 6.77233 8.21356 6.4433 8.85662Z" fill="#666666"/>
</svg>
