<svg width="17" height="19" viewBox="0 0 17 19" fill="none" xmlns="http://www.w3.org/2000/svg">
<path d="M15.1111 18.5822H1.88889C0.845684 18.5822 0 17.7787 0 16.7874V4.22425C0 3.23304 0.845684 2.42951 1.88889 2.42951H3.77778V0.634766H5.66667V2.42951H11.3333V0.634766H13.2222V2.42951H15.1111C16.1543 2.42951 17 3.23304 17 4.22425V16.7874C17 17.7787 16.1543 18.5822 15.1111 18.5822ZM1.88889 7.81373V16.7874H15.1111V7.81373H1.88889ZM1.88889 4.22425V6.01899H15.1111V4.22425H1.88889ZM13.2222 14.9927H11.3333V13.198H13.2222V14.9927ZM9.44444 14.9927H7.55556V13.198H9.44444V14.9927ZM5.66667 14.9927H3.77778V13.198H5.66667V14.9927ZM13.2222 11.4032H11.3333V9.60848H13.2222V11.4032ZM9.44444 11.4032H7.55556V9.60848H9.44444V11.4032ZM5.66667 11.4032H3.77778V9.60848H5.66667V11.4032Z" fill="black"/>
</svg>
