<svg width="18" height="19" viewBox="0 0 18 19" fill="none" xmlns="http://www.w3.org/2000/svg">
<path d="M15.474 18.0547H2.2675C1.22554 18.0547 0.380859 17.2588 0.380859 16.277V3.8334C0.380859 2.85163 1.22554 2.05574 2.2675 2.05574H4.15415V0.278076H6.0408V2.05574H11.7007V0.278076H13.5874V2.05574H15.474C16.516 2.05574 17.3607 2.85163 17.3607 3.8334V16.277C17.3607 17.2588 16.516 18.0547 15.474 18.0547ZM2.2675 7.38873V16.277H15.474V7.38873H2.2675ZM2.2675 3.8334V5.61106H15.474V3.8334H2.2675ZM13.5874 14.4994H11.7007V12.7217H13.5874V14.4994ZM9.81409 14.4994H7.92744V12.7217H9.81409V14.4994ZM6.0408 14.4994H4.15415V12.7217H6.0408V14.4994ZM13.5874 10.9441H11.7007V9.16639H13.5874V10.9441ZM9.81409 10.9441H7.92744V9.16639H9.81409V10.9441ZM6.0408 10.9441H4.15415V9.16639H6.0408V10.9441Z" fill="#7A7A7A"/>
</svg>
