<svg width="874" height="705" viewBox="0 0 874 705" fill="none" xmlns="http://www.w3.org/2000/svg">
<rect y="16.791" width="23.7461" height="23.7461" transform="rotate(-45 0 16.791)" fill="#EFEEED"/>
<rect x="33.582" y="16.791" width="23.7461" height="23.7461" transform="rotate(-45 33.582 16.791)" fill="#EFEEED"/>
<rect x="67.1641" y="16.791" width="23.7461" height="23.7461" transform="rotate(-45 67.1641 16.791)" fill="#EFEEED"/>
<rect x="100.746" y="16.791" width="23.7461" height="23.7461" transform="rotate(-45 100.746 16.791)" fill="#EFEEED"/>
<rect x="134.328" y="16.791" width="23.7461" height="23.7461" transform="rotate(-45 134.328 16.791)" fill="#EFEEED"/>
<rect x="167.91" y="16.791" width="23.7461" height="23.7461" transform="rotate(-45 167.91 16.791)" fill="#EFEEED"/>
<rect x="201.492" y="16.791" width="23.7461" height="23.7461" transform="rotate(-45 201.492 16.791)" fill="#EFEEED"/>
<rect x="235.074" y="16.791" width="23.7461" height="23.7461" transform="rotate(-45 235.074 16.791)" fill="#EFEEED"/>
<rect x="268.656" y="16.791" width="23.7461" height="23.7461" transform="rotate(-45 268.656 16.791)" fill="#EFEEED"/>
<rect x="302.238" y="16.791" width="23.7461" height="23.7461" transform="rotate(-45 302.238 16.791)" fill="#EFEEED"/>
<rect x="335.82" y="16.791" width="23.7461" height="23.7461" transform="rotate(-45 335.82 16.791)" fill="#EFEEED"/>
<rect x="369.402" y="16.791" width="23.7461" height="23.7461" transform="rotate(-45 369.402 16.791)" fill="#EFEEED"/>
<rect x="402.984" y="16.791" width="23.7461" height="23.7461" transform="rotate(-45 402.984 16.791)" fill="#EFEEED"/>
<rect x="436.566" y="16.791" width="23.7461" height="23.7461" transform="rotate(-45 436.566 16.791)" fill="#EFEEED"/>
<rect x="470.148" y="16.791" width="23.7461" height="23.7461" transform="rotate(-45 470.148 16.791)" fill="#EFEEED"/>
<rect x="503.73" y="16.791" width="23.7461" height="23.7461" transform="rotate(-45 503.73 16.791)" fill="#EFEEED"/>
<rect x="537.312" y="16.791" width="23.7461" height="23.7461" transform="rotate(-45 537.312 16.791)" fill="#EFEEED"/>
<rect x="570.895" y="16.791" width="23.7461" height="23.7461" transform="rotate(-45 570.895 16.791)" fill="#EFEEED"/>
<rect x="604.477" y="16.791" width="23.7461" height="23.7461" transform="rotate(-45 604.477 16.791)" fill="#EFEEED"/>
<rect x="638.059" y="16.791" width="23.7461" height="23.7461" transform="rotate(-45 638.059 16.791)" fill="#EFEEED"/>
<rect x="671.641" y="16.791" width="23.7461" height="23.7461" transform="rotate(-45 671.641 16.791)" fill="#EFEEED"/>
<rect x="705.223" y="16.791" width="23.7461" height="23.7461" transform="rotate(-45 705.223 16.791)" fill="#EFEEED"/>
<rect x="738.805" y="16.791" width="23.7461" height="23.7461" transform="rotate(-45 738.805 16.791)" fill="#EFEEED"/>
<rect x="772.387" y="16.791" width="23.7461" height="23.7461" transform="rotate(-45 772.387 16.791)" fill="#EFEEED"/>
<rect x="805.969" y="16.791" width="23.7461" height="23.7461" transform="rotate(-45 805.969 16.791)" fill="#EFEEED"/>
<rect x="839.551" y="16.791" width="23.7461" height="23.7461" transform="rotate(-45 839.551 16.791)" fill="#EFEEED"/>
<rect y="50.373" width="23.7461" height="23.7461" transform="rotate(-45 0 50.373)" fill="#EFEEED"/>
<rect x="33.582" y="50.373" width="23.7461" height="23.7461" transform="rotate(-45 33.582 50.373)" fill="#EFEEED"/>
<rect x="67.1641" y="50.373" width="23.7461" height="23.7461" transform="rotate(-45 67.1641 50.373)" fill="#EFEEED"/>
<rect x="100.746" y="50.373" width="23.7461" height="23.7461" transform="rotate(-45 100.746 50.373)" fill="#EFEEED"/>
<rect x="134.328" y="50.373" width="23.7461" height="23.7461" transform="rotate(-45 134.328 50.373)" fill="#EFEEED"/>
<rect x="167.91" y="50.373" width="23.7461" height="23.7461" transform="rotate(-45 167.91 50.373)" fill="#EFEEED"/>
<rect x="201.492" y="50.373" width="23.7461" height="23.7461" transform="rotate(-45 201.492 50.373)" fill="#EFEEED"/>
<rect x="235.074" y="50.373" width="23.7461" height="23.7461" transform="rotate(-45 235.074 50.373)" fill="#EFEEED"/>
<rect x="268.656" y="50.373" width="23.7461" height="23.7461" transform="rotate(-45 268.656 50.373)" fill="#EFEEED"/>
<rect x="302.238" y="50.373" width="23.7461" height="23.7461" transform="rotate(-45 302.238 50.373)" fill="#EFEEED"/>
<rect x="335.82" y="50.373" width="23.7461" height="23.7461" transform="rotate(-45 335.82 50.373)" fill="#EFEEED"/>
<rect x="369.402" y="50.373" width="23.7461" height="23.7461" transform="rotate(-45 369.402 50.373)" fill="#EFEEED"/>
<rect x="402.984" y="50.373" width="23.7461" height="23.7461" transform="rotate(-45 402.984 50.373)" fill="#EFEEED"/>
<rect x="436.566" y="50.373" width="23.7461" height="23.7461" transform="rotate(-45 436.566 50.373)" fill="#EFEEED"/>
<rect x="470.148" y="50.373" width="23.7461" height="23.7461" transform="rotate(-45 470.148 50.373)" fill="#EFEEED"/>
<rect x="503.73" y="50.373" width="23.7461" height="23.7461" transform="rotate(-45 503.73 50.373)" fill="#EFEEED"/>
<rect x="537.312" y="50.373" width="23.7461" height="23.7461" transform="rotate(-45 537.312 50.373)" fill="#EFEEED"/>
<rect x="570.895" y="50.373" width="23.7461" height="23.7461" transform="rotate(-45 570.895 50.373)" fill="#EFEEED"/>
<rect x="604.477" y="50.373" width="23.7461" height="23.7461" transform="rotate(-45 604.477 50.373)" fill="#EFEEED"/>
<rect x="638.059" y="50.373" width="23.7461" height="23.7461" transform="rotate(-45 638.059 50.373)" fill="#EFEEED"/>
<rect x="671.641" y="50.373" width="23.7461" height="23.7461" transform="rotate(-45 671.641 50.373)" fill="#EFEEED"/>
<rect x="705.223" y="50.373" width="23.7461" height="23.7461" transform="rotate(-45 705.223 50.373)" fill="#EFEEED"/>
<rect x="738.805" y="50.373" width="23.7461" height="23.7461" transform="rotate(-45 738.805 50.373)" fill="#EFEEED"/>
<rect x="772.387" y="50.373" width="23.7461" height="23.7461" transform="rotate(-45 772.387 50.373)" fill="#EFEEED"/>
<rect x="805.969" y="50.373" width="23.7461" height="23.7461" transform="rotate(-45 805.969 50.373)" fill="#EFEEED"/>
<rect x="839.551" y="50.373" width="23.7461" height="23.7461" transform="rotate(-45 839.551 50.373)" fill="#EFEEED"/>
<rect y="83.9551" width="23.7461" height="23.7461" transform="rotate(-45 0 83.9551)" fill="#EFEEED"/>
<rect x="33.582" y="83.9551" width="23.7461" height="23.7461" transform="rotate(-45 33.582 83.9551)" fill="#EFEEED"/>
<rect x="67.1641" y="83.9551" width="23.7461" height="23.7461" transform="rotate(-45 67.1641 83.9551)" fill="#EFEEED"/>
<rect x="100.746" y="83.9551" width="23.7461" height="23.7461" transform="rotate(-45 100.746 83.9551)" fill="#EFEEED"/>
<rect x="134.328" y="83.9551" width="23.7461" height="23.7461" transform="rotate(-45 134.328 83.9551)" fill="#EFEEED"/>
<rect x="167.91" y="83.9551" width="23.7461" height="23.7461" transform="rotate(-45 167.91 83.9551)" fill="#EFEEED"/>
<rect x="201.492" y="83.9551" width="23.7461" height="23.7461" transform="rotate(-45 201.492 83.9551)" fill="#EFEEED"/>
<rect x="235.074" y="83.9551" width="23.7461" height="23.7461" transform="rotate(-45 235.074 83.9551)" fill="#EFEEED"/>
<rect x="268.656" y="83.9551" width="23.7461" height="23.7461" transform="rotate(-45 268.656 83.9551)" fill="#EFEEED"/>
<rect x="302.238" y="83.9551" width="23.7461" height="23.7461" transform="rotate(-45 302.238 83.9551)" fill="#EFEEED"/>
<rect x="335.82" y="83.9551" width="23.7461" height="23.7461" transform="rotate(-45 335.82 83.9551)" fill="#EFEEED"/>
<rect x="369.402" y="83.9551" width="23.7461" height="23.7461" transform="rotate(-45 369.402 83.9551)" fill="#EFEEED"/>
<rect x="402.984" y="83.9551" width="23.7461" height="23.7461" transform="rotate(-45 402.984 83.9551)" fill="#EFEEED"/>
<rect x="436.566" y="83.9551" width="23.7461" height="23.7461" transform="rotate(-45 436.566 83.9551)" fill="#EFEEED"/>
<rect x="470.148" y="83.9551" width="23.7461" height="23.7461" transform="rotate(-45 470.148 83.9551)" fill="#EFEEED"/>
<rect x="503.73" y="83.9551" width="23.7461" height="23.7461" transform="rotate(-45 503.73 83.9551)" fill="#EFEEED"/>
<rect x="537.312" y="83.9551" width="23.7461" height="23.7461" transform="rotate(-45 537.312 83.9551)" fill="#EFEEED"/>
<rect x="570.895" y="83.9551" width="23.7461" height="23.7461" transform="rotate(-45 570.895 83.9551)" fill="#EFEEED"/>
<rect x="604.477" y="83.9551" width="23.7461" height="23.7461" transform="rotate(-45 604.477 83.9551)" fill="#EFEEED"/>
<rect x="638.059" y="83.9551" width="23.7461" height="23.7461" transform="rotate(-45 638.059 83.9551)" fill="#EFEEED"/>
<rect x="671.641" y="83.9551" width="23.7461" height="23.7461" transform="rotate(-45 671.641 83.9551)" fill="#EFEEED"/>
<rect x="705.223" y="83.9551" width="23.7461" height="23.7461" transform="rotate(-45 705.223 83.9551)" fill="#EFEEED"/>
<rect x="738.805" y="83.9551" width="23.7461" height="23.7461" transform="rotate(-45 738.805 83.9551)" fill="#EFEEED"/>
<rect x="772.387" y="83.9551" width="23.7461" height="23.7461" transform="rotate(-45 772.387 83.9551)" fill="#EFEEED"/>
<rect x="805.969" y="83.9551" width="23.7461" height="23.7461" transform="rotate(-45 805.969 83.9551)" fill="#EFEEED"/>
<rect x="839.551" y="83.9551" width="23.7461" height="23.7461" transform="rotate(-45 839.551 83.9551)" fill="#EFEEED"/>
<rect y="117.537" width="23.7461" height="23.7461" transform="rotate(-45 0 117.537)" fill="#EFEEED"/>
<rect x="33.582" y="117.537" width="23.7461" height="23.7461" transform="rotate(-45 33.582 117.537)" fill="#EFEEED"/>
<rect x="67.1641" y="117.537" width="23.7461" height="23.7461" transform="rotate(-45 67.1641 117.537)" fill="#EFEEED"/>
<rect x="100.746" y="117.537" width="23.7461" height="23.7461" transform="rotate(-45 100.746 117.537)" fill="#EFEEED"/>
<rect x="134.328" y="117.537" width="23.7461" height="23.7461" transform="rotate(-45 134.328 117.537)" fill="#EFEEED"/>
<rect x="167.91" y="117.537" width="23.7461" height="23.7461" transform="rotate(-45 167.91 117.537)" fill="#EFEEED"/>
<rect x="201.492" y="117.537" width="23.7461" height="23.7461" transform="rotate(-45 201.492 117.537)" fill="#EFEEED"/>
<rect x="235.074" y="117.537" width="23.7461" height="23.7461" transform="rotate(-45 235.074 117.537)" fill="#EFEEED"/>
<rect x="268.656" y="117.537" width="23.7461" height="23.7461" transform="rotate(-45 268.656 117.537)" fill="#EFEEED"/>
<rect x="302.238" y="117.537" width="23.7461" height="23.7461" transform="rotate(-45 302.238 117.537)" fill="#EFEEED"/>
<rect x="335.82" y="117.537" width="23.7461" height="23.7461" transform="rotate(-45 335.82 117.537)" fill="#EFEEED"/>
<rect x="369.402" y="117.537" width="23.7461" height="23.7461" transform="rotate(-45 369.402 117.537)" fill="#EFEEED"/>
<rect x="402.984" y="117.537" width="23.7461" height="23.7461" transform="rotate(-45 402.984 117.537)" fill="#EFEEED"/>
<rect x="436.566" y="117.537" width="23.7461" height="23.7461" transform="rotate(-45 436.566 117.537)" fill="#EFEEED"/>
<rect x="470.148" y="117.537" width="23.7461" height="23.7461" transform="rotate(-45 470.148 117.537)" fill="#EFEEED"/>
<rect x="503.73" y="117.537" width="23.7461" height="23.7461" transform="rotate(-45 503.73 117.537)" fill="#EFEEED"/>
<rect x="537.312" y="117.537" width="23.7461" height="23.7461" transform="rotate(-45 537.312 117.537)" fill="#EFEEED"/>
<rect x="570.895" y="117.537" width="23.7461" height="23.7461" transform="rotate(-45 570.895 117.537)" fill="#EFEEED"/>
<rect x="604.477" y="117.537" width="23.7461" height="23.7461" transform="rotate(-45 604.477 117.537)" fill="#EFEEED"/>
<rect x="638.059" y="117.537" width="23.7461" height="23.7461" transform="rotate(-45 638.059 117.537)" fill="#EFEEED"/>
<rect x="671.641" y="117.537" width="23.7461" height="23.7461" transform="rotate(-45 671.641 117.537)" fill="#EFEEED"/>
<rect x="705.223" y="117.537" width="23.7461" height="23.7461" transform="rotate(-45 705.223 117.537)" fill="#EFEEED"/>
<rect x="738.805" y="117.537" width="23.7461" height="23.7461" transform="rotate(-45 738.805 117.537)" fill="#EFEEED"/>
<rect x="772.387" y="117.537" width="23.7461" height="23.7461" transform="rotate(-45 772.387 117.537)" fill="#EFEEED"/>
<rect x="805.969" y="117.537" width="23.7461" height="23.7461" transform="rotate(-45 805.969 117.537)" fill="#EFEEED"/>
<rect x="839.551" y="117.537" width="23.7461" height="23.7461" transform="rotate(-45 839.551 117.537)" fill="#EFEEED"/>
<rect y="151.119" width="23.7461" height="23.7461" transform="rotate(-45 0 151.119)" fill="#EFEEED"/>
<rect x="33.582" y="151.119" width="23.7461" height="23.7461" transform="rotate(-45 33.582 151.119)" fill="#EFEEED"/>
<rect x="67.1641" y="151.119" width="23.7461" height="23.7461" transform="rotate(-45 67.1641 151.119)" fill="#EFEEED"/>
<rect x="100.746" y="151.119" width="23.7461" height="23.7461" transform="rotate(-45 100.746 151.119)" fill="#EFEEED"/>
<rect x="134.328" y="151.119" width="23.7461" height="23.7461" transform="rotate(-45 134.328 151.119)" fill="#EFEEED"/>
<rect x="167.91" y="151.119" width="23.7461" height="23.7461" transform="rotate(-45 167.91 151.119)" fill="#EFEEED"/>
<rect x="201.492" y="151.119" width="23.7461" height="23.7461" transform="rotate(-45 201.492 151.119)" fill="#EFEEED"/>
<rect x="235.074" y="151.119" width="23.7461" height="23.7461" transform="rotate(-45 235.074 151.119)" fill="#EFEEED"/>
<rect x="268.656" y="151.119" width="23.7461" height="23.7461" transform="rotate(-45 268.656 151.119)" fill="#EFEEED"/>
<rect x="302.238" y="151.119" width="23.7461" height="23.7461" transform="rotate(-45 302.238 151.119)" fill="#EFEEED"/>
<rect x="335.82" y="151.119" width="23.7461" height="23.7461" transform="rotate(-45 335.82 151.119)" fill="#EFEEED"/>
<rect x="369.402" y="151.119" width="23.7461" height="23.7461" transform="rotate(-45 369.402 151.119)" fill="#EFEEED"/>
<rect x="402.984" y="151.119" width="23.7461" height="23.7461" transform="rotate(-45 402.984 151.119)" fill="#EFEEED"/>
<rect x="436.566" y="151.119" width="23.7461" height="23.7461" transform="rotate(-45 436.566 151.119)" fill="#EFEEED"/>
<rect x="470.148" y="151.119" width="23.7461" height="23.7461" transform="rotate(-45 470.148 151.119)" fill="#EFEEED"/>
<rect x="503.73" y="151.119" width="23.7461" height="23.7461" transform="rotate(-45 503.73 151.119)" fill="#EFEEED"/>
<rect x="537.312" y="151.119" width="23.7461" height="23.7461" transform="rotate(-45 537.312 151.119)" fill="#EFEEED"/>
<rect x="570.895" y="151.119" width="23.7461" height="23.7461" transform="rotate(-45 570.895 151.119)" fill="#EFEEED"/>
<rect x="604.477" y="151.119" width="23.7461" height="23.7461" transform="rotate(-45 604.477 151.119)" fill="#EFEEED"/>
<rect x="638.059" y="151.119" width="23.7461" height="23.7461" transform="rotate(-45 638.059 151.119)" fill="#EFEEED"/>
<rect x="671.641" y="151.119" width="23.7461" height="23.7461" transform="rotate(-45 671.641 151.119)" fill="#EFEEED"/>
<rect x="705.223" y="151.119" width="23.7461" height="23.7461" transform="rotate(-45 705.223 151.119)" fill="#EFEEED"/>
<rect x="738.805" y="151.119" width="23.7461" height="23.7461" transform="rotate(-45 738.805 151.119)" fill="#EFEEED"/>
<rect x="772.387" y="151.119" width="23.7461" height="23.7461" transform="rotate(-45 772.387 151.119)" fill="#EFEEED"/>
<rect x="805.969" y="151.119" width="23.7461" height="23.7461" transform="rotate(-45 805.969 151.119)" fill="#EFEEED"/>
<rect x="839.551" y="151.119" width="23.7461" height="23.7461" transform="rotate(-45 839.551 151.119)" fill="#EFEEED"/>
<rect y="184.701" width="23.7461" height="23.7461" transform="rotate(-45 0 184.701)" fill="#EFEEED"/>
<rect x="33.582" y="184.701" width="23.7461" height="23.7461" transform="rotate(-45 33.582 184.701)" fill="#EFEEED"/>
<rect x="67.1641" y="184.701" width="23.7461" height="23.7461" transform="rotate(-45 67.1641 184.701)" fill="#EFEEED"/>
<rect x="100.746" y="184.701" width="23.7461" height="23.7461" transform="rotate(-45 100.746 184.701)" fill="#EFEEED"/>
<rect x="134.328" y="184.701" width="23.7461" height="23.7461" transform="rotate(-45 134.328 184.701)" fill="#EFEEED"/>
<rect x="167.91" y="184.701" width="23.7461" height="23.7461" transform="rotate(-45 167.91 184.701)" fill="#EFEEED"/>
<rect x="201.492" y="184.701" width="23.7461" height="23.7461" transform="rotate(-45 201.492 184.701)" fill="#EFEEED"/>
<rect x="235.074" y="184.701" width="23.7461" height="23.7461" transform="rotate(-45 235.074 184.701)" fill="#EFEEED"/>
<rect x="268.656" y="184.701" width="23.7461" height="23.7461" transform="rotate(-45 268.656 184.701)" fill="#EFEEED"/>
<rect x="302.238" y="184.701" width="23.7461" height="23.7461" transform="rotate(-45 302.238 184.701)" fill="#EFEEED"/>
<rect x="335.82" y="184.701" width="23.7461" height="23.7461" transform="rotate(-45 335.82 184.701)" fill="#EFEEED"/>
<rect x="369.402" y="184.701" width="23.7461" height="23.7461" transform="rotate(-45 369.402 184.701)" fill="#EFEEED"/>
<rect x="402.984" y="184.701" width="23.7461" height="23.7461" transform="rotate(-45 402.984 184.701)" fill="#EFEEED"/>
<rect x="436.566" y="184.701" width="23.7461" height="23.7461" transform="rotate(-45 436.566 184.701)" fill="#EFEEED"/>
<rect x="470.148" y="184.701" width="23.7461" height="23.7461" transform="rotate(-45 470.148 184.701)" fill="#EFEEED"/>
<rect x="503.73" y="184.701" width="23.7461" height="23.7461" transform="rotate(-45 503.73 184.701)" fill="#EFEEED"/>
<rect x="537.312" y="184.701" width="23.7461" height="23.7461" transform="rotate(-45 537.312 184.701)" fill="#EFEEED"/>
<rect x="570.895" y="184.701" width="23.7461" height="23.7461" transform="rotate(-45 570.895 184.701)" fill="#EFEEED"/>
<rect x="604.477" y="184.701" width="23.7461" height="23.7461" transform="rotate(-45 604.477 184.701)" fill="#EFEEED"/>
<rect x="638.059" y="184.701" width="23.7461" height="23.7461" transform="rotate(-45 638.059 184.701)" fill="#EFEEED"/>
<rect x="671.641" y="184.701" width="23.7461" height="23.7461" transform="rotate(-45 671.641 184.701)" fill="#EFEEED"/>
<rect x="705.223" y="184.701" width="23.7461" height="23.7461" transform="rotate(-45 705.223 184.701)" fill="#EFEEED"/>
<rect x="738.805" y="184.701" width="23.7461" height="23.7461" transform="rotate(-45 738.805 184.701)" fill="#EFEEED"/>
<rect x="772.387" y="184.701" width="23.7461" height="23.7461" transform="rotate(-45 772.387 184.701)" fill="#EFEEED"/>
<rect x="805.969" y="184.701" width="23.7461" height="23.7461" transform="rotate(-45 805.969 184.701)" fill="#EFEEED"/>
<rect x="839.551" y="184.701" width="23.7461" height="23.7461" transform="rotate(-45 839.551 184.701)" fill="#EFEEED"/>
<rect y="218.283" width="23.7461" height="23.7461" transform="rotate(-45 0 218.283)" fill="#EFEEED"/>
<rect x="33.582" y="218.283" width="23.7461" height="23.7461" transform="rotate(-45 33.582 218.283)" fill="#EFEEED"/>
<rect x="67.1641" y="218.283" width="23.7461" height="23.7461" transform="rotate(-45 67.1641 218.283)" fill="#EFEEED"/>
<rect x="100.746" y="218.283" width="23.7461" height="23.7461" transform="rotate(-45 100.746 218.283)" fill="#EFEEED"/>
<rect x="134.328" y="218.283" width="23.7461" height="23.7461" transform="rotate(-45 134.328 218.283)" fill="#EFEEED"/>
<rect x="167.91" y="218.283" width="23.7461" height="23.7461" transform="rotate(-45 167.91 218.283)" fill="#EFEEED"/>
<rect x="201.492" y="218.283" width="23.7461" height="23.7461" transform="rotate(-45 201.492 218.283)" fill="#EFEEED"/>
<rect x="235.074" y="218.283" width="23.7461" height="23.7461" transform="rotate(-45 235.074 218.283)" fill="#EFEEED"/>
<rect x="268.656" y="218.283" width="23.7461" height="23.7461" transform="rotate(-45 268.656 218.283)" fill="#EFEEED"/>
<rect x="302.238" y="218.283" width="23.7461" height="23.7461" transform="rotate(-45 302.238 218.283)" fill="#EFEEED"/>
<rect x="335.82" y="218.283" width="23.7461" height="23.7461" transform="rotate(-45 335.82 218.283)" fill="#EFEEED"/>
<rect x="369.402" y="218.283" width="23.7461" height="23.7461" transform="rotate(-45 369.402 218.283)" fill="#EFEEED"/>
<rect x="402.984" y="218.283" width="23.7461" height="23.7461" transform="rotate(-45 402.984 218.283)" fill="#EFEEED"/>
<rect x="436.566" y="218.283" width="23.7461" height="23.7461" transform="rotate(-45 436.566 218.283)" fill="#EFEEED"/>
<rect x="470.148" y="218.283" width="23.7461" height="23.7461" transform="rotate(-45 470.148 218.283)" fill="#EFEEED"/>
<rect x="503.73" y="218.283" width="23.7461" height="23.7461" transform="rotate(-45 503.73 218.283)" fill="#EFEEED"/>
<rect x="537.312" y="218.283" width="23.7461" height="23.7461" transform="rotate(-45 537.312 218.283)" fill="#EFEEED"/>
<rect x="570.895" y="218.283" width="23.7461" height="23.7461" transform="rotate(-45 570.895 218.283)" fill="#EFEEED"/>
<rect x="604.477" y="218.283" width="23.7461" height="23.7461" transform="rotate(-45 604.477 218.283)" fill="#EFEEED"/>
<rect x="638.059" y="218.283" width="23.7461" height="23.7461" transform="rotate(-45 638.059 218.283)" fill="#EFEEED"/>
<rect x="671.641" y="218.283" width="23.7461" height="23.7461" transform="rotate(-45 671.641 218.283)" fill="#EFEEED"/>
<rect x="705.223" y="218.283" width="23.7461" height="23.7461" transform="rotate(-45 705.223 218.283)" fill="#EFEEED"/>
<rect x="738.805" y="218.283" width="23.7461" height="23.7461" transform="rotate(-45 738.805 218.283)" fill="#EFEEED"/>
<rect x="772.387" y="218.283" width="23.7461" height="23.7461" transform="rotate(-45 772.387 218.283)" fill="#EFEEED"/>
<rect x="805.969" y="218.283" width="23.7461" height="23.7461" transform="rotate(-45 805.969 218.283)" fill="#EFEEED"/>
<rect x="839.551" y="218.283" width="23.7461" height="23.7461" transform="rotate(-45 839.551 218.283)" fill="#EFEEED"/>
<rect y="251.865" width="23.7461" height="23.7461" transform="rotate(-45 0 251.865)" fill="#EFEEED"/>
<rect x="33.582" y="251.865" width="23.7461" height="23.7461" transform="rotate(-45 33.582 251.865)" fill="#EFEEED"/>
<rect x="67.1641" y="251.865" width="23.7461" height="23.7461" transform="rotate(-45 67.1641 251.865)" fill="#EFEEED"/>
<rect x="100.746" y="251.865" width="23.7461" height="23.7461" transform="rotate(-45 100.746 251.865)" fill="#EFEEED"/>
<rect x="134.328" y="251.865" width="23.7461" height="23.7461" transform="rotate(-45 134.328 251.865)" fill="#EFEEED"/>
<rect x="167.91" y="251.865" width="23.7461" height="23.7461" transform="rotate(-45 167.91 251.865)" fill="#EFEEED"/>
<rect x="201.492" y="251.865" width="23.7461" height="23.7461" transform="rotate(-45 201.492 251.865)" fill="#EFEEED"/>
<rect x="235.074" y="251.865" width="23.7461" height="23.7461" transform="rotate(-45 235.074 251.865)" fill="#EFEEED"/>
<rect x="268.656" y="251.865" width="23.7461" height="23.7461" transform="rotate(-45 268.656 251.865)" fill="#EFEEED"/>
<rect x="302.238" y="251.865" width="23.7461" height="23.7461" transform="rotate(-45 302.238 251.865)" fill="#EFEEED"/>
<rect x="335.82" y="251.865" width="23.7461" height="23.7461" transform="rotate(-45 335.82 251.865)" fill="#EFEEED"/>
<rect x="369.402" y="251.865" width="23.7461" height="23.7461" transform="rotate(-45 369.402 251.865)" fill="#EFEEED"/>
<rect x="402.984" y="251.865" width="23.7461" height="23.7461" transform="rotate(-45 402.984 251.865)" fill="#EFEEED"/>
<rect x="436.566" y="251.865" width="23.7461" height="23.7461" transform="rotate(-45 436.566 251.865)" fill="#EFEEED"/>
<rect x="470.148" y="251.865" width="23.7461" height="23.7461" transform="rotate(-45 470.148 251.865)" fill="#EFEEED"/>
<rect x="503.73" y="251.865" width="23.7461" height="23.7461" transform="rotate(-45 503.73 251.865)" fill="#EFEEED"/>
<rect x="537.312" y="251.865" width="23.7461" height="23.7461" transform="rotate(-45 537.312 251.865)" fill="#EFEEED"/>
<rect x="570.895" y="251.865" width="23.7461" height="23.7461" transform="rotate(-45 570.895 251.865)" fill="#EFEEED"/>
<rect x="604.477" y="251.865" width="23.7461" height="23.7461" transform="rotate(-45 604.477 251.865)" fill="#EFEEED"/>
<rect x="638.059" y="251.865" width="23.7461" height="23.7461" transform="rotate(-45 638.059 251.865)" fill="#EFEEED"/>
<rect x="671.641" y="251.865" width="23.7461" height="23.7461" transform="rotate(-45 671.641 251.865)" fill="#EFEEED"/>
<rect x="705.223" y="251.865" width="23.7461" height="23.7461" transform="rotate(-45 705.223 251.865)" fill="#EFEEED"/>
<rect x="738.805" y="251.865" width="23.7461" height="23.7461" transform="rotate(-45 738.805 251.865)" fill="#EFEEED"/>
<rect x="772.387" y="251.865" width="23.7461" height="23.7461" transform="rotate(-45 772.387 251.865)" fill="#EFEEED"/>
<rect x="805.969" y="251.865" width="23.7461" height="23.7461" transform="rotate(-45 805.969 251.865)" fill="#EFEEED"/>
<rect x="839.551" y="251.865" width="23.7461" height="23.7461" transform="rotate(-45 839.551 251.865)" fill="#EFEEED"/>
<rect y="285.447" width="23.7461" height="23.7461" transform="rotate(-45 0 285.447)" fill="#EFEEED"/>
<rect x="33.582" y="285.447" width="23.7461" height="23.7461" transform="rotate(-45 33.582 285.447)" fill="#EFEEED"/>
<rect x="67.1641" y="285.447" width="23.7461" height="23.7461" transform="rotate(-45 67.1641 285.447)" fill="#EFEEED"/>
<rect x="100.746" y="285.447" width="23.7461" height="23.7461" transform="rotate(-45 100.746 285.447)" fill="#EFEEED"/>
<rect x="134.328" y="285.447" width="23.7461" height="23.7461" transform="rotate(-45 134.328 285.447)" fill="#EFEEED"/>
<rect x="167.91" y="285.447" width="23.7461" height="23.7461" transform="rotate(-45 167.91 285.447)" fill="#EFEEED"/>
<rect x="201.492" y="285.447" width="23.7461" height="23.7461" transform="rotate(-45 201.492 285.447)" fill="#EFEEED"/>
<rect x="235.074" y="285.447" width="23.7461" height="23.7461" transform="rotate(-45 235.074 285.447)" fill="#EFEEED"/>
<rect x="268.656" y="285.447" width="23.7461" height="23.7461" transform="rotate(-45 268.656 285.447)" fill="#EFEEED"/>
<rect x="302.238" y="285.447" width="23.7461" height="23.7461" transform="rotate(-45 302.238 285.447)" fill="#EFEEED"/>
<rect x="335.82" y="285.447" width="23.7461" height="23.7461" transform="rotate(-45 335.82 285.447)" fill="#EFEEED"/>
<rect x="369.402" y="285.447" width="23.7461" height="23.7461" transform="rotate(-45 369.402 285.447)" fill="#EFEEED"/>
<rect x="402.984" y="285.447" width="23.7461" height="23.7461" transform="rotate(-45 402.984 285.447)" fill="#EFEEED"/>
<rect x="436.566" y="285.447" width="23.7461" height="23.7461" transform="rotate(-45 436.566 285.447)" fill="#EFEEED"/>
<rect x="470.148" y="285.447" width="23.7461" height="23.7461" transform="rotate(-45 470.148 285.447)" fill="#EFEEED"/>
<rect x="503.73" y="285.447" width="23.7461" height="23.7461" transform="rotate(-45 503.73 285.447)" fill="#EFEEED"/>
<rect x="537.312" y="285.447" width="23.7461" height="23.7461" transform="rotate(-45 537.312 285.447)" fill="#EFEEED"/>
<rect x="570.895" y="285.447" width="23.7461" height="23.7461" transform="rotate(-45 570.895 285.447)" fill="#EFEEED"/>
<rect x="604.477" y="285.447" width="23.7461" height="23.7461" transform="rotate(-45 604.477 285.447)" fill="#EFEEED"/>
<rect x="638.059" y="285.447" width="23.7461" height="23.7461" transform="rotate(-45 638.059 285.447)" fill="#EFEEED"/>
<rect x="671.641" y="285.447" width="23.7461" height="23.7461" transform="rotate(-45 671.641 285.447)" fill="#EFEEED"/>
<rect x="705.223" y="285.447" width="23.7461" height="23.7461" transform="rotate(-45 705.223 285.447)" fill="#EFEEED"/>
<rect x="738.805" y="285.447" width="23.7461" height="23.7461" transform="rotate(-45 738.805 285.447)" fill="#EFEEED"/>
<rect x="772.387" y="285.447" width="23.7461" height="23.7461" transform="rotate(-45 772.387 285.447)" fill="#EFEEED"/>
<rect x="805.969" y="285.447" width="23.7461" height="23.7461" transform="rotate(-45 805.969 285.447)" fill="#EFEEED"/>
<rect x="839.551" y="285.447" width="23.7461" height="23.7461" transform="rotate(-45 839.551 285.447)" fill="#EFEEED"/>
<rect y="319.029" width="23.7461" height="23.7461" transform="rotate(-45 0 319.029)" fill="#EFEEED"/>
<rect x="33.582" y="319.029" width="23.7461" height="23.7461" transform="rotate(-45 33.582 319.029)" fill="#EFEEED"/>
<rect x="67.1641" y="319.029" width="23.7461" height="23.7461" transform="rotate(-45 67.1641 319.029)" fill="#EFEEED"/>
<rect x="100.746" y="319.029" width="23.7461" height="23.7461" transform="rotate(-45 100.746 319.029)" fill="#EFEEED"/>
<rect x="134.328" y="319.029" width="23.7461" height="23.7461" transform="rotate(-45 134.328 319.029)" fill="#EFEEED"/>
<rect x="167.91" y="319.029" width="23.7461" height="23.7461" transform="rotate(-45 167.91 319.029)" fill="#EFEEED"/>
<rect x="201.492" y="319.029" width="23.7461" height="23.7461" transform="rotate(-45 201.492 319.029)" fill="#EFEEED"/>
<rect x="235.074" y="319.029" width="23.7461" height="23.7461" transform="rotate(-45 235.074 319.029)" fill="#EFEEED"/>
<rect x="268.656" y="319.029" width="23.7461" height="23.7461" transform="rotate(-45 268.656 319.029)" fill="#EFEEED"/>
<rect x="302.238" y="319.029" width="23.7461" height="23.7461" transform="rotate(-45 302.238 319.029)" fill="#EFEEED"/>
<rect x="335.82" y="319.029" width="23.7461" height="23.7461" transform="rotate(-45 335.82 319.029)" fill="#EFEEED"/>
<rect x="369.402" y="319.029" width="23.7461" height="23.7461" transform="rotate(-45 369.402 319.029)" fill="#EFEEED"/>
<rect x="402.984" y="319.029" width="23.7461" height="23.7461" transform="rotate(-45 402.984 319.029)" fill="#EFEEED"/>
<rect x="436.566" y="319.029" width="23.7461" height="23.7461" transform="rotate(-45 436.566 319.029)" fill="#EFEEED"/>
<rect x="470.148" y="319.029" width="23.7461" height="23.7461" transform="rotate(-45 470.148 319.029)" fill="#EFEEED"/>
<rect x="503.73" y="319.029" width="23.7461" height="23.7461" transform="rotate(-45 503.73 319.029)" fill="#EFEEED"/>
<rect x="537.312" y="319.029" width="23.7461" height="23.7461" transform="rotate(-45 537.312 319.029)" fill="#EFEEED"/>
<rect x="570.895" y="319.029" width="23.7461" height="23.7461" transform="rotate(-45 570.895 319.029)" fill="#EFEEED"/>
<rect x="604.477" y="319.029" width="23.7461" height="23.7461" transform="rotate(-45 604.477 319.029)" fill="#EFEEED"/>
<rect x="638.059" y="319.029" width="23.7461" height="23.7461" transform="rotate(-45 638.059 319.029)" fill="#EFEEED"/>
<rect x="671.641" y="319.029" width="23.7461" height="23.7461" transform="rotate(-45 671.641 319.029)" fill="#EFEEED"/>
<rect x="705.223" y="319.029" width="23.7461" height="23.7461" transform="rotate(-45 705.223 319.029)" fill="#EFEEED"/>
<rect x="738.805" y="319.029" width="23.7461" height="23.7461" transform="rotate(-45 738.805 319.029)" fill="#EFEEED"/>
<rect x="772.387" y="319.029" width="23.7461" height="23.7461" transform="rotate(-45 772.387 319.029)" fill="#EFEEED"/>
<rect x="805.969" y="319.029" width="23.7461" height="23.7461" transform="rotate(-45 805.969 319.029)" fill="#EFEEED"/>
<rect x="839.551" y="319.029" width="23.7461" height="23.7461" transform="rotate(-45 839.551 319.029)" fill="#EFEEED"/>
<rect y="352.611" width="23.7461" height="23.7461" transform="rotate(-45 0 352.611)" fill="#EFEEED"/>
<rect x="33.582" y="352.611" width="23.7461" height="23.7461" transform="rotate(-45 33.582 352.611)" fill="#EFEEED"/>
<rect x="67.1641" y="352.611" width="23.7461" height="23.7461" transform="rotate(-45 67.1641 352.611)" fill="#EFEEED"/>
<rect x="100.746" y="352.611" width="23.7461" height="23.7461" transform="rotate(-45 100.746 352.611)" fill="#EFEEED"/>
<rect x="134.328" y="352.611" width="23.7461" height="23.7461" transform="rotate(-45 134.328 352.611)" fill="#EFEEED"/>
<rect x="167.91" y="352.611" width="23.7461" height="23.7461" transform="rotate(-45 167.91 352.611)" fill="#EFEEED"/>
<rect x="201.492" y="352.611" width="23.7461" height="23.7461" transform="rotate(-45 201.492 352.611)" fill="#EFEEED"/>
<rect x="235.074" y="352.611" width="23.7461" height="23.7461" transform="rotate(-45 235.074 352.611)" fill="#EFEEED"/>
<rect x="268.656" y="352.611" width="23.7461" height="23.7461" transform="rotate(-45 268.656 352.611)" fill="#EFEEED"/>
<rect x="302.238" y="352.611" width="23.7461" height="23.7461" transform="rotate(-45 302.238 352.611)" fill="#EFEEED"/>
<rect x="335.82" y="352.611" width="23.7461" height="23.7461" transform="rotate(-45 335.82 352.611)" fill="#EFEEED"/>
<rect x="369.402" y="352.611" width="23.7461" height="23.7461" transform="rotate(-45 369.402 352.611)" fill="#EFEEED"/>
<rect x="402.984" y="352.611" width="23.7461" height="23.7461" transform="rotate(-45 402.984 352.611)" fill="#EFEEED"/>
<rect x="436.566" y="352.611" width="23.7461" height="23.7461" transform="rotate(-45 436.566 352.611)" fill="#EFEEED"/>
<rect x="470.148" y="352.611" width="23.7461" height="23.7461" transform="rotate(-45 470.148 352.611)" fill="#EFEEED"/>
<rect x="503.73" y="352.611" width="23.7461" height="23.7461" transform="rotate(-45 503.73 352.611)" fill="#EFEEED"/>
<rect x="537.312" y="352.611" width="23.7461" height="23.7461" transform="rotate(-45 537.312 352.611)" fill="#EFEEED"/>
<rect x="570.895" y="352.611" width="23.7461" height="23.7461" transform="rotate(-45 570.895 352.611)" fill="#EFEEED"/>
<rect x="604.477" y="352.611" width="23.7461" height="23.7461" transform="rotate(-45 604.477 352.611)" fill="#EFEEED"/>
<rect x="638.059" y="352.611" width="23.7461" height="23.7461" transform="rotate(-45 638.059 352.611)" fill="#EFEEED"/>
<rect x="671.641" y="352.611" width="23.7461" height="23.7461" transform="rotate(-45 671.641 352.611)" fill="#EFEEED"/>
<rect x="705.223" y="352.611" width="23.7461" height="23.7461" transform="rotate(-45 705.223 352.611)" fill="#EFEEED"/>
<rect x="738.805" y="352.611" width="23.7461" height="23.7461" transform="rotate(-45 738.805 352.611)" fill="#EFEEED"/>
<rect x="772.387" y="352.611" width="23.7461" height="23.7461" transform="rotate(-45 772.387 352.611)" fill="#EFEEED"/>
<rect x="805.969" y="352.611" width="23.7461" height="23.7461" transform="rotate(-45 805.969 352.611)" fill="#EFEEED"/>
<rect x="839.551" y="352.611" width="23.7461" height="23.7461" transform="rotate(-45 839.551 352.611)" fill="#EFEEED"/>
<rect y="386.193" width="23.7461" height="23.7461" transform="rotate(-45 0 386.193)" fill="#EFEEED"/>
<rect x="33.582" y="386.193" width="23.7461" height="23.7461" transform="rotate(-45 33.582 386.193)" fill="#EFEEED"/>
<rect x="67.1641" y="386.193" width="23.7461" height="23.7461" transform="rotate(-45 67.1641 386.193)" fill="#EFEEED"/>
<rect x="100.746" y="386.193" width="23.7461" height="23.7461" transform="rotate(-45 100.746 386.193)" fill="#EFEEED"/>
<rect x="134.328" y="386.193" width="23.7461" height="23.7461" transform="rotate(-45 134.328 386.193)" fill="#EFEEED"/>
<rect x="167.91" y="386.193" width="23.7461" height="23.7461" transform="rotate(-45 167.91 386.193)" fill="#EFEEED"/>
<rect x="201.492" y="386.193" width="23.7461" height="23.7461" transform="rotate(-45 201.492 386.193)" fill="#EFEEED"/>
<rect x="235.074" y="386.193" width="23.7461" height="23.7461" transform="rotate(-45 235.074 386.193)" fill="#EFEEED"/>
<rect x="268.656" y="386.193" width="23.7461" height="23.7461" transform="rotate(-45 268.656 386.193)" fill="#EFEEED"/>
<rect x="302.238" y="386.193" width="23.7461" height="23.7461" transform="rotate(-45 302.238 386.193)" fill="#EFEEED"/>
<rect x="335.82" y="386.193" width="23.7461" height="23.7461" transform="rotate(-45 335.82 386.193)" fill="#EFEEED"/>
<rect x="369.402" y="386.193" width="23.7461" height="23.7461" transform="rotate(-45 369.402 386.193)" fill="#EFEEED"/>
<rect x="402.984" y="386.193" width="23.7461" height="23.7461" transform="rotate(-45 402.984 386.193)" fill="#EFEEED"/>
<rect x="436.566" y="386.193" width="23.7461" height="23.7461" transform="rotate(-45 436.566 386.193)" fill="#EFEEED"/>
<rect x="470.148" y="386.193" width="23.7461" height="23.7461" transform="rotate(-45 470.148 386.193)" fill="#EFEEED"/>
<rect x="503.73" y="386.193" width="23.7461" height="23.7461" transform="rotate(-45 503.73 386.193)" fill="#EFEEED"/>
<rect x="537.312" y="386.193" width="23.7461" height="23.7461" transform="rotate(-45 537.312 386.193)" fill="#EFEEED"/>
<rect x="570.895" y="386.193" width="23.7461" height="23.7461" transform="rotate(-45 570.895 386.193)" fill="#EFEEED"/>
<rect x="604.477" y="386.193" width="23.7461" height="23.7461" transform="rotate(-45 604.477 386.193)" fill="#EFEEED"/>
<rect x="638.059" y="386.193" width="23.7461" height="23.7461" transform="rotate(-45 638.059 386.193)" fill="#EFEEED"/>
<rect x="671.641" y="386.193" width="23.7461" height="23.7461" transform="rotate(-45 671.641 386.193)" fill="#EFEEED"/>
<rect x="705.223" y="386.193" width="23.7461" height="23.7461" transform="rotate(-45 705.223 386.193)" fill="#EFEEED"/>
<rect x="738.805" y="386.193" width="23.7461" height="23.7461" transform="rotate(-45 738.805 386.193)" fill="#EFEEED"/>
<rect x="772.387" y="386.193" width="23.7461" height="23.7461" transform="rotate(-45 772.387 386.193)" fill="#EFEEED"/>
<rect x="805.969" y="386.193" width="23.7461" height="23.7461" transform="rotate(-45 805.969 386.193)" fill="#EFEEED"/>
<rect x="839.551" y="386.193" width="23.7461" height="23.7461" transform="rotate(-45 839.551 386.193)" fill="#EFEEED"/>
<rect y="419.775" width="23.7461" height="23.7461" transform="rotate(-45 0 419.775)" fill="#EFEEED"/>
<rect x="33.582" y="419.775" width="23.7461" height="23.7461" transform="rotate(-45 33.582 419.775)" fill="#EFEEED"/>
<rect x="67.1641" y="419.775" width="23.7461" height="23.7461" transform="rotate(-45 67.1641 419.775)" fill="#EFEEED"/>
<rect x="100.746" y="419.775" width="23.7461" height="23.7461" transform="rotate(-45 100.746 419.775)" fill="#EFEEED"/>
<rect x="134.328" y="419.775" width="23.7461" height="23.7461" transform="rotate(-45 134.328 419.775)" fill="#EFEEED"/>
<rect x="167.91" y="419.775" width="23.7461" height="23.7461" transform="rotate(-45 167.91 419.775)" fill="#EFEEED"/>
<rect x="201.492" y="419.775" width="23.7461" height="23.7461" transform="rotate(-45 201.492 419.775)" fill="#EFEEED"/>
<rect x="235.074" y="419.775" width="23.7461" height="23.7461" transform="rotate(-45 235.074 419.775)" fill="#EFEEED"/>
<rect x="268.656" y="419.775" width="23.7461" height="23.7461" transform="rotate(-45 268.656 419.775)" fill="#EFEEED"/>
<rect x="302.238" y="419.775" width="23.7461" height="23.7461" transform="rotate(-45 302.238 419.775)" fill="#EFEEED"/>
<rect x="335.82" y="419.775" width="23.7461" height="23.7461" transform="rotate(-45 335.82 419.775)" fill="#EFEEED"/>
<rect x="369.402" y="419.775" width="23.7461" height="23.7461" transform="rotate(-45 369.402 419.775)" fill="#EFEEED"/>
<rect x="402.984" y="419.775" width="23.7461" height="23.7461" transform="rotate(-45 402.984 419.775)" fill="#EFEEED"/>
<rect x="436.566" y="419.775" width="23.7461" height="23.7461" transform="rotate(-45 436.566 419.775)" fill="#EFEEED"/>
<rect x="470.148" y="419.775" width="23.7461" height="23.7461" transform="rotate(-45 470.148 419.775)" fill="#EFEEED"/>
<rect x="503.73" y="419.775" width="23.7461" height="23.7461" transform="rotate(-45 503.73 419.775)" fill="#EFEEED"/>
<rect x="537.312" y="419.775" width="23.7461" height="23.7461" transform="rotate(-45 537.312 419.775)" fill="#EFEEED"/>
<rect x="570.895" y="419.775" width="23.7461" height="23.7461" transform="rotate(-45 570.895 419.775)" fill="#EFEEED"/>
<rect x="604.477" y="419.775" width="23.7461" height="23.7461" transform="rotate(-45 604.477 419.775)" fill="#EFEEED"/>
<rect x="638.059" y="419.775" width="23.7461" height="23.7461" transform="rotate(-45 638.059 419.775)" fill="#EFEEED"/>
<rect x="671.641" y="419.775" width="23.7461" height="23.7461" transform="rotate(-45 671.641 419.775)" fill="#EFEEED"/>
<rect x="705.223" y="419.775" width="23.7461" height="23.7461" transform="rotate(-45 705.223 419.775)" fill="#EFEEED"/>
<rect x="738.805" y="419.775" width="23.7461" height="23.7461" transform="rotate(-45 738.805 419.775)" fill="#EFEEED"/>
<rect x="772.387" y="419.775" width="23.7461" height="23.7461" transform="rotate(-45 772.387 419.775)" fill="#EFEEED"/>
<rect x="805.969" y="419.775" width="23.7461" height="23.7461" transform="rotate(-45 805.969 419.775)" fill="#EFEEED"/>
<rect x="839.551" y="419.775" width="23.7461" height="23.7461" transform="rotate(-45 839.551 419.775)" fill="#EFEEED"/>
<rect y="453.357" width="23.7461" height="23.7461" transform="rotate(-45 0 453.357)" fill="#EFEEED"/>
<rect x="33.582" y="453.357" width="23.7461" height="23.7461" transform="rotate(-45 33.582 453.357)" fill="#EFEEED"/>
<rect x="67.1641" y="453.357" width="23.7461" height="23.7461" transform="rotate(-45 67.1641 453.357)" fill="#EFEEED"/>
<rect x="100.746" y="453.357" width="23.7461" height="23.7461" transform="rotate(-45 100.746 453.357)" fill="#EFEEED"/>
<rect x="134.328" y="453.357" width="23.7461" height="23.7461" transform="rotate(-45 134.328 453.357)" fill="#EFEEED"/>
<rect x="167.91" y="453.357" width="23.7461" height="23.7461" transform="rotate(-45 167.91 453.357)" fill="#EFEEED"/>
<rect x="201.492" y="453.357" width="23.7461" height="23.7461" transform="rotate(-45 201.492 453.357)" fill="#EFEEED"/>
<rect x="235.074" y="453.357" width="23.7461" height="23.7461" transform="rotate(-45 235.074 453.357)" fill="#EFEEED"/>
<rect x="268.656" y="453.357" width="23.7461" height="23.7461" transform="rotate(-45 268.656 453.357)" fill="#EFEEED"/>
<rect x="302.238" y="453.357" width="23.7461" height="23.7461" transform="rotate(-45 302.238 453.357)" fill="#EFEEED"/>
<rect x="335.82" y="453.357" width="23.7461" height="23.7461" transform="rotate(-45 335.82 453.357)" fill="#EFEEED"/>
<rect x="369.402" y="453.357" width="23.7461" height="23.7461" transform="rotate(-45 369.402 453.357)" fill="#EFEEED"/>
<rect x="402.984" y="453.357" width="23.7461" height="23.7461" transform="rotate(-45 402.984 453.357)" fill="#EFEEED"/>
<rect x="436.566" y="453.357" width="23.7461" height="23.7461" transform="rotate(-45 436.566 453.357)" fill="#EFEEED"/>
<rect x="470.148" y="453.357" width="23.7461" height="23.7461" transform="rotate(-45 470.148 453.357)" fill="#EFEEED"/>
<rect x="503.73" y="453.357" width="23.7461" height="23.7461" transform="rotate(-45 503.73 453.357)" fill="#EFEEED"/>
<rect x="537.312" y="453.357" width="23.7461" height="23.7461" transform="rotate(-45 537.312 453.357)" fill="#EFEEED"/>
<rect x="570.895" y="453.357" width="23.7461" height="23.7461" transform="rotate(-45 570.895 453.357)" fill="#EFEEED"/>
<rect x="604.477" y="453.357" width="23.7461" height="23.7461" transform="rotate(-45 604.477 453.357)" fill="#EFEEED"/>
<rect x="638.059" y="453.357" width="23.7461" height="23.7461" transform="rotate(-45 638.059 453.357)" fill="#EFEEED"/>
<rect x="671.641" y="453.357" width="23.7461" height="23.7461" transform="rotate(-45 671.641 453.357)" fill="#EFEEED"/>
<rect x="705.223" y="453.357" width="23.7461" height="23.7461" transform="rotate(-45 705.223 453.357)" fill="#EFEEED"/>
<rect x="738.805" y="453.357" width="23.7461" height="23.7461" transform="rotate(-45 738.805 453.357)" fill="#EFEEED"/>
<rect x="772.387" y="453.357" width="23.7461" height="23.7461" transform="rotate(-45 772.387 453.357)" fill="#EFEEED"/>
<rect x="805.969" y="453.357" width="23.7461" height="23.7461" transform="rotate(-45 805.969 453.357)" fill="#EFEEED"/>
<rect x="839.551" y="453.357" width="23.7461" height="23.7461" transform="rotate(-45 839.551 453.357)" fill="#EFEEED"/>
<rect y="486.939" width="23.7461" height="23.7461" transform="rotate(-45 0 486.939)" fill="#EFEEED"/>
<rect x="33.582" y="486.939" width="23.7461" height="23.7461" transform="rotate(-45 33.582 486.939)" fill="#EFEEED"/>
<rect x="67.1641" y="486.939" width="23.7461" height="23.7461" transform="rotate(-45 67.1641 486.939)" fill="#EFEEED"/>
<rect x="100.746" y="486.939" width="23.7461" height="23.7461" transform="rotate(-45 100.746 486.939)" fill="#EFEEED"/>
<rect x="134.328" y="486.939" width="23.7461" height="23.7461" transform="rotate(-45 134.328 486.939)" fill="#EFEEED"/>
<rect x="167.91" y="486.939" width="23.7461" height="23.7461" transform="rotate(-45 167.91 486.939)" fill="#EFEEED"/>
<rect x="201.492" y="486.939" width="23.7461" height="23.7461" transform="rotate(-45 201.492 486.939)" fill="#EFEEED"/>
<rect x="235.074" y="486.939" width="23.7461" height="23.7461" transform="rotate(-45 235.074 486.939)" fill="#EFEEED"/>
<rect x="268.656" y="486.939" width="23.7461" height="23.7461" transform="rotate(-45 268.656 486.939)" fill="#EFEEED"/>
<rect x="302.238" y="486.939" width="23.7461" height="23.7461" transform="rotate(-45 302.238 486.939)" fill="#EFEEED"/>
<rect x="335.82" y="486.939" width="23.7461" height="23.7461" transform="rotate(-45 335.82 486.939)" fill="#EFEEED"/>
<rect x="369.402" y="486.939" width="23.7461" height="23.7461" transform="rotate(-45 369.402 486.939)" fill="#EFEEED"/>
<rect x="402.984" y="486.939" width="23.7461" height="23.7461" transform="rotate(-45 402.984 486.939)" fill="#EFEEED"/>
<rect x="436.566" y="486.939" width="23.7461" height="23.7461" transform="rotate(-45 436.566 486.939)" fill="#EFEEED"/>
<rect x="470.148" y="486.939" width="23.7461" height="23.7461" transform="rotate(-45 470.148 486.939)" fill="#EFEEED"/>
<rect x="503.73" y="486.939" width="23.7461" height="23.7461" transform="rotate(-45 503.73 486.939)" fill="#EFEEED"/>
<rect x="537.312" y="486.939" width="23.7461" height="23.7461" transform="rotate(-45 537.312 486.939)" fill="#EFEEED"/>
<rect x="570.895" y="486.939" width="23.7461" height="23.7461" transform="rotate(-45 570.895 486.939)" fill="#EFEEED"/>
<rect x="604.477" y="486.939" width="23.7461" height="23.7461" transform="rotate(-45 604.477 486.939)" fill="#EFEEED"/>
<rect x="638.059" y="486.939" width="23.7461" height="23.7461" transform="rotate(-45 638.059 486.939)" fill="#EFEEED"/>
<rect x="671.641" y="486.939" width="23.7461" height="23.7461" transform="rotate(-45 671.641 486.939)" fill="#EFEEED"/>
<rect x="705.223" y="486.939" width="23.7461" height="23.7461" transform="rotate(-45 705.223 486.939)" fill="#EFEEED"/>
<rect x="738.805" y="486.939" width="23.7461" height="23.7461" transform="rotate(-45 738.805 486.939)" fill="#EFEEED"/>
<rect x="772.387" y="486.939" width="23.7461" height="23.7461" transform="rotate(-45 772.387 486.939)" fill="#EFEEED"/>
<rect x="805.969" y="486.939" width="23.7461" height="23.7461" transform="rotate(-45 805.969 486.939)" fill="#EFEEED"/>
<rect x="839.551" y="486.939" width="23.7461" height="23.7461" transform="rotate(-45 839.551 486.939)" fill="#EFEEED"/>
<rect y="520.521" width="23.7461" height="23.7461" transform="rotate(-45 0 520.521)" fill="#EFEEED"/>
<rect x="33.582" y="520.521" width="23.7461" height="23.7461" transform="rotate(-45 33.582 520.521)" fill="#EFEEED"/>
<rect x="67.1641" y="520.521" width="23.7461" height="23.7461" transform="rotate(-45 67.1641 520.521)" fill="#EFEEED"/>
<rect x="100.746" y="520.521" width="23.7461" height="23.7461" transform="rotate(-45 100.746 520.521)" fill="#EFEEED"/>
<rect x="134.328" y="520.521" width="23.7461" height="23.7461" transform="rotate(-45 134.328 520.521)" fill="#EFEEED"/>
<rect x="167.91" y="520.521" width="23.7461" height="23.7461" transform="rotate(-45 167.91 520.521)" fill="#EFEEED"/>
<rect x="201.492" y="520.521" width="23.7461" height="23.7461" transform="rotate(-45 201.492 520.521)" fill="#EFEEED"/>
<rect x="235.074" y="520.521" width="23.7461" height="23.7461" transform="rotate(-45 235.074 520.521)" fill="#EFEEED"/>
<rect x="268.656" y="520.521" width="23.7461" height="23.7461" transform="rotate(-45 268.656 520.521)" fill="#EFEEED"/>
<rect x="302.238" y="520.521" width="23.7461" height="23.7461" transform="rotate(-45 302.238 520.521)" fill="#EFEEED"/>
<rect x="335.82" y="520.521" width="23.7461" height="23.7461" transform="rotate(-45 335.82 520.521)" fill="#EFEEED"/>
<rect x="369.402" y="520.521" width="23.7461" height="23.7461" transform="rotate(-45 369.402 520.521)" fill="#EFEEED"/>
<rect x="402.984" y="520.521" width="23.7461" height="23.7461" transform="rotate(-45 402.984 520.521)" fill="#EFEEED"/>
<rect x="436.566" y="520.521" width="23.7461" height="23.7461" transform="rotate(-45 436.566 520.521)" fill="#EFEEED"/>
<rect x="470.148" y="520.521" width="23.7461" height="23.7461" transform="rotate(-45 470.148 520.521)" fill="#EFEEED"/>
<rect x="503.73" y="520.521" width="23.7461" height="23.7461" transform="rotate(-45 503.73 520.521)" fill="#EFEEED"/>
<rect x="537.312" y="520.521" width="23.7461" height="23.7461" transform="rotate(-45 537.312 520.521)" fill="#EFEEED"/>
<rect x="570.895" y="520.521" width="23.7461" height="23.7461" transform="rotate(-45 570.895 520.521)" fill="#EFEEED"/>
<rect x="604.477" y="520.521" width="23.7461" height="23.7461" transform="rotate(-45 604.477 520.521)" fill="#EFEEED"/>
<rect x="638.059" y="520.521" width="23.7461" height="23.7461" transform="rotate(-45 638.059 520.521)" fill="#EFEEED"/>
<rect x="671.641" y="520.521" width="23.7461" height="23.7461" transform="rotate(-45 671.641 520.521)" fill="#EFEEED"/>
<rect x="705.223" y="520.521" width="23.7461" height="23.7461" transform="rotate(-45 705.223 520.521)" fill="#EFEEED"/>
<rect x="738.805" y="520.521" width="23.7461" height="23.7461" transform="rotate(-45 738.805 520.521)" fill="#EFEEED"/>
<rect x="772.387" y="520.521" width="23.7461" height="23.7461" transform="rotate(-45 772.387 520.521)" fill="#EFEEED"/>
<rect x="805.969" y="520.521" width="23.7461" height="23.7461" transform="rotate(-45 805.969 520.521)" fill="#EFEEED"/>
<rect x="839.551" y="520.521" width="23.7461" height="23.7461" transform="rotate(-45 839.551 520.521)" fill="#EFEEED"/>
<rect y="554.104" width="23.7461" height="23.7461" transform="rotate(-45 0 554.104)" fill="#EFEEED"/>
<rect x="33.582" y="554.104" width="23.7461" height="23.7461" transform="rotate(-45 33.582 554.104)" fill="#EFEEED"/>
<rect x="67.1641" y="554.104" width="23.7461" height="23.7461" transform="rotate(-45 67.1641 554.104)" fill="#EFEEED"/>
<rect x="100.746" y="554.104" width="23.7461" height="23.7461" transform="rotate(-45 100.746 554.104)" fill="#EFEEED"/>
<rect x="134.328" y="554.104" width="23.7461" height="23.7461" transform="rotate(-45 134.328 554.104)" fill="#EFEEED"/>
<rect x="167.91" y="554.104" width="23.7461" height="23.7461" transform="rotate(-45 167.91 554.104)" fill="#EFEEED"/>
<rect x="201.492" y="554.104" width="23.7461" height="23.7461" transform="rotate(-45 201.492 554.104)" fill="#EFEEED"/>
<rect x="235.074" y="554.104" width="23.7461" height="23.7461" transform="rotate(-45 235.074 554.104)" fill="#EFEEED"/>
<rect x="268.656" y="554.104" width="23.7461" height="23.7461" transform="rotate(-45 268.656 554.104)" fill="#EFEEED"/>
<rect x="302.238" y="554.104" width="23.7461" height="23.7461" transform="rotate(-45 302.238 554.104)" fill="#EFEEED"/>
<rect x="335.82" y="554.104" width="23.7461" height="23.7461" transform="rotate(-45 335.82 554.104)" fill="#EFEEED"/>
<rect x="369.402" y="554.104" width="23.7461" height="23.7461" transform="rotate(-45 369.402 554.104)" fill="#EFEEED"/>
<rect x="402.984" y="554.104" width="23.7461" height="23.7461" transform="rotate(-45 402.984 554.104)" fill="#EFEEED"/>
<rect x="436.566" y="554.104" width="23.7461" height="23.7461" transform="rotate(-45 436.566 554.104)" fill="#EFEEED"/>
<rect x="470.148" y="554.104" width="23.7461" height="23.7461" transform="rotate(-45 470.148 554.104)" fill="#EFEEED"/>
<rect x="503.73" y="554.104" width="23.7461" height="23.7461" transform="rotate(-45 503.73 554.104)" fill="#EFEEED"/>
<rect x="537.312" y="554.104" width="23.7461" height="23.7461" transform="rotate(-45 537.312 554.104)" fill="#EFEEED"/>
<rect x="570.895" y="554.104" width="23.7461" height="23.7461" transform="rotate(-45 570.895 554.104)" fill="#EFEEED"/>
<rect x="604.477" y="554.104" width="23.7461" height="23.7461" transform="rotate(-45 604.477 554.104)" fill="#EFEEED"/>
<rect x="638.059" y="554.104" width="23.7461" height="23.7461" transform="rotate(-45 638.059 554.104)" fill="#EFEEED"/>
<rect x="671.641" y="554.104" width="23.7461" height="23.7461" transform="rotate(-45 671.641 554.104)" fill="#EFEEED"/>
<rect x="705.223" y="554.104" width="23.7461" height="23.7461" transform="rotate(-45 705.223 554.104)" fill="#EFEEED"/>
<rect x="738.805" y="554.104" width="23.7461" height="23.7461" transform="rotate(-45 738.805 554.104)" fill="#EFEEED"/>
<rect x="772.387" y="554.104" width="23.7461" height="23.7461" transform="rotate(-45 772.387 554.104)" fill="#EFEEED"/>
<rect x="805.969" y="554.104" width="23.7461" height="23.7461" transform="rotate(-45 805.969 554.104)" fill="#EFEEED"/>
<rect x="839.551" y="554.104" width="23.7461" height="23.7461" transform="rotate(-45 839.551 554.104)" fill="#EFEEED"/>
<rect y="587.395" width="23.7461" height="23.7461" transform="rotate(-45 0 587.395)" fill="#EFEEED"/>
<rect x="33.582" y="587.395" width="23.7461" height="23.7461" transform="rotate(-45 33.582 587.395)" fill="#EFEEED"/>
<rect x="67.1641" y="587.395" width="23.7461" height="23.7461" transform="rotate(-45 67.1641 587.395)" fill="#EFEEED"/>
<rect x="100.746" y="587.395" width="23.7461" height="23.7461" transform="rotate(-45 100.746 587.395)" fill="#EFEEED"/>
<rect x="134.328" y="587.395" width="23.7461" height="23.7461" transform="rotate(-45 134.328 587.395)" fill="#EFEEED"/>
<rect x="167.91" y="587.395" width="23.7461" height="23.7461" transform="rotate(-45 167.91 587.395)" fill="#EFEEED"/>
<rect x="201.492" y="587.395" width="23.7461" height="23.7461" transform="rotate(-45 201.492 587.395)" fill="#EFEEED"/>
<rect x="235.074" y="587.395" width="23.7461" height="23.7461" transform="rotate(-45 235.074 587.395)" fill="#EFEEED"/>
<rect x="268.656" y="587.395" width="23.7461" height="23.7461" transform="rotate(-45 268.656 587.395)" fill="#EFEEED"/>
<rect x="302.238" y="587.395" width="23.7461" height="23.7461" transform="rotate(-45 302.238 587.395)" fill="#EFEEED"/>
<rect x="335.82" y="587.395" width="23.7461" height="23.7461" transform="rotate(-45 335.82 587.395)" fill="#EFEEED"/>
<rect x="369.402" y="587.395" width="23.7461" height="23.7461" transform="rotate(-45 369.402 587.395)" fill="#EFEEED"/>
<rect x="402.984" y="587.395" width="23.7461" height="23.7461" transform="rotate(-45 402.984 587.395)" fill="#EFEEED"/>
<rect x="436.566" y="587.395" width="23.7461" height="23.7461" transform="rotate(-45 436.566 587.395)" fill="#EFEEED"/>
<rect x="470.148" y="587.395" width="23.7461" height="23.7461" transform="rotate(-45 470.148 587.395)" fill="#EFEEED"/>
<rect x="503.73" y="587.395" width="23.7461" height="23.7461" transform="rotate(-45 503.73 587.395)" fill="#EFEEED"/>
<rect x="537.312" y="587.395" width="23.7461" height="23.7461" transform="rotate(-45 537.312 587.395)" fill="#EFEEED"/>
<rect x="570.895" y="587.395" width="23.7461" height="23.7461" transform="rotate(-45 570.895 587.395)" fill="#EFEEED"/>
<rect x="604.477" y="587.395" width="23.7461" height="23.7461" transform="rotate(-45 604.477 587.395)" fill="#EFEEED"/>
<rect x="638.059" y="587.395" width="23.7461" height="23.7461" transform="rotate(-45 638.059 587.395)" fill="#EFEEED"/>
<rect x="671.641" y="587.395" width="23.7461" height="23.7461" transform="rotate(-45 671.641 587.395)" fill="#EFEEED"/>
<rect x="705.223" y="587.395" width="23.7461" height="23.7461" transform="rotate(-45 705.223 587.395)" fill="#EFEEED"/>
<rect x="738.805" y="587.395" width="23.7461" height="23.7461" transform="rotate(-45 738.805 587.395)" fill="#EFEEED"/>
<rect x="772.387" y="587.395" width="23.7461" height="23.7461" transform="rotate(-45 772.387 587.395)" fill="#EFEEED"/>
<rect x="805.969" y="587.395" width="23.7461" height="23.7461" transform="rotate(-45 805.969 587.395)" fill="#EFEEED"/>
<rect x="839.551" y="587.395" width="23.7461" height="23.7461" transform="rotate(-45 839.551 587.395)" fill="#EFEEED"/>
<rect y="620.686" width="23.7461" height="23.7461" transform="rotate(-45 0 620.686)" fill="#EFEEED"/>
<rect x="33.582" y="620.686" width="23.7461" height="23.7461" transform="rotate(-45 33.582 620.686)" fill="#EFEEED"/>
<rect x="67.1641" y="620.686" width="23.7461" height="23.7461" transform="rotate(-45 67.1641 620.686)" fill="#EFEEED"/>
<rect x="100.746" y="620.686" width="23.7461" height="23.7461" transform="rotate(-45 100.746 620.686)" fill="#EFEEED"/>
<rect x="134.328" y="620.686" width="23.7461" height="23.7461" transform="rotate(-45 134.328 620.686)" fill="#EFEEED"/>
<rect x="167.91" y="620.686" width="23.7461" height="23.7461" transform="rotate(-45 167.91 620.686)" fill="#EFEEED"/>
<rect x="201.492" y="620.686" width="23.7461" height="23.7461" transform="rotate(-45 201.492 620.686)" fill="#EFEEED"/>
<rect x="235.074" y="620.686" width="23.7461" height="23.7461" transform="rotate(-45 235.074 620.686)" fill="#EFEEED"/>
<rect x="268.656" y="620.686" width="23.7461" height="23.7461" transform="rotate(-45 268.656 620.686)" fill="#EFEEED"/>
<rect x="302.238" y="620.686" width="23.7461" height="23.7461" transform="rotate(-45 302.238 620.686)" fill="#EFEEED"/>
<rect x="335.82" y="620.686" width="23.7461" height="23.7461" transform="rotate(-45 335.82 620.686)" fill="#EFEEED"/>
<rect x="369.402" y="620.686" width="23.7461" height="23.7461" transform="rotate(-45 369.402 620.686)" fill="#EFEEED"/>
<rect x="402.984" y="620.686" width="23.7461" height="23.7461" transform="rotate(-45 402.984 620.686)" fill="#EFEEED"/>
<rect x="436.566" y="620.686" width="23.7461" height="23.7461" transform="rotate(-45 436.566 620.686)" fill="#EFEEED"/>
<rect x="470.148" y="620.686" width="23.7461" height="23.7461" transform="rotate(-45 470.148 620.686)" fill="#EFEEED"/>
<rect x="503.73" y="620.686" width="23.7461" height="23.7461" transform="rotate(-45 503.73 620.686)" fill="#EFEEED"/>
<rect x="537.312" y="620.686" width="23.7461" height="23.7461" transform="rotate(-45 537.312 620.686)" fill="#EFEEED"/>
<rect x="570.895" y="620.686" width="23.7461" height="23.7461" transform="rotate(-45 570.895 620.686)" fill="#EFEEED"/>
<rect x="604.477" y="620.686" width="23.7461" height="23.7461" transform="rotate(-45 604.477 620.686)" fill="#EFEEED"/>
<rect x="638.059" y="620.686" width="23.7461" height="23.7461" transform="rotate(-45 638.059 620.686)" fill="#EFEEED"/>
<rect x="671.641" y="620.686" width="23.7461" height="23.7461" transform="rotate(-45 671.641 620.686)" fill="#EFEEED"/>
<rect x="705.223" y="620.686" width="23.7461" height="23.7461" transform="rotate(-45 705.223 620.686)" fill="#EFEEED"/>
<rect x="738.805" y="620.686" width="23.7461" height="23.7461" transform="rotate(-45 738.805 620.686)" fill="#EFEEED"/>
<rect x="772.387" y="620.686" width="23.7461" height="23.7461" transform="rotate(-45 772.387 620.686)" fill="#EFEEED"/>
<rect x="805.969" y="620.686" width="23.7461" height="23.7461" transform="rotate(-45 805.969 620.686)" fill="#EFEEED"/>
<rect x="839.551" y="620.686" width="23.7461" height="23.7461" transform="rotate(-45 839.551 620.686)" fill="#EFEEED"/>
<rect y="654.268" width="23.7461" height="23.7461" transform="rotate(-45 0 654.268)" fill="#EFEEED"/>
<rect x="33.582" y="654.268" width="23.7461" height="23.7461" transform="rotate(-45 33.582 654.268)" fill="#EFEEED"/>
<rect x="67.1641" y="654.268" width="23.7461" height="23.7461" transform="rotate(-45 67.1641 654.268)" fill="#EFEEED"/>
<rect x="100.746" y="654.268" width="23.7461" height="23.7461" transform="rotate(-45 100.746 654.268)" fill="#EFEEED"/>
<rect x="134.328" y="654.268" width="23.7461" height="23.7461" transform="rotate(-45 134.328 654.268)" fill="#EFEEED"/>
<rect x="167.91" y="654.268" width="23.7461" height="23.7461" transform="rotate(-45 167.91 654.268)" fill="#EFEEED"/>
<rect x="201.492" y="654.268" width="23.7461" height="23.7461" transform="rotate(-45 201.492 654.268)" fill="#EFEEED"/>
<rect x="235.074" y="654.268" width="23.7461" height="23.7461" transform="rotate(-45 235.074 654.268)" fill="#EFEEED"/>
<rect x="268.656" y="654.268" width="23.7461" height="23.7461" transform="rotate(-45 268.656 654.268)" fill="#EFEEED"/>
<rect x="302.238" y="654.268" width="23.7461" height="23.7461" transform="rotate(-45 302.238 654.268)" fill="#EFEEED"/>
<rect x="335.82" y="654.268" width="23.7461" height="23.7461" transform="rotate(-45 335.82 654.268)" fill="#EFEEED"/>
<rect x="369.402" y="654.268" width="23.7461" height="23.7461" transform="rotate(-45 369.402 654.268)" fill="#EFEEED"/>
<rect x="402.984" y="654.268" width="23.7461" height="23.7461" transform="rotate(-45 402.984 654.268)" fill="#EFEEED"/>
<rect x="436.566" y="654.268" width="23.7461" height="23.7461" transform="rotate(-45 436.566 654.268)" fill="#EFEEED"/>
<rect x="470.148" y="654.268" width="23.7461" height="23.7461" transform="rotate(-45 470.148 654.268)" fill="#EFEEED"/>
<rect x="503.73" y="654.268" width="23.7461" height="23.7461" transform="rotate(-45 503.73 654.268)" fill="#EFEEED"/>
<rect x="537.312" y="654.268" width="23.7461" height="23.7461" transform="rotate(-45 537.312 654.268)" fill="#EFEEED"/>
<rect x="570.895" y="654.268" width="23.7461" height="23.7461" transform="rotate(-45 570.895 654.268)" fill="#EFEEED"/>
<rect x="604.477" y="654.268" width="23.7461" height="23.7461" transform="rotate(-45 604.477 654.268)" fill="#EFEEED"/>
<rect x="638.059" y="654.268" width="23.7461" height="23.7461" transform="rotate(-45 638.059 654.268)" fill="#EFEEED"/>
<rect x="671.641" y="654.268" width="23.7461" height="23.7461" transform="rotate(-45 671.641 654.268)" fill="#EFEEED"/>
<rect x="705.223" y="654.268" width="23.7461" height="23.7461" transform="rotate(-45 705.223 654.268)" fill="#EFEEED"/>
<rect x="738.805" y="654.268" width="23.7461" height="23.7461" transform="rotate(-45 738.805 654.268)" fill="#EFEEED"/>
<rect x="772.387" y="654.268" width="23.7461" height="23.7461" transform="rotate(-45 772.387 654.268)" fill="#EFEEED"/>
<rect x="805.969" y="654.268" width="23.7461" height="23.7461" transform="rotate(-45 805.969 654.268)" fill="#EFEEED"/>
<rect x="839.551" y="654.268" width="23.7461" height="23.7461" transform="rotate(-45 839.551 654.268)" fill="#EFEEED"/>
<rect y="687.85" width="23.7461" height="23.7461" transform="rotate(-45 0 687.85)" fill="#EFEEED"/>
<rect x="33.582" y="687.85" width="23.7461" height="23.7461" transform="rotate(-45 33.582 687.85)" fill="#EFEEED"/>
<rect x="67.1641" y="687.85" width="23.7461" height="23.7461" transform="rotate(-45 67.1641 687.85)" fill="#EFEEED"/>
<rect x="100.746" y="687.85" width="23.7461" height="23.7461" transform="rotate(-45 100.746 687.85)" fill="#EFEEED"/>
<rect x="134.328" y="687.85" width="23.7461" height="23.7461" transform="rotate(-45 134.328 687.85)" fill="#EFEEED"/>
<rect x="167.91" y="687.85" width="23.7461" height="23.7461" transform="rotate(-45 167.91 687.85)" fill="#EFEEED"/>
<rect x="201.492" y="687.85" width="23.7461" height="23.7461" transform="rotate(-45 201.492 687.85)" fill="#EFEEED"/>
<rect x="235.074" y="687.85" width="23.7461" height="23.7461" transform="rotate(-45 235.074 687.85)" fill="#EFEEED"/>
<rect x="268.656" y="687.85" width="23.7461" height="23.7461" transform="rotate(-45 268.656 687.85)" fill="#EFEEED"/>
<rect x="302.238" y="687.85" width="23.7461" height="23.7461" transform="rotate(-45 302.238 687.85)" fill="#EFEEED"/>
<rect x="335.82" y="687.85" width="23.7461" height="23.7461" transform="rotate(-45 335.82 687.85)" fill="#EFEEED"/>
<rect x="369.402" y="687.85" width="23.7461" height="23.7461" transform="rotate(-45 369.402 687.85)" fill="#EFEEED"/>
<rect x="402.984" y="687.85" width="23.7461" height="23.7461" transform="rotate(-45 402.984 687.85)" fill="#EFEEED"/>
<rect x="436.566" y="687.85" width="23.7461" height="23.7461" transform="rotate(-45 436.566 687.85)" fill="#EFEEED"/>
<rect x="470.148" y="687.85" width="23.7461" height="23.7461" transform="rotate(-45 470.148 687.85)" fill="#EFEEED"/>
<rect x="503.73" y="687.85" width="23.7461" height="23.7461" transform="rotate(-45 503.73 687.85)" fill="#EFEEED"/>
<rect x="537.312" y="687.85" width="23.7461" height="23.7461" transform="rotate(-45 537.312 687.85)" fill="#EFEEED"/>
<rect x="570.895" y="687.85" width="23.7461" height="23.7461" transform="rotate(-45 570.895 687.85)" fill="#EFEEED"/>
<rect x="604.477" y="687.85" width="23.7461" height="23.7461" transform="rotate(-45 604.477 687.85)" fill="#EFEEED"/>
<rect x="638.059" y="687.85" width="23.7461" height="23.7461" transform="rotate(-45 638.059 687.85)" fill="#EFEEED"/>
<rect x="671.641" y="687.85" width="23.7461" height="23.7461" transform="rotate(-45 671.641 687.85)" fill="#EFEEED"/>
<rect x="705.223" y="687.85" width="23.7461" height="23.7461" transform="rotate(-45 705.223 687.85)" fill="#EFEEED"/>
<rect x="738.805" y="687.85" width="23.7461" height="23.7461" transform="rotate(-45 738.805 687.85)" fill="#EFEEED"/>
<rect x="772.387" y="687.85" width="23.7461" height="23.7461" transform="rotate(-45 772.387 687.85)" fill="#EFEEED"/>
<rect x="805.969" y="687.85" width="23.7461" height="23.7461" transform="rotate(-45 805.969 687.85)" fill="#EFEEED"/>
<rect x="839.551" y="687.85" width="23.7461" height="23.7461" transform="rotate(-45 839.551 687.85)" fill="#EFEEED"/>
</svg>
