<?xml version="1.0" standalone="no"?>
<!DOCTYPE svg PUBLIC "-//W3C//DTD SVG 20010904//EN"
 "http://www.w3.org/TR/2001/REC-SVG-20010904/DTD/svg10.dtd">
<svg version="1.0" xmlns="http://www.w3.org/2000/svg"
width="20px" height="20px" viewBox="0 0 512.000000 512.000000"
 preserveAspectRatio="xMidYMid meet">

<g transform="translate(0.000000,512.000000) scale(0.100000,-0.100000)"
fill="#000000" stroke="none">
<path d="M2450 4896 c-217 -48 -349 -256 -312 -491 37 -240 247 -386 498 -347
187 29 317 159 346 347 50 323 -210 563 -532 491z m213 -220 c39 -16 82 -61
96 -99 6 -16 11 -59 11 -97 0 -38 -5 -81 -11 -97 -14 -38 -57 -83 -96 -99 -38
-17 -160 -18 -200 -3 -38 14 -83 57 -99 96 -17 38 -18 160 -3 200 14 37 57 82
94 99 39 17 167 18 208 0z"/>
<path d="M2164 3940 c-201 -30 -352 -158 -432 -364 -12 -31 -17 -96 -21 -261
l-6 -220 -556 -5 c-610 -5 -578 -2 -606 -67 -20 -50 -19 -463 3 -508 21 -44
67 -65 143 -65 l61 0 0 -1084 c0 -1071 0 -1084 20 -1109 30 -38 80 -52 123
-33 71 29 67 -44 67 1151 l0 1075 1600 0 1600 0 0 -1075 c0 -1195 -4 -1122 67
-1151 43 -19 93 -5 123 33 20 25 20 38 20 1109 l0 1084 61 0 c76 0 122 21 143
65 22 45 23 458 3 508 -28 65 4 62 -606 67 l-556 5 -6 220 c-4 165 -9 230 -21
261 -86 223 -266 360 -480 367 -82 2 -81 4 -230 -195 -61 -82 -114 -148 -118
-148 -4 0 -57 66 -118 148 -61 81 -121 157 -134 169 -28 26 -76 34 -144 23z
m181 -415 c218 -290 212 -290 431 0 139 184 154 200 179 197 75 -8 171 -86
212 -170 27 -56 28 -61 31 -259 l3 -203 -640 0 -641 0 0 183 c0 207 10 259 63
329 49 64 161 133 202 124 5 -1 77 -92 160 -201z m2025 -750 l0 -105 -1810 0
-1810 0 0 105 0 105 1810 0 1810 0 0 -105z"/>
<path d="M2438 2340 c-369 -46 -683 -275 -843 -613 -192 -407 -102 -894 223
-1209 321 -310 792 -392 1187 -204 238 112 409 283 520 519 259 548 2 1199
-568 1436 -147 61 -364 91 -519 71z m277 -221 c157 -29 341 -127 452 -241 112
-116 196 -272 229 -428 7 -36 14 -112 14 -170 0 -58 -7 -134 -14 -170 -47
-222 -176 -411 -367 -539 -144 -97 -293 -141 -473 -141 -289 1 -541 137 -705
381 -97 144 -141 293 -141 473 1 233 83 430 249 597 122 121 263 199 426 234
74 17 252 19 330 4z"/>
<path d="M2513 2014 c-44 -22 -63 -68 -63 -151 l0 -68 -45 -24 c-56 -30 -110
-89 -138 -150 -17 -35 -22 -65 -22 -126 1 -102 27 -166 96 -230 58 -55 99 -73
197 -90 80 -14 106 -31 122 -80 14 -41 -6 -97 -42 -117 -15 -8 -74 -15 -170
-18 -138 -5 -148 -6 -172 -29 -35 -33 -44 -85 -21 -126 22 -43 52 -55 130 -55
l65 0 0 -61 c0 -76 21 -122 65 -143 41 -20 49 -20 90 0 45 21 65 67 65 151 l0
68 50 27 c182 101 212 360 59 503 -58 55 -99 73 -197 90 -80 14 -106 31 -122
80 -14 41 6 97 42 117 15 8 74 15 170 18 138 5 148 6 172 29 35 33 44 85 21
126 -22 43 -52 55 -130 55 l-65 0 0 61 c0 76 -21 122 -65 143 -41 20 -52 20
-92 0z"/>
</g>
</svg>
