<svg width="19" height="19" viewBox="0 0 19 19" fill="none" xmlns="http://www.w3.org/2000/svg">
<mask id="mask0_1771_6954" style="mask-type:alpha" maskUnits="userSpaceOnUse" x="0" y="0" width="19" height="19">
<rect width="18.1724" height="18.1724" fill="#D9D9D9"/>
</mask>
<g mask="url(#mask0_1771_6954)">
<path d="M9.08609 10.4257C9.454 10.4257 9.76682 10.2968 10.0245 10.0391C10.2823 9.78135 10.4111 9.46852 10.4111 9.10061C10.4111 8.73271 10.2823 8.41989 10.0245 8.16215C9.76682 7.90442 9.454 7.77556 9.08609 7.77556C8.71817 7.77556 8.40535 7.90442 8.14763 8.16215C7.8899 8.41989 7.76103 8.73271 7.76103 9.10061C7.76103 9.46852 7.8899 9.78135 8.14763 10.0391C8.40535 10.2968 8.71817 10.4257 9.08609 10.4257ZM6.24667 13.2214H11.9255V12.9462C11.9255 12.6773 11.8532 12.4385 11.7086 12.2298C11.5639 12.0211 11.3659 11.8609 11.1145 11.7493C10.8009 11.6153 10.4755 11.5117 10.1381 11.4384C9.8008 11.3651 9.45012 11.3285 9.08609 11.3285C8.72206 11.3285 8.37138 11.3651 8.03404 11.4384C7.69671 11.5117 7.37127 11.6153 7.05771 11.7493C6.80629 11.8609 6.60827 12.0211 6.46362 12.2298C6.31898 12.4385 6.24667 12.6773 6.24667 12.9462V13.2214ZM13.3962 16.2793H4.77599C4.39351 16.2793 4.06976 16.1468 3.80475 15.8818C3.53973 15.6167 3.40723 15.293 3.40723 14.9105V3.26158C3.40723 2.87911 3.53973 2.55536 3.80475 2.29034C4.06976 2.02533 4.39351 1.89282 4.77599 1.89282H10.4403L14.7649 6.2175V14.9105C14.7649 15.293 14.6324 15.6167 14.3674 15.8818C14.1024 16.1468 13.7787 16.2793 13.3962 16.2793ZM13.3962 15.1435C13.4544 15.1435 13.5078 15.1193 13.5564 15.0707C13.6049 15.0222 13.6292 14.9688 13.6292 14.9105V6.70092L9.95685 3.02858H4.77599C4.71774 3.02858 4.66433 3.05285 4.61579 3.10138C4.56725 3.14993 4.54298 3.20333 4.54298 3.26158V14.9105C4.54298 14.9688 4.56725 15.0222 4.61579 15.0707C4.66433 15.1193 4.71774 15.1435 4.77599 15.1435H13.3962Z" fill="#666666"/>
</g>
</svg>
