<svg width="23" height="23" viewBox="0 0 23 23" fill="none" xmlns="http://www.w3.org/2000/svg">
<rect x="0.510785" y="0.894329" width="21.3966" height="21.3966" rx="3.30054" fill="white" stroke="#666666" stroke-width="0.227624"/>
<path d="M10.7954 17.0263C9.99373 17.0263 9.23726 16.8727 8.52597 16.5653C7.81466 16.258 7.19429 15.8396 6.66485 15.3102C6.13542 14.7808 5.71704 14.1604 5.40972 13.4491C5.1024 12.7378 4.94873 11.9813 4.94873 11.1797C4.94873 10.3717 5.1024 9.61365 5.40972 8.90551C5.71704 8.19736 6.13542 7.57857 6.66485 7.04913C7.19429 6.5197 7.81466 6.10132 8.52597 5.794C9.23726 5.48667 9.99373 5.33301 10.7954 5.33301C11.6033 5.33301 12.3614 5.48667 13.0695 5.794C13.7777 6.10132 14.3965 6.5197 14.9259 7.04913C15.4553 7.57857 15.8737 8.19736 16.181 8.90551C16.4884 9.61365 16.642 10.3717 16.642 11.1797C16.642 11.9813 16.4884 12.7378 16.181 13.4491C15.8737 14.1604 15.4553 14.7808 14.9259 15.3102C14.3965 15.8396 13.7777 16.258 13.0695 16.5653C12.3614 16.8727 11.6033 17.0263 10.7954 17.0263ZM10.7954 16.0902C11.1094 15.6735 11.3737 15.2534 11.5884 14.8297C11.803 14.406 11.9777 13.9428 12.1127 13.4402H9.4781C9.62091 13.9586 9.79765 14.4296 10.0083 14.8534C10.219 15.2771 10.4813 15.6893 10.7954 16.0902ZM9.60359 15.9209C9.36767 15.5824 9.15581 15.1976 8.96802 14.7664C8.78023 14.3352 8.63426 13.8931 8.53011 13.4402H6.44232C6.76741 14.0793 7.20335 14.6163 7.75015 15.051C8.29695 15.4858 8.91477 15.7757 9.60359 15.9209ZM11.9872 15.9209C12.676 15.7757 13.2938 15.4858 13.8406 15.051C14.3874 14.6163 14.8234 14.0793 15.1484 13.4402H13.0607C12.9368 13.897 12.7809 14.3411 12.5932 14.7723C12.4054 15.2035 12.2034 15.5864 11.9872 15.9209ZM6.05532 12.5171H8.34311C8.30445 12.2883 8.27644 12.064 8.25908 11.8442C8.24173 11.6245 8.23305 11.403 8.23305 11.1797C8.23305 10.9564 8.24173 10.7348 8.25908 10.5151C8.27644 10.2954 8.30445 10.0711 8.34311 9.84225H6.05532C5.99615 10.0513 5.95078 10.2687 5.91922 10.4944C5.88765 10.72 5.87187 10.9485 5.87187 11.1797C5.87187 11.4109 5.88765 11.6393 5.91922 11.8649C5.95078 12.0906 5.99615 12.308 6.05532 12.5171ZM9.26625 12.5171H12.3245C12.3632 12.2883 12.3912 12.0659 12.4086 11.8501C12.4259 11.6343 12.4346 11.4109 12.4346 11.1797C12.4346 10.9485 12.4259 10.725 12.4086 10.5092C12.3912 10.2934 12.3632 10.0711 12.3245 9.84225H9.26625C9.22759 10.0711 9.19958 10.2934 9.18221 10.5092C9.16486 10.725 9.15618 10.9485 9.15618 11.1797C9.15618 11.4109 9.16486 11.6343 9.18221 11.8501C9.19958 12.0659 9.22759 12.2883 9.26625 12.5171ZM13.2477 12.5171H15.5354C15.5946 12.308 15.64 12.0906 15.6716 11.8649C15.7031 11.6393 15.7189 11.4109 15.7189 11.1797C15.7189 10.9485 15.7031 10.72 15.6716 10.4944C15.64 10.2687 15.5946 10.0513 15.5354 9.84225H13.2477C13.2863 10.0711 13.3143 10.2954 13.3317 10.5151C13.349 10.7348 13.3577 10.9564 13.3577 11.1797C13.3577 11.403 13.349 11.6245 13.3317 11.8442C13.3143 12.064 13.2863 12.2883 13.2477 12.5171ZM13.0607 8.91912H15.1484C14.8194 8.27211 14.3864 7.73517 13.8495 7.3083C13.3126 6.88145 12.6918 6.58951 11.9872 6.43249C12.2231 6.79071 12.433 7.18246 12.6168 7.60775C12.8007 8.03304 12.9486 8.47016 13.0607 8.91912ZM9.4781 8.91912H12.1127C11.9699 8.40468 11.7902 7.93067 11.5736 7.49709C11.357 7.06352 11.0976 6.65422 10.7954 6.26917C10.4932 6.65422 10.2338 7.06352 10.0172 7.49709C9.80061 7.93067 9.62091 8.40468 9.4781 8.91912ZM6.44232 8.91912H8.53011C8.64215 8.47016 8.79009 8.03304 8.97395 7.60775C9.15779 7.18246 9.36767 6.79071 9.60359 6.43249C8.89504 6.58951 8.27328 6.88244 7.73831 7.31128C7.20335 7.74011 6.77136 8.27606 6.44232 8.91912Z" fill="#666666"/>
<path d="M3.05225 2.67773L18.9859 18.6114" stroke="#E80000" stroke-width="0.910495" stroke-linecap="round"/>
</svg>
