<svg width="17" height="16" viewBox="0 0 17 16" fill="none" xmlns="http://www.w3.org/2000/svg">
<mask id="mask0_1832_1110" style="mask-type:alpha" maskUnits="userSpaceOnUse" x="0" y="0" width="17" height="16">
<rect x="0.70459" y="0.194824" width="15.4286" height="14.9599" fill="#D9D9D9"/>
</mask>
<g mask="url(#mask0_1832_1110)">
<path d="M8.41865 13.5959C7.58129 13.5959 6.79111 13.4403 6.04813 13.129C5.30514 12.8177 4.65713 12.394 4.1041 11.8578C3.55108 11.3216 3.11407 10.6932 2.79306 9.9728C2.47203 9.25239 2.31152 8.48622 2.31152 7.67429C2.31152 6.85598 2.47203 6.08821 2.79306 5.37098C3.11407 4.65376 3.55108 4.02704 4.1041 3.49081C4.65713 2.95459 5.30514 2.53085 6.04813 2.21959C6.79111 1.90832 7.58129 1.75269 8.41865 1.75269C9.2626 1.75269 10.0544 1.90832 10.7941 2.21959C11.5338 2.53085 12.1802 2.95459 12.7332 3.49081C13.2862 4.02704 13.7232 4.65376 14.0442 5.37098C14.3653 6.08821 14.5258 6.85598 14.5258 7.67429C14.5258 8.48622 14.3653 9.25239 14.0442 9.9728C13.7232 10.6932 13.2862 11.3216 12.7332 11.8578C12.1802 12.394 11.5338 12.8177 10.7941 13.129C10.0544 13.4403 9.2626 13.5959 8.41865 13.5959ZM8.41865 12.6477C8.74668 12.2258 9.02278 11.8002 9.24696 11.3711C9.47113 10.942 9.65369 10.4729 9.79462 9.96381H7.04268C7.19185 10.4889 7.37647 10.9659 7.59653 11.3951C7.81658 11.8242 8.09062 12.2418 8.41865 12.6477ZM7.17376 12.4763C6.92733 12.1335 6.70604 11.7437 6.50988 11.307C6.31372 10.8702 6.16125 10.4225 6.05245 9.96381H3.87166C4.21123 10.6111 4.66659 11.1549 5.23775 11.5953C5.80891 12.0356 6.45425 12.3293 7.17376 12.4763ZM9.66354 12.4763C10.3831 12.3293 11.0284 12.0356 11.5996 11.5953C12.1707 11.1549 12.6261 10.6111 12.9656 9.96381H10.7848C10.6555 10.4265 10.4927 10.8762 10.2965 11.313C10.1004 11.7497 9.88937 12.1375 9.66354 12.4763ZM3.46741 9.02885H5.85712C5.81674 8.79709 5.78748 8.56994 5.76936 8.34738C5.75123 8.12481 5.74216 7.90045 5.74216 7.67429C5.74216 7.44814 5.75123 7.22378 5.76936 7.00121C5.78748 6.77865 5.81674 6.55149 5.85712 6.31974H3.46741C3.4056 6.53151 3.35821 6.75168 3.32524 6.98023C3.29228 7.20879 3.27579 7.44014 3.27579 7.67429C3.27579 7.90845 3.29228 8.1398 3.32524 8.36835C3.35821 8.59691 3.4056 8.81707 3.46741 9.02885ZM6.82139 9.02885H10.0159C10.0563 8.79709 10.0856 8.57193 10.1037 8.35336C10.1218 8.1348 10.1309 7.90845 10.1309 7.67429C10.1309 7.44014 10.1218 7.21378 10.1037 6.99522C10.0856 6.77665 10.0563 6.55149 10.0159 6.31974H6.82139C6.78101 6.55149 6.75175 6.77665 6.73361 6.99522C6.71548 7.21378 6.70642 7.44014 6.70642 7.67429C6.70642 7.90845 6.71548 8.1348 6.73361 8.35336C6.75175 8.57193 6.78101 8.79709 6.82139 9.02885ZM10.9802 9.02885H13.3699C13.4317 8.81707 13.4791 8.59691 13.5121 8.36835C13.545 8.1398 13.5615 7.90845 13.5615 7.67429C13.5615 7.44014 13.545 7.20879 13.5121 6.98023C13.4791 6.75168 13.4317 6.53151 13.3699 6.31974H10.9802C11.0206 6.55149 11.0498 6.77865 11.0679 7.00121C11.0861 7.22378 11.0951 7.44814 11.0951 7.67429C11.0951 7.90045 11.0861 8.12481 11.0679 8.34738C11.0498 8.56994 11.0206 8.79709 10.9802 9.02885ZM10.7848 5.38478H12.9656C12.622 4.72947 12.1697 4.18565 11.6088 3.75331C11.048 3.32098 10.3995 3.02529 9.66354 2.86626C9.90997 3.22907 10.1292 3.62585 10.3212 4.05659C10.5133 4.48733 10.6678 4.93006 10.7848 5.38478ZM7.04268 5.38478H9.79462C9.64545 4.86373 9.45774 4.38365 9.2315 3.94451C9.00526 3.50539 8.73432 3.09083 8.41865 2.70085C8.10299 3.09083 7.83204 3.50539 7.60581 3.94451C7.37956 4.38365 7.19185 4.86373 7.04268 5.38478ZM3.87166 5.38478H6.05245C6.16949 4.93006 6.32402 4.48733 6.51607 4.05659C6.7081 3.62585 6.92733 3.22907 7.17376 2.86626C6.43365 3.02529 5.78419 3.32198 5.22539 3.75631C4.66659 4.19065 4.21535 4.73347 3.87166 5.38478Z" fill="#666666"/>
<path d="M1.89111 1.3457L14.9461 14.0041" stroke="#FF1212" stroke-width="0.57538"/>
<path d="M1.89111 1.3457L14.9461 14.0041" stroke="#FF1212" stroke-width="0.57538"/>
</g>
</svg>
