<svg width="45" height="43" viewBox="0 0 45 43" fill="none" xmlns="http://www.w3.org/2000/svg">
<path fill-rule="evenodd" clip-rule="evenodd" d="M20.3834 27.1093L20.682 26.3066C21.018 25.5413 19.9354 26.4746 20.8687 26.1386C21.1673 26.0266 21.1113 25.952 21.1113 26.2693L21.746 26.4373L22.194 35.8263C22.5859 36.0689 22.3246 35.6956 22.6233 36.1249L23.1459 26.3626L24.1725 26.2133C24.9192 30.1331 26.4871 34.613 24.7512 38.1035C22.194 43.2926 18.4981 37.5062 18.6101 34.8743C18.6474 34.0343 19.4127 32.2797 19.6741 31.2344C19.954 30.0771 20.3834 28.2666 20.3834 27.1093ZM33.3375 31.9997L33.8788 32.1677L33.7855 32.1117L33.1882 31.2718C32.7776 30.6371 32.1616 29.9652 31.6576 29.3492C29.9963 27.3146 29.7537 27.4079 28.4097 25.9893C27.8311 25.3547 27.3831 24.9627 26.7111 24.4027L27.2524 23.4694L34.2708 27.3892C35.8574 28.6212 38.172 31.9997 36.3428 34.949C33.1509 36.4796 29.903 34.2583 28.7084 32.5224C27.9804 31.4958 27.3644 28.9012 26.1325 27.1653C25.5538 26.3626 25.5165 26.6053 25.3672 25.9706C25.2738 25.672 25.3485 25.5227 25.3485 25.4667C26.2631 25.0373 26.7671 26.008 27.4764 26.6986C28.8204 28.0239 29.9963 28.7892 31.3589 30.2825C31.9563 30.9358 32.6282 31.5331 33.3375 31.9997ZM11.5544 31.2531C11.4237 31.7944 11.6664 31.4584 11.1997 31.8131L10.7891 32.2797L10.7144 32.4104L11.4424 32.0184C11.7224 31.4771 11.5544 31.7571 11.9277 31.6264C13.085 30.7491 14.5222 29.4612 15.6609 28.3225C16.9862 27.0159 18.4048 25.1307 19.3941 25.3547C19.5621 26.0826 19.0207 26.5493 18.6474 27.1466C17.2848 29.3492 16.5008 31.7198 15.9222 32.5784C13.7383 35.8076 9.6131 35.9383 8.47448 34.9116C7.67184 34.2023 7.8025 31.5331 8.23182 30.3758C9.59443 26.7359 11.797 26.6053 14.2236 25.3733C15.4742 24.7387 16.3328 23.8427 17.5461 23.4694L18.0688 24.328C17.3221 25.0373 16.8928 25.4107 16.2582 26.064L12.8796 29.7412C12.8423 29.7785 12.805 29.8158 12.7676 29.8532C12.0397 30.6931 12.301 30.8051 11.5544 31.2531ZM20.9247 17.011C23.7059 15.9284 25.9085 17.8509 26.5991 19.6429C27.6444 22.3868 25.7592 24.664 23.8739 25.3173C18.5914 27.1279 15.0636 19.2696 20.9247 17.011ZM27.5698 20.0349C27.4951 18.8589 28.0364 19.1389 29.175 18.9896C31.9936 18.5789 33.9348 17.571 35.4468 17.3096C38.8253 16.7497 41.4572 18.9149 42.3159 21.2108C41.2519 23.4134 38.62 24.5334 35.3908 24.272C33.8975 24.1414 32.5722 23.6561 31.2469 23.3574C30.2203 23.1334 28.0364 22.9841 27.5511 22.3121C27.8871 21.1735 28.839 21.5655 30.1083 21.5468C32.4976 21.5468 36.6414 21.4348 38.8253 21.0802C37.0707 20.7068 35.1108 20.5388 33.1882 20.4828C31.7136 20.4268 28.4844 20.7628 27.5698 20.0349ZM17.0608 22.1814C17.3781 22.5734 17.4715 22.7974 16.6875 22.7601C13.7196 22.9841 11.2557 24.4587 8.69847 24.6267C5.86124 24.8133 3.32267 22.9281 2.50137 21.2108C3.22934 18.9336 5.71192 17.0483 8.97846 17.2536C10.2104 17.3283 11.573 18.1496 12.9916 18.5043C14.4662 18.8776 16.0902 18.9149 17.3968 19.3816L16.9675 20.2029L6.23456 20.9682C7.26119 21.5468 13.421 21.4535 16.8928 21.5841C17.1728 21.9201 17.3035 21.1922 17.0608 22.1814ZM33.8788 10.4032C34.4015 10.2352 33.5989 10.1606 33.5429 10.3659C33.3562 10.9259 33.7482 10.4032 33.7668 10.4032C33.8042 10.4032 33.8788 10.4032 33.8788 10.4032ZM33.5989 10.6272C31.8256 11.1872 26.3005 16.3577 25.8711 16.5817C24.1352 17.5336 25.8711 14.9764 26.1138 14.5844C27.6071 12.1205 28.2604 8.51797 32.5536 7.58467C38.7133 6.25939 37.2761 12.3072 34.9615 14.6217C33.8228 15.779 31.8816 15.779 28.783 17.4776C28.4657 17.6456 27.4951 18.2989 27.1964 18.2803C26.2631 18.2616 26.7298 17.571 26.9911 17.235L32.6842 11.8965C33.3002 11.2619 33.3935 11.2619 33.5989 10.6272ZM11.1997 10.8325L11.461 11.1872C12.917 12.1765 16.0529 16.2083 18.2928 17.5896C17.9195 18.2243 18.1061 17.7203 17.9381 18.5043C16.7248 18.2429 15.8102 17.2723 14.2236 16.619C13.2716 16.2083 11.0877 15.611 10.4157 15.1444C7.54118 13.1098 7.37319 8.90995 8.49314 7.95799C10.0611 6.59537 13.7009 7.58467 16.0155 9.99258C16.7995 10.7952 18.3301 14.9017 19.8607 16.3017C19.5061 16.6563 19.6741 16.5817 19.0954 16.731C18.9087 16.6003 17.8075 15.7417 17.2661 15.2377L12.357 11.2619C11.965 10.9632 11.853 10.9072 11.4797 10.6459L10.8451 10.2912L11.1997 10.8325ZM24.2099 15.3497C24.0979 15.7417 24.0419 15.835 23.8739 16.115L23.4259 15.947C22.8473 15.5924 22.9779 12.4005 22.9406 11.5232C22.8846 9.95525 22.6046 8.10732 22.6793 6.65137L22.194 6.09139C22.138 7.82733 21.9326 9.4886 21.8766 11.2245C21.8393 12.0645 21.7833 12.8858 21.7646 13.7258C21.7646 14.7151 22.0073 15.4804 21.298 16.003C20.5327 15.8537 20.85 16.507 20.3834 14.4164C19.898 12.1205 18.6474 10.2352 18.5728 8.89129C18.3674 5.69941 20.066 3.36616 22.026 2.54486C22.9219 2.15288 24.2845 3.60882 24.7512 4.1128C27.9991 7.734 24.5272 11.5232 24.2099 15.3497ZM28.3164 36.3489L28.559 35.7889C29.511 35.9569 28.839 35.7703 29.1004 36.1249C31.7883 38.4768 37.1267 37.7862 38.2653 36.6289C39.012 35.8449 39.3293 32.933 39.1986 31.5518C38.9933 29.0879 37.9667 28.1732 37.6307 27.2026C39.796 26.6053 40.7293 26.4 42.2412 25.1867C42.8012 24.7387 44.7798 22.3494 44.7984 21.2295C44.8171 20.0349 42.8385 17.5523 42.3345 17.1416C41.2146 16.227 39.7213 15.5177 37.836 15.0884C38.676 12.6805 39.852 11.4299 38.8253 7.65933C38.564 6.65137 38.4893 6.37138 37.6307 5.96073C34.4202 4.43012 30.9856 5.34475 28.559 6.95003C27.6631 5.34475 27.7191 4.01947 26.4311 2.4142C25.9831 1.81689 23.6312 -0.12437 22.194 0.00629144C20.7007 0.155619 18.6848 1.98488 18.1808 2.69419C16.0715 5.71807 16.9862 5.60608 16.2395 7.02469C13.2903 5.45675 11.1437 4.31813 7.13053 5.94207C6.14123 6.35272 6.23456 6.61404 5.91724 7.80866C5.65592 8.76062 5.56259 9.39527 5.59992 10.4219C5.63725 12.7551 6.38389 13.4084 6.96254 15.1444C5.1706 15.4244 3.50933 16.2083 2.46404 17.1416C1.92273 17.627 -0.0185323 20.0162 0.000133693 21.2108C0.0187996 22.5734 1.99739 24.5707 2.5947 25.168C3.91998 26.4746 5.15194 26.6799 7.16786 27.2026C6.64521 28.8265 5.76791 29.3678 5.59992 31.7757C5.46926 33.3437 5.69325 36.0503 6.81321 36.7969C7.93317 37.5622 10.4717 37.8795 11.9837 37.6555C13.9436 37.3569 14.9889 36.5729 16.2582 35.8263C16.9862 37.7862 16.9675 38.5702 18.1808 40.1941C18.7221 40.9407 20.7567 42.5833 22.0073 42.8073C23.5752 43.0873 25.3672 41.3327 26.1698 40.6234C27.1591 39.7461 28.1671 38.0662 28.3164 36.3489Z" fill="#509D30"/>
<path fill-rule="evenodd" clip-rule="evenodd" d="M21.7093 18.019C18.9094 18.579 18.4428 21.4349 19.8054 23.1708C21.5227 25.3734 26.2825 24.4214 25.5732 20.4829C25.2185 18.5417 23.3333 17.7017 21.7093 18.019Z" fill="#509D30"/>
<path fill-rule="evenodd" clip-rule="evenodd" d="M22.0074 19.6055C21.7461 19.0642 21.7087 19.3815 21.9327 18.7842C22.698 18.2803 22.362 18.3736 22.9407 18.8962C22.8847 19.5682 22.7354 19.6242 22.0074 19.6055Z" fill="#509D30"/>
<path fill-rule="evenodd" clip-rule="evenodd" d="M20.6444 19.5493C21.3164 19.9413 21.2604 19.736 21.1857 20.6879L20.0844 20.6693C20.0098 19.7546 19.9911 19.9413 20.6444 19.5493Z" fill="#509D30"/>
<path fill-rule="evenodd" clip-rule="evenodd" d="M24.5831 21.4722C24.3218 21.9388 23.5192 21.9202 23.6125 20.7442C24.3405 20.4642 23.7618 20.4829 24.5458 20.6695C24.5645 20.7815 24.9191 20.8002 24.5831 21.4722Z" fill="#509D30"/>
<path fill-rule="evenodd" clip-rule="evenodd" d="M22.3056 21.8453C22.2496 21.8453 22.1376 21.8639 22.1003 21.7893C22.063 21.7146 21.9696 21.7519 21.9136 21.7146C21.6336 21.36 21.3536 20.6506 22.063 20.4267C23.0896 20.072 23.5562 21.3973 22.7909 21.7706C22.7349 21.8079 22.4736 21.8453 22.3056 21.8453Z" fill="#509D30"/>
<path fill-rule="evenodd" clip-rule="evenodd" d="M22.1943 6.0914L22.6796 6.65138L22.493 5.62476L22.1943 6.0914Z" fill="#509D30"/>
<path fill-rule="evenodd" clip-rule="evenodd" d="M23.4263 15.9472L23.8743 16.1152C24.0422 15.8352 24.0982 15.7418 24.2102 15.3499C23.5383 16.0592 24.2289 15.5925 23.4263 15.9472Z" fill="#509D30"/>
<path fill-rule="evenodd" clip-rule="evenodd" d="M33.7863 32.1115C33.7489 32.0555 33.5249 31.6635 33.5249 31.6635C33.1516 31.1595 33.4876 31.5888 33.189 31.2715L33.7863 32.1115ZM33.8796 32.1674L33.3383 31.9995C33.5063 32.2048 33.301 32.1674 33.8423 32.4661L33.9729 32.2981C33.9729 32.2794 33.8983 32.2234 33.8796 32.1674Z" fill="#509D30"/>
<path fill-rule="evenodd" clip-rule="evenodd" d="M16.687 22.7598C17.471 22.7971 17.3777 22.5731 17.0603 22.1812C16.9483 22.7225 17.079 22.4798 16.687 22.7598Z" fill="#509D30"/>
<path fill-rule="evenodd" clip-rule="evenodd" d="M11.1996 31.8127C10.9569 31.9994 11.1436 31.6448 10.7889 32.2794L11.1996 31.8127ZM10.7143 32.4101C10.6023 32.6527 10.4529 32.3914 10.7329 32.5967C10.8076 32.5407 11.0502 32.4101 11.1062 32.3727C11.4422 32.1301 11.2556 32.2607 11.4422 32.0181L10.7143 32.4101Z" fill="#509D30"/>
<path fill-rule="evenodd" clip-rule="evenodd" d="M11.5544 31.2532C11.3677 31.4212 11.3677 31.3465 11.1997 31.8132C11.6664 31.4585 11.4237 31.7945 11.5544 31.2532ZM11.9277 31.6265C11.5544 31.7572 11.7224 31.4772 11.4424 32.0185C11.8157 31.8318 11.7597 31.8132 11.9277 31.6265Z" fill="#509D30"/>
<path fill-rule="evenodd" clip-rule="evenodd" d="M28.3164 36.3486L28.5591 35.8819L29.1004 36.1246C28.8391 35.7699 29.511 35.9566 28.5591 35.7886L28.3164 36.3486Z" fill="#509D30"/>
<path fill-rule="evenodd" clip-rule="evenodd" d="M11.4796 10.6456C11.3116 10.515 11.3302 10.4963 11.0503 10.3097C11.0503 10.3097 10.6396 10.0857 10.5649 10.0483L11.1996 10.8323L10.8449 10.291L11.4796 10.6456Z" fill="#509D30"/>
<path d="M22.3614 21.64C22.6397 21.64 22.8654 21.4144 22.8654 21.1361C22.8654 20.8577 22.6397 20.6321 22.3614 20.6321C22.0831 20.6321 21.8574 20.8577 21.8574 21.1361C21.8574 21.4144 22.0831 21.64 22.3614 21.64Z" fill="#509D30" stroke="#FCC59C" stroke-width="0.0707343" stroke-miterlimit="2.61313"/>
<path d="M22.3614 19.6991C22.6397 19.6991 22.8654 19.4735 22.8654 19.1951C22.8654 18.9168 22.6397 18.6912 22.3614 18.6912C22.0831 18.6912 21.8574 18.9168 21.8574 19.1951C21.8574 19.4735 22.0831 19.6991 22.3614 19.6991Z" fill="#509D30" stroke="#FCC59C" stroke-width="0.0707343" stroke-miterlimit="2.61313"/>
<path d="M22.3614 23.6C22.6397 23.6 22.8654 23.3744 22.8654 23.096C22.8654 22.8177 22.6397 22.592 22.3614 22.592C22.0831 22.592 21.8574 22.8177 21.8574 23.096C21.8574 23.3744 22.0831 23.6 22.3614 23.6Z" fill="#509D30" stroke="#FCC59C" stroke-width="0.0707343" stroke-miterlimit="2.61313"/>
<path d="M20.9137 21.1449C20.9137 20.8666 20.6881 20.641 20.4097 20.641C20.1314 20.641 19.9058 20.8666 19.9058 21.1449C19.9058 21.4233 20.1314 21.6489 20.4097 21.6489C20.6881 21.6489 20.9137 21.4233 20.9137 21.1449Z" fill="#509D30" stroke="#FCC59C" stroke-width="0.0707343" stroke-miterlimit="2.61313"/>
<path d="M24.8024 21.1449C24.8024 20.8666 24.5768 20.641 24.2984 20.641C24.0201 20.641 23.7944 20.8666 23.7944 21.1449C23.7944 21.4233 24.0201 21.6489 24.2984 21.6489C24.5768 21.6489 24.8024 21.4233 24.8024 21.1449Z" fill="#509D30" stroke="#FCC59C" stroke-width="0.0707343" stroke-miterlimit="2.61313"/>
<path d="M21.3359 22.1626C21.139 21.9658 20.8199 21.9658 20.6231 22.1626C20.4263 22.3594 20.4263 22.6785 20.6231 22.8753C20.8199 23.0721 21.139 23.0721 21.3359 22.8753C21.5327 22.6785 21.5327 22.3594 21.3359 22.1626Z" fill="#509D30" stroke="#FCC59C" stroke-width="0.0707343" stroke-miterlimit="2.61313"/>
<path d="M24.0854 19.4133C23.8886 19.2165 23.5695 19.2165 23.3726 19.4133C23.1758 19.6101 23.1758 19.9292 23.3726 20.1261C23.5695 20.3229 23.8886 20.3229 24.0854 20.1261C24.2822 19.9292 24.2822 19.6101 24.0854 19.4133Z" fill="#509D30" stroke="#FCC59C" stroke-width="0.0707343" stroke-miterlimit="2.61313"/>
<path d="M21.3357 20.1257C21.5325 19.9288 21.5325 19.6097 21.3357 19.4129C21.1389 19.2161 20.8198 19.2161 20.623 19.4129C20.4262 19.6097 20.4262 19.9288 20.623 20.1257C20.8198 20.3225 21.1389 20.3225 21.3357 20.1257Z" fill="#509D30" stroke="#FCC59C" stroke-width="0.0707343" stroke-miterlimit="2.61313"/>
<path d="M24.0852 22.8752C24.282 22.6784 24.282 22.3592 24.0852 22.1624C23.8884 21.9656 23.5693 21.9656 23.3725 22.1624C23.1757 22.3592 23.1757 22.6784 23.3725 22.8752C23.5693 23.072 23.8884 23.072 24.0852 22.8752Z" fill="#509D30" stroke="#FCC59C" stroke-width="0.0707343" stroke-miterlimit="2.61313"/>
<path fill-rule="evenodd" clip-rule="evenodd" d="M20.3834 27.1093L20.682 26.3066C21.018 25.5413 19.9354 26.4746 20.8687 26.1386C21.1673 26.0266 21.1113 25.952 21.1113 26.2693L21.746 26.4373L22.194 35.8263C22.5859 36.0689 22.3246 35.6956 22.6233 36.1249L23.1459 26.3626L24.1725 26.2133C24.9192 30.1331 26.4871 34.613 24.7512 38.1035C22.194 43.2926 18.4981 37.5062 18.6101 34.8743C18.6474 34.0343 19.4127 32.2797 19.6741 31.2344C19.954 30.0771 20.3834 28.2666 20.3834 27.1093ZM33.3375 31.9997L33.8788 32.1677L33.7855 32.1117L33.1882 31.2718C32.7776 30.6371 32.1616 29.9652 31.6576 29.3492C29.9963 27.3146 29.7537 27.4079 28.4097 25.9893C27.8311 25.3547 27.3831 24.9627 26.7111 24.4027L27.2524 23.4694L34.2708 27.3892C35.8574 28.6212 38.172 31.9997 36.3428 34.949C33.1509 36.4796 29.903 34.2583 28.7084 32.5224C27.9804 31.4958 27.3644 28.9012 26.1325 27.1653C25.5538 26.3626 25.5165 26.6053 25.3672 25.9706C25.2738 25.672 25.3485 25.5227 25.3485 25.4667C26.2631 25.0373 26.7671 26.008 27.4764 26.6986C28.8204 28.0239 29.9963 28.7892 31.3589 30.2825C31.9563 30.9358 32.6282 31.5331 33.3375 31.9997ZM11.5544 31.2531C11.4237 31.7944 11.6664 31.4584 11.1997 31.8131L10.7891 32.2797L10.7144 32.4104L11.4424 32.0184C11.7224 31.4771 11.5544 31.7571 11.9277 31.6264C13.085 30.7491 14.5222 29.4612 15.6609 28.3225C16.9862 27.0159 18.4048 25.1307 19.3941 25.3547C19.5621 26.0826 19.0207 26.5493 18.6474 27.1466C17.2848 29.3492 16.5008 31.7198 15.9222 32.5784C13.7383 35.8076 9.6131 35.9383 8.47448 34.9116C7.67184 34.2023 7.8025 31.5331 8.23182 30.3758C9.59443 26.7359 11.797 26.6053 14.2236 25.3733C15.4742 24.7387 16.3328 23.8427 17.5461 23.4694L18.0688 24.328C17.3221 25.0373 16.8928 25.4107 16.2582 26.064L12.8796 29.7412C12.8423 29.7785 12.805 29.8158 12.7676 29.8532C12.0397 30.6931 12.301 30.8051 11.5544 31.2531ZM20.9247 17.011C23.7059 15.9284 25.9085 17.8509 26.5991 19.6429C27.6444 22.3868 25.7592 24.664 23.8739 25.3173C18.5914 27.1279 15.0636 19.2696 20.9247 17.011ZM27.5698 20.0349C27.4951 18.8589 28.0364 19.1389 29.175 18.9896C31.9936 18.5789 33.9348 17.571 35.4468 17.3096C38.8253 16.7497 41.4572 18.9149 42.3159 21.2108C41.2519 23.4134 38.62 24.5334 35.3908 24.272C33.8975 24.1414 32.5722 23.6561 31.2469 23.3574C30.2203 23.1334 28.0364 22.9841 27.5511 22.3121C27.8871 21.1735 28.839 21.5655 30.1083 21.5468C32.4976 21.5468 36.6414 21.4348 38.8253 21.0802C37.0707 20.7068 35.1108 20.5388 33.1882 20.4828C31.7136 20.4268 28.4844 20.7628 27.5698 20.0349ZM17.0608 22.1814C17.3781 22.5734 17.4715 22.7974 16.6875 22.7601C13.7196 22.9841 11.2557 24.4587 8.69847 24.6267C5.86124 24.8133 3.32267 22.9281 2.50137 21.2108C3.22934 18.9336 5.71192 17.0483 8.97846 17.2536C10.2104 17.3283 11.573 18.1496 12.9916 18.5043C14.4662 18.8776 16.0902 18.9149 17.3968 19.3816L16.9675 20.2029L6.23456 20.9682C7.26119 21.5468 13.421 21.4535 16.8928 21.5841C17.1728 21.9201 17.3035 21.1922 17.0608 22.1814ZM33.8788 10.4032C34.4015 10.2352 33.5989 10.1606 33.5429 10.3659C33.3562 10.9259 33.7482 10.4032 33.7668 10.4032C33.8042 10.4032 33.8788 10.4032 33.8788 10.4032ZM33.5989 10.6272C31.8256 11.1872 26.3005 16.3577 25.8711 16.5817C24.1352 17.5336 25.8711 14.9764 26.1138 14.5844C27.6071 12.1205 28.2604 8.51797 32.5536 7.58467C38.7133 6.25939 37.2761 12.3072 34.9615 14.6217C33.8228 15.779 31.8816 15.779 28.783 17.4776C28.4657 17.6456 27.4951 18.2989 27.1964 18.2803C26.2631 18.2616 26.7298 17.571 26.9911 17.235L32.6842 11.8965C33.3002 11.2619 33.3935 11.2619 33.5989 10.6272ZM11.1997 10.8325L11.461 11.1872C12.917 12.1765 16.0529 16.2083 18.2928 17.5896C17.9195 18.2243 18.1061 17.7203 17.9381 18.5043C16.7248 18.2429 15.8102 17.2723 14.2236 16.619C13.2716 16.2083 11.0877 15.611 10.4157 15.1444C7.54118 13.1098 7.37319 8.90995 8.49314 7.95799C10.0611 6.59537 13.7009 7.58467 16.0155 9.99258C16.7995 10.7952 18.3301 14.9017 19.8607 16.3017C19.5061 16.6563 19.6741 16.5817 19.0954 16.731C18.9087 16.6003 17.8075 15.7417 17.2661 15.2377L12.357 11.2619C11.965 10.9632 11.853 10.9072 11.4797 10.6459L10.8451 10.2912L11.1997 10.8325ZM24.2099 15.3497C24.0979 15.7417 24.0419 15.835 23.8739 16.115L23.4259 15.947C22.8473 15.5924 22.9779 12.4005 22.9406 11.5232C22.8846 9.95525 22.6046 8.10732 22.6793 6.65137L22.194 6.09139C22.138 7.82733 21.9326 9.4886 21.8766 11.2245C21.8393 12.0645 21.7833 12.8858 21.7646 13.7258C21.7646 14.7151 22.0073 15.4804 21.298 16.003C20.5327 15.8537 20.85 16.507 20.3834 14.4164C19.898 12.1205 18.6474 10.2352 18.5728 8.89129C18.3674 5.69941 20.066 3.36616 22.026 2.54486C22.9219 2.15288 24.2845 3.60882 24.7512 4.1128C27.9991 7.734 24.5272 11.5232 24.2099 15.3497ZM28.3164 36.3489L28.559 35.7889C29.511 35.9569 28.839 35.7703 29.1004 36.1249C31.7883 38.4768 37.1267 37.7862 38.2653 36.6289C39.012 35.8449 39.3293 32.933 39.1986 31.5518C38.9933 29.0879 37.9667 28.1732 37.6307 27.2026C39.796 26.6053 40.7293 26.4 42.2412 25.1867C42.8012 24.7387 44.7798 22.3494 44.7984 21.2295C44.8171 20.0349 42.8385 17.5523 42.3345 17.1416C41.2146 16.227 39.7213 15.5177 37.836 15.0884C38.676 12.6805 39.852 11.4299 38.8253 7.65933C38.564 6.65137 38.4893 6.37138 37.6307 5.96073C34.4202 4.43012 30.9856 5.34475 28.559 6.95003C27.6631 5.34475 27.7191 4.01947 26.4311 2.4142C25.9831 1.81689 23.6312 -0.12437 22.194 0.00629144C20.7007 0.155619 18.6848 1.98488 18.1808 2.69419C16.0715 5.71807 16.9862 5.60608 16.2395 7.02469C13.2903 5.45675 11.1437 4.31813 7.13053 5.94207C6.14123 6.35272 6.23456 6.61404 5.91724 7.80866C5.65592 8.76062 5.56259 9.39527 5.59992 10.4219C5.63725 12.7551 6.38389 13.4084 6.96254 15.1444C5.1706 15.4244 3.50933 16.2083 2.46404 17.1416C1.92273 17.627 -0.0185323 20.0162 0.000133693 21.2108C0.0187996 22.5734 1.99739 24.5707 2.5947 25.168C3.91998 26.4746 5.15194 26.6799 7.16786 27.2026C6.64521 28.8265 5.76791 29.3678 5.59992 31.7757C5.46926 33.3437 5.69325 36.0503 6.81321 36.7969C7.93317 37.5622 10.4717 37.8795 11.9837 37.6555C13.9436 37.3569 14.9889 36.5729 16.2582 35.8263C16.9862 37.7862 16.9675 38.5702 18.1808 40.1941C18.7221 40.9407 20.7567 42.5833 22.0073 42.8073C23.5752 43.0873 25.3672 41.3327 26.1698 40.6234C27.1591 39.7461 28.1671 38.0662 28.3164 36.3489Z" fill="#666666"/>
<path fill-rule="evenodd" clip-rule="evenodd" d="M21.7093 18.019C18.9094 18.579 18.4428 21.4349 19.8054 23.1708C21.5227 25.3734 26.2825 24.4214 25.5732 20.4829C25.2185 18.5417 23.3333 17.7017 21.7093 18.019Z" fill="#ff0000"/>
<path fill-rule="evenodd" clip-rule="evenodd" d="M22.1943 6.0914L22.6796 6.65138L22.493 5.62476L22.1943 6.0914Z" fill="#509D30"/>
<path fill-rule="evenodd" clip-rule="evenodd" d="M33.7863 32.1115C33.7489 32.0555 33.5249 31.6635 33.5249 31.6635C33.1516 31.1595 33.4876 31.5888 33.189 31.2715L33.7863 32.1115ZM33.8796 32.1674L33.3383 31.9995C33.5063 32.2048 33.301 32.1674 33.8423 32.4661L33.9729 32.2981C33.9729 32.2794 33.8983 32.2234 33.8796 32.1674Z" fill="#509D30"/>
<path fill-rule="evenodd" clip-rule="evenodd" d="M11.1996 31.8127C10.9569 31.9994 11.1436 31.6448 10.7889 32.2794L11.1996 31.8127ZM10.7143 32.4101C10.6023 32.6527 10.4529 32.3914 10.7329 32.5967C10.8076 32.5407 11.0502 32.4101 11.1062 32.3727C11.4422 32.1301 11.2556 32.2607 11.4422 32.0181L10.7143 32.4101Z" fill="#509D30"/>
<path fill-rule="evenodd" clip-rule="evenodd" d="M11.5544 31.2532C11.3677 31.4212 11.3677 31.3465 11.1997 31.8132C11.6664 31.4585 11.4237 31.7945 11.5544 31.2532ZM11.9277 31.6265C11.5544 31.7572 11.7224 31.4772 11.4424 32.0185C11.8157 31.8318 11.7597 31.8132 11.9277 31.6265Z" fill="#509D30"/>
<path fill-rule="evenodd" clip-rule="evenodd" d="M28.3164 36.3486L28.5591 35.8819L29.1004 36.1246C28.8391 35.7699 29.511 35.9566 28.5591 35.7886L28.3164 36.3486Z" fill="#509D30"/>
<path fill-rule="evenodd" clip-rule="evenodd" d="M11.4796 10.6456C11.3116 10.515 11.3302 10.4963 11.0503 10.3097C11.0503 10.3097 10.6396 10.0857 10.5649 10.0483L11.1996 10.8323L10.8449 10.291L11.4796 10.6456Z" fill="#509D30"/>
<path d="M22.3619 21.6403C22.6402 21.6403 22.8659 21.4146 22.8659 21.1363C22.8659 20.858 22.6402 20.6323 22.3619 20.6323C22.0835 20.6323 21.8579 20.858 21.8579 21.1363C21.8579 21.4146 22.0835 21.6403 22.3619 21.6403Z" fill="white" stroke="#FCC59C" stroke-width="0.0707343" stroke-miterlimit="2.61313"/>
<path d="M22.3619 19.6991C22.6402 19.6991 22.8659 19.4735 22.8659 19.1951C22.8659 18.9168 22.6402 18.6912 22.3619 18.6912C22.0835 18.6912 21.8579 18.9168 21.8579 19.1951C21.8579 19.4735 22.0835 19.6991 22.3619 19.6991Z" fill="white"/>
<path d="M22.3621 23.6C22.6404 23.6 22.8661 23.3743 22.8661 23.096C22.8661 22.8177 22.6404 22.592 22.3621 22.592C22.0838 22.592 21.8581 22.8177 21.8581 23.096C21.8581 23.3743 22.0838 23.6 22.3621 23.6Z" fill="white"/>
<path d="M22.3619 19.6991C22.6402 19.6991 22.8659 19.4735 22.8659 19.1951C22.8659 18.9168 22.6402 18.6912 22.3619 18.6912C22.0835 18.6912 21.8579 18.9168 21.8579 19.1951C21.8579 19.4735 22.0835 19.6991 22.3619 19.6991Z" stroke="#FCC59C" stroke-width="0.0707343" stroke-miterlimit="2.61313"/>
<path d="M22.3621 23.6C22.6404 23.6 22.8661 23.3743 22.8661 23.096C22.8661 22.8177 22.6404 22.592 22.3621 22.592C22.0838 22.592 21.8581 22.8177 21.8581 23.096C21.8581 23.3743 22.0838 23.6 22.3621 23.6Z" stroke="#FCC59C" stroke-width="0.0707343" stroke-miterlimit="2.61313"/>
<path d="M20.9142 21.1446C20.9142 20.8663 20.6886 20.6406 20.4102 20.6406C20.1319 20.6406 19.9063 20.8663 19.9062 21.1446C19.9062 21.4229 20.1319 21.6486 20.4102 21.6486C20.6886 21.6486 20.9142 21.4229 20.9142 21.1446Z" fill="white"/>
<path d="M24.8027 21.1446C24.8027 20.8663 24.5771 20.6406 24.2987 20.6406C24.0204 20.6406 23.7948 20.8663 23.7948 21.1446C23.7948 21.4229 24.0204 21.6486 24.2987 21.6486C24.5771 21.6486 24.8027 21.4229 24.8027 21.1446Z" fill="white"/>
<path d="M20.9142 21.1446C20.9142 20.8663 20.6886 20.6406 20.4102 20.6406C20.1319 20.6406 19.9063 20.8663 19.9062 21.1446C19.9062 21.4229 20.1319 21.6486 20.4102 21.6486C20.6886 21.6486 20.9142 21.4229 20.9142 21.1446Z" stroke="#FCC59C" stroke-width="0.0707343" stroke-miterlimit="2.61313"/>
<path d="M24.8027 21.1446C24.8027 20.8663 24.5771 20.6406 24.2987 20.6406C24.0204 20.6406 23.7948 20.8663 23.7948 21.1446C23.7948 21.4229 24.0204 21.6486 24.2987 21.6486C24.5771 21.6486 24.8027 21.4229 24.8027 21.1446Z" stroke="#FCC59C" stroke-width="0.0707343" stroke-miterlimit="2.61313"/>
<path d="M21.3359 22.1629C21.1391 21.9661 20.82 21.9661 20.6232 22.1629C20.4264 22.3597 20.4264 22.6788 20.6232 22.8756C20.82 23.0724 21.1391 23.0724 21.3359 22.8756C21.5328 22.6788 21.5328 22.3597 21.3359 22.1629Z" fill="white"/>
<path d="M24.0858 19.4135C23.889 19.2167 23.5699 19.2167 23.3731 19.4135C23.1763 19.6103 23.1763 19.9294 23.3731 20.1262C23.5699 20.323 23.889 20.323 24.0858 20.1262C24.2827 19.9294 24.2827 19.6103 24.0858 19.4135Z" fill="white"/>
<path d="M21.3359 22.1629C21.1391 21.9661 20.82 21.9661 20.6232 22.1629C20.4264 22.3597 20.4264 22.6788 20.6232 22.8756C20.82 23.0724 21.1391 23.0724 21.3359 22.8756C21.5328 22.6788 21.5328 22.3597 21.3359 22.1629Z" stroke="#FCC59C" stroke-width="0.0707343" stroke-miterlimit="2.61313"/>
<path d="M24.0858 19.4135C23.889 19.2167 23.5699 19.2167 23.3731 19.4135C23.1763 19.6103 23.1763 19.9294 23.3731 20.1262C23.5699 20.323 23.889 20.323 24.0858 20.1262C24.2827 19.9294 24.2827 19.6103 24.0858 19.4135Z" stroke="#FCC59C" stroke-width="0.0707343" stroke-miterlimit="2.61313"/>
<path d="M21.3359 20.126C21.5328 19.9292 21.5328 19.6101 21.3359 19.4132C21.1391 19.2164 20.82 19.2164 20.6232 19.4132C20.4264 19.6101 20.4264 19.9292 20.6232 20.126C20.82 20.3228 21.1391 20.3228 21.3359 20.126Z" fill="white"/>
<path d="M24.0853 22.8754C24.2821 22.6785 24.2821 22.3594 24.0853 22.1626C23.8885 21.9658 23.5694 21.9658 23.3726 22.1626C23.1758 22.3594 23.1758 22.6785 23.3726 22.8754C23.5694 23.0722 23.8885 23.0722 24.0853 22.8754Z" fill="white"/>
<path d="M21.3359 20.126C21.5328 19.9292 21.5328 19.6101 21.3359 19.4132C21.1391 19.2164 20.82 19.2164 20.6232 19.4132C20.4264 19.6101 20.4264 19.9292 20.6232 20.126C20.82 20.3228 21.1391 20.3228 21.3359 20.126Z" stroke="#FCC59C" stroke-width="0.0707343" stroke-miterlimit="2.61313"/>
<path d="M24.0853 22.8754C24.2821 22.6785 24.2821 22.3594 24.0853 22.1626C23.8885 21.9658 23.5694 21.9658 23.3726 22.1626C23.1758 22.3594 23.1758 22.6785 23.3726 22.8754C23.5694 23.0722 23.8885 23.0722 24.0853 22.8754Z" stroke="#FCC59C" stroke-width="0.0707343" stroke-miterlimit="2.61313"/>
</svg>
