<svg width="13" height="14" viewBox="0 0 13 14" fill="none" xmlns="http://www.w3.org/2000/svg">
<path d="M2.8595 13.6305C2.46815 13.6305 2.13389 13.4971 1.85673 13.2304C1.57955 12.9636 1.44097 12.6419 1.44097 12.2653V2.67979H0.65625V1.54698H4.18745V0.878906H8.89575V1.54698H12.427V2.67979H11.6422V12.2653C11.6422 12.6468 11.5049 12.9697 11.2303 13.234C10.9556 13.4983 10.6201 13.6305 10.2237 13.6305H2.8595ZM10.4652 2.67979H2.61802V12.2653C2.61802 12.3331 2.64066 12.3887 2.68594 12.4323C2.73122 12.4759 2.78907 12.4977 2.8595 12.4977H10.2237C10.2841 12.4977 10.3394 12.4735 10.3897 12.4251C10.44 12.3766 10.4652 12.3234 10.4652 12.2653V2.67979ZM4.50438 10.9872H5.68143V4.19024H4.50438V10.9872ZM7.40177 10.9872H8.57882V4.19024H7.40177V10.9872Z" fill="#1C1B1F"/>
</svg>
