<svg width="31" height="31" viewBox="0 0 31 31" fill="none" xmlns="http://www.w3.org/2000/svg">
<path d="M15.5235 17.2797C16.1123 18.6311 16.5895 22.0946 16.631 22.4144M15.5235 16.978C19.7661 16.9591 19.9433 18.9445 17.3053 22.1126M4.65039 10.7356C5.30404 11.9422 4.65039 18.2009 4.92648 18.488M13.107 17.3806C11.0067 18.6996 7.7194 17.9782 5.25391 18.7901M14.9025 22.9181C14.9844 23.5744 14.7714 24.2827 14.1146 24.9354C12.3669 26.6723 9.97562 25.3178 9.58301 23.4306M25.6129 21.4078C26.4987 22.3134 26.813 23.7213 25.6015 24.9363C23.7138 26.8296 21.0677 25.0454 21.0617 22.9055M19.5805 5.22592C22.8896 3.79474 24.8541 9.60064 21.0536 10.388C17.9458 11.032 16.8061 6.8612 19.1543 5.31422M17.9023 11.1228C16.0123 13.3027 15.0732 14.7348 14.4923 17.0128M17.9239 11.5878C17.8317 14.3728 17.8909 16.3449 21.5456 14.8976M20.9608 14.8637C21.5183 16.6056 22.7042 18.9641 22.9744 20.8039M15.3991 17.0787C13.9345 17.177 11.3954 17.8208 10.3785 18.9588C9.77467 19.6342 7.804 21.7956 8.3782 22.9373C8.68541 23.549 12.6714 23.264 13.1964 23.1895C15.5556 22.8542 18.6535 23.264 20.9511 22.9373C21.4492 22.8665 20.725 22.2981 21.3795 22.2981C22.3563 22.2981 27.1299 21.1897 26.3008 20.1998C24.3783 17.9058 19.9479 19.7602 20.6225 22.108M4.95117 10.7532C8.19017 10.369 10.2956 10.2872 10.5403 10.7532C10.7849 11.2193 10.7849 14.1187 10.1181 17.7834" stroke="#F58634" stroke-width="1.28" stroke-linecap="round" stroke-linejoin="round"/>
</svg>
