<?xml version="1.0" encoding="utf-8"?>
<!-- Uploaded to: SVG Repo, www.svgrepo.com, Generator: SVG Repo Mixer Tools -->
<svg fill="#000000" height="800px" width="800px" version="1.2" baseProfile="tiny" id="earth" xmlns="http://www.w3.org/2000/svg" xmlns:xlink="http://www.w3.org/1999/xlink"
	  viewBox="0 0 256 163" xml:space="preserve">
<g>
	<g>
		<path d="M113.4,3v129.3H92.5h-3.2c-0.9,0-1.7-0.6-1.9-1.5C84.8,116,72,104.9,56.5,104.9S28.3,116,25.7,130.7
			c-0.2,0.9-0.9,1.5-1.9,1.5H8.2c-4.6,0-8.2-3.7-8.2-8.2V3H113.4z M234.8,136.4c0,13-10.5,23.5-23.5,23.5c-13,0-23.5-10.5-23.5-23.5
			s10.5-23.5,23.5-23.5C224.3,112.9,234.8,123.4,234.8,136.4z M220.3,136.4c0-4.9-4.1-9-9-9c-4.9,0-9,4.1-9,9c0,4.9,4.1,9,9,9
			C216.3,145.4,220.3,141.3,220.3,136.4z M80,136.4c0,13-10.5,23.5-23.5,23.5s-23.5-10.5-23.5-23.5s10.5-23.5,23.5-23.5
			S80,123.4,80,136.4z M65.5,136.4c0-4.9-4.1-9-9-9s-9,4.1-9,9c0,4.9,4.1,9,9,9S65.5,141.3,65.5,136.4z M256,117.2v6.3
			c0,4.8-3.8,8.7-8.7,8.7H244c-0.9,0-1.7-0.6-1.9-1.5c-2.6-14.7-15.4-25.9-30.8-25.9s-28.3,11.2-30.8,25.9c-0.2,0.9-0.9,1.5-1.9,1.5
			h-57.9V33.5h35.5c2.5,0.1,4.9,1.1,6.6,2.8l38,41c0.3,0.3,0.9,0.6,1.4,0.6h33.3c7.6,0,13.7,6.1,13.7,13.6v24h5
			C255.1,115.4,256,116.3,256,117.2z M184,74.6l-27.5-30.3c-0.4-0.3-0.9-0.6-1.5-0.6h-21.9c-1,0-1.9,0.9-1.9,1.9V76
			c0,1,0.9,1.9,1.9,1.9h49.4C184.2,77.9,185,75.9,184,74.6z"/>
	</g>
</g>
</svg>