<?xml version="1.0" standalone="no"?>
<!DOCTYPE svg PUBLIC "-//W3C//DTD SVG 20010904//EN"
 "http://www.w3.org/TR/2001/REC-SVG-20010904/DTD/svg10.dtd">
<svg version="1.0" xmlns="http://www.w3.org/2000/svg"
width="20px" height="20px" viewBox="0 0 512.000000 512.000000"
 preserveAspectRatio="xMidYMid meet">

<g transform="translate(0.000000,512.000000) scale(0.100000,-0.100000)"
fill="#000000" stroke="none">
<path d="M2458 4946 c-21 -8 -49 -21 -63 -30 -35 -23 -82 -90 -91 -129 -4 -18
-89 -507 -189 -1087 l-181 -1055 -370 -5 -369 -5 -63 -34 c-70 -38 -100 -69
-140 -145 l-27 -51 -3 -1098 -2 -1098 24 -24 c24 -24 29 -25 176 -25 147 0
152 1 175 25 14 13 25 30 25 37 0 14 216 1678 226 1740 l6 38 364 0 364 0 0
-895 0 -896 25 -24 c23 -24 28 -25 175 -25 147 0 152 1 175 25 14 13 25 30 25
37 0 14 216 1678 226 1741 l6 37 88 0 88 0 6 -37 c10 -63 226 -1727 226 -1741
0 -7 11 -24 25 -37 23 -24 28 -25 175 -25 147 0 152 1 175 25 l25 24 0 1168
-1 1168 187 1085 c148 861 185 1095 180 1132 -12 82 -86 166 -166 188 -21 6
-311 10 -750 10 -570 -1 -723 -4 -752 -14z m1206 -163 c-3 -10 -87 -495 -188
-1078 l-182 -1060 -597 -3 c-523 -2 -597 0 -597 13 0 8 81 484 180 1057 173
1005 180 1044 205 1066 l26 22 579 0 c546 0 578 -1 574 -17z m281 -8 c14 -13
25 -33 25 -43 0 -11 -83 -502 -185 -1092 l-185 -1073 0 -203 0 -204 -440 0
-440 0 0 98 c0 88 -10 144 -35 205 -7 16 14 17 348 17 331 0 356 1 378 19 21
17 37 102 216 1137 186 1079 193 1120 218 1142 34 29 70 28 100 -3z m-1481
-2309 c18 -8 46 -31 62 -52 27 -35 29 -44 32 -146 l4 -108 -721 0 -721 0 0 94
c0 129 23 180 95 212 45 20 1201 20 1249 0z m-1039 -498 c-3 -18 -50 -379
-105 -803 -55 -424 -103 -787 -106 -807 -6 -37 -7 -38 -50 -38 l-44 0 0 840 0
840 155 0 156 0 -6 -32z m1360 0 c-3 -18 -50 -379 -105 -803 -55 -424 -103
-787 -106 -807 -6 -37 -7 -38 -50 -38 l-44 0 0 840 0 840 155 0 156 0 -6 -32z
m815 -808 l0 -840 -44 0 c-43 0 -44 1 -50 38 -3 20 -51 383 -106 807 -55 424
-102 785 -105 803 l-6 32 156 0 155 0 0 -840z"/>
</g>
</svg>
