<svg width="20" height="21" viewBox="0 0 20 21" fill="none" xmlns="http://www.w3.org/2000/svg">
<path d="M0.890625 20.6781V17.8282H19.7531V20.6781H0.890625ZM4.66312 13.4709H5.82932L13.6573 5.60044L13.0642 4.99389L12.4766 4.41111L4.66312 12.2962V13.4709ZM3.24846 14.8959V11.6897L13.8205 1.05508C13.9572 0.917453 14.1122 0.813324 14.2857 0.742691C14.4592 0.672042 14.6398 0.636719 14.8273 0.636719C15.0148 0.636719 15.1965 0.672042 15.3723 0.742691C15.5481 0.813324 15.7091 0.92233 15.8555 1.06971L16.989 2.22615C17.1353 2.36377 17.2411 2.52138 17.3064 2.69896C17.3717 2.87657 17.4043 3.06009 17.4043 3.24952C17.4043 3.42712 17.3712 3.60379 17.305 3.77952C17.2388 3.95526 17.1335 4.11585 16.989 4.26129L6.43145 14.8959H3.24846ZM13.6573 5.60044L13.0642 4.99389L12.4766 4.41111L13.6573 5.60044Z" fill="#212121"/>
</svg>
