<svg width="15" height="18" viewBox="0 0 15 18" fill="none" xmlns="http://www.w3.org/2000/svg">
<path d="M3.35233 3.48637C2.88538 3.48637 2.48565 3.32059 2.15313 2.98904C1.82061 2.6575 1.65434 2.25893 1.65434 1.79335C1.65434 1.32778 1.82061 0.929212 2.15313 0.597664C2.48565 0.266116 2.88538 0.100342 3.35233 0.100342C3.81927 0.100342 4.219 0.266116 4.55152 0.597664C4.88405 0.929212 5.05031 1.32778 5.05031 1.79335C5.05031 2.25893 4.88405 2.6575 4.55152 2.98904C4.219 3.32059 3.81927 3.48637 3.35233 3.48637ZM12.2667 7.7189C11.913 7.7189 11.6123 7.59545 11.3647 7.34855C11.1171 7.10165 10.9932 6.80185 10.9932 6.44914C10.9932 6.09643 11.1171 5.79662 11.3647 5.54972C11.6123 5.30283 11.913 5.17938 12.2667 5.17938C12.6205 5.17938 12.9212 5.30283 13.1688 5.54972C13.4164 5.79662 13.5402 6.09643 13.5402 6.44914C13.5402 6.80185 13.4164 7.10165 13.1688 7.34855C12.9212 7.59545 12.6205 7.7189 12.2667 7.7189ZM1.65434 17.0305V11.1049H0.380859V6.02588C0.380859 5.56031 0.54712 5.16174 0.879641 4.83019C1.21216 4.49865 1.6119 4.33287 2.07884 4.33287H4.62581C4.93711 4.33287 5.2201 4.40694 5.4748 4.55508C5.7295 4.70322 5.93467 4.91132 6.09032 5.17938L9.12546 10.4066L9.99568 9.11563C10.1089 8.94633 10.261 8.8123 10.452 8.71354C10.643 8.61478 10.8447 8.5654 11.0569 8.5654H13.5402C13.894 8.5654 14.1946 8.68885 14.4423 8.93575C14.6899 9.18265 14.8137 9.48245 14.8137 9.83516V12.7979H13.9647V17.0305H10.5687V11.0203L9.91078 11.9514H8.043L5.8993 8.2268V17.0305H1.65434Z" fill="#666666"/>
</svg>
