<svg width="23" height="23" viewBox="0 0 23 23" fill="none" xmlns="http://www.w3.org/2000/svg">
<path d="M6.72932 16.206C6.80692 16.3901 6.8818 16.5713 6.95668 16.7525C7.03156 16.9336 7.10644 17.1148 7.18403 17.299C7.22836 17.4043 7.27669 17.5151 7.32585 17.6278C7.39204 17.7796 7.45973 17.9348 7.52117 18.0847M6.72932 16.206L7.52117 18.0847M6.72932 16.206C6.70597 16.1506 6.67917 16.0802 6.64948 16.0022C6.53224 15.6943 6.37011 15.2685 6.19865 15.1852L6.72932 16.206ZM7.52117 18.0847C7.56435 18.19 7.60444 18.2927 7.63875 18.3898C7.6682 18.3548 7.72313 18.2463 7.79355 18.0918C7.75234 17.9878 7.70731 17.8804 7.66138 17.7732C7.64756 17.805 7.63407 17.8359 7.62098 17.8655C7.58366 17.9501 7.55007 18.024 7.52117 18.0847ZM3.17637 14.5599L3.17634 14.5598C2.72656 13.7489 2.73963 13.0377 2.75496 12.2038C2.75783 12.0475 2.76079 11.8869 2.76079 11.7205C2.76079 11.6137 2.75969 11.3736 2.75819 11.0468C2.75538 10.4347 2.75118 9.5183 2.75021 8.60321C2.74946 7.90399 2.75061 7.20846 2.75576 6.65839C2.76081 6.11949 2.76961 5.69595 2.78731 5.5606L3.17637 14.5599ZM3.17637 14.5599C3.52885 15.195 4.1949 15.7873 5.05029 16.027C5.24688 16.0822 5.39074 16.1018 5.4839 16.1144C5.50382 16.1171 5.52141 16.1195 5.53672 16.1219C5.56631 16.1265 5.58032 16.1299 5.5863 16.1316C5.58713 16.1326 5.58817 16.1339 5.58944 16.1356C5.62167 16.178 5.66598 16.2726 5.76855 16.5292C5.78793 16.5776 5.80901 16.6308 5.83209 16.689C5.92401 16.9207 6.0477 17.2325 6.22259 17.6488C6.25175 17.7184 6.30118 17.8402 6.36332 17.9934C6.45359 18.216 6.5707 18.5047 6.69151 18.7953C6.79119 19.0351 6.89111 19.2704 6.9739 19.4542C7.01517 19.5458 7.05333 19.6272 7.08578 19.6908C7.10192 19.7224 7.11797 19.7522 7.13329 19.7779C7.14543 19.7983 7.16765 19.8343 7.19735 19.8647L7.19757 19.8649M3.17637 14.5599L7.19757 19.8649M7.19757 19.8649C7.33949 20.0097 7.53454 20.0558 7.69806 20.0466C7.85711 20.0376 8.04453 19.9724 8.15842 19.818L8.15865 19.8177M7.19757 19.8649L8.15865 19.8177M8.15865 19.8177C8.19104 19.7737 8.21873 19.7176 8.23929 19.673C8.26199 19.6238 8.28507 19.5681 8.3066 19.5142C8.32707 19.463 8.34529 19.4159 8.36158 19.3737C8.38233 19.32 8.39995 19.2744 8.41515 19.2388L8.41594 19.2369M8.15865 19.8177L8.41594 19.2369M8.41594 19.2369L9.31508 17.0778M8.41594 19.2369L9.31508 17.0778M9.31508 17.0778C9.31516 17.0776 9.31524 17.0775 9.31531 17.0773M9.31508 17.0778L9.31531 17.0773M9.31531 17.0773C9.34707 17.0022 9.38478 16.9178 9.42643 16.8245C9.46566 16.7368 9.50837 16.6412 9.55291 16.5381C9.60676 16.4135 9.66175 16.2813 9.70477 16.161L9.31531 17.0773ZM9.98153 14.8974L9.95625 15.1462L9.98176 14.8975C9.98169 14.8975 9.98161 14.8974 9.98153 14.8974ZM4.01764 3.46496C3.47745 3.86057 2.91484 4.58357 2.78732 5.56049L4.01764 3.46496Z" fill="#212121" stroke="#212121" stroke-width="0.5"/>
<path fill-rule="evenodd" clip-rule="evenodd" d="M12.4584 15.111C12.5436 15.0312 12.5061 15.0451 12.7612 15.0119L13.644 14.8878C14.7824 14.724 14.5507 14.9199 15.1454 13.7091C15.2615 13.4726 15.458 12.9956 15.6007 12.8292C15.7966 13.077 16.273 14.2546 16.5155 14.618C16.668 14.8465 17.7174 14.9118 18.1873 14.9777C18.3463 14.9996 18.6225 15.0002 18.7424 15.1094C18.533 15.2544 18.2161 15.5884 18.0093 15.7816C17.0695 16.6578 17.1444 16.3469 17.3517 17.5619C17.4163 17.9398 17.4808 18.323 17.5465 18.702C17.273 18.6426 15.8693 17.7599 15.6012 17.7637C15.3321 17.768 13.9549 18.6249 13.6532 18.7041C13.7135 18.3139 13.7878 17.9168 13.8562 17.526C14.0618 16.3469 14.1101 16.6434 13.1708 15.7666C12.9652 15.5745 12.6673 15.2576 12.4584 15.111ZM11.6369 14.4023C11.3417 14.4505 11.129 14.6035 11.2489 14.9333L12.1735 15.8903C12.2891 15.9989 13.1193 16.7531 13.1453 16.8018C13.2251 16.9512 12.9657 18.1357 12.9191 18.3969C12.8388 18.8486 12.5268 19.7532 13.0943 19.7982C13.4232 19.8239 15.4303 18.5671 15.6218 18.596C15.6989 18.6072 16.7098 19.1473 16.8601 19.2281C17.1281 19.3716 17.909 19.8496 18.1738 19.7869C18.6659 19.6703 18.3441 18.7593 18.272 18.3401C17.9659 16.5604 17.8579 16.9742 18.54 16.3415C18.712 16.182 18.8558 16.0471 19.0262 15.8882C19.1559 15.7672 19.902 15.0644 19.9503 14.9311C20.17 14.3284 19.2877 14.3648 18.7397 14.2851C18.2009 14.2064 17.6225 14.1063 17.0836 14.0533C16.9632 13.7198 16.3169 12.5053 16.0814 12.037C15.9724 11.8202 15.8872 11.5553 15.6007 11.5542C15.2415 11.5531 15.0043 12.2656 14.7721 12.7328C14.5887 13.1011 14.2403 13.6824 14.1166 14.0528L11.6369 14.4023Z" fill="#212121"/>
<path d="M7.14551 6.89746H15.7899M7.14551 8.94267H15.7899M7.14556 10.9943H11.2385" stroke="#212121" stroke-miterlimit="2.61313" stroke-linecap="round"/>
</svg>
