<svg width="23" height="23" viewBox="0 0 23 23" fill="none" xmlns="http://www.w3.org/2000/svg">
<path d="M7.66138 17.7124C7.62451 17.6263 7.58707 17.5404 7.55054 17.4567C7.50243 17.3464 7.45592 17.2397 7.41446 17.1412L7.41441 17.1411C7.33721 16.9579 7.26266 16.7775 7.18772 16.5962L7.18766 16.596C7.11285 16.415 7.03767 16.2331 6.9597 16.0481L6.95968 16.048C6.93821 15.9971 6.91348 15.9322 6.88395 15.8547C6.87672 15.8357 6.8692 15.8159 6.86138 15.7955C6.8228 15.6946 6.77839 15.5805 6.73009 15.4706C6.68229 15.3618 6.62744 15.2496 6.56638 15.1544C6.51091 15.068 6.42701 14.9574 6.30788 14.8996M7.66138 17.7124L5.57061 14.794M7.66138 17.7124C7.7487 17.5111 7.84952 17.269 7.95152 17.0201C8.0684 16.7349 8.18766 16.4385 8.28853 16.1878C8.38942 15.9371 8.47192 15.7321 8.51527 15.6296C8.53886 15.5736 8.55864 15.5202 8.57834 15.4662C8.58012 15.4614 8.58191 15.4565 8.58372 15.4515C8.60114 15.4037 8.61977 15.3527 8.63971 15.305C8.6842 15.1986 8.74736 15.0776 8.86659 14.9826C8.98658 14.887 9.13546 14.8395 9.31156 14.8203C9.48546 14.8013 9.704 14.8082 9.98153 14.8366C10.1803 14.8569 10.3683 14.9566 10.477 15.1327C10.589 15.3142 10.593 15.5377 10.4961 15.752L10.4959 15.7524C10.3905 15.9843 10.1875 16.0633 10.0108 16.0883C9.91728 16.1015 9.80691 16.1019 9.70477 16.1002C9.66175 16.2205 9.60676 16.3527 9.55291 16.4773C9.50838 16.5804 9.46566 16.676 9.42644 16.7637C9.38479 16.857 9.34707 16.9414 9.31531 17.0165C9.31524 17.0167 9.31516 17.0168 9.31508 17.017L8.41594 19.1761L8.41515 19.178C8.39995 19.2136 8.38233 19.2592 8.36158 19.3129C8.34529 19.3551 8.32707 19.4022 8.3066 19.4534C8.28507 19.5073 8.26199 19.563 8.23929 19.6122C8.21873 19.6568 8.19104 19.7129 8.15864 19.7569L8.15842 19.7572C8.04453 19.9116 7.85711 19.9768 7.69806 19.9858C7.53455 19.995 7.33949 19.9489 7.19757 19.8041L7.19735 19.8039C7.16765 19.7735 7.14543 19.7375 7.13329 19.7171C7.11797 19.6915 7.10192 19.6616 7.08578 19.63C7.05333 19.5664 7.01517 19.485 6.9739 19.3934C6.89111 19.2096 6.79119 18.9743 6.69151 18.7345C6.5707 18.4439 6.45359 18.1551 6.36331 17.9326C6.30122 17.7795 6.25182 17.6577 6.22265 17.5882M7.66138 17.7124L6.22265 17.5882M6.30788 14.8996C6.30796 14.8996 6.30804 14.8996 6.30812 14.8997L6.19865 15.1244L6.30788 14.8996ZM6.30788 14.8996C6.23887 14.866 6.16055 14.8511 6.10067 14.8425C6.03588 14.8331 5.96521 14.8277 5.90006 14.8235C5.87543 14.8219 5.85176 14.8205 5.82906 14.8191C5.72 14.8123 5.63344 14.807 5.57061 14.794M5.57061 14.794L5.51984 15.0388M5.57061 14.794L5.51984 15.0388M5.51984 15.0388C4.58057 14.844 3.79486 14.0614 3.78184 12.9149M5.51984 15.0388L5.57053 14.794C4.73551 14.6208 4.04402 13.9307 4.03184 12.9135M3.78184 12.9149L4.03184 12.9149L4.03184 12.9135M3.78184 12.9149L4.03183 12.9121C4.03183 12.9125 4.03184 12.913 4.03184 12.9135M3.78184 12.9149L3.78238 6.78412C3.78238 6.68504 3.78097 6.58709 3.77958 6.49024C3.77088 5.88704 3.76279 5.32618 4.10036 4.79672M4.03184 12.9135L4.03238 6.78414V6.78412C4.03238 6.6783 4.03114 6.57635 4.02994 6.47776C4.02255 5.87155 4.01671 5.393 4.3111 4.9312L4.10036 4.79672M4.10036 4.79672L4.31116 4.93112M4.10036 4.79672C4.76326 3.75789 5.60981 3.76129 6.72408 3.76575C6.79825 3.76605 6.8736 3.76635 6.95017 3.76635L4.31116 4.93112M4.31116 4.93112C4.63097 4.42997 4.9837 4.21162 5.39165 4.10841C5.77062 4.01253 6.19721 4.01401 6.72244 4.01583C6.79635 4.01609 6.87221 4.01635 6.95017 4.01635H16.2545C16.3398 4.01663 16.4203 4.01661 16.4965 4.01659C16.9528 4.01647 17.2552 4.0164 17.5284 4.08042C17.8252 4.14994 18.0969 4.2999 18.4763 4.67091C18.6543 4.84527 18.8616 5.21868 18.9225 5.5648L18.9226 5.56509C18.9333 5.62521 18.9437 5.7808 18.9513 6.02994C18.9586 6.27136 18.963 6.58287 18.9653 6.94135C18.9697 7.65805 18.9656 8.55663 18.9599 9.44594C18.9583 9.69122 18.9566 9.93583 18.955 10.1757C18.9506 10.8046 18.9465 11.4006 18.9453 11.8901C18.9445 12.228 18.9451 12.5166 18.948 12.7307C18.9494 12.8376 18.9515 12.9276 18.9543 12.9966C18.9567 13.0558 18.9603 13.1234 18.97 13.1682L18.9701 13.1685C19.0044 13.3252 19.1045 13.4491 19.2154 13.5307C19.3269 13.6129 19.47 13.6681 19.6199 13.6688C19.7757 13.6695 19.9387 13.6102 20.0583 13.4664C20.1734 13.3279 20.2258 13.1385 20.2278 12.9182V12.9159L20.2262 8.32565M4.31116 4.93112L20.2262 8.32565M20.2262 8.32565C20.2262 8.32562 20.2262 8.32559 20.2262 8.32556C20.2262 8.13612 20.2311 7.90343 20.2365 7.64602L20.237 7.62083C20.2426 7.35462 20.2485 7.06463 20.2498 6.77702C20.2522 6.21001 20.2369 5.62461 20.1557 5.24123M20.2262 8.32565L19.6442 4.08641M5.05029 15.9663C4.1949 15.7265 3.52885 15.1342 3.17637 14.4991L3.17634 14.499C2.72656 13.6881 2.73963 12.9769 2.75496 12.143C2.75783 11.9867 2.76079 11.8261 2.76079 11.6597C2.76079 11.5529 2.75969 11.3128 2.75819 10.986C2.75538 10.3739 2.75118 9.45751 2.75021 8.54242C2.74946 7.8432 2.75061 7.14767 2.75576 6.5976C2.76081 6.0587 2.76961 5.63516 2.78731 5.49981L5.05029 15.9663ZM5.05029 15.9663C5.24688 16.0214 5.39074 16.041 5.48389 16.0536C5.50381 16.0564 5.52141 16.0587 5.53671 16.0611C5.56631 16.0657 5.58032 16.0691 5.5863 16.0708C5.58713 16.0718 5.58817 16.0732 5.58944 16.0748C5.62167 16.1172 5.66598 16.2119 5.76855 16.4684C5.78793 16.5168 5.80901 16.57 5.83209 16.6282C5.92402 16.8599 6.04773 17.1718 6.22265 17.5882M5.05029 15.9663L6.22265 17.5882M6.22265 17.5882C6.22263 17.5881 6.22261 17.5881 6.22259 17.588L6.45313 17.4913L6.22265 17.5882ZM19.6442 4.08641L19.6444 4.0866C19.8389 4.38897 20.0561 4.76863 20.1557 5.24123M19.6442 4.08641C19.5651 3.96373 19.4068 3.79575 19.2549 3.65096C19.1006 3.5039 18.9235 3.35285 18.7931 3.2697L18.7927 3.26949M19.6442 4.08641L18.7927 3.26949M20.1557 5.24123C20.1557 5.24128 20.1557 5.24132 20.1557 5.24137L19.9111 5.29288L20.1556 5.24106C20.1556 5.24111 20.1556 5.24117 20.1557 5.24123ZM18.7927 3.26949C17.9647 2.74366 17.1768 2.74666 16.2131 2.75033M18.7927 3.26949L16.2131 2.75033M16.2131 2.75033C16.1432 2.7506 16.0722 2.75087 16.0003 2.75094M16.2131 2.75033L16.0003 2.75094M16.0003 2.75094H6.69568C6.11027 2.75094 5.65519 2.75115 5.24392 2.83318C4.81992 2.91775 4.45068 3.08665 4.01777 3.40407L16.0003 2.75094ZM4.0177 3.40412C3.47749 3.79972 2.91485 4.52273 2.78732 5.4997L4.0177 3.40412Z" fill="#F58634" stroke="#F58634" stroke-width="0.5"/>
<path fill-rule="evenodd" clip-rule="evenodd" d="M12.4584 15.0502C12.5436 14.9704 12.5061 14.9843 12.7612 14.9511L13.644 14.827C14.7824 14.6632 14.5507 14.8591 15.1454 13.6483C15.2615 13.4118 15.458 12.9348 15.6007 12.7684C15.7966 13.0162 16.273 14.1938 16.5155 14.5572C16.668 14.7858 17.7174 14.8511 18.1873 14.9169C18.3463 14.9388 18.6225 14.9394 18.7424 15.0486C18.533 15.1936 18.2161 15.5276 18.0093 15.7208C17.0695 16.5971 17.1444 16.2861 17.3517 17.5011C17.4163 17.879 17.4808 18.2622 17.5465 18.6412C17.273 18.5818 15.8693 17.6991 15.6012 17.7029C15.3321 17.7072 13.9549 18.5641 13.6532 18.6433C13.7135 18.2531 13.7878 17.856 13.8562 17.4652C14.0618 16.2861 14.1101 16.5826 13.1708 15.7059C12.9652 15.5137 12.6673 15.1968 12.4584 15.0502ZM11.6369 14.3415C11.3417 14.3897 11.129 14.5428 11.2489 14.8725L12.1735 15.8295C12.2891 15.9382 13.1193 16.6923 13.1453 16.741C13.2251 16.8904 12.9657 18.0749 12.9191 18.3361C12.8388 18.7878 12.5268 19.6924 13.0943 19.7374C13.4232 19.7631 15.4303 18.5063 15.6218 18.5352C15.6989 18.5464 16.7098 19.0865 16.8601 19.1673C17.1281 19.3108 17.909 19.7888 18.1738 19.7261C18.6659 19.6095 18.3441 18.6985 18.272 18.2794C17.9659 16.4996 17.8579 16.9134 18.54 16.2807C18.712 16.1212 18.8558 15.9863 19.0262 15.8274C19.1559 15.7064 19.902 15.0036 19.9503 14.8703C20.17 14.2676 19.2877 14.304 18.7397 14.2243C18.2009 14.1456 17.6225 14.0455 17.0836 13.9925C16.9632 13.659 16.3169 12.4446 16.0814 11.9762C15.9724 11.7594 15.8872 11.4945 15.6007 11.4934C15.2415 11.4923 15.0043 12.2048 14.7721 12.672C14.5887 13.0403 14.2403 13.6216 14.1166 13.992L11.6369 14.3415Z" fill="#F58634"/>
<path d="M7.14551 6.83667H15.7899M7.14551 8.88187H15.7899M7.14556 10.9335H11.2385" stroke="#F58634" stroke-miterlimit="2.61313" stroke-linecap="round"/>
</svg>
