<svg width="31" height="31" viewBox="0 0 31 31" fill="none" xmlns="http://www.w3.org/2000/svg">
<mask id="mask0_2025_2454" style="mask-type:luminance" maskUnits="userSpaceOnUse" x="1" y="1" width="29" height="29">
<path d="M28.7409 12.9167H15.5013V18.4063H23.1221C22.4117 21.8938 19.4409 23.8959 15.5013 23.8959C10.8513 23.8959 7.10547 20.1501 7.10547 15.5001C7.10547 10.8501 10.8513 7.10425 15.5013 7.10425C17.5034 7.10425 19.3117 7.81466 20.7326 8.97716L24.8659 4.84383C22.3471 2.648 19.118 1.29175 15.5013 1.29175C7.62214 1.29175 1.29297 7.62091 1.29297 15.5001C1.29297 23.3792 7.62214 29.7084 15.5013 29.7084C22.6055 29.7084 29.0638 24.5417 29.0638 15.5001C29.0638 14.6605 28.9346 13.7563 28.7409 12.9167Z" fill="white"/>
</mask>
<g mask="url(#mask0_2025_2454)">
<path d="M0 23.8959V7.10425L10.9792 15.5001L0 23.8959Z" fill="#FBBC05"/>
</g>
<mask id="mask1_2025_2454" style="mask-type:luminance" maskUnits="userSpaceOnUse" x="1" y="1" width="29" height="29">
<path d="M28.7409 12.9167H15.5013V18.4063H23.1221C22.4117 21.8938 19.4409 23.8959 15.5013 23.8959C10.8513 23.8959 7.10547 20.1501 7.10547 15.5001C7.10547 10.8501 10.8513 7.10425 15.5013 7.10425C17.5034 7.10425 19.3117 7.81466 20.7326 8.97716L24.8659 4.84383C22.3471 2.648 19.118 1.29175 15.5013 1.29175C7.62214 1.29175 1.29297 7.62091 1.29297 15.5001C1.29297 23.3792 7.62214 29.7084 15.5013 29.7084C22.6055 29.7084 29.0638 24.5417 29.0638 15.5001C29.0638 14.6605 28.9346 13.7563 28.7409 12.9167Z" fill="white"/>
</mask>
<g mask="url(#mask1_2025_2454)">
<path d="M0 7.10417L10.9792 15.5L15.5 11.5604L31 9.04167V0H0V7.10417Z" fill="#EA4335"/>
</g>
<mask id="mask2_2025_2454" style="mask-type:luminance" maskUnits="userSpaceOnUse" x="1" y="1" width="29" height="29">
<path d="M28.7409 12.9167H15.5013V18.4063H23.1221C22.4117 21.8938 19.4409 23.8959 15.5013 23.8959C10.8513 23.8959 7.10547 20.1501 7.10547 15.5001C7.10547 10.8501 10.8513 7.10425 15.5013 7.10425C17.5034 7.10425 19.3117 7.81466 20.7326 8.97716L24.8659 4.84383C22.3471 2.648 19.118 1.29175 15.5013 1.29175C7.62214 1.29175 1.29297 7.62091 1.29297 15.5001C1.29297 23.3792 7.62214 29.7084 15.5013 29.7084C22.6055 29.7084 29.0638 24.5417 29.0638 15.5001C29.0638 14.6605 28.9346 13.7563 28.7409 12.9167Z" fill="white"/>
</mask>
<g mask="url(#mask2_2025_2454)">
<path d="M0 23.8958L19.375 9.04167L24.4771 9.6875L31 0V31H0V23.8958Z" fill="#34A853"/>
</g>
<mask id="mask3_2025_2454" style="mask-type:luminance" maskUnits="userSpaceOnUse" x="1" y="1" width="29" height="29">
<path d="M28.7409 12.9167H15.5013V18.4063H23.1221C22.4117 21.8938 19.4409 23.8959 15.5013 23.8959C10.8513 23.8959 7.10547 20.1501 7.10547 15.5001C7.10547 10.8501 10.8513 7.10425 15.5013 7.10425C17.5034 7.10425 19.3117 7.81466 20.7326 8.97716L24.8659 4.84383C22.3471 2.648 19.118 1.29175 15.5013 1.29175C7.62214 1.29175 1.29297 7.62091 1.29297 15.5001C1.29297 23.3792 7.62214 29.7084 15.5013 29.7084C22.6055 29.7084 29.0638 24.5417 29.0638 15.5001C29.0638 14.6605 28.9346 13.7563 28.7409 12.9167Z" fill="white"/>
</mask>
<g mask="url(#mask3_2025_2454)">
<path d="M31.0026 31.0001L10.9818 15.5001L8.39844 13.5626L31.0026 7.10425V31.0001Z" fill="#4285F4"/>
</g>
</svg>
