<svg width="18" height="17" viewBox="0 0 18 17" fill="none" xmlns="http://www.w3.org/2000/svg">
<path d="M2.88761 8.17934C2.29332 8.17934 1.791 7.97477 1.38065 7.56563C0.970309 7.15648 0.765137 6.65563 0.765137 6.06308C0.765137 5.47053 0.970309 4.96968 1.38065 4.56053C1.791 4.15139 2.29332 3.94681 2.88761 3.94681C3.48191 3.94681 3.98423 4.15139 4.39457 4.56053C4.80492 4.96968 5.01009 5.47053 5.01009 6.06308C5.01009 6.65563 4.80492 7.15648 4.39457 7.56563C3.98423 7.97477 3.48191 8.17934 2.88761 8.17934ZM6.70807 4.79332C6.11378 4.79332 5.61146 4.58875 5.20111 4.1796C4.79077 3.77046 4.58559 3.26961 4.58559 2.67706C4.58559 2.0845 4.79077 1.58365 5.20111 1.17451C5.61146 0.765363 6.11378 0.560791 6.70807 0.560791C7.30236 0.560791 7.80468 0.765363 8.21503 1.17451C8.62537 1.58365 8.83055 2.0845 8.83055 2.67706C8.83055 3.26961 8.62537 3.77046 8.21503 4.1796C7.80468 4.58875 7.30236 4.79332 6.70807 4.79332ZM11.802 4.79332C11.2077 4.79332 10.7054 4.58875 10.2951 4.1796C9.88471 3.77046 9.67954 3.26961 9.67954 2.67706C9.67954 2.0845 9.88471 1.58365 10.2951 1.17451C10.7054 0.765363 11.2077 0.560791 11.802 0.560791C12.3963 0.560791 12.8986 0.765363 13.309 1.17451C13.7193 1.58365 13.9245 2.0845 13.9245 2.67706C13.9245 3.26961 13.7193 3.77046 13.309 4.1796C12.8986 4.58875 12.3963 4.79332 11.802 4.79332ZM15.6225 8.17934C15.0282 8.17934 14.5259 7.97477 14.1155 7.56563C13.7052 7.15648 13.5 6.65563 13.5 6.06308C13.5 5.47053 13.7052 4.96968 14.1155 4.56053C14.5259 4.15139 15.0282 3.94681 15.6225 3.94681C16.2168 3.94681 16.7191 4.15139 17.1294 4.56053C17.5398 4.96968 17.7449 5.47053 17.7449 6.06308C17.7449 6.65563 17.5398 7.15648 17.1294 7.56563C16.7191 7.97477 16.2168 8.17934 15.6225 8.17934ZM4.71294 16.6444C4.0762 16.6444 3.54204 16.401 3.11047 15.9143C2.6789 15.4276 2.46312 14.8526 2.46312 14.1895C2.46312 13.4559 2.71428 12.814 3.2166 12.2637C3.71892 11.7135 4.2177 11.1703 4.71294 10.6342C5.12329 10.1969 5.47703 9.72069 5.77418 9.20573C6.07133 8.69078 6.42507 8.20756 6.83542 7.75609C7.14672 7.38927 7.50754 7.08594 7.91788 6.8461C8.32823 6.60625 8.77395 6.48633 9.25504 6.48633C9.73614 6.48633 10.1819 6.5992 10.5922 6.82493C11.0025 7.05067 11.3634 7.34695 11.6747 7.71377C12.0709 8.16524 12.4211 8.65198 12.7253 9.17399C13.0295 9.696 13.3868 10.1827 13.7971 10.6342C14.2924 11.1703 14.7912 11.7135 15.2935 12.2637C15.7958 12.814 16.047 13.4559 16.047 14.1895C16.047 14.8526 15.8312 15.4276 15.3996 15.9143C14.968 16.401 14.4339 16.6444 13.7971 16.6444C13.033 16.6444 12.276 16.5809 11.5261 16.4539C10.7761 16.327 10.0191 16.2635 9.25504 16.2635C8.49095 16.2635 7.73393 16.327 6.98399 16.4539C6.23405 16.5809 5.47703 16.6444 4.71294 16.6444Z" fill="#666666"/>
</svg>
