<svg width="24" height="24" viewBox="0 0 24 24" fill="none" xmlns="http://www.w3.org/2000/svg">
<rect x="0.5" y="0.5" width="23" height="23" rx="1.5" stroke="black"/>
<path d="M20.6095 18.7241L17.2248 15.3394C17.9241 14.2854 18.3335 13.0234 18.3335 11.6667C18.3335 7.9907 15.3428 5 11.6667 5C7.9907 5 5 7.9907 5 11.6667C5 15.3428 7.9907 18.3335 11.6667 18.3335C13.0234 18.3335 14.2854 17.9241 15.3394 17.2248L18.7241 20.6095C19.2442 21.1302 20.0895 21.1302 20.6095 20.6095C21.1302 20.0888 21.1302 19.2448 20.6095 18.7241ZM7.00002 11.6667C7.00002 9.09338 9.09338 7.00002 11.6667 7.00002C14.2401 7.00002 16.3335 9.09338 16.3335 11.6667C16.3335 14.2401 14.2401 16.3335 11.6667 16.3335C9.09338 16.3335 7.00002 14.2401 7.00002 11.6667Z" fill="#212121"/>
</svg>
