<svg width="19" height="15" viewBox="0 0 19 15" fill="none" xmlns="http://www.w3.org/2000/svg">
<path d="M17.9506 13.7279H10.3259C12.3117 12.6781 14.5183 12.218 16.5935 12.4308C16.7305 12.4452 16.8675 12.4625 17.0031 12.4826C17.0839 12.4941 17.1661 12.507 17.2468 12.5214V2.31772H17.9506V13.7279ZM9.63365 3.04101C10.0721 2.76923 10.5235 2.52766 10.9864 2.31772C11.5748 2.04883 12.1791 1.83169 12.7906 1.66633C14.0539 1.3241 15.3475 1.20619 16.595 1.32985V11.7751C15.411 11.6601 14.1995 11.7464 12.9809 12.0311C11.8329 12.3 10.6893 12.7515 9.63653 13.3497V3.04101H9.63365ZM8.98035 13.3497C7.92757 12.7515 6.78394 12.3 5.63597 12.0311C4.41735 11.7464 3.20449 11.6601 2.02192 11.7751V1.32985C3.26794 1.20619 4.56156 1.32266 5.82634 1.66633C6.43782 1.83169 7.04209 2.04883 7.63049 2.31772C8.09198 2.52766 8.54338 2.76923 8.98179 3.04101V13.3497H8.98035ZM0.653304 13.7279V2.31772H1.36861V12.5214C1.58494 12.484 1.80271 12.4538 2.02192 12.4308C4.09719 12.218 6.30369 12.6781 8.28955 13.7279H0.653304ZM17.2468 1.66633V0.757542C17.0305 0.723031 16.8127 0.695709 16.5935 0.675578C15.4182 0.564856 14.2154 0.65114 13.0054 0.934416C12.2699 1.10697 11.5359 1.35429 10.8263 1.66633C10.3894 1.85901 9.96102 2.07615 9.54712 2.31772C9.46636 2.36374 9.38704 2.41119 9.30772 2.46008C9.22841 2.41119 9.14908 2.36374 9.06832 2.31772C8.65442 2.07759 8.2261 1.85901 7.78912 1.66633C7.07958 1.35285 6.34552 1.10553 5.61002 0.934416C4.40004 0.65114 3.19728 0.564856 2.02192 0.675578C1.80271 0.695709 1.58494 0.723031 1.36861 0.757542V1.66633H0V14.3792H18.6039V1.66633H17.2468Z" fill="black"/>
</svg>
