<svg width="19" height="19" viewBox="0 0 19 19" fill="none" xmlns="http://www.w3.org/2000/svg">
<path d="M9.0215 3.54957V9.67934L4.93149 13.7563C4.83185 13.8557 4.77588 13.9904 4.77588 14.1309C4.77588 14.2714 4.83185 14.4061 4.93149 14.5055C5.03113 14.6048 5.16626 14.6606 5.30717 14.6606C5.44808 14.6606 5.58321 14.6048 5.68285 14.5055L9.9278 10.2729C9.97704 10.2237 10.0161 10.1653 10.0427 10.101C10.0692 10.0368 10.0829 9.96789 10.0827 9.89837V3.54957C10.0827 3.40926 10.0268 3.27469 9.92732 3.17547C9.82781 3.07625 9.69285 3.02051 9.55212 3.02051C9.41139 3.02051 9.27643 3.07625 9.17692 3.17547C9.0774 3.27469 9.0215 3.40926 9.0215 3.54957ZM18.042 13.6018H11.6746C11.5339 13.6018 11.3989 13.6576 11.2994 13.7568C11.1999 13.856 11.144 13.9906 11.144 14.1309C11.144 14.2712 11.1999 14.4058 11.2994 14.505C11.3989 14.6042 11.5339 14.66 11.6746 14.66H18.042C18.1828 14.66 18.3177 14.6042 18.4172 14.505C18.5167 14.4058 18.5726 14.2712 18.5726 14.1309C18.5726 13.9906 18.5167 13.856 18.4172 13.7568C18.3177 13.6576 18.1828 13.6018 18.042 13.6018Z" fill="#7A7A7A"/>
<path d="M16.9807 3.02034C16.84 3.02034 16.705 3.07608 16.6055 3.1753C16.506 3.27452 16.4501 3.40909 16.4501 3.54941V4.12927C15.6102 3.11755 14.5561 2.30371 13.3635 1.7461C12.1709 1.18849 10.8693 0.900945 9.55207 0.904078C8.06862 0.90411 6.60807 1.26893 5.2998 1.96621C3.99153 2.66349 2.87593 3.67172 2.05181 4.90158C1.22769 6.13145 0.720488 7.54498 0.575142 9.01698C0.429796 10.489 0.650788 11.974 1.21854 13.3405C1.7863 14.707 2.68329 15.9128 3.83006 16.851C4.97683 17.7893 6.33798 18.4311 7.79295 18.7196C9.24791 19.0081 10.7518 18.9343 12.1713 18.5049C13.5909 18.0754 14.8823 17.3035 15.9312 16.2576C16.0311 16.1578 16.0872 16.0226 16.0871 15.8816C16.087 15.7406 16.0307 15.6054 15.9306 15.5058C15.8306 15.4062 15.6949 15.3502 15.5535 15.3503C15.4121 15.3504 15.2765 15.4065 15.1766 15.5063C14.0304 16.6514 12.5607 17.4199 10.9642 17.7087C9.3677 17.9976 7.72082 17.7931 6.24419 17.1225C4.76756 16.452 3.53173 15.3476 2.70229 13.9571C1.87285 12.5667 1.48942 10.9567 1.60337 9.34288C1.71733 7.72908 2.32324 6.18854 3.3399 4.9277C4.35656 3.66686 5.73541 2.74595 7.2917 2.28835C8.84799 1.83075 10.5074 1.85833 12.0475 2.36739C13.5876 2.87645 14.9349 3.84268 15.9089 5.13661H14.8583C14.7175 5.13661 14.5826 5.19235 14.4831 5.29157C14.3835 5.39079 14.3276 5.52536 14.3276 5.66567C14.3276 5.80599 14.3835 5.94056 14.4831 6.03978C14.5826 6.139 14.7175 6.19474 14.8583 6.19474H16.9807C17.1215 6.19474 17.2564 6.139 17.3559 6.03978C17.4555 5.94056 17.5114 5.80599 17.5114 5.66567V3.54941C17.5114 3.40909 17.4555 3.27452 17.3559 3.1753C17.2564 3.07608 17.1215 3.02034 16.9807 3.02034Z" fill="#7A7A7A"/>
<path d="M14.8583 7.25317C14.7176 7.25317 14.5827 7.30891 14.4831 7.40813C14.3836 7.50735 14.3277 7.64192 14.3277 7.78224V8.35786C13.5719 8.4671 12.868 8.80551 12.3115 9.32719C11.7551 9.84886 11.3731 10.5286 11.2172 11.2741C11.1857 11.428 11.189 11.587 11.2268 11.7395C11.2646 11.892 11.336 12.0342 11.4357 12.1558C11.5355 12.2774 11.6612 12.3753 11.8037 12.4424C11.9461 12.5095 12.1018 12.5442 12.2594 12.5438H17.4594C17.617 12.5442 17.7727 12.5095 17.9151 12.4424C18.0576 12.3753 18.1833 12.2774 18.2831 12.1558C18.3829 12.0342 18.4542 11.892 18.492 11.7395C18.5298 11.587 18.5331 11.428 18.5016 11.2741C18.3456 10.5283 17.9633 9.84834 17.4064 9.32664C16.8496 8.80493 16.1452 8.4667 15.389 8.35786V7.78224C15.389 7.64192 15.3331 7.50735 15.2336 7.40813C15.134 7.30891 14.9991 7.25317 14.8583 7.25317Z" fill="#7A7A7A"/>
</svg>
