<svg width="16" height="16" viewBox="0 0 16 16" fill="none" xmlns="http://www.w3.org/2000/svg">
<mask id="mask0_1832_1083" style="mask-type:alpha" maskUnits="userSpaceOnUse" x="0" y="0" width="16" height="16">
<rect x="0.133301" y="0.194824" width="15.4286" height="14.9599" fill="#D9D9D9"/>
</mask>
<g mask="url(#mask0_1832_1083)">
<path d="M7.84687 13.5959C7.00951 13.5959 6.21934 13.4403 5.47635 13.129C4.73336 12.8177 4.08535 12.394 3.53232 11.8578C2.9793 11.3216 2.54229 10.6932 2.22128 9.9728C1.90026 9.25239 1.73975 8.48622 1.73975 7.67429C1.73975 6.85598 1.90026 6.08821 2.22128 5.37098C2.54229 4.65376 2.9793 4.02704 3.53232 3.49081C4.08535 2.95459 4.73336 2.53085 5.47635 2.21959C6.21934 1.90832 7.00951 1.75269 7.84687 1.75269C8.69083 1.75269 9.48265 1.90832 10.2223 2.21959C10.962 2.53085 11.6084 2.95459 12.1614 3.49081C12.7144 4.02704 13.1515 4.65376 13.4725 5.37098C13.7935 6.08821 13.954 6.85598 13.954 7.67429C13.954 8.48622 13.7935 9.25239 13.4725 9.9728C13.1515 10.6932 12.7144 11.3216 12.1614 11.8578C11.6084 12.394 10.962 12.8177 10.2223 13.129C9.48265 13.4403 8.69083 13.5959 7.84687 13.5959ZM7.84687 12.6477C8.1749 12.2258 8.451 11.8002 8.67518 11.3711C8.89935 10.942 9.08191 10.4729 9.22285 9.96381H6.4709C6.62008 10.4889 6.8047 10.9659 7.02476 11.3951C7.24481 11.8242 7.51885 12.2418 7.84687 12.6477ZM6.60198 12.4763C6.35555 12.1335 6.13426 11.7437 5.9381 11.307C5.74194 10.8702 5.58947 10.4225 5.48068 9.96381H3.29988C3.63945 10.6111 4.09481 11.1549 4.66597 11.5953C5.23714 12.0356 5.88247 12.3293 6.60198 12.4763ZM9.09177 12.4763C9.81127 12.3293 10.4566 12.0356 11.0278 11.5953C11.5989 11.1549 12.0543 10.6111 12.3939 9.96381H10.2131C10.0837 10.4265 9.9209 10.8762 9.72474 11.313C9.52858 11.7497 9.31759 12.1375 9.09177 12.4763ZM2.89564 9.02885H5.28534C5.24496 8.79709 5.21571 8.56994 5.19758 8.34738C5.17945 8.12481 5.17039 7.90045 5.17039 7.67429C5.17039 7.44814 5.17945 7.22378 5.19758 7.00121C5.21571 6.77865 5.24496 6.55149 5.28534 6.31974H2.89564C2.83382 6.53151 2.78644 6.75168 2.75347 6.98023C2.7205 7.20879 2.70402 7.44014 2.70402 7.67429C2.70402 7.90845 2.7205 8.1398 2.75347 8.36835C2.78644 8.59691 2.83382 8.81707 2.89564 9.02885ZM6.24961 9.02885H9.44413C9.48452 8.79709 9.51378 8.57193 9.53192 8.35336C9.55004 8.1348 9.55911 7.90845 9.55911 7.67429C9.55911 7.44014 9.55004 7.21378 9.53192 6.99522C9.51378 6.77665 9.48452 6.55149 9.44413 6.31974H6.24961C6.20923 6.55149 6.17997 6.77665 6.16183 6.99522C6.1437 7.21378 6.13464 7.44014 6.13464 7.67429C6.13464 7.90845 6.1437 8.1348 6.16183 8.35336C6.17997 8.57193 6.20923 8.79709 6.24961 9.02885ZM10.4084 9.02885H12.7981C12.8599 8.81707 12.9073 8.59691 12.9403 8.36835C12.9732 8.1398 12.9897 7.90845 12.9897 7.67429C12.9897 7.44014 12.9732 7.20879 12.9403 6.98023C12.9073 6.75168 12.8599 6.53151 12.7981 6.31974H10.4084C10.4488 6.55149 10.478 6.77865 10.4962 7.00121C10.5143 7.22378 10.5234 7.44814 10.5234 7.67429C10.5234 7.90045 10.5143 8.12481 10.4962 8.34738C10.478 8.56994 10.4488 8.79709 10.4084 9.02885ZM10.2131 5.38478H12.3939C12.0502 4.72947 11.5979 4.18565 11.0371 3.75331C10.4762 3.32098 9.82776 3.02529 9.09177 2.86626C9.3382 3.22907 9.55743 3.62585 9.74946 4.05659C9.9415 4.48733 10.096 4.93006 10.2131 5.38478ZM6.4709 5.38478H9.22285C9.07367 4.86373 8.88596 4.38365 8.65972 3.94451C8.43349 3.50539 8.16254 3.09083 7.84687 2.70085C7.53121 3.09083 7.26026 3.50539 7.03403 3.94451C6.80779 4.38365 6.62008 4.86373 6.4709 5.38478ZM3.29988 5.38478H5.48068C5.59771 4.93006 5.75225 4.48733 5.94429 4.05659C6.13632 3.62585 6.35555 3.22907 6.60198 2.86626C5.86187 3.02529 5.21241 3.32198 4.65361 3.75631C4.09482 4.19065 3.64357 4.73347 3.29988 5.38478Z" fill="#666666"/>
</g>
</svg>
