<svg width="14" height="14" viewBox="0 0 14 14" fill="none" xmlns="http://www.w3.org/2000/svg">
<mask id="mask0_1133_693" style="mask-type:alpha" maskUnits="userSpaceOnUse" x="0" y="0" width="14" height="14">
<rect x="0.819336" y="0.959473" width="12.978" height="12.978" fill="#D9D9D9"/>
</mask>
<g mask="url(#mask0_1133_693)">
<path d="M7.30802 12.5855C6.60365 12.5855 5.93899 12.4505 5.31401 12.1805C4.68903 11.9104 4.14395 11.5428 3.67876 11.0777C3.21357 10.6125 2.84597 10.0674 2.57595 9.44241C2.30591 8.81743 2.1709 8.15276 2.1709 7.4484C2.1709 6.73849 2.30591 6.07244 2.57595 5.45023C2.84597 4.82802 3.21357 4.28433 3.67876 3.81914C4.14395 3.35396 4.68903 2.98635 5.31401 2.71633C5.93899 2.4463 6.60365 2.31128 7.30802 2.31128C8.01793 2.31128 8.68398 2.4463 9.30619 2.71633C9.9284 2.98635 10.4721 3.35396 10.9373 3.81914C11.4025 4.28433 11.7701 4.82802 12.0401 5.45023C12.3101 6.07244 12.4451 6.73849 12.4451 7.4484C12.4451 8.15276 12.3101 8.81743 12.0401 9.44241C11.7701 10.0674 11.4025 10.6125 10.9373 11.0777C10.4721 11.5428 9.9284 11.9104 9.30619 12.1805C8.68398 12.4505 8.01793 12.5855 7.30802 12.5855ZM7.30802 11.763C7.58395 11.3969 7.81619 11.0277 8.00476 10.6555C8.19333 10.2832 8.34689 9.87622 8.46544 9.43461H6.1506C6.27608 9.89009 6.43137 10.304 6.61648 10.6763C6.80158 11.0486 7.03209 11.4108 7.30802 11.763ZM6.26085 11.6143C6.05357 11.3169 5.86742 10.9787 5.70242 10.5998C5.53742 10.221 5.40916 9.83254 5.31765 9.43461H3.48323C3.76887 9.99617 4.1519 10.4679 4.63234 10.8499C5.11279 11.2319 5.65563 11.4867 6.26085 11.6143ZM8.35518 11.6143C8.96041 11.4867 9.50325 11.2319 9.9837 10.8499C10.4641 10.4679 10.8472 9.99617 11.1328 9.43461H9.29839C9.18954 9.83601 9.05262 10.2262 8.88762 10.605C8.72262 10.9839 8.54514 11.3203 8.35518 11.6143ZM3.1432 8.62351H5.15334C5.11937 8.42245 5.09477 8.22539 5.07952 8.03232C5.06427 7.83923 5.05664 7.64459 5.05664 7.4484C5.05664 7.25221 5.06427 7.05757 5.07952 6.86448C5.09477 6.67141 5.11937 6.47435 5.15334 6.27329H3.1432C3.0912 6.45701 3.05134 6.64801 3.02361 6.84629C2.99588 7.04456 2.98201 7.24527 2.98201 7.4484C2.98201 7.65153 2.99588 7.85224 3.02361 8.05051C3.05134 8.24879 3.0912 8.43979 3.1432 8.62351ZM5.96446 8.62351H8.65158C8.68555 8.42245 8.71016 8.22712 8.72542 8.03751C8.74067 7.8479 8.7483 7.65153 8.7483 7.4484C8.7483 7.24527 8.74067 7.0489 8.72542 6.85929C8.71016 6.66968 8.68555 6.47435 8.65158 6.27329H5.96446C5.93049 6.47435 5.90587 6.66968 5.89062 6.85929C5.87537 7.0489 5.86774 7.24527 5.86774 7.4484C5.86774 7.65153 5.87537 7.8479 5.89062 8.03751C5.90587 8.22712 5.93049 8.42245 5.96446 8.62351ZM9.4627 8.62351H11.4728C11.5248 8.43979 11.5647 8.24879 11.5924 8.05051C11.6202 7.85224 11.634 7.65153 11.634 7.4484C11.634 7.24527 11.6202 7.04456 11.5924 6.84629C11.5647 6.64801 11.5248 6.45701 11.4728 6.27329H9.4627C9.49666 6.47435 9.52127 6.67141 9.53652 6.86448C9.55177 7.05757 9.5594 7.25221 9.5594 7.4484C9.5594 7.64459 9.55177 7.83923 9.53652 8.03232C9.52127 8.22539 9.49666 8.42245 9.4627 8.62351ZM9.29839 5.46219H11.1328C10.8437 4.8937 10.4633 4.42192 9.9915 4.04686C9.51972 3.6718 8.97428 3.41529 8.35518 3.27733C8.56247 3.59208 8.74688 3.93629 8.90841 4.30996C9.06995 4.68364 9.19994 5.06772 9.29839 5.46219ZM6.1506 5.46219H8.46544C8.33996 5.01018 8.18207 4.59369 7.99176 4.21274C7.80146 3.83179 7.57355 3.47215 7.30802 3.13383C7.04249 3.47215 6.81458 3.83179 6.62428 4.21274C6.43397 4.59369 6.27608 5.01018 6.1506 5.46219ZM3.48323 5.46219H5.31765C5.41609 5.06772 5.54609 4.68364 5.70763 4.30996C5.86916 3.93629 6.05357 3.59208 6.26085 3.27733C5.6383 3.41529 5.09199 3.67267 4.62195 4.04947C4.15191 4.42627 3.77234 4.89717 3.48323 5.46219Z" fill="#666666"/>
<path d="M1.81738 1.95776L12.7988 12.9392" stroke="#FF1212" stroke-width="0.499155"/>
<path d="M1.81738 1.95776L12.7988 12.9392" stroke="#FF1212" stroke-width="0.499155"/>
</g>
</svg>
