<svg width="228" height="48" viewBox="0 0 228 48" fill="none" xmlns="http://www.w3.org/2000/svg">
<path d="M0 0.92166V46.9465H9.12724V0.92166H0ZM14.6038 0.92166H11.005V10.8642H14.6038C22.7401 10.8642 26.9125 13.6297 26.9125 23.9016C26.9125 33.4486 22.7401 36.9389 14.6038 36.9389H11.005V46.9471H14.6038C28.2686 46.9471 36.0922 40.0332 36.0922 23.9016C36.0922 7.70372 28.5295 0.92166 14.6038 0.92166ZM65.0124 19.029H47.9577V0.92166H38.778V46.9465H47.9577V28.1149H65.0124V19.0285V19.029ZM49.8355 0.92166V10.8642H67.3075V0.92166H49.8355ZM86.0576 37.7288C79.7991 37.202 76.1479 31.6053 76.1479 24.0334C76.1479 16.5271 79.7466 10.7329 86.0576 10.2718V0C75.0006 0.526745 66.9687 10.5349 66.9687 24.099C66.9687 37.1364 74.7918 47.4082 86.0576 48V37.7288ZM87.9354 0V10.2718C94.0896 10.8648 97.7927 16.7902 97.7927 24.0334C97.7927 31.6709 94.1416 37.202 87.9354 37.7288V48C99.3053 47.4733 106.972 37.1358 106.972 24.099C106.972 10.7324 99.1489 0.526745 87.9354 0ZM127.183 37.7288C120.924 37.202 117.273 31.6053 117.273 24.0334C117.273 16.5271 120.872 10.7329 127.183 10.2718V0C116.126 0.526745 108.094 10.5349 108.094 24.099C108.094 37.1364 115.917 47.4082 127.183 48V37.7288ZM129.06 0V10.2718C135.215 10.8648 138.918 16.7902 138.918 24.0334C138.918 31.6709 135.267 37.202 129.06 37.7288V48C140.43 47.4733 148.097 37.1358 148.097 24.099C148.097 10.7324 140.274 0.526745 129.06 0ZM150.783 0.92166V46.9465H159.911V0.92166H150.783ZM165.387 0.92166H161.788V10.8642H165.387C173.523 10.8642 177.696 13.6297 177.696 23.9016C177.696 33.4486 173.523 36.9389 165.387 36.9389H161.788V46.9471H165.387C179.052 46.9471 186.875 40.0332 186.875 23.9016C186.875 7.70372 179.313 0.92166 165.387 0.92166ZM207.086 37.7288C200.827 37.202 197.176 31.6053 197.176 24.0334C197.176 16.5271 200.775 10.7329 207.086 10.2718V0C196.029 0.526745 187.997 10.5349 187.997 24.099C187.997 37.1364 195.82 47.4082 207.086 48V37.7288ZM208.964 0V10.2718C215.118 10.8648 218.821 16.7902 218.821 24.0334C218.821 31.6709 215.17 37.202 208.964 37.7288V48C220.333 47.4733 228 37.1358 228 24.099C228 10.7324 220.177 0.526745 208.964 0Z" fill="#434242"/>
</svg>