<svg width="166" height="47" viewBox="0 0 166 47" fill="none" xmlns="http://www.w3.org/2000/svg">
<path d="M7.521 8.2001V38.4793H13.5258V8.2001H7.521ZM17.1287 8.2001H14.7612V14.7412H17.1287C22.4816 14.7412 25.2266 16.5606 25.2266 23.3183C25.2266 29.5992 22.4816 31.8954 17.1287 31.8954H14.7612V38.4797H17.1287C26.1188 38.4797 31.2659 33.9311 31.2659 23.3183C31.2659 12.6619 26.2904 8.2001 17.1287 8.2001ZM50.2923 20.1127H39.0721V8.2001H33.0328V38.4793H39.0721V26.0902H50.2923V20.1123V20.1127ZM40.3075 8.2001V14.7412H51.8022V8.2001H40.3075ZM64.1379 32.415C60.0204 32.0685 57.6183 28.3865 57.6183 23.405C57.6183 18.4667 59.9859 14.6548 64.1379 14.3515V7.59375C56.8635 7.94029 51.5793 14.5245 51.5793 23.4482C51.5793 32.0253 56.7261 38.783 64.1379 39.1724V32.415ZM65.3733 7.59375V14.3515C69.422 14.7415 71.8583 18.6398 71.8583 23.405C71.8583 28.4296 69.4562 32.0685 65.3733 32.415V39.1724C72.8534 38.8258 77.8973 32.0249 77.8973 23.4482C77.8973 14.6544 72.7505 7.94029 65.3733 7.59375ZM91.1938 32.415C87.0763 32.0685 84.6742 28.3865 84.6742 23.405C84.6742 18.4667 87.0418 14.6548 91.1938 14.3515V7.59375C83.9194 7.94029 78.6353 14.5245 78.6353 23.4482C78.6353 32.0253 83.782 38.783 91.1938 39.1724V32.415ZM92.4292 7.59375V14.3515C96.478 14.7415 98.9142 18.6398 98.9142 23.405C98.9142 28.4296 96.5122 32.0685 92.4292 32.415V39.1724C99.9093 38.8258 104.953 32.0249 104.953 23.4482C104.953 14.6544 99.8064 7.94029 92.4292 7.59375ZM106.72 8.2001V38.4793H112.725V8.2001H106.72ZM116.328 8.2001H113.961V14.7412H116.328C121.681 14.7412 124.426 16.5606 124.426 23.3183C124.426 29.5992 121.681 31.8954 116.328 31.8954H113.961V38.4797H116.328C125.318 38.4797 130.465 33.9311 130.465 23.3183C130.465 12.6619 125.49 8.2001 116.328 8.2001ZM143.762 32.415C139.644 32.0685 137.242 28.3865 137.242 23.405C137.242 18.4667 139.61 14.6548 143.762 14.3515V7.59375C136.487 7.94029 131.203 14.5245 131.203 23.4482C131.203 32.0253 136.35 38.783 143.762 39.1724V32.415ZM144.997 7.59375V14.3515C149.046 14.7415 151.482 18.6398 151.482 23.405C151.482 28.4296 149.08 32.0685 144.997 32.415V39.1724C152.477 38.8258 157.521 32.0249 157.521 23.4482C157.521 14.6544 152.374 7.94029 144.997 7.59375Z" fill="#E33745"/>
</svg>
