<svg width="17" height="15" viewBox="0 0 17 15" fill="none" xmlns="http://www.w3.org/2000/svg">
<path fill-rule="evenodd" clip-rule="evenodd" d="M7.5067 5.27133C8.06275 5.17892 8.61879 5.54857 8.71146 6.10303C8.80414 6.74991 8.34077 7.21196 7.8774 7.30438C7.22868 7.39679 6.76531 6.93473 6.67264 6.47268C6.48729 5.8258 6.95066 5.36375 7.5067 5.27133ZM4.07777 5.27133C4.63381 5.17892 5.18985 5.45616 5.28253 6.10303C5.46788 7.21196 3.98509 7.76643 3.42905 6.84232C2.96568 6.19544 3.42905 5.36375 4.07777 5.27133ZM10.843 5.27133C11.4917 5.17892 11.955 5.54857 12.0477 6.10303C12.1404 6.74991 11.677 7.21196 11.2137 7.30438C9.82355 7.4892 9.54553 5.45616 10.843 5.27133ZM1.85359 10.816C2.13162 11.0008 3.70707 11.0008 4.17044 11.0008C4.63381 11.0008 6.57996 11.0008 6.76531 11.0932C6.95066 11.4629 6.76531 12.1097 6.67264 12.5718H7.59938L7.5067 12.849C7.97007 12.6642 8.43344 12.1097 8.71146 11.6477C8.80414 11.4629 8.89681 11.1856 8.98949 11.0932C9.26751 11.0008 10.6576 11.0932 11.121 11.0932C11.677 11.0932 12.6964 11.1856 13.1598 11.0932C14.2719 10.9084 15.0133 9.98429 15.2913 8.87536C15.4767 8.22848 15.384 7.67402 15.384 6.93473C15.384 6.28785 15.384 5.54857 15.2913 4.80928C15.2913 4.25481 15.2913 3.42312 15.1986 2.86865C15.106 2.59142 15.0133 2.31419 14.9206 2.03695C14.8279 1.85213 14.5499 1.48249 14.4572 1.39008C13.6232 1.39008 14.0865 1.29767 13.1598 1.39008C10.2869 1.75972 7.32135 2.22177 4.44846 2.49901C3.6144 2.59142 2.96568 2.77624 2.50231 3.42312C1.57557 4.62446 1.66825 5.45616 1.66825 6.84232C1.57557 7.67402 1.4829 9.52224 1.66825 10.1691C1.66825 10.3539 1.76092 10.6312 1.85359 10.816Z" fill="#3268C1"/>
<path fill-rule="evenodd" clip-rule="evenodd" d="M7.5067 12.849C7.22868 13.0338 6.67252 13.3113 6.20915 13.4037C6.3945 13.1265 6.48729 12.849 6.67264 12.5718C6.76531 12.1097 6.95066 11.4629 6.76531 11.0932C6.57996 11.0008 4.63381 11.0008 4.17044 11.0008C3.70707 11.0008 2.13162 11.0008 1.85359 10.816C1.66825 10.7236 1.48278 10.539 1.39011 10.4466C0.926739 9.98454 0.741391 9.33767 0.648717 8.69079C0.648717 8.22874 0.648717 7.58186 0.648717 7.11981C0.648717 6.56534 0.648717 6.01087 0.741391 5.45641C0.741391 4.43989 0.741391 3.60819 1.29743 2.8689C1.94615 1.85238 2.40952 1.9448 3.52161 1.75997L12.1403 0.651043C12.6963 0.651043 12.9743 0.558632 13.5304 0.743454C14.0864 0.928275 14.1792 1.11284 14.4572 1.39008C14.5499 1.48249 14.8279 1.85213 14.9206 2.03695C15.0133 2.31419 15.106 2.59142 15.1986 2.86865C15.2913 3.42312 15.2913 4.25481 15.2913 4.80928C15.384 5.54857 15.384 6.28785 15.384 6.93473C15.384 7.67402 15.4767 8.22848 15.2913 8.87536C15.0133 9.98429 14.2719 10.9084 13.1598 11.0932C12.6964 11.1856 11.677 11.0932 11.121 11.0932C10.6576 11.0932 9.26751 11.0008 8.98949 11.0932C8.89681 11.1856 8.80414 11.4629 8.71146 11.6477C8.43344 12.1097 7.97007 12.6642 7.5067 12.849ZM2.22417 11.5555L6.20915 11.6479C6.20915 11.8328 6.0238 12.3872 5.93113 12.4796C5.93113 12.8493 5.37509 13.4962 5.09706 13.7734C5.00439 13.9582 4.81904 14.143 4.81904 14.143C5.00439 14.3279 6.30183 14.0506 6.67252 13.9582C6.76519 13.8658 6.95054 13.8658 7.13589 13.7734C7.22856 13.681 7.41391 13.681 7.50659 13.5886C8.1553 13.2189 8.89669 12.6645 9.26739 12.0176C9.26739 11.9252 9.36006 11.7404 9.45274 11.7404C10.4722 11.6479 12.6963 11.9252 13.5304 11.6479C14.5498 11.3707 15.2912 10.539 15.7546 9.6149C16.2179 8.50597 16.0326 7.11981 15.9399 5.82605C15.9399 5.27159 15.9399 3.33096 15.8472 2.8689C15.8472 2.68408 15.7546 2.49926 15.7546 2.40685C15.6619 2.22203 15.6619 2.12962 15.5692 2.03721V1.9448C15.2912 1.48274 15.1058 1.1131 14.7352 0.835864C13.7157 -0.0882445 13.067 -0.0882446 11.7696 0.0965772C11.2135 0.188988 10.5648 0.281399 10.0088 0.281399C7.69193 0.651043 5.37509 0.928275 3.05824 1.20551C2.40952 1.29792 2.03883 1.29792 1.57546 1.66756C1.20476 1.9448 0.834065 2.22203 0.648717 2.68408C0 3.7006 0.0926739 4.71712 0.0926739 6.01087C0 7.21222 -0.0926739 8.59838 0.185348 9.70731C0.556043 10.539 1.20476 11.4631 2.22417 11.5555Z" fill="#111224"/>
<path fill-rule="evenodd" clip-rule="evenodd" d="M15.5692 2.03721C15.6619 2.12962 15.6619 2.22203 15.7546 2.40685C15.7546 2.49926 15.8472 2.68408 15.8472 2.8689C15.9399 3.33096 15.9399 5.27159 15.9399 5.82605C16.0326 7.11981 16.2179 8.50597 15.7546 9.6149C15.2912 10.539 14.5498 11.3707 13.5304 11.6479C12.6963 11.9252 10.4722 11.6479 9.45274 11.7404C9.36006 11.7404 9.26739 11.9252 9.26739 12.0176C8.89669 12.6645 8.1553 13.2189 7.50659 13.5886C7.41391 13.681 7.22856 13.681 7.13589 13.7734C6.95054 14.3279 6.20864 14.79 6.20864 14.9748C6.57933 15.0672 7.50607 14.8824 7.78409 14.79C8.8035 14.5128 9.73025 13.9583 10.2863 13.1266C10.4716 12.9418 10.4716 12.757 10.657 12.5721C10.8423 12.5721 12.5105 12.6645 12.8812 12.6645C13.7152 12.6645 14.2713 12.757 15.0127 12.3873C15.9394 12.0177 16.6808 11.0936 16.9588 9.7998C17.0515 9.15293 16.9588 8.22882 16.9588 7.58194C16.9588 6.84265 16.8661 6.10337 16.8661 5.36408C16.8661 4.53238 16.8661 4.07033 16.5881 3.33104C16.4028 2.86898 16.1247 2.40693 15.754 2.1297L15.6614 2.03729L15.5692 2.03721C15.6619 1.9448 15.6619 1.9448 15.5692 1.9448V2.03721Z" fill="#3268C1"/>
<path fill-rule="evenodd" clip-rule="evenodd" d="M1.85359 10.816C1.76092 10.6312 1.66825 10.3539 1.66825 10.1691C1.4829 9.52224 1.57557 7.67402 1.66825 6.84232C1.66825 5.45616 1.57557 4.62446 2.50231 3.42312C2.96568 2.77624 3.6144 2.59142 4.44846 2.49901C7.32135 2.22177 10.2869 1.75972 13.1598 1.39008C14.0865 1.29767 13.6232 1.39008 14.4572 1.39008C14.1792 1.11284 14.0864 0.928275 13.5304 0.743454C12.9743 0.558632 12.6963 0.651043 12.1403 0.651043L3.52161 1.75997C2.40952 1.9448 1.94615 1.85238 1.29743 2.8689C0.741391 3.60819 0.741391 4.43989 0.741391 5.45641C0.648717 6.01087 0.648717 6.56534 0.648717 7.11981C0.648717 7.58186 0.648717 8.22874 0.648717 8.69079C0.741391 9.33767 0.926739 9.98454 1.39011 10.4466C1.48278 10.539 1.66825 10.7236 1.85359 10.816Z" fill="white"/>
<path fill-rule="evenodd" clip-rule="evenodd" d="M5.93113 12.4796C6.0238 12.3872 6.20915 11.8328 6.20915 11.6479L2.22417 11.5555C2.31685 11.6479 2.50188 11.8328 2.50188 11.9252C2.59455 11.9252 2.59455 12.0176 2.68722 12.0176C2.7799 12.11 2.7799 12.11 2.87257 12.2024C3.70664 12.6645 4.72637 12.4796 5.93113 12.4796Z" fill="#3268C1"/>
<path fill-rule="evenodd" clip-rule="evenodd" d="M7.5067 12.849L7.59938 12.5718H6.67264C6.48729 12.849 6.3945 13.1265 6.20915 13.4037C6.67252 13.3113 7.22868 13.0338 7.5067 12.849Z" fill="white"/>
</svg>
