<svg width="19" height="19" viewBox="0 0 19 19" fill="none" xmlns="http://www.w3.org/2000/svg">
<mask id="mask0_1628_3280" style="mask-type:alpha" maskUnits="userSpaceOnUse" x="0" y="0" width="19" height="19">
<rect x="0.266602" y="0.366211" width="18.2099" height="18.2099" fill="#D9D9D9"/>
</mask>
<g mask="url(#mask0_1628_3280)">
<path d="M5.578 16.3C5.16069 16.3 4.80344 16.1514 4.50627 15.8542C4.20909 15.5571 4.0605 15.1998 4.0605 14.7825V4.91882H3.30176V3.40132H7.09549V2.64258H11.648V3.40132H15.4417V4.91882H14.6829V14.7825C14.6829 15.1998 14.5344 15.5571 14.2372 15.8542C13.94 16.1514 13.5828 16.3 13.1655 16.3H5.578ZM13.1655 4.91882H5.578V14.7825H13.1655V4.91882ZM7.09549 13.265H8.61298V6.43631H7.09549V13.265ZM10.1305 13.265H11.648V6.43631H10.1305V13.265Z" fill="#FF1212"/>
</g>
</svg>
