<svg width="19" height="19" viewBox="0 0 19 19" fill="none" xmlns="http://www.w3.org/2000/svg">
<path d="M16.6266 8.42039V12.0174C16.6266 14.5353 15.184 15.6144 13.0202 15.6144H5.80752C3.64371 15.6144 2.20117 14.5353 2.20117 12.0174V6.9816C2.20117 4.46371 3.64371 3.38461 5.80752 3.38461H10.8564" stroke="#007bff" stroke-width="1.29492" stroke-miterlimit="10" stroke-linecap="round" stroke-linejoin="round"/>
<path d="M5.80664 7.34131L8.06422 9.1398C8.80713 9.72971 10.0261 9.72971 10.769 9.1398L11.6201 8.46357" stroke="#007bff" stroke-width="1.29492" stroke-miterlimit="10" stroke-linecap="round" stroke-linejoin="round"/>
<path d="M14.8227 6.62192C15.8186 6.62192 16.6259 5.81671 16.6259 4.82343C16.6259 3.83015 15.8186 3.02493 14.8227 3.02493C13.8268 3.02493 13.0195 3.83015 13.0195 4.82343C13.0195 5.81671 13.8268 6.62192 14.8227 6.62192Z" stroke="#007bff" stroke-width="1.29492" stroke-miterlimit="10" stroke-linecap="round" stroke-linejoin="round"/>
</svg>
