<svg xmlns="http://www.w3.org/2000/svg" width="14" height="17" viewBox="0 0 14 17" fill="none">
<path d="M12.8855 10.1654C12.7876 10.1038 12.7075 10.0167 12.6536 9.91318C12.5997 9.80966 12.5738 9.69339 12.5787 9.57632V7.26973C12.583 6.11233 12.2554 4.9788 11.6361 4.0081C11.0167 3.03739 10.1326 2.2717 9.092 1.80488C9.0159 1.30232 8.7656 0.844072 8.38637 0.513027C8.00714 0.181982 7.52402 0 7.02441 0C6.52479 0 6.04168 0.181982 5.66245 0.513027C5.28321 0.844072 5.03291 1.30232 4.95682 1.80488C4.2789 2.07969 3.66055 2.4872 3.13678 3.00431C2.5962 3.52792 2.16548 4.1576 1.87064 4.85534C1.57581 5.55307 1.42296 6.30438 1.42135 7.06391V9.57632C1.42618 9.69339 1.40031 9.80966 1.34639 9.91318C1.29246 10.0167 1.21244 10.1038 1.11452 10.1654C0.727758 10.3734 0.414799 10.6996 0.219665 11.0981C0.0245309 11.4966 -0.0429604 11.9473 0.0266845 12.3868C0.123788 12.8957 0.394901 13.3532 0.791913 13.678C1.18892 14.0028 1.68616 14.174 2.19539 14.1611H4.21067C4.21067 14.914 4.50455 15.6361 5.02765 16.1685C5.55075 16.7009 6.26022 17 7 17C7.73978 17 8.44925 16.7009 8.97235 16.1685C9.49545 15.6361 9.78933 14.914 9.78933 14.1611H11.8046C12.3138 14.174 12.8111 14.0028 13.2081 13.678C13.6051 13.3532 13.8762 12.8957 13.9733 12.3868C14.043 11.9473 13.9755 11.4966 13.7803 11.0981C13.5852 10.6996 13.2722 10.3734 12.8855 10.1654ZM7 15.5806C6.63011 15.5806 6.27537 15.431 6.01382 15.1648C5.75227 14.8986 5.60534 14.5376 5.60534 14.1611H8.39466C8.39466 14.5376 8.24773 14.8986 7.98618 15.1648C7.72463 15.431 7.36989 15.5806 7 15.5806ZM11.8046 12.7417H2.19539C2.0202 12.7505 1.84742 12.6973 1.70635 12.5912C1.56527 12.4852 1.46458 12.3327 1.42135 12.1597C1.39492 12.0121 1.41509 11.8599 1.47899 11.7247C1.54288 11.5895 1.64721 11.4785 1.77699 11.4074C2.09523 11.2246 2.3595 10.9584 2.54224 10.6363C2.72499 10.3142 2.81953 9.94821 2.81601 9.57632V7.06391C2.81549 6.49352 2.92756 5.92884 3.14557 5.40337C3.36359 4.87791 3.6831 4.40238 4.08515 4.00501C4.41536 3.67617 4.80019 3.40945 5.22181 3.21722C5.77642 2.9452 6.38434 2.80447 7 2.80558H7.13249C7.70249 2.82579 8.26147 2.97105 8.77122 3.23142C9.5003 3.61248 10.1116 4.1914 10.5374 4.90412C10.9632 5.61685 11.187 6.43558 11.184 7.26973V9.57632C11.1798 9.9475 11.2733 10.3131 11.4548 10.6351C11.6362 10.957 11.8991 11.2237 12.216 11.4074C12.3458 11.477 12.4507 11.5865 12.5158 11.7203C12.5809 11.8541 12.6029 12.0054 12.5787 12.1526C12.5368 12.3269 12.4367 12.481 12.2955 12.5885C12.1543 12.6959 11.9807 12.7501 11.8046 12.7417Z" fill="#000000"/>
</svg>