<svg width="20" height="20" viewBox="0 0 20 20" fill="none" xmlns="http://www.w3.org/2000/svg">
<mask id="mask0_3240_766" style="mask-type:alpha" maskUnits="userSpaceOnUse" x="0" y="0" width="20" height="20">
<rect width="20" height="20" fill="#D9D9D9"/>
</mask>
<g mask="url(#mask0_3240_766)">
<path d="M3.51272 16.5C3.09001 16.5 2.73222 16.3541 2.43933 16.0625C2.14644 15.7708 2 15.4145 2 14.9935V5.50642C2 5.08547 2.14644 4.72917 2.43933 4.4375C2.73222 4.14583 3.09001 4 3.51272 4H16.3868C16.8095 4 17.1673 4.14583 17.4602 4.4375C17.7531 4.72917 17.8995 5.08547 17.8995 5.50642V14.9935C17.8995 15.4145 17.7531 15.7708 17.4602 16.0625C17.1673 16.3541 16.8095 16.5 16.3868 16.5H3.51272ZM9.94977 10.7147L3.25521 6.45187V14.9935C3.25521 15.0683 3.27935 15.1298 3.32764 15.1779C3.37592 15.2259 3.43762 15.25 3.51272 15.25H16.3868C16.4619 15.25 16.5236 15.2259 16.5719 15.1779C16.6202 15.1298 16.6443 15.0683 16.6443 14.9935V6.45187L9.94977 10.7147ZM9.94977 9.41665L16.5156 5.24998H3.38395L9.94977 9.41665ZM3.25521 6.45187V5.24998V14.9935C3.25521 15.0683 3.27935 15.1298 3.32764 15.1779C3.37592 15.2259 3.43762 15.25 3.51272 15.25H3.25521V6.45187Z" fill="#3268C1"/>
</g>
</svg>
