<svg width="20" height="20" viewBox="0 0 20 20" fill="none" xmlns="http://www.w3.org/2000/svg">
<path d="M14.5938 15.25C13.2917 15.25 12.0052 14.9661 10.7344 14.3984C9.46354 13.8307 8.30729 13.026 7.26562 11.9844C6.22396 10.9427 5.41927 9.78646 4.85156 8.51562C4.28385 7.24479 4 5.95833 4 4.65625C4 4.46875 4.0625 4.3125 4.1875 4.1875C4.3125 4.0625 4.46875 4 4.65625 4H7.1875C7.33333 4 7.46354 4.04948 7.57812 4.14844C7.69271 4.2474 7.76042 4.36458 7.78125 4.5L8.1875 6.6875C8.20833 6.85417 8.20312 6.99479 8.17188 7.10938C8.14062 7.22396 8.08333 7.32292 8 7.40625L6.48438 8.9375C6.69271 9.32292 6.9401 9.69531 7.22656 10.0547C7.51302 10.4141 7.82812 10.7604 8.17188 11.0938C8.49479 11.4167 8.83333 11.7161 9.1875 11.9922C9.54167 12.2682 9.91667 12.5208 10.3125 12.75L11.7812 11.2813C11.875 11.1875 11.9974 11.1172 12.1484 11.0703C12.2995 11.0234 12.4479 11.0104 12.5938 11.0312L14.75 11.4688C14.8958 11.5104 15.0156 11.5859 15.1094 11.6953C15.2031 11.8047 15.25 11.9271 15.25 12.0625V14.5938C15.25 14.7813 15.1875 14.9375 15.0625 15.0625C14.9375 15.1875 14.7813 15.25 14.5938 15.25ZM5.89062 7.75L6.92188 6.71875L6.65625 5.25H5.26562C5.31771 5.67708 5.39062 6.09896 5.48438 6.51562C5.57812 6.93229 5.71354 7.34375 5.89062 7.75ZM11.4844 13.3438C11.8906 13.5208 12.3047 13.6615 12.7266 13.7656C13.1484 13.8698 13.5729 13.9375 14 13.9688V12.5938L12.5312 12.2969L11.4844 13.3438Z" fill="#F58634"/>
<mask id="mask0_3240_708" style="mask-type:alpha" maskUnits="userSpaceOnUse" x="0" y="0" width="20" height="20">
<rect width="20" height="20" fill="#F58634"/>
</mask>
<g mask="url(#mask0_3240_708)">
</g>
</svg>
