<svg width="19" height="17" viewBox="0 0 19 17" fill="none" xmlns="http://www.w3.org/2000/svg">
<path fill-rule="evenodd" clip-rule="evenodd" d="M8.36017 5.88752C8.97943 5.78431 9.59869 6.19715 9.7019 6.81641C9.80511 7.53888 9.28906 8.05493 8.77301 8.15814C8.05054 8.26135 7.53449 7.7453 7.43128 7.22925C7.22486 6.50678 7.74091 5.99073 8.36017 5.88752ZM4.5414 5.88752C5.16066 5.78431 5.77992 6.09394 5.88313 6.81641C6.08955 8.05493 4.43819 8.67419 3.81893 7.64209C3.30288 6.91962 3.81893 5.99073 4.5414 5.88752ZM12.0757 5.88752C12.7982 5.78431 13.3142 6.19715 13.4175 6.81641C13.5207 7.53888 13.0046 8.05493 12.4886 8.15814C10.9404 8.36456 10.6308 6.09394 12.0757 5.88752ZM2.06437 12.0801C2.374 12.2865 4.12856 12.2865 4.64461 12.2865C5.16066 12.2865 7.32807 12.2865 7.53449 12.3897C7.74091 12.8026 7.53449 13.5251 7.43128 14.0411H8.46338L8.36017 14.3507C8.87622 14.1443 9.39227 13.5251 9.7019 13.009C9.80511 12.8026 9.90832 12.493 10.0115 12.3897C10.3212 12.2865 11.8693 12.3897 12.3854 12.3897C13.0046 12.3897 14.1399 12.493 14.656 12.3897C15.8945 12.1833 16.7202 11.1512 17.0298 9.91271C17.2362 9.19024 17.133 8.57098 17.133 7.7453C17.133 7.02283 17.133 6.19715 17.0298 5.37147C17.0298 4.75221 17.0298 3.82332 16.9266 3.20407C16.8234 2.89444 16.7202 2.58481 16.617 2.27518C16.5137 2.06876 16.2041 1.65592 16.1009 1.55271C15.172 1.55271 15.6881 1.4495 14.656 1.55271C11.4565 1.96555 8.15375 2.4816 4.95424 2.79123C4.02535 2.89444 3.30288 3.10086 2.78683 3.82332C1.75474 5.16505 1.85795 6.09394 1.85795 7.64209C1.75474 8.57098 1.65153 10.6352 1.85795 11.3576C1.85795 11.5641 1.96116 11.8737 2.06437 12.0801Z" fill="#3268C1"/>
<path fill-rule="evenodd" clip-rule="evenodd" d="M8.36 14.3508C8.05037 14.5572 7.43111 14.8669 6.91506 14.9701C7.12148 14.6605 7.22469 14.3508 7.43111 14.0412C7.53432 13.5251 7.74074 12.8027 7.53432 12.3898C7.3279 12.2866 5.16049 12.2866 4.64444 12.2866C4.12839 12.2866 2.37383 12.2866 2.0642 12.0802C1.85778 11.977 1.65136 11.7706 1.54815 11.6674C1.0321 11.1513 0.825679 10.4289 0.722469 9.70638C0.722469 9.19033 0.722469 8.46786 0.722469 7.95181C0.722469 7.33255 0.722469 6.71329 0.825679 6.09404C0.825679 4.95873 0.825679 4.02984 1.44494 3.20416C2.16741 2.06885 2.68346 2.17206 3.92197 1.96564L13.5205 0.727122C14.1398 0.727122 14.4494 0.623912 15.0686 0.830332C15.6879 1.03675 15.7911 1.24317 16.1007 1.5528C16.2039 1.65601 16.5136 2.06885 16.6168 2.27527C16.72 2.5849 16.8232 2.89453 16.9264 3.20416C17.0296 3.82342 17.0296 4.75231 17.0296 5.37157C17.1328 6.19725 17.1328 7.02292 17.1328 7.74539C17.1328 8.57107 17.236 9.19033 17.0296 9.9128C16.72 11.1513 15.8943 12.1834 14.6558 12.3898C14.1398 12.493 13.0044 12.3898 12.3852 12.3898C11.8691 12.3898 10.321 12.2866 10.0114 12.3898C9.90815 12.493 9.80494 12.8027 9.70173 13.0091C9.3921 13.5251 8.87605 14.1444 8.36 14.3508ZM2.47704 12.9059L6.91506 13.0091C6.91506 13.2155 6.70864 13.8348 6.60543 13.938C6.60543 14.3508 5.98617 15.0733 5.67654 15.3829C5.57333 15.5893 5.36691 15.7958 5.36691 15.7958C5.57333 16.0022 7.01827 15.6926 7.43111 15.5893C7.53432 15.4861 7.74074 15.4861 7.94716 15.3829C8.05037 15.2797 8.25679 15.2797 8.36 15.1765C9.08247 14.7637 9.90815 14.1444 10.321 13.4219C10.321 13.3187 10.4242 13.1123 10.5274 13.1123C11.6627 13.0091 14.1398 13.3187 15.0686 13.0091C16.2039 12.6995 17.0296 11.7706 17.5457 10.7385C18.0617 9.49996 17.8553 7.95181 17.7521 6.50688C17.7521 5.88762 17.7521 3.72021 17.6489 3.20416C17.6489 2.99774 17.5457 2.79132 17.5457 2.68811C17.4425 2.48169 17.4425 2.37848 17.3393 2.27527V2.17206C17.0296 1.65601 16.8232 1.24317 16.4104 0.933542C15.2751 -0.0985566 14.5526 -0.0985567 13.1077 0.107863C12.4884 0.211073 11.7659 0.314283 11.1467 0.314283C8.56642 0.727122 5.98617 1.03675 3.40593 1.34638C2.68346 1.44959 2.27062 1.44959 1.75457 1.86243C1.34173 2.17206 0.928889 2.48169 0.722469 2.99774C0 4.13305 0.10321 5.26836 0.10321 6.71329C0 8.05502 -0.10321 9.60317 0.20642 10.8417C0.619259 11.7706 1.34173 12.8027 2.47704 12.9059Z" fill="#111224"/>
<path fill-rule="evenodd" clip-rule="evenodd" d="M17.3392 2.27533C17.4424 2.37854 17.4424 2.48175 17.5457 2.68817C17.5457 2.79138 17.6489 2.9978 17.6489 3.20422C17.7521 3.72027 17.7521 5.88767 17.7521 6.50693C17.8553 7.95187 18.0617 9.50002 17.5457 10.7385C17.0296 11.7706 16.2039 12.6995 15.0686 13.0092C14.1397 13.3188 11.6627 13.0092 10.5274 13.1124C10.4242 13.1124 10.321 13.3188 10.321 13.422C9.90813 14.1445 9.08245 14.7637 8.35998 15.1766C8.25677 15.2798 8.05035 15.2798 7.94714 15.383C7.74072 16.0022 6.91504 16.5183 6.91504 16.7247C7.32788 16.8279 8.35998 16.6215 8.66961 16.5183C9.80492 16.2087 10.837 15.5894 11.4563 14.6605C11.6627 14.4541 11.6627 14.2477 11.8691 14.0413C12.0755 14.0413 13.9333 14.1445 14.3461 14.1445C15.275 14.1445 15.8943 14.2477 16.72 13.8348C17.7521 13.422 18.5778 12.3899 18.8874 10.945C18.9906 10.2225 18.8874 9.19039 18.8874 8.46792C18.8874 7.64224 18.7842 6.81656 18.7842 5.99088C18.7842 5.062 18.7842 4.54595 18.4745 3.72027C18.2681 3.20422 17.9585 2.68817 17.5457 2.37854L17.4424 2.27533H17.3392C17.4424 2.17212 17.4424 2.17212 17.3392 2.17212V2.27533Z" fill="#3268C1"/>
</svg>
