<svg width="21" height="21" viewBox="0 0 21 21" fill="none" xmlns="http://www.w3.org/2000/svg">
<circle cx="10.5" cy="10.5" r="10.5" fill="#D9D9D9"/>
<path d="M10.6752 7.06875C11.3346 7.06875 11.869 7.5975 11.869 8.25C11.869 8.9025 11.3346 9.43125 10.6752 9.43125C10.0158 9.43125 9.4814 8.9025 9.4814 8.25C9.4814 7.5975 10.0158 7.06875 10.6752 7.06875ZM10.6752 12.1312C12.3635 12.1312 14.1428 12.9525 14.1428 13.3125V13.9313H7.20753V13.3125C7.20753 12.9525 8.98684 12.1312 10.6752 12.1312ZM10.6752 6C9.41887 6 8.40131 7.00688 8.40131 8.25C8.40131 9.49312 9.41887 10.5 10.6752 10.5C11.9315 10.5 12.9491 9.49312 12.9491 8.25C12.9491 7.00688 11.9315 6 10.6752 6ZM10.6752 11.0625C9.15738 11.0625 6.12744 11.8162 6.12744 13.3125V15H15.2229V13.3125C15.2229 11.8162 12.193 11.0625 10.6752 11.0625Z" fill="#7A7A7A"/>
</svg>
