<svg width="10" height="10" viewBox="0 0 10 10" fill="none" xmlns="http://www.w3.org/2000/svg">
<mask id="mask0_1302_93" style="mask-type:alpha" maskUnits="userSpaceOnUse" x="0" y="0" width="10" height="10">
<rect width="10" height="10" fill="#D9D9D9"/>
</mask>
<g mask="url(#mask0_1302_93)">
<path d="M1.87504 5.052C1.58337 5.052 1.33685 4.95131 1.13546 4.74992C0.934068 4.54853 0.833374 4.302 0.833374 4.01034C0.833374 3.71867 0.934068 3.47214 1.13546 3.27075C1.33685 3.06936 1.58337 2.96867 1.87504 2.96867C2.16671 2.96867 2.41324 3.06936 2.61462 3.27075C2.81601 3.47214 2.91671 3.71867 2.91671 4.01034C2.91671 4.302 2.81601 4.54853 2.61462 4.74992C2.41324 4.95131 2.16671 5.052 1.87504 5.052ZM3.75004 3.38534C3.45837 3.38534 3.21185 3.28464 3.01046 3.08325C2.80907 2.88186 2.70837 2.63534 2.70837 2.34367C2.70837 2.052 2.80907 1.80547 3.01046 1.60409C3.21185 1.4027 3.45837 1.302 3.75004 1.302C4.04171 1.302 4.28824 1.4027 4.48962 1.60409C4.69101 1.80547 4.79171 2.052 4.79171 2.34367C4.79171 2.63534 4.69101 2.88186 4.48962 3.08325C4.28824 3.28464 4.04171 3.38534 3.75004 3.38534ZM6.25004 3.38534C5.95837 3.38534 5.71185 3.28464 5.51046 3.08325C5.30907 2.88186 5.20837 2.63534 5.20837 2.34367C5.20837 2.052 5.30907 1.80547 5.51046 1.60409C5.71185 1.4027 5.95837 1.302 6.25004 1.302C6.54171 1.302 6.78824 1.4027 6.98962 1.60409C7.19101 1.80547 7.29171 2.052 7.29171 2.34367C7.29171 2.63534 7.19101 2.88186 6.98962 3.08325C6.78824 3.28464 6.54171 3.38534 6.25004 3.38534ZM8.12504 5.052C7.83337 5.052 7.58685 4.95131 7.38546 4.74992C7.18407 4.54853 7.08337 4.302 7.08337 4.01034C7.08337 3.71867 7.18407 3.47214 7.38546 3.27075C7.58685 3.06936 7.83337 2.96867 8.12504 2.96867C8.41671 2.96867 8.66323 3.06936 8.86462 3.27075C9.06601 3.47214 9.16671 3.71867 9.16671 4.01034C9.16671 4.302 9.06601 4.54853 8.86462 4.74992C8.66323 4.95131 8.41671 5.052 8.12504 5.052ZM2.77087 9.21867C2.45837 9.21867 2.19622 9.09888 1.98442 8.85929C1.77261 8.61971 1.66671 8.33672 1.66671 8.01034C1.66671 7.64922 1.78997 7.33325 2.0365 7.06242C2.28303 6.79159 2.52782 6.52422 2.77087 6.26034C2.97226 6.04506 3.14587 5.81068 3.29171 5.55721C3.43754 5.30374 3.61115 5.06589 3.81254 4.84367C3.96532 4.66311 4.1424 4.51381 4.34379 4.39575C4.54518 4.2777 4.76393 4.21867 5.00004 4.21867C5.23615 4.21867 5.4549 4.27422 5.65629 4.38534C5.85768 4.49645 6.03476 4.64228 6.18754 4.82284C6.38199 5.04506 6.55386 5.28464 6.70317 5.54159C6.85247 5.79853 7.02782 6.03811 7.22921 6.26034C7.47226 6.52422 7.71705 6.79159 7.96358 7.06242C8.21011 7.33325 8.33337 7.64922 8.33337 8.01034C8.33337 8.33672 8.22747 8.61971 8.01567 8.85929C7.80386 9.09888 7.54171 9.21867 7.22921 9.21867C6.85421 9.21867 6.48268 9.18742 6.11462 9.12492C5.74657 9.06242 5.37504 9.03117 5.00004 9.03117C4.62504 9.03117 4.25351 9.06242 3.88546 9.12492C3.5174 9.18742 3.14587 9.21867 2.77087 9.21867Z" fill="#F58634"/>
</g>
</svg>
