<svg width="12" height="12" viewBox="0 0 12 12" fill="none" xmlns="http://www.w3.org/2000/svg">
<path d="M9.44709 5.03394L8.54765 4.16552L9.54014 3.17304H6.34559V1.93244H9.54014L8.57867 0.970969L9.44709 0.0715332L11.9283 2.58375L9.44709 5.03394ZM10.6567 11.8572C9.36438 11.8572 8.0876 11.5755 6.82632 11.0121C5.56504 10.4486 4.41748 9.65001 3.38365 8.61618C2.34981 7.58234 1.55118 6.43479 0.987738 5.17351C0.424298 3.91223 0.142578 2.63544 0.142578 1.34315C0.142578 1.15706 0.204608 1.00198 0.328668 0.877924C0.452729 0.753864 0.607804 0.691834 0.793894 0.691834H3.30611C3.45085 0.691834 3.58008 0.740941 3.6938 0.839155C3.80752 0.93737 3.87472 1.05368 3.8954 1.18807L4.29859 3.35913C4.31927 3.52454 4.3141 3.66411 4.28309 3.77783C4.25207 3.89155 4.19521 3.98977 4.1125 4.07247L2.60827 5.59221C2.81504 5.97473 3.06058 6.34432 3.34488 6.701C3.62919 7.05767 3.94192 7.40142 4.28309 7.73225C4.60357 8.05274 4.93957 8.34996 5.29107 8.62393C5.64258 8.8979 6.01476 9.1486 6.40762 9.37605L7.86532 7.91834C7.95837 7.82529 8.07984 7.75551 8.22975 7.70899C8.37966 7.66246 8.52698 7.64954 8.67171 7.67022L10.8118 8.10443C10.9565 8.14578 11.0754 8.22073 11.1684 8.32929C11.2615 8.43784 11.308 8.55932 11.308 8.69371V11.2059C11.308 11.392 11.246 11.5471 11.1219 11.6712C10.9978 11.7952 10.8428 11.8572 10.6567 11.8572ZM2.01899 4.41364L3.04248 3.39014L2.77886 1.93244H1.39869C1.45038 2.35631 1.52275 2.77501 1.61579 3.18854C1.70884 3.60208 1.84324 4.01044 2.01899 4.41364ZM7.57068 9.96533C7.97388 10.1411 8.38482 10.2807 8.80353 10.384C9.22223 10.4874 9.64352 10.5546 10.0674 10.5856V9.22097L8.60968 8.92633L7.57068 9.96533Z" fill="#3268C1"/>
</svg>
