<svg width="70" height="70" viewBox="0 0 70 70" fill="none" xmlns="http://www.w3.org/2000/svg">
<path fill-rule="evenodd" clip-rule="evenodd" d="M6.19351 1.36557C14.3225 2.13995 22.5483 2.52714 30.6772 2.72073C30.774 2.52714 30.8708 2.33354 30.9676 2.13995C31.8385 0.881583 33.0966 0.107204 34.5482 0.0104067C36.0966 -0.0863907 37.4514 0.494394 38.4191 1.65596C38.7095 1.94635 39.0965 2.33354 39.3869 2.72073C46.8384 2.62394 54.29 2.23675 61.7416 1.55916C63.3867 1.46237 64.7416 2.04315 65.8061 3.20472C66.7738 4.46309 67.0641 5.91505 66.677 7.4638C64.6448 13.9492 63.4835 20.4347 63.0964 26.8233C64.548 28.1784 66.0964 29.4368 67.548 30.6952C68.8061 31.6631 69.3867 33.1151 69.1931 34.5671C69.0964 36.1158 68.2254 37.3742 66.8706 38.1486C65.6125 38.9229 64.3545 39.6005 63.0964 40.4717C63.6771 47.7315 64.9351 54.8945 66.8706 62.1543C67.2577 63.7031 66.8706 65.2518 65.7093 66.4134C64.6448 67.575 63.0964 68.059 61.4513 67.7686C53.9029 66.3166 46.5481 65.4454 39.0965 65.155C38.7095 65.7358 38.3224 66.4134 37.9353 67.091C37.1611 68.4461 35.8062 69.2205 34.1611 69.2205C32.5159 69.3173 31.1611 68.6397 30.1934 67.2846C29.7095 66.5102 29.1289 65.8326 28.645 65.0582C21.4837 65.3486 14.3225 66.123 7.3548 67.575C5.70964 67.9622 4.16127 67.4782 2.99998 66.2198C1.93547 65.0582 1.54838 63.5095 1.93547 61.9607C3.6774 55.0881 4.64513 48.1187 4.93546 41.2461C3.96772 40.4717 2.99998 39.7941 2.03225 39.1165C0.677415 38.2454 0 36.8902 0 35.2447C0 33.6959 0.870963 32.3407 2.22579 31.4696C3.09676 30.8888 3.96772 30.308 4.83868 29.824C4.35481 22.177 3.09676 14.6268 1.25806 6.97982C0.967736 5.52786 1.25806 4.0759 2.32257 3.01113C3.2903 1.84956 4.64513 1.26877 6.19351 1.36557Z" fill="#666666"/>
<path d="M33.4938 24.421L33.811 24.4286L33.9529 24.1447L34.0011 24.0483L34.0322 23.986C34.2428 23.696 34.5203 23.541 34.8228 23.5205C35.1803 23.4984 35.4742 23.6273 35.6912 23.8878L35.7058 23.9052L35.7218 23.9212C35.8231 24.0225 35.9253 24.126 35.9966 24.2211L36.149 24.4244L36.4031 24.4211C38.8866 24.3888 41.37 24.2599 43.8534 24.0343C44.2347 24.0137 44.5329 24.1391 44.7823 24.4037C44.9953 24.6895 45.0587 25.0043 44.973 25.361C44.2891 27.5478 43.8978 29.7354 43.7672 31.8911L43.753 32.1261L43.9251 32.2868C44.2641 32.6032 44.6249 32.9096 44.9691 33.2019C45.1226 33.3323 45.2729 33.4599 45.4164 33.5843L45.4274 33.5938L45.439 33.6027C45.7179 33.8173 45.8345 34.1244 45.7943 34.4256L45.792 34.4429L45.7909 34.4605C45.7705 34.7872 45.5922 35.0627 45.2709 35.2463L45.2639 35.2504L45.257 35.2546C45.1342 35.3302 45.0037 35.4072 44.8688 35.4869C44.5815 35.6565 44.2745 35.8377 43.9817 36.0404L43.745 36.2044L43.7679 36.4914C43.9631 38.9314 44.3857 41.3374 45.0348 43.7731C45.1211 44.1228 45.0353 44.4533 44.78 44.7086L44.7723 44.7163L44.765 44.7243C44.538 44.972 44.2024 45.0883 43.8106 45.0201C41.2833 44.5342 38.8184 44.2422 36.3197 44.1448L36.0396 44.1339L35.8842 44.3671C35.7461 44.5743 35.6105 44.8116 35.4855 45.0304L35.4806 45.039C35.3167 45.3259 35.037 45.4939 34.6621 45.4939H34.6474L34.6327 45.4947C34.2705 45.5161 33.9848 45.3805 33.76 45.0718C33.6724 44.9331 33.5785 44.805 33.4958 44.6922L33.4914 44.6862C33.4013 44.5633 33.324 44.4576 33.2552 44.3474L33.1012 44.101L32.8109 44.1127C30.4119 44.21 28.007 44.4696 25.6625 44.9582L25.6624 44.958L25.6499 44.961C25.2833 45.0473 24.9526 44.9468 24.687 44.6594C24.4495 44.3999 24.3625 44.0594 24.4506 43.7062C25.0375 41.3901 25.3633 39.0429 25.461 36.7296L25.4717 36.4765L25.2738 36.3181C24.9401 36.0511 24.6079 35.8185 24.29 35.5959L24.2846 35.5921L24.2765 35.5865L24.2682 35.5811C23.975 35.3926 23.8232 35.1092 23.8232 34.7165C23.8232 34.4042 23.997 34.0998 24.3325 33.8841L24.3325 33.8841L24.3394 33.8795C24.632 33.6844 24.9039 33.5034 25.1722 33.3544L25.4483 33.2009L25.4283 32.8857C25.2658 30.3169 24.8438 27.7852 24.2294 25.228C24.1612 24.8758 24.2393 24.5795 24.4477 24.371L24.4638 24.355L24.4783 24.3376C24.694 24.0786 24.9857 23.9498 25.3404 23.9699C28.0512 24.2279 30.7911 24.3566 33.4938 24.421Z" stroke="#F58634"/>
</svg>
