<svg width="10" height="11" viewBox="0 0 10 11" fill="none" xmlns="http://www.w3.org/2000/svg">
<path d="M4.83828 5.98902V0.810303H5.64938V5.98902H4.83828ZM5.24383 10.0446C4.61157 10.0446 4.01674 9.92401 3.45937 9.68274C2.90198 9.44149 2.41461 9.11219 1.99726 8.69484C1.57991 8.27749 1.25061 7.79012 1.00936 7.23273C0.768093 6.67535 0.647461 6.08053 0.647461 5.44827C0.647461 4.7654 0.790972 4.12049 1.07799 3.51353C1.36501 2.90657 1.76502 2.38264 2.27803 1.94172L2.84269 2.50638C2.40662 2.86341 2.06692 3.29878 1.82358 3.8125C1.58024 4.32621 1.45857 4.87147 1.45857 5.44827C1.45857 6.49372 1.82809 7.38596 2.56711 8.12499C3.30614 8.86401 4.19838 9.23353 5.24383 9.23353C6.29829 9.23353 7.19279 8.86401 7.92731 8.12499C8.66183 7.38596 9.02909 6.49372 9.02909 5.44827C9.02909 4.87147 8.90967 4.32621 8.67084 3.8125C8.43201 3.29878 8.09005 2.86341 7.64497 2.50638L8.20963 1.94172C8.72611 2.38264 9.127 2.90657 9.41228 3.51353C9.69756 4.12049 9.8402 4.7654 9.8402 5.44827C9.8402 6.08053 9.71957 6.67535 9.4783 7.23273C9.23705 7.79012 8.90913 8.27749 8.49457 8.69484C8.07999 9.11219 7.59401 9.44149 7.03662 9.68274C6.47923 9.92401 5.88164 10.0446 5.24383 10.0446Z" fill="#666666"/>
</svg>
