<svg width="28" height="28" viewBox="0 0 28 28" fill="none" xmlns="http://www.w3.org/2000/svg">
<mask id="mask0_2348_2396" style="mask-type:alpha" maskUnits="userSpaceOnUse" x="-1" y="0" width="29" height="28">
<rect x="-0.00683594" width="27.822" height="27.822" fill="#D9D9D9"/>
</mask>
<g mask="url(#mask0_2348_2396)">
<path d="M18.541 9.63091V6.15315H9.26699V9.63091H7.52815V4.41431H20.2798V9.63091H18.541ZM20.6365 14.2679C20.965 14.2679 21.2403 14.1568 21.4625 13.9346C21.6847 13.7124 21.7958 13.4371 21.7958 13.1086C21.7958 12.7801 21.6847 12.5048 21.4625 12.2826C21.2403 12.0604 20.965 11.9494 20.6365 11.9494C20.3081 11.9494 20.0328 12.0604 19.8106 12.2826C19.5884 12.5048 19.4773 12.7801 19.4773 13.1086C19.4773 13.4371 19.5884 13.7124 19.8106 13.9346C20.0328 14.1568 20.3081 14.2679 20.6365 14.2679ZM18.541 22.0259V17.0768H9.26699V22.0259H18.541ZM20.2798 23.7648H7.52815V19.1278H3.22559V12.529C3.22559 11.7079 3.50611 11.0196 4.06714 10.4641C4.62818 9.90863 5.31369 9.63091 6.12366 9.63091H21.6843C22.5055 9.63091 23.1937 9.90863 23.7492 10.4641C24.3047 11.0196 24.5824 11.7079 24.5824 12.529V19.1278H20.2798V23.7648ZM22.8436 17.3889V12.529C22.8436 12.2005 22.7325 11.9252 22.5103 11.703C22.2881 11.4808 22.0128 11.3697 21.6843 11.3697H6.12366C5.7952 11.3697 5.51988 11.4808 5.29769 11.703C5.0755 11.9252 4.9644 12.2005 4.9644 12.529V17.3889H7.52815V15.338H20.2798V17.3889H22.8436Z" fill="white"/>
</g>
</svg>
