<svg width="16" height="16" viewBox="0 0 16 16" fill="none" xmlns="http://www.w3.org/2000/svg">
<path fill-rule="evenodd" clip-rule="evenodd" d="M11.6918 10.964C11.653 11.0452 11.6463 11.0348 11.6029 11.1088C11.5864 11.1369 11.5787 11.1628 11.5583 11.1942C11.5216 11.2505 11.5509 11.2106 11.5059 11.2522C11.2313 11.5415 11.2509 11.6258 10.7745 12.0644C10.7084 12.1253 10.693 12.157 10.616 12.2282C10.1141 12.6917 9.21909 13.1217 8.47593 13.275C4.43061 14.1092 1.26233 9.76765 3.06073 5.95558C3.30345 5.44109 3.49158 5.20824 3.81294 4.78827C4.12403 4.38169 4.63369 4.08189 4.79595 3.86179C5.2505 3.24512 4.64604 2.32905 3.89288 2.6238C3.53126 2.76533 2.79015 3.5523 2.56437 3.81947C1.23924 5.38745 0.694566 7.63374 1.16853 9.79005C1.36636 10.6902 1.85453 11.7292 2.3846 12.4229L2.99184 13.1139C5.54781 15.5801 9.27463 15.6454 11.9038 13.2057C12.1952 12.9354 12.558 12.5209 12.7846 12.172C12.8659 12.0468 12.9482 11.922 13.0414 11.7772C13.7585 10.6634 14.0934 9.02368 13.9776 7.63193C13.8828 6.49342 13.4534 5.20201 12.8072 4.32359C12.7141 4.19706 12.6229 4.04538 12.5367 3.94392L11.9336 3.28257C11.7505 3.10975 11.484 2.85999 11.2504 2.70556C10.5382 2.23475 9.47264 3.2169 10.4306 4.08712L10.787 4.37637C12.0052 5.45764 12.6554 7.31771 12.3797 9.07592C12.2557 9.8665 12.0109 10.3684 11.6919 10.964L11.6918 10.964Z" fill="#3268C1"/>
<path fill-rule="evenodd" clip-rule="evenodd" d="M7.37348 1.01046C6.6763 1.12468 6.72058 1.72914 6.72058 2.47671V6.70649C6.72049 7.09432 6.69774 7.32776 6.89324 7.6006C7.20585 8.03689 7.95667 8.0363 8.2165 7.41872C8.32266 7.16635 8.27695 6.70694 8.27695 6.40913V2.17935C8.27712 1.77868 8.30143 1.56421 8.10346 1.28587C7.97716 1.10827 7.69172 0.958353 7.37344 1.0105L7.37348 1.01046Z" fill="#3268C1"/>
<path fill-rule="evenodd" clip-rule="evenodd" d="M12.5059 12.252C12.5509 12.2105 12.5215 12.2504 12.5582 12.194C12.5787 12.1626 12.5864 12.1367 12.6029 12.1086C12.6463 12.0346 12.653 12.045 12.6918 11.9639C12.6918 11.9639 12.6591 11.9939 12.6431 12.0153C12.5917 12.084 12.6211 12.0472 12.5928 12.0989C12.5572 12.1639 12.5397 12.1914 12.5059 12.2521V12.252Z" fill="#899499"/>
</svg>
