<svg width="23" height="15" viewBox="0 0 23 15" fill="none" xmlns="http://www.w3.org/2000/svg">
<g clip-path="url(#clip0_1771_6925)">
<path fill-rule="evenodd" clip-rule="evenodd" d="M7.34022 6.61591C8.57797 6.02378 8.78426 7.6028 10.8816 6.65539C12.3256 5.9843 12.635 7.64228 14.526 6.69486C16.0732 5.94483 17.5517 8.23441 17.5173 6.02378C17.5173 3.97105 17.8611 2.31308 16.6921 1.91832C15.8669 1.64199 9.40313 1.83937 7.99347 1.83937C6.10247 1.83937 5.62112 1.83937 5.62112 4.12895C5.62112 6.45801 5.07101 7.64228 7.34022 6.61591ZM11.3285 12.5372H11.8099C11.9818 11.9451 11.913 7.95808 11.8442 7.08962H11.2941C11.191 7.80018 11.1566 11.9846 11.3285 12.5372ZM9.16246 13.7215C9.6438 14.0768 13.529 14.0768 14.0103 13.7215V13.2873C13.5633 12.9715 9.60942 12.9715 9.12808 13.2478L9.16246 13.7215ZM6.51505 8.78707C6.68696 9.49763 6.72134 10.8003 6.7901 11.5898C6.9964 13.6426 6.82449 14.0373 7.54651 13.8399C7.78718 13.3662 7.34022 8.58969 7.06516 7.95808H2.83618L1.52967 0.536678C1.22023 0.378776 1.11709 0.576153 1.0827 1.01038C1.01394 2.54993 2.32045 7.08962 2.07978 9.18182C1.94225 10.3266 1.83911 11.4714 1.70158 12.6162C1.63282 13.011 1.49529 14.511 2.18293 13.761C2.49236 13.4057 2.52675 10.1292 2.87056 8.78707H6.51505ZM20.2678 8.78707C20.4741 9.57658 20.7148 13.3662 20.9211 13.682C21.1961 14.1557 21.5056 13.9189 21.5056 13.2873L21.093 9.61606C20.8867 7.68175 21.54 4.68161 21.8838 2.39203C22.0213 1.56304 22.4339 0.497202 21.54 0.536678L20.3022 7.95808L16.0732 8.03703C15.8669 8.47126 15.3168 13.4452 15.5575 13.761C16.4858 14.8663 16.1764 10.4845 16.6233 8.78707H20.2678Z" fill="#666666"/>
</g>
<defs>
<clipPath id="clip0_1771_6925">
<rect width="21.3793" height="13.5006" fill="white" transform="translate(0.896484 0.680908)"/>
</clipPath>
</defs>
</svg>
