<svg width="18" height="19" viewBox="0 0 18 19" fill="none" xmlns="http://www.w3.org/2000/svg">
<path d="M16.1227 9.13976V12.0174C16.1227 14.5352 14.6801 15.6143 12.5163 15.6143H5.30362C3.13981 15.6143 1.69727 14.5352 1.69727 12.0174V6.98157C1.69727 4.46368 3.13981 3.38458 5.30362 3.38458H8.90997" stroke="#007bff" stroke-width="1.29492" stroke-miterlimit="10" stroke-linecap="round" stroke-linejoin="round"/>
<path d="M5.30273 7.34128L7.56031 9.13977C8.30322 9.72968 9.52217 9.72968 10.2651 9.13977" stroke="#007bff" stroke-width="1.29492" stroke-miterlimit="10" stroke-linecap="round" stroke-linejoin="round"/>
<path d="M14.3033 2.89542L14.5053 3.30547C14.6063 3.5069 14.8587 3.69395 15.0823 3.73711L15.3564 3.78028C16.1786 3.91696 16.3734 4.52125 15.7819 5.11835L15.5295 5.37014C15.3636 5.54279 15.2698 5.87372 15.3203 6.10393L15.3564 6.255C15.58 7.24777 15.0534 7.62904 14.1879 7.11108L14.0004 7.00317C13.7768 6.87368 13.4162 6.87368 13.1926 7.00317L13.005 7.11108C12.1323 7.63624 11.6058 7.24777 11.8366 6.255L11.8726 6.10393C11.9231 5.87372 11.8294 5.54279 11.6635 5.37014L11.411 5.11835C10.8196 4.52125 11.0143 3.91696 11.8366 3.78028L12.1107 3.73711C12.327 3.70114 12.5867 3.5069 12.6877 3.30547L12.8896 2.89542C13.2791 2.11128 13.9138 2.11128 14.3033 2.89542Z" stroke="#007bff" stroke-width="1.29492" stroke-linecap="round" stroke-linejoin="round"/>
</svg>
