<svg width="45" height="45" viewBox="0 0 45 45" fill="none" xmlns="http://www.w3.org/2000/svg">
<path d="M22.5002 43.9876C21.5196 43.9876 20.7251 43.1931 20.7251 42.2125V2.77512C20.7251 1.79446 21.5196 1 22.5002 1C23.4809 1 24.2753 1.79446 24.2753 2.77512V42.2249C24.2753 43.2055 23.4809 44 22.5002 44V43.9876ZM22.5002 1.62067C21.8671 1.62067 21.3582 2.12962 21.3582 2.7627V42.2125C21.3582 42.8456 21.8671 43.3545 22.5002 43.3545C23.1333 43.3545 23.6422 42.8456 23.6422 42.2125V2.77512C23.6422 2.14203 23.1333 1.63308 22.5002 1.63308V1.62067Z" fill="#070707" stroke="#231F20" stroke-width="0.375667" stroke-miterlimit="10"/>
<path d="M42.2249 24.2748H2.77512C1.79446 24.2748 1 23.4804 1 22.4997C1 21.5191 1.79446 20.7246 2.77512 20.7246H42.2249C43.2055 20.7246 44 21.5191 44 22.4997C44 23.4804 43.2055 24.2748 42.2249 24.2748ZM2.77512 21.3577C2.14203 21.3577 1.63308 21.8666 1.63308 22.4997C1.63308 23.1328 2.14203 23.6418 2.77512 23.6418H42.2249C42.858 23.6418 43.3669 23.1328 43.3669 22.4997C43.3669 21.8666 42.858 21.3577 42.2249 21.3577H2.77512Z" fill="#070707" stroke="#231F20" stroke-width="0.375667" stroke-miterlimit="10"/>
<path fill-rule="evenodd" clip-rule="evenodd" d="M22.4339 40.8678C32.588 40.8678 40.8678 32.588 40.8678 22.4339C40.8678 12.2797 32.588 4 22.4339 4C12.2797 4 4 12.2797 4 22.4339C4 32.588 12.2797 40.8678 22.4339 40.8678Z" fill="white" stroke="#231F20" stroke-miterlimit="10"/>
<circle cx="22.5" cy="22.5" r="3.5" fill="#131112"/>
</svg>
