<svg width="89" height="89" viewBox="0 0 89 89" fill="none" xmlns="http://www.w3.org/2000/svg">
<circle cx="44.5" cy="44.5" r="32.5" fill="#A098AE"/>
<path d="M53 79C53 79 48.0201 80 44.5 80C40.9799 80 36 79 36 79" stroke="#3268C1" stroke-width="3" stroke-linecap="round"/>
<path d="M36 10C36 10 40.9799 9 44.5 9C48.0201 9 53 10 53 10" stroke="#3268C1" stroke-width="3" stroke-linecap="round"/>
<path d="M17.6372 67.7565C17.6372 67.7565 14.4824 63.7757 12.882 60.6405C11.2815 57.5052 9.90807 52.6151 9.90807 52.6151" stroke="#3268C1" stroke-width="3" stroke-linecap="round"/>
<path d="M71.3637 21.2435C71.3637 21.2435 74.5185 25.2243 76.119 28.3595C77.7194 31.4948 79.0929 36.3849 79.0929 36.3849" stroke="#3268C1" stroke-width="3" stroke-linecap="round"/>
<path d="M10.7014 33.5377C10.7014 33.5377 12.4765 28.7787 14.3321 25.7873C16.1876 22.796 19.6624 19.0912 19.6624 19.0912" stroke="#3268C1" stroke-width="3" stroke-linecap="round"/>
<path d="M78.2986 55.4622C78.2986 55.4622 76.5235 60.2212 74.6679 63.2125C72.8124 66.2039 69.3376 69.9086 69.3376 69.9086" stroke="#3268C1" stroke-width="3" stroke-linecap="round"/>
</svg>
