<?xml version="1.0" standalone="no"?>
<!DOCTYPE svg PUBLIC "-//W3C//DTD SVG 20010904//EN"
 "http://www.w3.org/TR/2001/REC-SVG-20010904/DTD/svg10.dtd">
<svg version="1.0" xmlns="http://www.w3.org/2000/svg"
width="20px" height="20px" viewBox="0 0 512.000000 512.000000"
 preserveAspectRatio="xMidYMid meet">

<g transform="translate(0.000000,512.000000) scale(0.100000,-0.100000)"
fill="#000000" stroke="none">
<path d="M2250 4794 c-395 -18 -677 -45 -990 -96 -211 -35 -240 -47 -240 -103
0 -29 40 -75 65 -75 9 0 80 11 158 24 755 130 1688 140 2482 25 519 -74 949
-213 1140 -367 108 -86 129 -164 71 -252 -223 -337 -1704 -580 -2986 -490
-781 55 -1439 221 -1695 428 -137 110 -137 204 0 315 78 63 267 154 430 208
72 23 139 50 149 60 24 23 25 73 1 99 -27 30 -70 25 -223 -26 -310 -103 -520
-240 -585 -382 -21 -44 -22 -62 -22 -267 l0 -220 28 -57 c90 -183 416 -350
899 -462 338 -78 778 -136 1143 -151 83 -3 174 -8 202 -11 l52 -5 3 -704 3
-704 22 -22 c29 -29 77 -29 106 0 l22 22 3 704 3 705 69 0 70 0 0 -972 c0
-535 -4 -978 -8 -984 -13 -20 -54 -36 -77 -30 -49 12 -55 29 -55 149 0 141
-10 181 -50 197 -24 10 -36 10 -60 0 -34 -14 -50 -56 -50 -131 l0 -45 -52 -13
c-218 -55 -438 -204 -508 -343 -87 -175 16 -321 291 -412 417 -138 1037 -73
1241 129 59 59 81 105 81 172 0 168 -244 377 -525 450 l-68 17 0 907 0 908 53
5 c28 3 115 8 192 11 163 7 421 29 585 50 193 25 474 76 497 91 48 30 34 116
-21 130 -14 3 -73 -3 -133 -15 -441 -83 -832 -115 -1398 -116 -533 0 -888 26
-1295 96 -625 106 -1051 285 -1110 465 -21 63 -10 68 55 23 306 -209 944 -360
1780 -421 94 -6 348 -12 565 -12 217 0 472 6 565 12 835 61 1473 212 1780 421
32 22 61 38 63 36 11 -11 -11 -77 -38 -113 -68 -95 -235 -186 -493 -271 -102
-34 -127 -54 -127 -101 0 -33 38 -70 71 -70 45 0 292 91 407 149 94 48 198
127 251 191 72 87 81 124 81 351 0 218 -11 263 -82 344 -238 270 -912 462
-1883 535 -141 11 -765 20 -905 14z m110 -3819 c36 -73 119 -125 203 -125 60
0 141 43 178 93 16 22 29 46 29 54 0 24 25 25 91 3 159 -54 321 -168 360 -254
20 -46 17 -60 -24 -103 -53 -57 -182 -107 -357 -140 -130 -24 -427 -24 -560 0
-227 41 -390 125 -390 201 0 89 166 224 360 292 36 13 70 23 77 23 6 1 21 -19
33 -44z"/>
</g>
</svg>
