<svg width="21" height="21" viewBox="0 0 21 21" fill="none" xmlns="http://www.w3.org/2000/svg">
<path d="M20.5038 17.8811L16.1784 13.5557C17.0721 12.2088 17.5952 10.596 17.5952 8.8623C17.5952 4.16463 13.7733 0.342773 9.07568 0.342773C4.37801 0.342773 0.556152 4.16463 0.556152 8.8623C0.556152 13.56 4.37801 17.3818 9.07568 17.3818C10.8094 17.3818 12.4221 16.8587 13.7691 15.965L18.0945 20.2904C18.759 20.9558 19.8392 20.9558 20.5038 20.2904C21.1691 19.625 21.1691 18.5464 20.5038 17.8811ZM3.11201 8.8623C3.11201 5.57376 5.78714 2.89863 9.07568 2.89863C12.3642 2.89863 15.0393 5.57376 15.0393 8.8623C15.0393 12.1508 12.3642 14.826 9.07568 14.826C5.78714 14.826 3.11201 12.1508 3.11201 8.8623Z" fill="#3268C1"/>
</svg>
