<svg width="19" height="20" viewBox="0 0 19 20" fill="none" xmlns="http://www.w3.org/2000/svg">
<path d="M7.86704 8.37493C8.34705 8.37493 8.75518 8.2068 9.09142 7.87053C9.42769 7.53429 9.59581 7.12616 9.59581 6.64615C9.59581 6.16613 9.42769 5.758 9.09142 5.42176C8.75518 5.0855 8.34705 4.91737 7.86704 4.91737C7.38702 4.91737 6.97889 5.0855 6.64265 5.42176C6.30639 5.758 6.13826 6.16613 6.13826 6.64615C6.13826 7.12616 6.30639 7.53429 6.64265 7.87053C6.97889 8.2068 7.38702 8.37493 7.86704 8.37493ZM7.87655 12.3265C8.52246 12.3265 9.13576 12.197 9.71646 11.938C10.2972 11.679 10.8104 11.3088 11.2562 10.8276C10.7116 10.5059 10.1556 10.2637 9.58823 10.1009C9.02082 9.93818 8.45026 9.85681 7.87655 9.85681C7.24581 9.85681 6.63883 9.93976 6.0556 10.1057C5.47237 10.2716 4.94962 10.5122 4.48735 10.8276C4.92683 11.3088 5.4385 11.679 6.02236 11.938C6.60623 12.197 7.22429 12.3265 7.87655 12.3265ZM17.6357 19.4412L12.7172 14.5226C12.0168 15.0812 11.2702 15.5134 10.4773 15.8192C9.6845 16.1251 8.8144 16.278 7.86704 16.278C5.73042 16.278 3.92025 15.5362 2.43652 14.0524C0.952799 12.5687 0.210938 10.7585 0.210938 8.62192C0.210938 6.4853 0.952799 4.67513 2.43652 3.19141C3.92025 1.70768 5.73042 0.96582 7.86704 0.96582C10.0037 0.96582 11.8138 1.70768 13.2976 3.19141C14.7813 4.67513 15.5231 6.4853 15.5231 8.62192C15.5231 9.56929 15.3702 10.441 15.0643 11.237C14.7585 12.033 14.3263 12.7812 13.7677 13.4816L18.6768 18.3906L17.6357 19.4412ZM7.86704 14.7962C9.57684 14.7962 11.0333 14.1946 12.2366 12.9914C13.4398 11.7882 14.0414 10.3317 14.0414 8.62192C14.0414 6.91212 13.4398 5.45561 12.2366 4.2524C11.0333 3.0492 9.57684 2.4476 7.86704 2.4476C6.15724 2.4476 4.70073 3.0492 3.49751 4.2524C2.29432 5.45561 1.69272 6.91212 1.69272 8.62192C1.69272 10.3317 2.29432 11.7882 3.49751 12.9914C4.70073 14.1946 6.15724 14.7962 7.86704 14.7962Z" fill="#D9D9D9"/>
</svg>
