<svg width="19" height="19" viewBox="0 0 19 19" fill="none" xmlns="http://www.w3.org/2000/svg">
<mask id="mask0_1899_4831" style="mask-type:alpha" maskUnits="userSpaceOnUse" x="0" y="0" width="19" height="19">
<rect width="19" height="19" fill="#D9D9D9"/>
</mask>
<g mask="url(#mask0_1899_4831)">
<path d="M13.469 15.042L10.4058 12.0016C10.1044 12.2209 9.77578 12.3878 9.42004 12.5025C9.06429 12.6172 8.70271 12.6746 8.3353 12.6746C7.34337 12.6746 6.49784 12.3279 5.7987 11.6347C5.09957 10.9415 4.75 10.0994 4.75 9.10827C4.75 8.11719 5.09975 7.27503 5.79924 6.58181C6.49871 5.8886 7.34467 5.54199 8.3371 5.54199C9.32955 5.54199 10.1749 5.8886 10.8732 6.58181C11.5715 7.27503 11.9206 8.11592 11.9206 9.10447C11.9206 9.47189 11.8633 9.83346 11.7486 10.1892C11.6339 10.5449 11.4644 10.871 11.2401 11.1674L14.3032 14.2077L13.469 15.042ZM8.3353 11.4871C9.00137 11.4871 9.56753 11.2562 10.0338 10.7944C10.5 10.3326 10.7331 9.77054 10.7331 9.10827C10.7331 8.44602 10.5 7.88399 10.0338 7.42218C9.56753 6.96038 9.00137 6.72947 8.3353 6.72947C7.66925 6.72947 7.10309 6.96038 6.63684 7.42218C6.17059 7.88399 5.93746 8.44602 5.93746 9.10827C5.93746 9.77054 6.17059 10.3326 6.63684 10.7944C7.10309 11.2562 7.66925 11.4871 8.3353 11.4871Z" fill="#1C1B1F"/>
</g>
</svg>
