<svg width="11" height="11" viewBox="0 0 11 11" fill="none" xmlns="http://www.w3.org/2000/svg">
<path d="M4.0284 10.5855L3.82249 8.93831C3.6776 8.88978 3.52906 8.82184 3.37689 8.73449C3.22471 8.64713 3.08865 8.55354 2.96872 8.45371L1.44318 9.09844L0.195312 6.93547L1.51495 5.9382C1.50247 5.85778 1.49362 5.77701 1.48842 5.6959C1.48322 5.61479 1.48062 5.53402 1.48062 5.45361C1.48062 5.37665 1.48322 5.29848 1.48842 5.21909C1.49362 5.13971 1.50247 5.05288 1.51495 4.9586L0.195312 3.96134L1.44318 1.80875L2.96351 2.4483C3.09385 2.345 3.23303 2.25054 3.38104 2.16492C3.52906 2.07929 3.67448 2.01048 3.81729 1.95849L4.0284 0.311279H6.52413L6.73003 1.96369C6.89226 2.02262 7.03906 2.09142 7.17044 2.17011C7.30182 2.2488 7.43441 2.34153 7.56821 2.4483L9.10935 1.80875L10.3572 3.96134L9.01678 4.97419C9.0362 5.06155 9.04677 5.14318 9.0485 5.21909C9.05023 5.29501 9.0511 5.37144 9.0511 5.4484C9.0511 5.52189 9.04936 5.59659 9.0459 5.6725C9.04243 5.74841 9.02995 5.83525 9.00846 5.93301L10.3385 6.93547L9.09062 9.09844L7.56821 8.4485C7.43441 8.55527 7.29783 8.64973 7.15848 8.73188C7.01913 8.81404 6.87631 8.88111 6.73003 8.93311L6.52413 10.5855H4.0284ZM4.73551 9.77441H5.79829L5.99276 8.32582C6.26867 8.25372 6.52085 8.15129 6.74928 8.01852C6.97771 7.88577 7.198 7.71505 7.41015 7.50638L8.75371 8.07104L9.28613 7.15177L8.11312 6.26784C8.15818 6.1278 8.18886 5.99054 8.20516 5.85605C8.22144 5.72155 8.22959 5.58567 8.22959 5.4484C8.22959 5.30767 8.22144 5.17179 8.20516 5.04076C8.18886 4.90973 8.15818 4.77593 8.11312 4.63936L9.29654 3.74503L8.7641 2.82576L7.40494 3.39875C7.22401 3.20532 7.00719 3.03443 6.75449 2.88608C6.50178 2.73771 6.24614 2.63268 5.98755 2.57098L5.81701 1.12239H4.74382L4.56497 2.56578C4.28904 2.63095 4.03427 2.73078 3.80063 2.86527C3.567 2.99977 3.34412 3.17309 3.13198 3.38523L1.78842 2.82576L1.25598 3.74503L2.4238 4.61544C2.37874 4.74369 2.34719 4.87714 2.32917 5.0158C2.31114 5.15446 2.30213 5.30039 2.30213 5.45361C2.30213 5.59434 2.31114 5.73229 2.32917 5.86748C2.34719 6.00267 2.377 6.13612 2.4186 6.26784L1.25598 7.15177L1.78842 8.07104L3.12678 7.50325C3.33198 7.71401 3.5514 7.88664 3.78503 8.02113C4.01866 8.15562 4.27691 8.25892 4.55977 8.33102L4.73551 9.77441ZM5.28249 7.07064C5.73243 7.07064 6.11528 6.91275 6.43106 6.59697C6.74684 6.28118 6.90473 5.89832 6.90473 5.4484C6.90473 4.99848 6.74684 4.61562 6.43106 4.29983C6.11528 3.98405 5.73243 3.82616 5.28249 3.82616C4.82703 3.82616 4.44279 3.98405 4.12978 4.29983C3.81677 4.61562 3.66027 4.99848 3.66027 5.4484C3.66027 5.89832 3.81677 6.28118 4.12978 6.59697C4.44279 6.91275 4.82703 7.07064 5.28249 7.07064Z" fill="#666666"/>
</svg>
