<svg width="18" height="18" viewBox="0 0 18 18" fill="none" xmlns="http://www.w3.org/2000/svg">
<path d="M9.48047 16.8332C9.14714 17.1665 8.7513 17.3332 8.29297 17.3332C7.83464 17.3332 7.4388 17.1665 7.10547 16.8332L1.14714 10.8748C0.827691 10.5554 0.667969 10.163 0.667969 9.69775C0.667969 9.23248 0.827691 8.84012 1.14714 8.52067L8.48047 1.1665C8.63325 1.01373 8.8138 0.892198 9.02214 0.801921C9.23047 0.711643 9.45269 0.666504 9.6888 0.666504H15.6471C16.1055 0.666504 16.4978 0.829698 16.8242 1.15609C17.1506 1.48248 17.3138 1.87484 17.3138 2.33317V8.2915C17.3138 8.52762 17.2687 8.74984 17.1784 8.95817C17.0881 9.1665 16.9666 9.34706 16.8138 9.49984L9.48047 16.8332ZM13.5638 5.6665C13.911 5.6665 14.2062 5.54498 14.4492 5.30192C14.6923 5.05887 14.8138 4.76373 14.8138 4.4165C14.8138 4.06928 14.6923 3.77414 14.4492 3.53109C14.2062 3.28803 13.911 3.1665 13.5638 3.1665C13.2166 3.1665 12.9214 3.28803 12.6784 3.53109C12.4353 3.77414 12.3138 4.06928 12.3138 4.4165C12.3138 4.76373 12.4353 5.05887 12.6784 5.30192C12.9214 5.54498 13.2166 5.6665 13.5638 5.6665ZM8.29297 15.6665L15.6471 8.2915V2.33317H9.6888L2.33464 9.70817L8.29297 15.6665Z" fill="#3268C1"/>
</svg>
