<svg width="23" height="23" viewBox="0 0 23 23" fill="none" xmlns="http://www.w3.org/2000/svg">
<path d="M9.89479 4.13713C10.303 2.45429 12.697 2.45429 13.1052 4.13713C13.1665 4.38993 13.2865 4.6247 13.4557 4.82233C13.6248 5.01996 13.8382 5.17486 14.0785 5.27442C14.3189 5.37399 14.5793 5.4154 14.8386 5.39529C15.098 5.37518 15.3489 5.29412 15.571 5.15871C17.0497 4.25787 18.7431 5.95029 17.8422 7.42996C17.707 7.65196 17.6261 7.90274 17.606 8.16191C17.586 8.42108 17.6273 8.68132 17.7268 8.92149C17.8262 9.16166 17.981 9.37497 18.1784 9.54409C18.3758 9.71321 18.6103 9.83337 18.8629 9.89479C20.5457 10.303 20.5457 12.697 18.8629 13.1052C18.6101 13.1665 18.3753 13.2865 18.1777 13.4557C17.98 13.6248 17.8251 13.8382 17.7256 14.0785C17.626 14.3189 17.5846 14.5793 17.6047 14.8386C17.6248 15.098 17.7059 15.3489 17.8413 15.571C18.7421 17.0497 17.0497 18.7431 15.57 17.8422C15.348 17.707 15.0973 17.6261 14.8381 17.606C14.5789 17.586 14.3187 17.6273 14.0785 17.7268C13.8383 17.8262 13.625 17.981 13.4559 18.1784C13.2868 18.3758 13.1666 18.6103 13.1052 18.8629C12.697 20.5457 10.303 20.5457 9.89479 18.8629C9.83354 18.6101 9.71346 18.3753 9.54432 18.1777C9.37518 17.98 9.16177 17.8251 8.92146 17.7256C8.68114 17.626 8.42072 17.5846 8.16137 17.6047C7.90203 17.6248 7.6511 17.7059 7.429 17.8413C5.95029 18.7421 4.25692 17.0497 5.15775 15.57C5.29297 15.348 5.3739 15.0973 5.39396 14.8381C5.41402 14.5789 5.37265 14.3187 5.2732 14.0785C5.17375 13.8383 5.01904 13.625 4.82164 13.4559C4.62423 13.2868 4.38971 13.1666 4.13713 13.1052C2.45429 12.697 2.45429 10.303 4.13713 9.89479C4.38993 9.83354 4.6247 9.71346 4.82233 9.54432C5.01996 9.37518 5.17486 9.16177 5.27442 8.92146C5.37399 8.68114 5.4154 8.42072 5.39529 8.16137C5.37518 7.90203 5.29412 7.6511 5.15871 7.429C4.25787 5.95029 5.95029 4.25692 7.42996 5.15775C8.38829 5.74042 9.63029 5.22483 9.89479 4.13713Z" stroke="#212121" stroke-width="2" stroke-linecap="round" stroke-linejoin="round"/>
<path d="M11.5 14.375C13.0878 14.375 14.375 13.0878 14.375 11.5C14.375 9.91218 13.0878 8.625 11.5 8.625C9.91218 8.625 8.625 9.91218 8.625 11.5C8.625 13.0878 9.91218 14.375 11.5 14.375Z" stroke="#212121" stroke-width="2" stroke-linecap="round" stroke-linejoin="round"/>
</svg>
