<svg width="23" height="23" viewBox="0 0 23 23" fill="none" xmlns="http://www.w3.org/2000/svg">
<path d="M11.5 16.2917V16.3012M11.5 12.9377C11.4824 12.6266 11.5663 12.3181 11.7391 12.0589C11.912 11.7996 12.1644 11.6035 12.4583 11.5002C12.8185 11.3624 13.1419 11.1429 13.4028 10.859C13.6638 10.5751 13.8553 10.2344 13.9623 9.86389C14.0692 9.49337 14.0887 9.10307 14.0192 8.72374C13.9497 8.3444 13.7931 7.98638 13.5617 7.67786C13.3303 7.36934 13.0304 7.11874 12.6857 6.94579C12.341 6.77285 11.9609 6.68227 11.5753 6.6812C11.1896 6.68013 10.809 6.7686 10.4633 6.93963C10.1177 7.11066 9.81643 7.35959 9.58333 7.66682M20.125 11.5C20.125 16.2635 16.2635 20.125 11.5 20.125C6.73654 20.125 2.875 16.2635 2.875 11.5C2.875 6.73654 6.73654 2.875 11.5 2.875C16.2635 2.875 20.125 6.73654 20.125 11.5Z" stroke="#3268C1" stroke-width="2" stroke-linecap="round" stroke-linejoin="round"/>
</svg>
