<svg width="23" height="23" viewBox="0 0 23 23" fill="none" xmlns="http://www.w3.org/2000/svg">
<path d="M22.5175 6.95016L11.941 0.132705C11.808 0.0460979 11.6528 0 11.4941 0C11.3355 0 11.1803 0.0460979 11.0473 0.132705L0.388758 7.00765C0.234998 7.10288 0.116963 7.24635 0.0530146 7.41574C-0.0109333 7.58513 -0.0172089 7.77094 0.0351639 7.94428C0.0875368 8.11761 0.195622 8.26874 0.342605 8.37417C0.489589 8.47959 0.66723 8.53339 0.847895 8.52721H10.6865V14.9422H6.10337C5.88592 14.9422 5.67738 15.0287 5.52362 15.1828C5.36986 15.3368 5.28348 15.5457 5.28348 15.7636C5.28348 15.9814 5.36986 16.1903 5.52362 16.3444C5.67738 16.4984 5.88592 16.5849 6.10337 16.5849H10.6865V22.1785C10.6865 22.3964 10.7729 22.6053 10.9267 22.7593C11.0804 22.9134 11.289 22.9999 11.5064 22.9999C11.7239 22.9999 11.9324 22.9134 12.0862 22.7593C12.2399 22.6053 12.3263 22.3964 12.3263 22.1785V16.5849H16.9177C17.1351 16.5849 17.3437 16.4984 17.4974 16.3444C17.6512 16.1903 17.7376 15.9814 17.7376 15.7636C17.7376 15.5457 17.6512 15.3368 17.4974 15.1828C17.3437 15.0287 17.1351 14.9422 16.9177 14.9422H12.3263V8.52721H22.165C22.3552 8.53073 22.5408 8.46783 22.6899 8.34929C22.8389 8.23075 22.9422 8.06395 22.9819 7.8775C23.0217 7.69104 22.9954 7.49655 22.9077 7.32735C22.82 7.15816 22.6762 7.0248 22.5011 6.95016H22.5175ZM3.63551 6.88445L11.5064 1.80011L19.3855 6.88445H3.63551Z" fill="#3268C1"/>
<path d="M2.38963 10.3015C2.17218 10.3015 1.96364 10.388 1.80988 10.542C1.65612 10.6961 1.56974 10.905 1.56974 11.1228V22.1786C1.56974 22.3965 1.65612 22.6054 1.80988 22.7594C1.96364 22.9135 2.17218 23 2.38963 23C2.60708 23 2.81562 22.9135 2.96938 22.7594C3.12314 22.6054 3.20952 22.3965 3.20952 22.1786V18.8931H5.76756V22.1786C5.76756 22.3965 5.85394 22.6054 6.0077 22.7594C6.16146 22.9135 6.37 23 6.58745 23C6.8049 23 7.01344 22.9135 7.1672 22.7594C7.32096 22.6054 7.40734 22.3965 7.40734 22.1786V18.0717C7.40734 17.8539 7.32096 17.645 7.1672 17.4909C7.01344 17.3369 6.8049 17.2503 6.58745 17.2503H3.20952V11.1228C3.20952 10.905 3.12314 10.6961 2.96938 10.542C2.81562 10.388 2.60708 10.3015 2.38963 10.3015Z" fill="#3268C1"/>
<path d="M20.5255 23C20.743 23 20.9515 22.9135 21.1053 22.7594C21.259 22.6054 21.3454 22.3965 21.3454 22.1786V11.1228C21.3454 10.905 21.259 10.6961 21.1053 10.542C20.9515 10.388 20.743 10.3015 20.5255 10.3015C20.3081 10.3015 20.0995 10.388 19.9458 10.542C19.792 10.6961 19.7056 10.905 19.7056 11.1228V17.2503H16.3277C16.1103 17.2503 15.9017 17.3369 15.748 17.4909C15.5942 17.645 15.5078 17.8539 15.5078 18.0717V22.1786C15.5078 22.3965 15.5942 22.6054 15.748 22.7594C15.9017 22.9135 16.1103 23 16.3277 23C16.5452 23 16.7537 22.9135 16.9075 22.7594C17.0612 22.6054 17.1476 22.3965 17.1476 22.1786V18.8931H19.7056V22.1786C19.7056 22.3965 19.792 22.6054 19.9458 22.7594C20.0995 22.9135 20.3081 23 20.5255 23Z" fill="#3268C1"/>
</svg>
