<svg width="23" height="23" viewBox="0 0 23 23" fill="none" xmlns="http://www.w3.org/2000/svg">
<path d="M3.51474 17.7316C3.51403 18.8762 3.7135 20.0122 4.10412 21.0881C4.15434 21.227 4.24614 21.3471 4.36703 21.432C4.48792 21.5169 4.63203 21.5624 4.77974 21.5625H18.1988C18.3465 21.5624 18.4906 21.5169 18.6115 21.432C18.7324 21.3471 18.8242 21.227 18.8744 21.0881C19.2684 20.0131 19.468 18.8765 19.4638 17.7316C19.4638 13.34 16.5888 9.69594 12.8513 8.97719C13.5445 8.66702 14.1328 8.1624 14.5449 7.5245C14.957 6.88661 15.1751 6.14285 15.1729 5.38344C15.1911 4.8831 15.1106 4.38408 14.9358 3.9149C14.7611 3.44572 14.4955 3.01559 14.1544 2.64911C13.8133 2.28263 13.4033 1.98699 12.9478 1.77909C12.4924 1.57119 12.0004 1.45512 11.5001 1.4375C10.4934 1.46944 9.54039 1.89872 8.84942 2.63145C8.15844 3.36418 7.78576 4.34072 7.81287 5.3475C7.80362 6.11301 8.01847 6.86451 8.43097 7.50944C8.84347 8.15437 9.4356 8.66457 10.1344 8.97719C6.38255 9.69594 3.51474 13.34 3.51474 17.7316ZM11.5001 11.6941L9.4013 10.695C10.7627 10.1394 12.2877 10.1394 13.6491 10.695L11.5001 11.6941ZM9.24318 5.3475C9.21585 4.72067 9.438 4.10855 9.86099 3.64515C10.284 3.18175 10.8733 2.90483 11.5001 2.875C12.1249 2.90664 12.7117 3.18461 13.132 3.64803C13.5523 4.11145 13.7719 4.72255 13.7426 5.3475C13.77 5.97196 13.5498 6.582 13.1299 7.04499C12.7099 7.50799 12.1242 7.78651 11.5001 7.82C10.8733 7.79017 10.284 7.51325 9.86099 7.04985C9.438 6.58645 9.21585 5.97433 9.24318 5.3475ZM8.38787 11.1694C8.38094 11.2267 8.38094 11.2846 8.38787 11.3419V13.7497C8.38913 13.8732 8.4222 13.9943 8.48389 14.1013C8.54558 14.2083 8.6338 14.2976 8.74005 14.3606C8.84897 14.4319 8.97648 14.4694 9.10662 14.4684C9.22459 14.4678 9.34061 14.4382 9.44443 14.3822L11.5001 13.3041L13.5629 14.375C13.6637 14.4319 13.7777 14.4616 13.8935 14.4613C14.0841 14.4613 14.2669 14.3855 14.4017 14.2507C14.5365 14.1159 14.6122 13.9331 14.6122 13.7425V11.3419C14.6192 11.2846 14.6192 11.2267 14.6122 11.1694C15.6925 11.8841 16.5741 12.8607 17.1748 14.0082C17.7756 15.1557 18.0759 16.4366 18.0479 17.7316C18.0427 18.543 17.9192 19.3493 17.6813 20.125H5.29724C5.06664 19.3482 4.95042 18.5419 4.95224 17.7316C4.92416 16.4366 5.22451 15.1557 5.82528 14.0082C6.42604 12.8607 7.30765 11.8841 8.38787 11.1694Z" fill="#F58634"/>
</svg>
