<svg width="23" height="23" viewBox="0 0 23 23" fill="none" xmlns="http://www.w3.org/2000/svg">
<mask id="mask0_1694_2831" style="mask-type:alpha" maskUnits="userSpaceOnUse" x="0" y="0" width="23" height="23">
<rect width="23" height="23" fill="#D9D9D9"/>
</mask>
<g mask="url(#mask0_1694_2831)">
<path d="M7.41496 17.3706L7.41501 17.3707C7.45653 17.471 7.50308 17.5794 7.55122 17.6916C7.58753 17.7762 7.62474 17.8629 7.66138 17.9498C7.7486 17.7455 7.84922 17.5 7.951 17.2477C8.06792 16.9577 8.18719 16.6566 8.28805 16.4019C8.38898 16.1471 8.4715 15.9387 8.51481 15.8347M7.41496 17.3706L8.74568 15.9306M7.41496 17.3706C7.33775 17.1845 7.26318 17.0011 7.18825 16.8169L7.18806 16.8165C7.1133 16.6327 7.03816 16.4479 6.96025 16.2601L6.96022 16.26M7.41496 17.3706L6.96022 16.26M8.51481 15.8347C8.51484 15.8346 8.51486 15.8346 8.51489 15.8345L8.74568 15.9306M8.51481 15.8347C8.51478 15.8348 8.51475 15.8348 8.51472 15.8349L8.74568 15.9306M8.51481 15.8347C8.53843 15.7777 8.55823 15.7234 8.57791 15.6686C8.57968 15.6637 8.58147 15.6587 8.58327 15.6537C8.60071 15.6051 8.61929 15.5534 8.63917 15.5051C8.68341 15.3976 8.74619 15.2752 8.86508 15.179C8.98512 15.0819 9.13441 15.0334 9.31113 15.0138C9.48549 14.9945 9.70443 15.0015 9.98217 15.0304M8.74568 15.9306C8.77408 15.8621 8.79707 15.798 8.81833 15.7389C8.95346 15.3626 9.01854 15.1813 9.95625 15.2791M9.98217 15.0304C9.98209 15.0304 9.98201 15.0304 9.98193 15.0304L9.95625 15.2791M9.98217 15.0304C10.1824 15.0512 10.37 15.1532 10.4779 15.3308C10.5887 15.5132 10.5928 15.7374 10.4967 15.9534L10.4965 15.9538C10.392 16.1874 10.1896 16.2684 10.0113 16.294C9.91793 16.3074 9.80767 16.3079 9.7057 16.3062M9.98217 15.0304L9.95625 15.2791M9.95625 15.2791L9.7057 16.3062M9.7057 16.3062C9.73029 16.2362 9.7509 16.1703 9.76506 16.1121L9.52216 16.053V16.303C9.55596 16.303 9.59419 16.3038 9.63496 16.3047C9.65785 16.3053 9.68155 16.3058 9.7057 16.3062ZM9.7057 16.3062C9.66271 16.4286 9.60757 16.5633 9.55348 16.6904C9.50903 16.7949 9.46631 16.8921 9.42707 16.9813C9.38539 17.0761 9.34763 17.162 9.31589 17.2382L9.31614 17.2376L9.08481 17.1428L9.31563 17.2388L8.41648 19.4325L8.4157 19.4344C8.40048 19.4707 8.38278 19.5172 8.36198 19.5719C8.34569 19.6148 8.32749 19.6626 8.3071 19.7144C8.28559 19.7691 8.26255 19.8256 8.23992 19.8755C8.21939 19.9207 8.19188 19.9773 8.15976 20.0216L8.15954 20.0219C8.04621 20.178 7.85864 20.2449 7.69828 20.2541C7.53353 20.2635 7.33789 20.2162 7.19619 20.0693L7.19596 20.069C7.16652 20.0384 7.14449 20.0021 7.1324 19.9815C7.11716 19.9556 7.10117 19.9254 7.08505 19.8933C7.05266 19.8288 7.01455 19.7462 6.9733 19.6532C6.89054 19.4666 6.79065 19.2275 6.69098 18.9839C6.57024 18.6888 6.45308 18.3953 6.36278 18.1691C6.30062 18.0134 6.25118 17.8896 6.22204 17.819C6.04719 17.3961 5.92352 17.0793 5.8316 16.8439C5.80852 16.7848 5.78744 16.7308 5.76805 16.6815C5.66557 16.4211 5.62097 16.3242 5.58829 16.2805C5.58691 16.2786 5.58579 16.2772 5.5849 16.2761C5.57893 16.2744 5.56507 16.2709 5.53612 16.2664C5.52086 16.264 5.50329 16.2616 5.4834 16.2588C5.39025 16.246 5.24613 16.2261 5.04929 16.17C4.19297 15.9261 3.52736 15.324 3.17556 14.68L3.17553 14.6799C2.72665 13.8577 2.73966 13.1372 2.75497 12.29C2.75784 12.1312 2.76079 11.9678 2.76079 11.7986C2.76079 11.6901 2.75969 11.4461 2.75819 11.1141C2.75538 10.4921 2.75118 9.56093 2.75021 8.63126C2.74946 7.92083 2.75061 7.21419 2.75576 6.65534C2.76081 6.1075 2.76962 5.67782 2.78724 5.5409L9.7057 16.3062ZM6.96022 16.26C6.93871 16.2082 6.91392 16.1421 6.88439 16.0633M6.96022 16.26L6.88439 16.0633M4.03238 6.84477V6.8448L4.03184 13.0724C4.04406 14.1109 4.7386 14.8116 5.57131 14.9871L4.03238 6.84477ZM4.03238 6.84477C4.03238 6.73746 4.03114 6.63399 4.02993 6.53387M4.03238 6.84477L4.02993 6.53387M6.88439 16.0633C6.87716 16.044 6.86966 16.024 6.86184 16.0032M6.88439 16.0633L6.86184 16.0032M6.86184 16.0032C6.82327 15.9007 6.77891 15.7849 6.73068 15.6734M6.86184 16.0032L6.73068 15.6734M6.73068 15.6734C6.68293 15.5631 6.62821 15.4493 6.56735 15.3529M6.73068 15.6734L6.56735 15.3529M6.56735 15.3529C6.51218 15.2656 6.42855 15.1535 6.30929 15.0946M6.56735 15.3529L6.30929 15.0946M6.30929 15.0946C6.23995 15.0603 6.16126 15.0451 6.10123 15.0363M6.30929 15.0946C6.30937 15.0946 6.30945 15.0947 6.30953 15.0947L6.19865 15.3188L6.10123 15.0363M6.10123 15.0363C6.03628 15.0268 5.96549 15.0214 5.90032 15.0171M6.10123 15.0363L5.90032 15.0171M5.90032 15.0171C5.87562 15.0154 5.85191 15.0139 5.82919 15.0125M5.90032 15.0171L5.82919 15.0125M5.82919 15.0125C5.72014 15.0057 5.63393 15.0003 5.57139 14.9872L5.82919 15.0125ZM4.02993 6.53387C4.02251 5.9179 4.01662 5.4293 4.31212 4.9584M4.02993 6.53387L4.31212 4.9584M4.31212 4.9584C4.63256 4.44822 4.98556 4.22668 5.39257 4.12206M4.31212 4.9584L5.39257 4.12206M5.39257 4.12206C5.77106 4.02476 6.19712 4.02626 6.72242 4.02811M5.39257 4.12206L6.72242 4.02811M6.72242 4.02811C6.79632 4.02837 6.87219 4.02864 6.95017 4.02864M6.72242 4.02811L6.95017 4.02864M6.95017 4.02864H16.2545H6.95017ZM19.9762 8.41101H20.2262C20.2262 8.41099 20.2262 8.41096 20.2262 8.41093L19.9762 8.41101ZM19.9111 5.32965L20.1559 5.27891C20.0566 4.79994 19.8398 4.41491 19.6453 4.10771L19.6452 4.10751C19.5664 3.9833 19.4083 3.81284 19.2563 3.66568C19.1021 3.51631 18.9251 3.36287 18.7946 3.27838L18.7942 3.27817C17.9657 2.74355 17.1769 2.74661 16.2131 2.75034C16.1431 2.75061 16.0722 2.75088 16.0003 2.75096H6.69568C6.11038 2.75096 5.65488 2.75115 5.24317 2.83459C4.81858 2.92063 4.44909 3.09244 4.01624 3.41491L19.9111 5.32965ZM18.4749 4.69344L18.6511 4.51608L18.4748 4.69332C18.4748 4.69336 18.4749 4.6934 18.4749 4.69344ZM7.79325 18.2726C7.72297 18.4292 7.66816 18.5392 7.63875 18.5747C7.60454 18.4764 7.56458 18.3723 7.52154 18.2656L7.79325 18.2726ZM4.01618 3.41496C3.47586 3.81698 2.91445 4.55069 2.78726 5.54079L4.01618 3.41496Z" fill="#212121" stroke="#212121" stroke-width="0.5"/>
<path fill-rule="evenodd" clip-rule="evenodd" d="M12.4584 15.2434C12.5436 15.1624 12.5061 15.1765 12.7612 15.1428L13.644 15.0166C14.7824 14.8502 14.5507 15.0493 15.1454 13.8191C15.2615 13.5787 15.458 13.0942 15.6007 12.9251C15.7966 13.1768 16.273 14.3733 16.5155 14.7425C16.668 14.9748 17.7174 15.0411 18.1873 15.108C18.3463 15.1303 18.6225 15.1308 18.7424 15.2418C18.533 15.3892 18.2161 15.7285 18.0093 15.9248C17.0695 16.8151 17.1444 16.4991 17.3517 17.7336C17.4163 18.1176 17.4808 18.507 17.5465 18.892C17.273 18.8316 15.8693 17.9348 15.6012 17.9387C15.3321 17.943 13.9549 18.8137 13.6532 18.8942C13.7135 18.4977 13.7878 18.0942 13.8562 17.6972C14.0618 16.4991 14.1101 16.8004 13.1708 15.9096C12.9652 15.7144 12.6673 15.3924 12.4584 15.2434ZM11.6369 14.5234C11.3417 14.5723 11.129 14.7279 11.2489 15.0629L12.1735 16.0352C12.2891 16.1456 13.1193 16.9119 13.1453 16.9614C13.2251 17.1131 12.9657 18.3166 12.9191 18.582C12.8388 19.041 12.5268 19.9601 13.0943 20.0058C13.4232 20.0319 15.4303 18.7549 15.6218 18.7843C15.6989 18.7957 16.7098 19.3445 16.8601 19.4266C17.1281 19.5723 17.909 20.058 18.1738 19.9943C18.6659 19.8758 18.3441 18.9502 18.272 18.5244C17.9659 16.7161 17.8579 17.1365 18.54 16.4937C18.712 16.3316 18.8558 16.1946 19.0262 16.0331C19.1559 15.9102 19.902 15.1961 19.9503 15.0607C20.17 14.4483 19.2877 14.4853 18.7397 14.4043C18.2009 14.3243 17.6225 14.2226 17.0836 14.1688C16.9632 13.83 16.3169 12.596 16.0814 12.1202C15.9724 11.8999 15.8872 11.6307 15.6007 11.6296C15.2415 11.6286 15.0043 12.3524 14.7721 12.8272C14.5887 13.2013 14.2403 13.7919 14.1166 14.1683L11.6369 14.5234Z" fill="#212121"/>
<path d="M7.14551 6.89819H15.7899M7.14551 8.97618H15.7899M7.14556 11.0607H11.2385" stroke="#212121" stroke-miterlimit="2.61313" stroke-linecap="round"/>
</g>
</svg>
