<svg width="23" height="23" viewBox="0 0 23 23" fill="none" xmlns="http://www.w3.org/2000/svg">
<path d="M3.83334 7.66668H19.1667M7.66668 3.83334V7.66668M4.79168 3.83334H18.2083C18.7376 3.83334 19.1667 4.2624 19.1667 4.79168V18.2083C19.1667 18.7376 18.7376 19.1667 18.2083 19.1667H4.79168C4.2624 19.1667 3.83334 18.7376 3.83334 18.2083V4.79168C3.83334 4.2624 4.2624 3.83334 4.79168 3.83334Z" stroke="#3268C1" stroke-width="2" stroke-linecap="round" stroke-linejoin="round"/>
<mask id="path-2-inside-1_127_376" fill="white">
<path d="M10.7866 9.76096C10.968 9.01303 12.032 9.01303 12.2134 9.76096C12.2406 9.87332 12.294 9.97766 12.3692 10.0655C12.4444 10.1533 12.5392 10.2222 12.646 10.2664C12.7528 10.3107 12.8686 10.3291 12.9838 10.3201C13.0991 10.3112 13.2106 10.2752 13.3093 10.215C13.9665 9.81462 14.7191 10.5668 14.3188 11.2244C14.2587 11.3231 14.2227 11.4346 14.2138 11.5497C14.2049 11.6649 14.2233 11.7806 14.2675 11.8873C14.3117 11.9941 14.3804 12.0889 14.4682 12.1641C14.5559 12.2392 14.6601 12.2926 14.7724 12.3199C15.5203 12.5014 15.5203 13.5653 14.7724 13.7468C14.66 13.774 14.5557 13.8274 14.4678 13.9025C14.38 13.9777 14.3112 14.0726 14.2669 14.1794C14.2227 14.2862 14.2043 14.4019 14.2132 14.5172C14.2221 14.6324 14.2582 14.744 14.3183 14.8427C14.7187 15.4999 13.9665 16.2525 13.3089 15.8521C13.2102 15.792 13.0988 15.7561 12.9836 15.7471C12.8684 15.7382 12.7527 15.7566 12.646 15.8008C12.5393 15.845 12.4444 15.9138 12.3693 16.0015C12.2941 16.0892 12.2407 16.1935 12.2134 16.3057C12.032 17.0537 10.968 17.0537 10.7866 16.3057C10.7593 16.1934 10.706 16.089 10.6308 16.0012C10.5556 15.9134 10.4608 15.8445 10.354 15.8003C10.2472 15.756 10.1314 15.7376 10.0162 15.7465C9.90089 15.7555 9.78937 15.7915 9.69066 15.8517C9.03345 16.2521 8.28084 15.4999 8.68121 14.8423C8.74131 14.7436 8.77728 14.6321 8.7862 14.5169C8.79511 14.4018 8.77672 14.2861 8.73252 14.1794C8.68833 14.0726 8.61956 13.9778 8.53183 13.9026C8.44409 13.8275 8.33986 13.7741 8.2276 13.7468C7.47968 13.5653 7.47968 12.5014 8.2276 12.3199C8.33996 12.2927 8.4443 12.2393 8.53214 12.1642C8.61997 12.089 8.68882 11.9941 8.73307 11.8873C8.77732 11.7805 8.79572 11.6648 8.78679 11.5495C8.77785 11.4342 8.74182 11.3227 8.68164 11.224C8.28127 10.5668 9.03345 9.8142 9.69108 10.2146C10.117 10.4735 10.669 10.2444 10.7866 9.76096Z"/>
</mask>
<path d="M10.7866 9.76096L12.7299 10.2335L12.7302 10.2325L10.7866 9.76096ZM12.2134 9.76096L14.1572 9.28999L14.157 9.28944L12.2134 9.76096ZM13.3093 10.215L12.2688 8.50698L12.2682 8.50737L13.3093 10.215ZM14.3188 11.2244L16.0269 12.2648L16.0271 12.2645L14.3188 11.2244ZM14.7724 12.3199L14.2998 14.2633L14.3009 14.2635L14.7724 12.3199ZM14.7724 13.7468L15.2433 15.6905L15.2439 15.6904L14.7724 13.7468ZM14.3183 14.8427L16.0264 13.8022L16.026 13.8015L14.3183 14.8427ZM13.3089 15.8521L12.2685 17.5602L12.2689 17.5604L13.3089 15.8521ZM12.2134 16.3057L10.2701 15.8331L10.2698 15.8342L12.2134 16.3057ZM10.7866 16.3057L8.84281 16.7767L8.84294 16.7773L10.7866 16.3057ZM9.69066 15.8517L10.7312 17.5597L10.7318 17.5593L9.69066 15.8517ZM8.68121 14.8423L6.97312 13.8019L6.9729 13.8022L8.68121 14.8423ZM8.2276 13.7468L8.70019 11.8034L8.69912 11.8031L8.2276 13.7468ZM8.2276 12.3199L7.75664 10.3762L7.75608 10.3763L8.2276 12.3199ZM8.68164 11.224L6.97363 12.2645L6.97401 12.2652L8.68164 11.224ZM9.69108 10.2146L8.65105 11.9229L8.65206 11.9235L9.69108 10.2146ZM12.7302 10.2325C12.4172 11.5225 10.5828 11.5225 10.2698 10.2325L14.157 9.28944C13.4812 6.50354 9.51879 6.50354 8.84294 9.28944L12.7302 10.2325ZM10.2697 10.2319C10.371 10.6503 10.5698 11.0389 10.8497 11.3659L13.8887 8.76506C14.0183 8.91646 14.1102 9.09632 14.1572 9.28999L10.2697 10.2319ZM10.8497 11.3659C11.1296 11.693 11.4828 11.9493 11.8805 12.1141L13.4115 8.41872C13.5956 8.495 13.7591 8.61366 13.8887 8.76506L10.8497 11.3659ZM11.8805 12.1141C12.2782 12.2789 12.7092 12.3474 13.1384 12.3142L12.8292 8.32613C13.0279 8.31072 13.2274 8.34245 13.4115 8.41872L11.8805 12.1141ZM13.1384 12.3142C13.5676 12.2809 13.9829 12.1467 14.3505 11.9226L12.2682 8.50737C12.4383 8.40363 12.6305 8.34153 12.8292 8.32613L13.1384 12.3142ZM14.3498 11.923C13.2166 12.6134 11.9209 11.3171 12.6105 10.1844L16.0271 12.2645C17.5174 9.81653 14.7164 7.01587 12.2688 8.50698L14.3498 11.923ZM12.6107 10.184C12.3869 10.5514 12.2529 10.9665 12.2197 11.3954L16.2078 11.7041C16.1924 11.9026 16.1304 12.0948 16.0269 12.2648L12.6107 10.184ZM12.2197 11.3954C12.1865 11.8243 12.255 12.255 12.4196 12.6525L16.1153 11.1222C16.1915 11.3062 16.2232 11.5055 16.2078 11.7041L12.2197 11.3954ZM12.4196 12.6525C12.5842 13.05 12.8402 13.403 13.1669 13.6829L15.7694 10.6452C15.9206 10.7748 16.0391 10.9382 16.1153 11.1222L12.4196 12.6525ZM13.1669 13.6829C13.4936 13.9628 13.8818 14.1616 14.2998 14.2633L15.245 10.3766C15.4385 10.4236 15.6181 10.5157 15.7694 10.6452L13.1669 13.6829ZM14.3009 14.2635C13.0108 13.9506 13.0108 12.1161 14.3009 11.8031L15.2439 15.6904C18.0298 15.0145 18.0298 11.0521 15.2439 10.3763L14.3009 14.2635ZM14.3014 11.803C13.883 11.9044 13.4945 12.1031 13.1674 12.383L15.7683 15.422C15.6169 15.5516 15.437 15.6436 15.2433 15.6905L14.3014 11.803ZM13.1674 12.383C12.8403 12.663 12.584 13.0161 12.4192 13.4139L16.1146 14.9449C16.0383 15.129 15.9197 15.2925 15.7683 15.422L13.1674 12.383ZM12.4192 13.4139C12.2544 13.8116 12.1859 14.2426 12.2192 14.6718L16.2072 14.3626C16.2226 14.5613 16.1909 14.7608 16.1146 14.9449L12.4192 13.4139ZM12.2192 14.6718C12.2525 15.101 12.3866 15.5163 12.6107 15.8838L16.026 13.8015C16.1297 13.9717 16.1918 14.1639 16.2072 14.3626L12.2192 14.6718ZM12.6103 15.8832C11.92 14.75 13.2162 13.4542 14.3489 14.1438L12.2689 17.5604C14.7168 19.0508 17.5175 16.2498 16.0264 13.8022L12.6103 15.8832ZM14.3493 14.144C13.9819 13.9202 13.5669 13.7863 13.1379 13.7531L12.8292 17.7412C12.6307 17.7258 12.4386 17.6638 12.2685 17.5602L14.3493 14.144ZM13.1379 13.7531C12.709 13.7199 12.2783 13.7884 11.8808 13.953L13.4111 17.6487C13.2272 17.7248 13.0278 17.7565 12.8292 17.7412L13.1379 13.7531ZM11.8808 13.953C11.4834 14.1175 11.1303 14.3736 10.8505 14.7003L13.8881 17.3027C13.7585 17.454 13.5951 17.5725 13.4111 17.6487L11.8808 13.953ZM10.8505 14.7003C10.5706 15.027 10.3717 15.4151 10.2701 15.8331L14.1568 16.7783C14.1097 16.9718 14.0177 17.1515 13.8881 17.3027L10.8505 14.7003ZM10.2698 15.8342C10.5828 14.5442 12.4172 14.5442 12.7302 15.8342L8.84294 16.7773C9.51879 19.5632 13.4812 19.5632 14.157 16.7773L10.2698 15.8342ZM12.7303 15.8348C12.6289 15.4164 12.4302 15.0278 12.1503 14.7008L9.1113 17.3016C8.98173 17.1502 8.88973 16.9704 8.84281 16.7767L12.7303 15.8348ZM12.1503 14.7008C11.8704 14.3737 11.5172 14.1173 11.1195 13.9526L9.58846 17.648C9.40436 17.5717 9.24087 17.453 9.1113 17.3016L12.1503 14.7008ZM11.1195 13.9526C10.7218 13.7878 10.2908 13.7193 9.86155 13.7525L10.1708 17.7406C9.97208 17.756 9.77256 17.7242 9.58846 17.648L11.1195 13.9526ZM9.86155 13.7525C9.43234 13.7858 9.01705 13.92 8.64949 14.1441L10.7318 17.5593C10.5617 17.6631 10.3694 17.7252 10.1708 17.7406L9.86155 13.7525ZM8.65013 14.1437C9.78337 13.4533 11.0791 14.7496 10.3895 15.8823L6.9729 13.8022C5.48257 16.2502 8.28353 19.0508 10.7312 17.5597L8.65013 14.1437ZM10.3893 15.8826C10.6131 15.5152 10.747 15.1002 10.7802 14.6713L6.79216 14.3626C6.80753 14.164 6.86953 13.9719 6.97312 13.8019L10.3893 15.8826ZM10.7802 14.6713C10.8134 14.2424 10.745 13.8117 10.5804 13.4142L6.88467 14.9445C6.80849 14.7605 6.77679 14.5611 6.79216 14.3626L10.7802 14.6713ZM10.5804 13.4142C10.4158 13.0167 10.1597 12.6637 9.83304 12.3838L7.23061 15.4215C7.07938 15.2919 6.96086 15.1285 6.88467 14.9445L10.5804 13.4142ZM9.83304 12.3838C9.50634 12.1039 9.11821 11.9051 8.70019 11.8034L7.75501 15.6901C7.56151 15.6431 7.38184 15.551 7.23061 15.4215L9.83304 12.3838ZM8.69912 11.8031C9.98917 12.1161 9.98917 13.9506 8.69912 14.2635L7.75608 10.3763C4.97018 11.0521 4.97018 15.0145 7.75608 15.6904L8.69912 11.8031ZM8.69857 14.2637C9.11696 14.1623 9.5055 13.9636 9.83257 13.6837L7.23171 10.6447C7.38311 10.5151 7.56296 10.4231 7.75664 10.3762L8.69857 14.2637ZM9.83257 13.6837C10.1596 13.4037 10.416 13.0505 10.5808 12.6528L6.88537 11.1218C6.96164 10.9377 7.08031 10.7742 7.23171 10.6447L9.83257 13.6837ZM10.5808 12.6528C10.7455 12.2551 10.8141 11.8241 10.7808 11.3949L6.79277 11.7041C6.77737 11.5054 6.80909 11.3059 6.88537 11.1218L10.5808 12.6528ZM10.7808 11.3949C10.7475 10.9657 10.6134 10.5504 10.3893 10.1829L6.97401 12.2652C6.87027 12.095 6.80817 11.9028 6.79277 11.7041L10.7808 11.3949ZM10.3897 10.1835C11.08 11.3167 9.78373 12.6125 8.65105 11.9229L10.7311 8.50626C8.28317 7.01593 5.48251 9.81689 6.97363 12.2645L10.3897 10.1835ZM8.65206 11.9235C10.234 12.8853 12.2925 12.0324 12.7299 10.2335L8.8432 9.28838C9.04553 8.45632 10.0001 8.06177 10.7301 8.50564L8.65206 11.9235Z" fill="#3268C1" mask="url(#path-2-inside-1_127_376)"/>
</svg>
