<svg width="23" height="23" viewBox="0 0 23 23" fill="none" xmlns="http://www.w3.org/2000/svg">
<mask id="mask0_127_398" style="mask-type:alpha" maskUnits="userSpaceOnUse" x="0" y="0" width="23" height="23">
<rect width="23" height="23" fill="#D9D9D9"/>
</mask>
<g mask="url(#mask0_127_398)">
<path d="M8.33751 2.95167H5.46251C4.7966 2.95167 4.15796 3.2162 3.68709 3.68707C3.21621 4.15794 2.95168 4.79658 2.95168 5.4625C2.95168 6.12841 3.21621 6.76705 3.68709 7.23793C4.15796 7.7088 4.7966 7.97333 5.46251 7.97333H8.33751C9.00343 7.97333 9.64207 7.7088 10.1129 7.23793C10.5838 6.76705 10.8483 6.12841 10.8483 5.4625C10.8483 4.79658 10.5838 4.15794 10.1129 3.68707C9.64207 3.2162 9.00343 2.95167 8.33751 2.95167ZM8.33751 6.785H5.46251C5.11177 6.785 4.77538 6.64566 4.52737 6.39765C4.27935 6.14963 4.14001 5.81325 4.14001 5.4625C4.14001 5.11175 4.27935 4.77537 4.52737 4.52735C4.77538 4.27933 5.11177 4.14 5.46251 4.14H8.33751C8.68826 4.14 9.02465 4.27933 9.27266 4.52735C9.52068 4.77537 9.66001 5.11175 9.66001 5.4625C9.66001 5.81325 9.52068 6.14963 9.27266 6.39765C9.02465 6.64566 8.68826 6.785 8.33751 6.785ZM8.33751 9.66H5.46251C4.7966 9.66 4.15796 9.92453 3.68709 10.3954C3.21621 10.8663 2.95168 11.5049 2.95168 12.1708V17.9208C2.95168 18.5867 3.21621 19.2254 3.68709 19.6963C4.15796 20.1671 4.7966 20.4317 5.46251 20.4317H8.33751C9.00343 20.4317 9.64207 20.1671 10.1129 19.6963C10.5838 19.2254 10.8483 18.5867 10.8483 17.9208V12.1708C10.8483 11.5049 10.5838 10.8663 10.1129 10.3954C9.64207 9.92453 9.00343 9.66 8.33751 9.66ZM9.66001 17.9208C9.66001 18.2716 9.52068 18.608 9.27266 18.856C9.02465 19.104 8.68826 19.2433 8.33751 19.2433H5.46251C5.11177 19.2433 4.77538 19.104 4.52737 18.856C4.27935 18.608 4.14001 18.2716 4.14001 17.9208V12.1708C4.14001 11.8201 4.27935 11.4837 4.52737 11.2357C4.77538 10.9877 5.11177 10.8483 5.46251 10.8483H8.33751C8.68826 10.8483 9.02465 10.9877 9.27266 11.2357C9.52068 11.4837 9.66001 11.8201 9.66001 12.1708V17.9208ZM17.9208 15.41H15.0458C14.3799 15.41 13.7413 15.6745 13.2704 16.1454C12.7995 16.6163 12.535 17.2549 12.535 17.9208C12.535 18.5867 12.7995 19.2254 13.2704 19.6963C13.7413 20.1671 14.3799 20.4317 15.0458 20.4317H17.9208C18.5868 20.4317 19.2254 20.1671 19.6963 19.6963C20.1671 19.2254 20.4317 18.5867 20.4317 17.9208C20.4317 17.2549 20.1671 16.6163 19.6963 16.1454C19.2254 15.6745 18.5868 15.41 17.9208 15.41ZM17.9208 19.2433H15.0458C14.6951 19.2433 14.3587 19.104 14.1107 18.856C13.8627 18.608 13.7233 18.2716 13.7233 17.9208C13.7233 17.5701 13.8627 17.2337 14.1107 16.9857C14.3587 16.7377 14.6951 16.5983 15.0458 16.5983H17.9208C18.2716 16.5983 18.608 16.7377 18.856 16.9857C19.104 17.2337 19.2433 17.5701 19.2433 17.9208C19.2433 18.2716 19.104 18.608 18.856 18.856C18.608 19.104 18.2716 19.2433 17.9208 19.2433ZM17.9208 2.95167H15.0458C14.3799 2.95167 13.7413 3.2162 13.2704 3.68707C12.7995 4.15794 12.535 4.79658 12.535 5.4625V11.2125C12.535 11.8784 12.7995 12.5171 13.2704 12.9879C13.7413 13.4588 14.3799 13.7233 15.0458 13.7233H17.9208C18.5868 13.7233 19.2254 13.4588 19.6963 12.9879C20.1671 12.5171 20.4317 11.8784 20.4317 11.2125V5.4625C20.4317 4.79658 20.1671 4.15794 19.6963 3.68707C19.2254 3.2162 18.5868 2.95167 17.9208 2.95167ZM19.2433 11.2125C19.2433 11.5632 19.104 11.8996 18.856 12.1476C18.608 12.3957 18.2716 12.535 17.9208 12.535H15.0458C14.6951 12.535 14.3587 12.3957 14.1107 12.1476C13.8627 11.8996 13.7233 11.5632 13.7233 11.2125V5.4625C13.7233 5.11175 13.8627 4.77537 14.1107 4.52735C14.3587 4.27933 14.6951 4.14 15.0458 4.14H17.9208C18.2716 4.14 18.608 4.27933 18.856 4.52735C19.104 4.77537 19.2433 5.11175 19.2433 5.4625V11.2125Z" fill="#3268C1" stroke="#3268C1" stroke-width="0.23"/>
</g>
</svg>
