<svg width="23" height="23" viewBox="0 0 23 23" fill="none" xmlns="http://www.w3.org/2000/svg">
<g clip-path="url(#clip0_127_402)">
<path d="M19.965 18.4637H6.74002C6.15544 18.4637 5.5948 18.2315 5.18144 17.8181C4.76807 17.4047 4.53585 16.8441 4.53585 16.2595V3.03453C4.53585 2.83967 4.45844 2.65279 4.32066 2.515C4.18287 2.37721 3.99599 2.2998 3.80113 2.2998C3.60627 2.2998 3.41939 2.37721 3.2816 2.515C3.14381 2.65279 3.06641 2.83967 3.06641 3.03453V16.2595C3.06757 17.2335 3.45499 18.1672 4.14367 18.8559C4.83235 19.5446 5.76607 19.932 6.74002 19.9331H19.965C20.1599 19.9331 20.3468 19.8557 20.4845 19.7179C20.6223 19.5802 20.6997 19.3933 20.6997 19.1984C20.6997 19.0036 20.6223 18.8167 20.4845 18.6789C20.3468 18.5411 20.1599 18.4637 19.965 18.4637Z" fill="#ff515f"/>
<path d="M7.47486 16.9942C7.66972 16.9942 7.8566 16.9168 7.99439 16.779C8.13218 16.6412 8.20958 16.4543 8.20958 16.2595V11.1164C8.20958 10.9216 8.13218 10.7347 7.99439 10.5969C7.8566 10.4591 7.66972 10.3817 7.47486 10.3817C7.28 10.3817 7.09312 10.4591 6.95534 10.5969C6.81755 10.7347 6.74014 10.9216 6.74014 11.1164V16.2595C6.74014 16.4543 6.81755 16.6412 6.95534 16.779C7.09312 16.9168 7.28 16.9942 7.47486 16.9942Z" fill="#ff515f"/>
<path d="M10.4135 9.64703V16.2595C10.4135 16.4544 10.4909 16.6413 10.6287 16.779C10.7665 16.9168 10.9534 16.9942 11.1482 16.9942C11.3431 16.9942 11.53 16.9168 11.6678 16.779C11.8056 16.6413 11.883 16.4544 11.883 16.2595V9.64703C11.883 9.45217 11.8056 9.26529 11.6678 9.1275C11.53 8.98972 11.3431 8.91231 11.1482 8.91231C10.9534 8.91231 10.7665 8.98972 10.6287 9.1275C10.4909 9.26529 10.4135 9.45217 10.4135 9.64703Z" fill="#ff515f"/>
<path d="M14.0872 11.8512V16.2595C14.0872 16.4544 14.1647 16.6413 14.3024 16.779C14.4402 16.9168 14.6271 16.9942 14.822 16.9942C15.0168 16.9942 15.2037 16.9168 15.3415 16.779C15.4793 16.6413 15.5567 16.4544 15.5567 16.2595V11.8512C15.5567 11.6563 15.4793 11.4695 15.3415 11.3317C15.2037 11.1939 15.0168 11.1165 14.822 11.1165C14.6271 11.1165 14.4402 11.1939 14.3024 11.3317C14.1647 11.4695 14.0872 11.6563 14.0872 11.8512Z" fill="#ff515f"/>
<path d="M17.761 8.91224V16.2595C17.761 16.4543 17.8384 16.6412 17.9762 16.779C18.114 16.9168 18.3009 16.9942 18.4957 16.9942C18.6906 16.9942 18.8775 16.9168 19.0152 16.779C19.153 16.6412 19.2304 16.4543 19.2304 16.2595V8.91224C19.2304 8.71738 19.153 8.5305 19.0152 8.39272C18.8775 8.25493 18.6906 8.17752 18.4957 8.17752C18.3009 8.17752 18.114 8.25493 17.9762 8.39272C17.8384 8.5305 17.761 8.71738 17.761 8.91224Z" fill="#ff515f"/>
<path d="M7.47462 8.91226C7.66946 8.91222 7.85631 8.83479 7.99407 8.69699L10.6288 6.06228C10.7688 5.92887 10.9548 5.85445 11.1482 5.85445C11.3416 5.85445 11.5276 5.92887 11.6677 6.06228L13.2635 7.65809C13.6768 8.07131 14.2374 8.30344 14.8218 8.30344C15.4063 8.30344 15.9668 8.07131 16.3802 7.65809L20.4843 3.55393C20.6182 3.41536 20.6922 3.22977 20.6906 3.03713C20.6889 2.84449 20.6116 2.66021 20.4754 2.52399C20.3392 2.38776 20.1549 2.31049 19.9622 2.30882C19.7696 2.30715 19.584 2.3812 19.4454 2.51504L15.3413 6.61846C15.2035 6.7562 15.0167 6.83358 14.8218 6.83358C14.627 6.83358 14.4402 6.7562 14.3024 6.61846L12.7066 5.02338C12.2932 4.61016 11.7327 4.37803 11.1482 4.37803C10.5638 4.37803 10.0032 4.61016 9.58988 5.02338L6.95517 7.65809C6.85245 7.76085 6.7825 7.89175 6.75416 8.03425C6.72582 8.17675 6.74037 8.32445 6.79597 8.45869C6.85157 8.59292 6.94571 8.70766 7.06651 8.78839C7.1873 8.86913 7.32933 8.91223 7.47462 8.91226Z" fill="#ff515f"/>
</g>
<defs>
<clipPath id="clip0_127_402">
<rect width="17.6333" height="17.6333" fill="white" transform="translate(3.06641 2.2998)"/>
</clipPath>
</defs>
</svg>
