<svg width="23" height="23" viewBox="0 0 23 23" fill="none" xmlns="http://www.w3.org/2000/svg">
<mask id="mask0_1681_1708" style="mask-type:alpha" maskUnits="userSpaceOnUse" x="0" y="0" width="23" height="23">
<rect width="23" height="23" fill="#D9D9D9"/>
</mask>
<g mask="url(#mask0_1681_1708)">
<path d="M8.33724 2.95165H5.46224C4.79633 2.95165 4.15768 3.21618 3.68681 3.68706C3.21594 4.15793 2.95141 4.79657 2.95141 5.46248C2.95141 6.1284 3.21594 6.76704 3.68681 7.23791C4.15768 7.70878 4.79633 7.97332 5.46224 7.97332H8.33724C9.00315 7.97332 9.64179 7.70878 10.1127 7.23791C10.5835 6.76704 10.8481 6.1284 10.8481 5.46248C10.8481 4.79657 10.5835 4.15793 10.1127 3.68706C9.64179 3.21618 9.00315 2.95165 8.33724 2.95165ZM8.33724 6.78498H5.46224C5.11149 6.78498 4.77511 6.64565 4.52709 6.39763C4.27907 6.14962 4.13974 5.81323 4.13974 5.46248C4.13974 5.11173 4.27907 4.77535 4.52709 4.52733C4.77511 4.27932 5.11149 4.13998 5.46224 4.13998H8.33724C8.68799 4.13998 9.02437 4.27932 9.27239 4.52733C9.52041 4.77535 9.65974 5.11173 9.65974 5.46248C9.65974 5.81323 9.52041 6.14962 9.27239 6.39763C9.02437 6.64565 8.68799 6.78498 8.33724 6.78498ZM8.33724 9.65998H5.46224C4.79633 9.65998 4.15768 9.92452 3.68681 10.3954C3.21594 10.8663 2.95141 11.5049 2.95141 12.1708V17.9208C2.95141 18.5867 3.21594 19.2254 3.68681 19.6962C4.15768 20.1671 4.79632 20.4317 5.46224 20.4317H8.33724C9.00315 20.4317 9.64179 20.1671 10.1127 19.6962C10.5835 19.2254 10.8481 18.5867 10.8481 17.9208V12.1708C10.8481 11.5049 10.5835 10.8663 10.1127 10.3954C9.64179 9.92452 9.00315 9.65998 8.33724 9.65998ZM9.65974 17.9208C9.65974 18.2716 9.52041 18.6079 9.27239 18.856C9.02437 19.104 8.68799 19.2433 8.33724 19.2433H5.46224C5.11149 19.2433 4.77511 19.104 4.52709 18.856C4.27907 18.6079 4.13974 18.2716 4.13974 17.9208V12.1708C4.13974 11.8201 4.27907 11.4837 4.52709 11.2357C4.77511 10.9877 5.11149 10.8483 5.46224 10.8483H8.33724C8.68799 10.8483 9.02437 10.9877 9.27239 11.2357C9.52041 11.4837 9.65974 11.8201 9.65974 12.1708V17.9208ZM17.9206 15.41H15.0456C14.3797 15.41 13.741 15.6745 13.2701 16.1454C12.7993 16.6163 12.5347 17.2549 12.5347 17.9208C12.5347 18.5867 12.7993 19.2254 13.2701 19.6962C13.741 20.1671 14.3797 20.4317 15.0456 20.4317H17.9206C18.5865 20.4317 19.2251 20.1671 19.696 19.6962C20.1669 19.2254 20.4314 18.5867 20.4314 17.9208C20.4314 17.2549 20.1669 16.6163 19.696 16.1454C19.2251 15.6745 18.5865 15.41 17.9206 15.41ZM17.9206 19.2433H15.0456C14.6948 19.2433 14.3584 19.104 14.1104 18.856C13.8624 18.6079 13.7231 18.2716 13.7231 17.9208C13.7231 17.5701 13.8624 17.2337 14.1104 16.9857C14.3584 16.7377 14.6948 16.5983 15.0456 16.5983H17.9206C18.2713 16.5983 18.6077 16.7377 18.8557 16.9857C19.1037 17.2337 19.2431 17.5701 19.2431 17.9208C19.2431 18.2716 19.1037 18.6079 18.8557 18.856C18.6077 19.104 18.2713 19.2433 17.9206 19.2433ZM17.9206 2.95165H15.0456C14.3797 2.95165 13.741 3.21618 13.2701 3.68706C12.7993 4.15793 12.5347 4.79657 12.5347 5.46248V11.2125C12.5347 11.8784 12.7993 12.517 13.2701 12.9879C13.741 13.4588 14.3797 13.7233 15.0456 13.7233H17.9206C18.5865 13.7233 19.2251 13.4588 19.696 12.9879C20.1669 12.517 20.4314 11.8784 20.4314 11.2125V5.46248C20.4314 4.79657 20.1669 4.15793 19.696 3.68706C19.2251 3.21618 18.5865 2.95165 17.9206 2.95165ZM19.2431 11.2125C19.2431 11.5632 19.1037 11.8996 18.8557 12.1476C18.6077 12.3956 18.2713 12.535 17.9206 12.535H15.0456C14.6948 12.535 14.3584 12.3956 14.1104 12.1476C13.8624 11.8996 13.7231 11.5632 13.7231 11.2125V5.46248C13.7231 5.11173 13.8624 4.77535 14.1104 4.52733C14.3584 4.27932 14.6948 4.13998 15.0456 4.13998H17.9206C18.2713 4.13998 18.6077 4.27932 18.8557 4.52733C19.1037 4.77535 19.2431 5.11173 19.2431 5.46248V11.2125Z" fill="#212121" stroke="#212121" stroke-width="0.23"/>
</g>
</svg>
