<svg width="23" height="23" viewBox="0 0 23 23" fill="none" xmlns="http://www.w3.org/2000/svg">
<path d="M11.0208 11.0208C10.7562 11.0208 10.5416 11.2354 10.5416 11.5C10.5416 11.7646 10.7562 11.9792 11.0208 11.9792H16.7708C17.0354 11.9792 17.2499 11.7646 17.2499 11.5C17.2499 11.2354 17.0354 11.0208 16.7708 11.0208H11.0208Z" fill="#F58634"/>
<path d="M10.5416 9.58334C10.5416 9.3187 10.7562 9.10417 11.0208 9.10417H15.8124C16.077 9.10417 16.2916 9.3187 16.2916 9.58334C16.2916 9.84793 16.077 10.0625 15.8124 10.0625H11.0208C10.7562 10.0625 10.5416 9.84793 10.5416 9.58334Z" fill="#F58634"/>
<path d="M11.9791 12.9375C11.7145 12.9375 11.4999 13.1521 11.4999 13.4167C11.4999 13.6813 11.7145 13.8958 11.9791 13.8958H16.7708C17.0354 13.8958 17.2499 13.6813 17.2499 13.4167C17.2499 13.1521 17.0354 12.9375 16.7708 12.9375H11.9791Z" fill="#F58634"/>
<path fill-rule="evenodd" clip-rule="evenodd" d="M16.9808 4.79167H6.89322C6.49375 4.79167 6.13617 5.03947 5.9959 5.41352L2.40215 14.9969C2.16722 15.6233 2.63036 16.2917 3.29947 16.2917H8.62493L8.90708 17.4727C9.01013 17.9041 9.39569 18.2083 9.83922 18.2083H19.8558C20.2455 18.2083 20.5704 17.9795 20.7222 17.6602C20.8134 17.4685 20.8423 17.2444 20.7856 17.0176L17.9106 5.51757C17.9022 5.484 17.8921 5.45123 17.8804 5.41931C17.8362 5.29916 17.7694 5.19136 17.6855 5.10042C17.5085 4.90858 17.2557 4.79167 16.9808 4.79167ZM6.60127 6.52855L8.48801 15.3333H3.29947L6.60127 6.52855ZM16.9808 5.75001H7.41452L9.8788 17.25H19.8558L16.9808 5.75001Z" fill="#F58634"/>
</svg>
