<svg width="23" height="23" viewBox="0 0 23 23" fill="none" xmlns="http://www.w3.org/2000/svg">
<g clip-path="url(#clip0_1687_1976)">
<path d="M19.965 18.4639H6.74002C6.15544 18.4639 5.5948 18.2317 5.18144 17.8184C4.76807 17.405 4.53585 16.8444 4.53585 16.2598V3.03477C4.53585 2.83991 4.45844 2.65303 4.32066 2.51524C4.18287 2.37746 3.99599 2.30005 3.80113 2.30005C3.60627 2.30005 3.41939 2.37746 3.2816 2.51524C3.14381 2.65303 3.06641 2.83991 3.06641 3.03477V16.2598C3.06757 17.2337 3.45499 18.1674 4.14367 18.8561C4.83235 19.5448 5.76607 19.9322 6.74002 19.9334H19.965C20.1599 19.9334 20.3468 19.856 20.4845 19.7182C20.6223 19.5804 20.6997 19.3935 20.6997 19.1987C20.6997 19.0038 20.6223 18.8169 20.4845 18.6791C20.3468 18.5413 20.1599 18.4639 19.965 18.4639Z" fill="#212121"/>
<path d="M7.47496 16.9946C7.66982 16.9946 7.85669 16.9172 7.99448 16.7794C8.13227 16.6416 8.20968 16.4547 8.20968 16.2599V11.1168C8.20968 10.9219 8.13227 10.7351 7.99448 10.5973C7.85669 10.4595 7.66982 10.3821 7.47496 10.3821C7.2801 10.3821 7.09322 10.4595 6.95543 10.5973C6.81764 10.7351 6.74023 10.9219 6.74023 11.1168V16.2599C6.74023 16.4547 6.81764 16.6416 6.95543 16.7794C7.09322 16.9172 7.2801 16.9946 7.47496 16.9946Z" fill="#212121"/>
<path d="M10.4141 9.64732V16.2598C10.4141 16.4547 10.4915 16.6415 10.6293 16.7793C10.767 16.9171 10.9539 16.9945 11.1488 16.9945C11.3437 16.9945 11.5305 16.9171 11.6683 16.7793C11.8061 16.6415 11.8835 16.4547 11.8835 16.2598V9.64732C11.8835 9.45246 11.8061 9.26558 11.6683 9.12779C11.5305 8.99001 11.3437 8.9126 11.1488 8.9126C10.9539 8.9126 10.767 8.99001 10.6293 9.12779C10.4915 9.26558 10.4141 9.45246 10.4141 9.64732Z" fill="#212121"/>
<path d="M14.0869 11.8514V16.2597C14.0869 16.4546 14.1643 16.6415 14.3021 16.7793C14.4399 16.9171 14.6268 16.9945 14.8216 16.9945C15.0165 16.9945 15.2034 16.9171 15.3412 16.7793C15.479 16.6415 15.5564 16.4546 15.5564 16.2597V11.8514C15.5564 11.6566 15.479 11.4697 15.3412 11.3319C15.2034 11.1941 15.0165 11.1167 14.8216 11.1167C14.6268 11.1167 14.4399 11.1941 14.3021 11.3319C14.1643 11.4697 14.0869 11.6566 14.0869 11.8514Z" fill="#212121"/>
<path d="M17.7607 8.91246V16.2597C17.7607 16.4545 17.8382 16.6414 17.9759 16.7792C18.1137 16.917 18.3006 16.9944 18.4955 16.9944C18.6903 16.9944 18.8772 16.917 19.015 16.7792C19.1528 16.6414 19.2302 16.4545 19.2302 16.2597V8.91246C19.2302 8.7176 19.1528 8.53072 19.015 8.39293C18.8772 8.25514 18.6903 8.17773 18.4955 8.17773C18.3006 8.17773 18.1137 8.25514 17.9759 8.39293C17.8382 8.53072 17.7607 8.7176 17.7607 8.91246Z" fill="#212121"/>
<path d="M7.4748 8.91255C7.66964 8.91251 7.85649 8.83508 7.99425 8.69728L10.629 6.06257C10.769 5.92916 10.955 5.85474 11.1484 5.85474C11.3418 5.85474 11.5278 5.92916 11.6679 6.06257L13.2637 7.65838C13.677 8.0716 14.2376 8.30373 14.822 8.30373C15.4065 8.30373 15.967 8.0716 16.3804 7.65838L20.4845 3.55422C20.6184 3.41565 20.6924 3.23006 20.6907 3.03742C20.6891 2.84478 20.6118 2.6605 20.4756 2.52428C20.3394 2.38805 20.1551 2.31078 19.9624 2.30911C19.7698 2.30744 19.5842 2.38149 19.4456 2.51533L15.3415 6.61875C15.2037 6.75649 15.0168 6.83387 14.822 6.83387C14.6272 6.83387 14.4404 6.75649 14.3026 6.61875L12.7068 5.02367C12.2934 4.61045 11.7329 4.37832 11.1484 4.37832C10.5639 4.37832 10.0034 4.61045 9.59007 5.02367L6.95535 7.65838C6.85263 7.76114 6.78268 7.89204 6.75434 8.03454C6.72601 8.17704 6.74056 8.32474 6.79615 8.45898C6.85175 8.59321 6.9459 8.70795 7.06669 8.78868C7.18749 8.86942 7.32951 8.91252 7.4748 8.91255Z" fill="#212121"/>
</g>
<defs>
<clipPath id="clip0_1687_1976">
<rect width="17.6333" height="17.6333" fill="white" transform="translate(3.06641 2.30005)"/>
</clipPath>
</defs>
</svg>
