<svg width="23" height="23" viewBox="0 0 23 23" fill="none" xmlns="http://www.w3.org/2000/svg">
<path d="M3.83331 7.66659H19.1666M7.66665 3.83325V7.66659M4.79165 3.83325H18.2083C18.7376 3.83325 19.1666 4.26231 19.1666 4.79159V18.2083C19.1666 18.7375 18.7376 19.1666 18.2083 19.1666H4.79165C4.26237 19.1666 3.83331 18.7375 3.83331 18.2083V4.79159C3.83331 4.26231 4.26237 3.83325 4.79165 3.83325Z" stroke="#212121" stroke-width="2" stroke-linecap="round" stroke-linejoin="round"/>
<mask id="path-2-inside-1_1694_2801" fill="white">
<path d="M10.7866 9.7609C10.968 9.01297 12.032 9.01297 12.2134 9.7609C12.2407 9.87325 12.294 9.9776 12.3692 10.0654C12.4444 10.1533 12.5392 10.2221 12.646 10.2664C12.7528 10.3106 12.8686 10.329 12.9839 10.3201C13.0991 10.3111 13.2106 10.2751 13.3094 10.2149C13.9666 9.81456 14.7192 10.5667 14.3188 11.2244C14.2587 11.323 14.2227 11.4345 14.2138 11.5497C14.2049 11.6649 14.2233 11.7805 14.2675 11.8873C14.3117 11.994 14.3804 12.0888 14.4682 12.164C14.5559 12.2392 14.6602 12.2926 14.7724 12.3199C15.5203 12.5013 15.5203 13.5653 14.7724 13.7467C14.6601 13.7739 14.5557 13.8273 14.4679 13.9025C14.38 13.9776 14.3112 14.0725 14.2669 14.1793C14.2227 14.2861 14.2043 14.4019 14.2132 14.5171C14.2222 14.6324 14.2582 14.7439 14.3184 14.8426C14.7187 15.4998 13.9666 16.2524 13.3089 15.8521C13.2103 15.792 13.0988 15.756 12.9836 15.7471C12.8684 15.7382 12.7528 15.7566 12.646 15.8007C12.5393 15.8449 12.4445 15.9137 12.3693 16.0014C12.2941 16.0892 12.2407 16.1934 12.2134 16.3057C12.032 17.0536 10.968 17.0536 10.7866 16.3057C10.7594 16.1933 10.706 16.089 10.6308 16.0011C10.5557 15.9133 10.4608 15.8445 10.354 15.8002C10.2472 15.756 10.1314 15.7376 10.0162 15.7465C9.90092 15.7554 9.7894 15.7915 9.69069 15.8516C9.03348 16.252 8.28087 15.4998 8.68124 14.8422C8.74134 14.7435 8.77731 14.6321 8.78623 14.5169C8.79514 14.4017 8.77675 14.286 8.73255 14.1793C8.68836 14.0725 8.61959 13.9777 8.53186 13.9026C8.44412 13.8274 8.33989 13.774 8.22763 13.7467C7.47971 13.5653 7.47971 12.5013 8.22763 12.3199C8.33999 12.2926 8.44433 12.2393 8.53217 12.1641C8.62 12.0889 8.68885 11.9941 8.7331 11.8873C8.77735 11.7805 8.79575 11.6647 8.78682 11.5494C8.77788 11.4342 8.74185 11.3227 8.68167 11.224C8.2813 10.5667 9.03348 9.81414 9.69111 10.2145C10.117 10.4735 10.669 10.2443 10.7866 9.7609Z"/>
</mask>
<path d="M10.7866 9.7609L12.73 10.2335L12.7302 10.2324L10.7866 9.7609ZM12.2134 9.7609L14.1572 9.28993L14.1571 9.28938L12.2134 9.7609ZM13.3094 10.2149L12.2688 8.50692L12.2682 8.50731L13.3094 10.2149ZM14.3188 11.2244L16.0269 12.2648L16.0271 12.2644L14.3188 11.2244ZM14.7724 12.3199L14.2998 14.2632L14.3009 14.2635L14.7724 12.3199ZM14.7724 13.7467L15.2434 15.6905L15.2439 15.6903L14.7724 13.7467ZM14.3184 14.8426L16.0264 13.8021L16.026 13.8015L14.3184 14.8426ZM13.3089 15.8521L12.2685 17.5602L12.2689 17.5604L13.3089 15.8521ZM12.2134 16.3057L10.2701 15.8331L10.2698 15.8342L12.2134 16.3057ZM10.7866 16.3057L8.84284 16.7766L8.84297 16.7772L10.7866 16.3057ZM9.69069 15.8516L10.7312 17.5596L10.7318 17.5593L9.69069 15.8516ZM8.68124 14.8422L6.97315 13.8018L6.97293 13.8022L8.68124 14.8422ZM8.22763 13.7467L8.70022 11.8033L8.69915 11.8031L8.22763 13.7467ZM8.22763 12.3199L7.75667 10.3761L7.75611 10.3762L8.22763 12.3199ZM8.68167 11.224L6.97366 12.2645L6.97404 12.2651L8.68167 11.224ZM9.69111 10.2145L8.65108 11.9228L8.65209 11.9234L9.69111 10.2145ZM12.7302 10.2324C12.4173 11.5225 10.5828 11.5225 10.2698 10.2324L14.1571 9.28938C13.4812 6.50348 9.51882 6.50348 8.84297 9.28938L12.7302 10.2324ZM10.2697 10.2319C10.3711 10.6503 10.5698 11.0388 10.8497 11.3659L13.8887 8.765C14.0183 8.9164 14.1103 9.09626 14.1572 9.28993L10.2697 10.2319ZM10.8497 11.3659C11.1296 11.6929 11.4828 11.9493 11.8805 12.1141L13.4115 8.41866C13.5956 8.49493 13.7591 8.6136 13.8887 8.765L10.8497 11.3659ZM11.8805 12.1141C12.2782 12.2788 12.7092 12.3474 13.1385 12.3141L12.8293 8.32606C13.0279 8.31066 13.2274 8.34239 13.4115 8.41866L11.8805 12.1141ZM13.1385 12.3141C13.5677 12.2808 13.983 12.1467 14.3505 11.9226L12.2682 8.50731C12.4383 8.40357 12.6306 8.34147 12.8293 8.32606L13.1385 12.3141ZM14.3499 11.9229C13.2166 12.6133 11.9209 11.317 12.6105 10.1843L16.0271 12.2644C17.5174 9.81647 14.7165 7.01581 12.2688 8.50692L14.3499 11.9229ZM12.6107 10.184C12.3869 10.5514 12.253 10.9664 12.2198 11.3953L16.2078 11.704C16.1925 11.9026 16.1305 12.0947 16.0269 12.2648L12.6107 10.184ZM12.2198 11.3953C12.1866 11.8243 12.2551 12.255 12.4196 12.6524L16.1153 11.1221C16.1915 11.3061 16.2232 11.5055 16.2078 11.704L12.2198 11.3953ZM12.4196 12.6524C12.5842 13.0499 12.8403 13.4029 13.167 13.6828L15.7694 10.6452C15.9206 10.7747 16.0392 10.9381 16.1153 11.1221L12.4196 12.6524ZM13.167 13.6828C13.4937 13.9627 13.8818 14.1616 14.2998 14.2632L15.245 10.3765C15.4385 10.4236 15.6182 10.5156 15.7694 10.6452L13.167 13.6828ZM14.3009 14.2635C13.0108 13.9505 13.0108 12.116 14.3009 11.8031L15.2439 15.6903C18.0298 15.0145 18.0298 11.0521 15.2439 10.3762L14.3009 14.2635ZM14.3014 11.803C13.8831 11.9043 13.4945 12.1031 13.1674 12.383L15.7683 15.422C15.6169 15.5515 15.437 15.6435 15.2434 15.6905L14.3014 11.803ZM13.1674 12.383C12.8404 12.6629 12.584 13.0161 12.4192 13.4138L16.1146 14.9448C16.0384 15.1289 15.9197 15.2924 15.7683 15.422L13.1674 12.383ZM12.4192 13.4138C12.2545 13.8115 12.1859 14.2425 12.2192 14.6717L16.2072 14.3625C16.2226 14.5612 16.1909 14.7607 16.1146 14.9448L12.4192 13.4138ZM12.2192 14.6717C12.2525 15.1009 12.3866 15.5162 12.6107 15.8838L16.026 13.8015C16.1297 13.9716 16.1918 14.1638 16.2072 14.3625L12.2192 14.6717ZM12.6104 15.8831C11.92 14.7499 13.2163 13.4542 14.349 14.1438L12.2689 17.5604C14.7168 19.0507 17.5175 16.2497 16.0264 13.8021L12.6104 15.8831ZM14.3493 14.144C13.9819 13.9202 13.5669 13.7862 13.138 13.753L12.8293 17.7411C12.6307 17.7257 12.4386 17.6637 12.2685 17.5602L14.3493 14.144ZM13.138 13.753C12.709 13.7198 12.2783 13.7883 11.8809 13.9529L13.4112 17.6486C13.2272 17.7248 13.0278 17.7565 12.8293 17.7411L13.138 13.753ZM11.8809 13.9529C11.4834 14.1175 11.1304 14.3735 10.8505 14.7002L13.8881 17.3027C13.7586 17.4539 13.5952 17.5724 13.4112 17.6486L11.8809 13.9529ZM10.8505 14.7002C10.5706 15.0269 10.3717 15.4151 10.2701 15.8331L14.1568 16.7783C14.1098 16.9718 14.0177 17.1514 13.8881 17.3027L10.8505 14.7002ZM10.2698 15.8342C10.5828 14.5441 12.4173 14.5441 12.7302 15.8342L8.84297 16.7772C9.51882 19.5631 13.4812 19.5631 14.1571 16.7772L10.2698 15.8342ZM12.7304 15.8347C12.629 15.4163 12.4302 15.0278 12.1503 14.7007L9.11133 17.3016C8.98176 17.1502 8.88976 16.9703 8.84284 16.7766L12.7304 15.8347ZM12.1503 14.7007C11.8704 14.3736 11.5172 14.1173 11.1195 13.9525L9.5885 17.6479C9.40439 17.5716 9.2409 17.453 9.11133 17.3016L12.1503 14.7007ZM11.1195 13.9525C10.7218 13.7877 10.2908 13.7192 9.86158 13.7525L10.1708 17.7405C9.97211 17.7559 9.7726 17.7242 9.5885 17.6479L11.1195 13.9525ZM9.86158 13.7525C9.43237 13.7858 9.01708 13.9199 8.64953 14.144L10.7318 17.5593C10.5617 17.663 10.3695 17.7251 10.1708 17.7405L9.86158 13.7525ZM8.65016 14.1436C9.7834 13.4533 11.0791 14.7495 10.3896 15.8822L6.97293 13.8022C5.4826 16.2501 8.28356 19.0508 10.7312 17.5596L8.65016 14.1436ZM10.3893 15.8826C10.6131 15.5152 10.7471 15.1001 10.7803 14.6712L6.79219 14.3625C6.80756 14.164 6.86956 13.9719 6.97315 13.8018L10.3893 15.8826ZM10.7803 14.6712C10.8135 14.2423 10.745 13.8116 10.5804 13.4141L6.8847 14.9444C6.80852 14.7604 6.77682 14.5611 6.79219 14.3625L10.7803 14.6712ZM10.5804 13.4141C10.4158 13.0167 10.1598 12.6636 9.83307 12.3837L7.23064 15.4214C7.07941 15.2918 6.96089 15.1284 6.8847 14.9444L10.5804 13.4141ZM9.83307 12.3837C9.50637 12.1039 9.11824 11.905 8.70022 11.8033L7.75504 15.6901C7.56154 15.643 7.38187 15.551 7.23064 15.4214L9.83307 12.3837ZM8.69915 11.8031C9.9892 12.116 9.9892 13.9505 8.69915 14.2635L7.75611 10.3762C4.97021 11.0521 4.97021 15.0145 7.75611 15.6903L8.69915 11.8031ZM8.6986 14.2636C9.11699 14.1622 9.50553 13.9635 9.8326 13.6836L7.23174 10.6446C7.38314 10.515 7.56299 10.423 7.75667 10.3761L8.6986 14.2636ZM9.8326 13.6836C10.1597 13.4037 10.416 13.0505 10.5808 12.6528L6.8854 11.1218C6.96167 10.9377 7.08034 10.7742 7.23174 10.6446L9.8326 13.6836ZM10.5808 12.6528C10.7456 12.2551 10.8141 11.8241 10.7808 11.3948L6.7928 11.7041C6.7774 11.5054 6.80912 11.3059 6.8854 11.1218L10.5808 12.6528ZM10.7808 11.3948C10.7476 10.9656 10.6134 10.5504 10.3893 10.1828L6.97404 12.2651C6.8703 12.095 6.80821 11.9027 6.7928 11.7041L10.7808 11.3948ZM10.3897 10.1834C11.0801 11.3167 9.78376 12.6124 8.65108 11.9228L10.7311 8.5062C8.28321 7.01587 5.48254 9.81683 6.97366 12.2645L10.3897 10.1834ZM8.65209 11.9234C10.234 12.8852 12.2925 12.0324 12.73 10.2335L8.84323 9.28832C9.04556 8.45626 10.0001 8.06171 10.7301 8.50558L8.65209 11.9234Z" fill="#212121" mask="url(#path-2-inside-1_1694_2801)"/>
</svg>
