<svg width="20" height="20" viewBox="0 0 20 20" fill="none" xmlns="http://www.w3.org/2000/svg">
<path d="M13.1288 8.17C13.1274 8.30384 13.1133 8.43767 13.1007 8.5715C13.0965 8.61565 13.0951 8.66049 13.0944 8.70464C13.093 8.78101 13.154 8.85038 13.2304 8.84548C13.2668 8.84337 13.3039 8.83356 13.339 8.82165C13.456 8.78031 13.5716 8.73617 13.6879 8.69202C13.793 8.65138 13.9002 8.61495 14.0088 8.58552C14.1273 8.55328 14.2457 8.52946 14.3662 8.54908C14.6114 8.58902 14.7712 8.85318 14.6815 9.08511C14.6563 9.15028 14.6177 9.20634 14.5715 9.25819C14.5077 9.32896 14.4356 9.38922 14.3571 9.44247C14.2646 9.50483 14.1714 9.56579 14.0782 9.62746C13.9226 9.72976 13.7671 9.83136 13.6122 9.93506C13.5478 9.9778 13.4854 10.0233 13.4245 10.0703C13.3908 10.0962 13.3593 10.1264 13.3306 10.1579C13.2759 10.2188 13.2458 10.2966 13.2507 10.3779C13.2556 10.4641 13.2703 10.5482 13.2941 10.6309C13.3677 10.8887 13.4805 11.1283 13.6171 11.3575C13.9836 11.9692 14.5028 12.4471 15.1208 12.8373C15.2904 12.9446 15.4719 13.0314 15.6506 13.1232C15.6758 13.1365 15.7003 13.1499 15.7248 13.1646C15.7494 13.1793 15.7711 13.1989 15.7872 13.2227C15.8124 13.2585 15.8159 13.2963 15.7942 13.3355C15.776 13.3692 15.7494 13.3951 15.7206 13.4189C15.6884 13.4456 15.6534 13.468 15.6169 13.4883C15.4081 13.6067 15.1839 13.695 14.952 13.7567C14.8399 13.7868 14.7277 13.8183 14.6163 13.8513C14.5477 13.8716 14.4832 13.9017 14.4194 13.9346C14.3122 13.99 14.2513 14.079 14.2289 14.1946C14.2162 14.2591 14.2085 14.3249 14.1966 14.3894C14.1672 14.5527 14.1083 14.6122 13.9486 14.6402C13.8925 14.6501 13.8351 14.6557 13.7783 14.6592C13.6354 14.6669 13.4924 14.6711 13.3495 14.6788C13.3453 14.6788 13.3411 14.6788 13.3376 14.6788C12.7665 14.7124 12.2143 14.8953 11.7246 15.191C11.6986 15.2064 11.6727 15.2225 11.6461 15.2379C11.4478 15.3578 11.246 15.472 11.0295 15.5561C10.7877 15.6499 10.5383 15.706 10.2797 15.7291C10.0618 15.7487 9.84459 15.7459 9.62807 15.7214C9.30365 15.685 8.99604 15.5904 8.70525 15.4418C8.57002 15.3725 8.43969 15.2954 8.31076 15.2162C8.30375 15.212 8.29675 15.2078 8.28904 15.2029C7.77473 14.8897 7.18964 14.6998 6.58775 14.6753C6.58354 14.6753 6.57934 14.6753 6.57514 14.6753C6.44901 14.6704 6.32359 14.6655 6.19746 14.6578C6.12389 14.6536 6.05031 14.6437 5.97814 14.6241C5.88635 14.5989 5.81978 14.5183 5.80227 14.4251C5.79246 14.374 5.78475 14.3228 5.77564 14.2717C5.77354 14.2605 5.77353 14.2486 5.77143 14.2373C5.75041 14.0874 5.67614 13.9774 5.5353 13.9136C5.44911 13.8744 5.36083 13.8428 5.26974 13.8176C5.11278 13.7742 4.95442 13.7356 4.80097 13.6803C4.66573 13.6319 4.53541 13.5745 4.40998 13.5058C4.37214 13.4855 4.3357 13.4624 4.30067 13.4385C4.27685 13.4224 4.25443 13.4042 4.23481 13.3839C4.17175 13.318 4.17805 13.2318 4.24952 13.1758C4.29086 13.1428 4.33921 13.1211 4.38615 13.098C4.71338 12.9375 5.02379 12.7498 5.31248 12.5269C5.74831 12.1913 6.11758 11.794 6.39716 11.3154C6.49666 11.1438 6.57934 10.963 6.6473 10.7766C6.69215 10.6533 6.72859 10.53 6.7377 10.4003C6.744 10.305 6.71177 10.2104 6.6466 10.1411C6.59966 10.0913 6.545 10.0514 6.48965 10.0114C6.40696 9.95258 6.32359 9.89442 6.2395 9.83906C6.05872 9.71994 5.87724 9.60293 5.69646 9.48451C5.61728 9.43266 5.5409 9.37661 5.47223 9.31144C5.42248 9.26379 5.37764 9.21264 5.3419 9.15308C5.26763 9.02836 5.26203 8.90013 5.31738 8.7684C5.35031 8.68992 5.41198 8.62335 5.48906 8.58762C5.59907 8.53717 5.71398 8.53086 5.8296 8.54978C5.95432 8.5701 6.07413 8.60864 6.19255 8.65138C6.31377 8.69483 6.43289 8.74247 6.55341 8.78802C6.60947 8.80904 6.66622 8.83006 6.72578 8.83917C6.7398 8.84127 6.75382 8.84548 6.76783 8.84478C6.8372 8.84267 6.89465 8.82025 6.89395 8.72706C6.89395 8.68221 6.89255 8.63667 6.89045 8.59182C6.87994 8.3676 6.86663 8.14338 6.86102 7.91915C6.84841 7.38522 6.85051 6.84919 6.98995 6.33067C7.07543 6.01326 7.22328 5.71826 7.42298 5.4562C7.83709 4.91176 8.38363 4.56632 9.03738 4.38204C9.39474 4.28113 9.75981 4.2482 10.1298 4.25941C10.4794 4.26992 10.8277 4.32948 11.1584 4.4444C11.5508 4.58173 11.9074 4.78073 12.2108 5.06311C12.5556 5.38403 12.8211 5.75891 12.9655 6.21296C13.0307 6.41826 13.072 6.62847 13.0972 6.84148C13.1498 7.28222 13.1351 7.72576 13.1309 8.1686L13.1288 8.17Z" fill="white"/>
<path d="M9.97723 0H10.0228C15.5296 0 20 4.47045 20 9.97723V10.0228C20 15.5296 15.5296 20 10.0228 20H9.97723C4.47045 20 0 15.5296 0 10.0228V9.97723C0 4.47045 4.47045 0 9.97723 0Z" fill="#FFFA00"/>
<path d="M9.99256 16.0347C9.86083 16.0347 9.7277 16.027 9.59597 16.0123C9.24142 15.9723 8.89667 15.8679 8.57295 15.7019C8.4286 15.6276 8.28847 15.5449 8.15884 15.4657L8.13782 15.4531C7.65293 15.1574 7.11269 14.9899 6.57666 14.9682H6.56405C6.45264 14.9633 6.3188 14.9577 6.18147 14.95C6.07846 14.9437 5.98667 14.9297 5.90189 14.9066C5.70639 14.8533 5.55504 14.6858 5.5158 14.4805C5.5081 14.442 5.5018 14.4028 5.49549 14.3642L5.48848 14.3215C5.48638 14.3089 5.48498 14.2949 5.48358 14.2815C5.47447 14.2171 5.45625 14.1996 5.41631 14.1813C5.34484 14.1491 5.26916 14.1218 5.19208 14.1001C5.15565 14.0895 5.11921 14.0797 5.08208 14.0699C4.95875 14.037 4.83123 14.002 4.703 13.9564C4.55165 13.9025 4.40591 13.8373 4.26997 13.7637C4.22513 13.7392 4.18028 13.7119 4.13614 13.6817C4.09479 13.653 4.05696 13.6222 4.02403 13.5878C3.93574 13.4961 3.89159 13.379 3.8993 13.2578C3.90771 13.1366 3.96727 13.0266 4.06677 12.9467C4.12843 12.8977 4.19009 12.8682 4.23984 12.8437L4.25665 12.8353C4.57687 12.6783 4.87117 12.4969 5.13323 12.2951C5.56416 11.9629 5.89489 11.5944 6.14364 11.1676C6.22912 11.0212 6.3062 10.8551 6.37136 10.6757C6.41691 10.551 6.43862 10.4627 6.44423 10.3808C6.44493 10.3653 6.44073 10.3506 6.43232 10.3422C6.40359 10.3121 6.36225 10.2813 6.31811 10.2504C6.22982 10.1874 6.15064 10.1327 6.07636 10.0844C5.96565 10.0115 5.85424 9.93932 5.74353 9.86715L5.53402 9.73051C5.42752 9.66044 5.34274 9.59527 5.26846 9.5252C5.19349 9.45443 5.13463 9.38226 5.08838 9.30448C4.96646 9.10128 4.95175 8.87706 5.04564 8.65564C5.1073 8.50919 5.22362 8.38797 5.36446 8.32281C5.51791 8.25204 5.69028 8.23172 5.87526 8.26255C6.03082 8.28847 6.17166 8.33542 6.29008 8.37816C6.37136 8.40759 6.45124 8.43842 6.53182 8.46925C6.55143 8.47696 6.57106 8.48467 6.59068 8.49168L6.58787 8.43562C6.57947 8.27026 6.57105 8.09858 6.56685 7.92831C6.55424 7.39158 6.55424 6.82051 6.7056 6.25645C6.79949 5.9061 6.96205 5.57818 7.18838 5.28108C7.62561 4.70651 8.2205 4.30991 8.95623 4.10251C9.322 3.99951 9.70878 3.95606 10.1369 3.96868C10.53 3.98059 10.9056 4.04855 11.2531 4.17048C11.7044 4.32813 12.0926 4.55726 12.4079 4.85085C12.8178 5.23273 13.0903 5.65035 13.2417 6.12612C13.3083 6.33633 13.3552 6.55985 13.3853 6.8086C13.4337 7.2129 13.4281 7.6151 13.4232 8.00469L13.4211 8.17286C13.4197 8.28077 13.4113 8.38517 13.4022 8.48677C13.4631 8.46365 13.5241 8.44053 13.5822 8.4181C13.7091 8.36976 13.8233 8.33192 13.9312 8.30249C14.0692 8.26465 14.2339 8.23032 14.4126 8.25975C14.6193 8.29338 14.7993 8.4188 14.9058 8.60379C15.0103 8.78527 15.0278 8.99898 14.9549 9.18957C14.9192 9.28206 14.8652 9.36825 14.7895 9.45233C14.7139 9.53642 14.6263 9.61209 14.5212 9.68356C14.449 9.73261 14.3761 9.78026 14.3033 9.82861L14.086 9.97155C13.9823 10.0395 13.8779 10.1082 13.7749 10.1769C13.7196 10.214 13.6614 10.2553 13.6033 10.3009C13.585 10.3149 13.5661 10.3324 13.5479 10.3527C13.5437 10.3576 13.5423 10.3604 13.5423 10.3611C13.5458 10.4228 13.5563 10.4852 13.5752 10.5496C13.6376 10.7661 13.7329 10.9813 13.8681 11.2069C14.1883 11.7408 14.6487 12.1935 15.2765 12.5894C15.3984 12.6664 15.5288 12.7323 15.6668 12.8031C15.7061 12.8227 15.7453 12.843 15.7838 12.8633C15.814 12.8787 15.8434 12.8956 15.8721 12.9124C15.9331 12.9481 15.9849 12.9958 16.0263 13.0546C16.1153 13.1814 16.1244 13.3384 16.0515 13.4743C16.0074 13.5556 15.9478 13.6103 15.9071 13.6439C15.8539 13.688 15.8013 13.7196 15.7614 13.742C15.5379 13.8688 15.2912 13.9683 15.0271 14.0384C14.9283 14.0643 14.8239 14.0937 14.6998 14.1309C14.6501 14.1456 14.5982 14.1708 14.5541 14.194C14.5352 14.2038 14.524 14.2115 14.5163 14.2507C14.51 14.2822 14.5058 14.3138 14.5009 14.346C14.4959 14.3782 14.491 14.4098 14.4854 14.4413C14.4343 14.7251 14.2801 14.8799 13.9984 14.9283C13.9347 14.9395 13.866 14.9472 13.7945 14.9507C13.7238 14.9549 13.653 14.9577 13.5815 14.9605C13.5094 14.9633 13.4372 14.9661 13.3657 14.9703H13.358C12.8472 15.0012 12.3357 15.1637 11.8753 15.4419L11.7969 15.4888C11.5972 15.6094 11.3785 15.7348 11.1347 15.8294C10.8754 15.9303 10.5966 15.9947 10.3058 16.0214C10.2021 16.0305 10.097 16.0354 9.99186 16.0354L9.99256 16.0347ZM6.08617 14.3488C6.12401 14.3572 6.16606 14.3621 6.21511 14.3649C6.34754 14.3726 6.47716 14.3782 6.58647 14.3817H6.59979C7.23532 14.4084 7.87225 14.6053 8.44192 14.9521L8.46434 14.9661C8.60168 15.0502 8.71869 15.1189 8.83921 15.1805C9.10057 15.3144 9.37665 15.3984 9.66113 15.43C9.85943 15.4524 10.0584 15.4545 10.2539 15.437C10.4936 15.4153 10.7129 15.3648 10.9238 15.2828C11.1256 15.2044 11.3176 15.0943 11.4956 14.9871L11.574 14.9395C12.1157 14.6123 12.7197 14.421 13.3216 14.3859H13.3335C13.4092 14.381 13.4841 14.3775 13.5591 14.3747C13.6271 14.3719 13.6957 14.3691 13.7637 14.3656C13.8128 14.3628 13.859 14.3579 13.9011 14.3509C13.9039 14.3509 13.906 14.3502 13.9088 14.3495C13.9095 14.346 13.9102 14.3418 13.9116 14.3369C13.9165 14.3103 13.92 14.2836 13.9242 14.257C13.9305 14.2171 13.9361 14.1771 13.9438 14.1379C13.9844 13.9298 14.1036 13.7693 14.2871 13.674C14.3516 13.6404 14.4385 13.5984 14.5359 13.5696C14.6655 13.5311 14.7748 13.5003 14.8792 13.4729C15.0467 13.4288 15.2051 13.3699 15.3515 13.2985C15.224 13.2333 15.0936 13.1653 14.9661 13.0847C14.2591 12.6384 13.7364 12.1227 13.3678 11.5082C13.206 11.2384 13.0903 10.9777 13.014 10.7115C12.9838 10.6057 12.9656 10.4992 12.96 10.3941C12.9516 10.2357 13.0063 10.0823 13.1149 9.96174C13.1562 9.91549 13.2011 9.87345 13.2473 9.83841C13.316 9.78516 13.3846 9.73611 13.4512 9.69127C13.5556 9.6212 13.6614 9.55183 13.7665 9.48316L13.9837 9.34022C14.0545 9.29397 14.1246 9.24773 14.1946 9.20008C14.2598 9.15594 14.3124 9.11109 14.3558 9.06274C14.3831 9.03191 14.4006 9.00599 14.4105 8.98006C14.4238 8.94503 14.4105 8.91209 14.4006 8.89598C14.3824 8.86445 14.353 8.84273 14.3215 8.83782C14.2535 8.82661 14.1687 8.84553 14.0874 8.86795C13.9985 8.89247 13.9025 8.92401 13.7938 8.96605C13.6803 9.00949 13.5591 9.05574 13.4372 9.09848C13.3706 9.1216 13.3097 9.13492 13.2494 9.13842C13.1345 9.14473 13.0203 9.10338 12.9362 9.0228C12.8486 8.93872 12.8003 8.821 12.8024 8.69978C12.8031 8.65844 12.8045 8.60309 12.8101 8.54563L12.815 8.48957C12.8255 8.37746 12.8353 8.27166 12.8367 8.16795L12.8388 7.99768C12.8437 7.6102 12.8486 7.24373 12.8052 6.87867C12.7799 6.66706 12.7407 6.47857 12.6853 6.3041C12.5655 5.92642 12.3448 5.59149 12.0106 5.27968C11.7513 5.03794 11.4409 4.85646 11.0611 4.72333C10.7703 4.62173 10.4536 4.56427 10.1208 4.55446C9.75293 4.54255 9.42429 4.57968 9.11669 4.66657C8.49727 4.84104 8.0194 5.15846 7.65574 5.63633C7.47566 5.87247 7.34673 6.13313 7.27246 6.4092C7.14143 6.89759 7.14143 7.42101 7.15334 7.915C7.15685 8.07756 7.16525 8.24503 7.17366 8.40689L7.18206 8.58066C7.18417 8.62971 7.18557 8.67876 7.18627 8.72781C7.18767 8.96675 7.02301 9.13211 6.77637 9.13982C6.73292 9.13982 6.69998 9.13421 6.68177 9.13071C6.58997 9.1167 6.5122 9.08727 6.44984 9.06415C6.4078 9.04803 6.36575 9.03191 6.32371 9.0158C6.24663 8.98637 6.16956 8.95694 6.09249 8.92891C5.99999 8.89528 5.88998 8.85884 5.78137 8.84062C5.68958 8.82591 5.63983 8.84202 5.61041 8.85534C5.6034 8.85884 5.59218 8.86935 5.58587 8.88407C5.56275 8.93872 5.56976 8.96815 5.59149 9.00459C5.6104 9.03612 5.63703 9.06765 5.67207 9.10128C5.72042 9.14683 5.77857 9.19167 5.85495 9.24142L6.06305 9.37736C6.17516 9.45023 6.28728 9.5231 6.39869 9.59668C6.47927 9.64993 6.56405 9.70809 6.65865 9.77535C6.72381 9.8223 6.79388 9.87345 6.85834 9.94212C6.97816 10.0696 7.04053 10.2441 7.02862 10.4221C7.0167 10.6001 6.96485 10.7598 6.92141 10.879C6.84363 11.0913 6.75254 11.2882 6.64954 11.4647C6.36575 11.951 5.97616 12.3869 5.49058 12.761C5.23342 12.9593 4.94824 13.1401 4.64204 13.2985C4.72402 13.3384 4.81021 13.3748 4.8999 13.4064C5.0064 13.4442 5.11712 13.4743 5.23483 13.5059C5.27267 13.5164 5.31121 13.5262 5.34905 13.5367C5.45415 13.5661 5.55785 13.6033 5.65665 13.6481C5.88577 13.7518 6.02662 13.9417 6.06235 14.1975C6.06375 14.2066 6.06446 14.2157 6.06516 14.2241V14.2227L6.07216 14.2682C6.07637 14.2956 6.08127 14.3229 6.08617 14.3495V14.3488Z" fill="#1D1D1B"/>
</svg>
