<svg width="78" height="72" viewBox="0 0 78 72" fill="none" xmlns="http://www.w3.org/2000/svg">
<path d="M1.75545 9.44123C1.96076 7.46096 3.60568 5.96001 5.59583 5.90617L39.0954 5L72.5589 5.9052C74.5647 5.95945 76.2173 7.48316 76.4056 9.4808C76.9616 15.3791 78 27.5011 78 35.7639C78 44.0469 76.9565 56.1931 76.4016 62.0672C76.2148 64.0441 74.5926 65.5597 72.6085 65.6402L39.0954 67L5.54662 65.6387C3.57812 65.5589 1.9635 64.0658 1.75987 62.1062C1.1512 56.2488 0 44.0722 0 35.7639C0 27.4757 1.14565 15.3229 1.75545 9.44123Z" fill="#A098AE"/>
<path d="M49 3C49 3 53.9799 2 57.5 2C61.0201 2 66 3 66 3" stroke="#3268C1" stroke-width="3" stroke-linecap="round"/>
<path d="M66 69C66 69 61.0201 70 57.5 70C53.9799 70 49 69 49 69" stroke="#3268C1" stroke-width="3" stroke-linecap="round"/>
<path d="M15 3C15 3 19.9799 2 23.5 2C27.0201 2 32 3 32 3" stroke="#3268C1" stroke-width="3" stroke-linecap="round"/>
<path d="M32 69C32 69 27.0201 70 23.5 70C19.9799 70 15 69 15 69" stroke="#3268C1" stroke-width="3" stroke-linecap="round"/>
</svg>
