<svg width="60" height="68" viewBox="0 0 60 68" fill="none" xmlns="http://www.w3.org/2000/svg">
<path d="M22.2727 2.86898C22.2727 2.86898 26.7999 2 30 2C33.2001 2 37.7272 2.86898 37.7272 2.86898" stroke="#F58634" stroke-width="2.72727" stroke-linecap="round"/>
<path d="M58.7531 57.5662C58.5405 60.0538 56.5376 61.9944 54.0465 62.1613L29.9266 63.7781L5.84536 62.1639C3.3373 61.9958 1.32673 60.0316 1.13206 57.5254C0.691359 51.852 -1.92277e-06 41.7842 -2.56327e-06 34.4577C-3.20632e-06 27.1021 0.696846 16.9834 1.13728 11.3227C1.32991 8.84685 3.29656 6.89366 5.77137 6.68861L29.5049 4.72214C29.7855 4.69889 30.0676 4.69889 30.3482 4.72214L54.1199 6.69176C56.5778 6.89541 58.537 8.82533 58.7474 11.2827C59.231 16.9338 60 27.0788 60 34.4577C60 41.8077 59.237 51.9022 58.7531 57.5662Z" fill="#A098AE"/>
<path d="M37.7271 65.6364C37.7271 65.6364 33.1999 66.5054 29.9998 66.5054C26.7997 66.5054 22.2725 65.6364 22.2725 65.6364" stroke="#F58634" stroke-width="2.72727" stroke-linecap="round"/>
</svg>
