<svg width="43" height="43" viewBox="0 0 43 43" fill="none" xmlns="http://www.w3.org/2000/svg">
<path fill-rule="evenodd" clip-rule="evenodd" d="M21.5007 0.310547C22.3076 0.310547 22.9531 0.968457 22.9531 1.76291V41.2127C22.9531 42.0196 22.2952 42.6651 21.5007 42.6651C20.6938 42.6651 20.0483 42.0071 20.0483 41.2127V1.77533C20.0483 0.968457 20.7062 0.322961 21.5007 0.322961V0.310547Z" fill="white" stroke="#231F20" stroke-width="0.375667" stroke-miterlimit="10"/>
<path fill-rule="evenodd" clip-rule="evenodd" d="M42.6897 21.4997C42.6897 22.3066 42.0317 22.9645 41.2373 22.9645H1.77512C0.96825 22.9645 0.322754 22.3066 0.322754 21.4997C0.322754 20.6929 0.980664 20.0474 1.77512 20.0474H41.2249C42.0317 20.0474 42.6772 20.7053 42.6772 21.4997H42.6897Z" fill="white" stroke="#231F20" stroke-width="0.375667" stroke-miterlimit="10"/>
<circle cx="21.5" cy="21.5" r="3.5" fill="#131112"/>
<path d="M21.5007 42.9876C20.52 42.9876 19.7256 42.1931 19.7256 41.2125V1.77512C19.7256 0.794458 20.52 0 21.5007 0C22.4814 0 23.2758 0.794458 23.2758 1.77512V41.2249C23.2758 42.2055 22.4814 43 21.5007 43V42.9876ZM21.5007 0.62067C20.8676 0.62067 20.3587 1.12962 20.3587 1.7627V41.2125C20.3587 41.8456 20.8676 42.3545 21.5007 42.3545C22.1338 42.3545 22.6427 41.8456 22.6427 41.2125V1.77512C22.6427 1.14203 22.1338 0.633083 21.5007 0.633083V0.62067Z" fill="#070707"/>
<path d="M41.2249 23.2748H1.77512C0.794458 23.2748 0 22.4804 0 21.4997C0 20.5191 0.794458 19.7246 1.77512 19.7246H41.2249C42.2055 19.7246 43 20.5191 43 21.4997C43 22.4804 42.2055 23.2748 41.2249 23.2748ZM1.77512 20.3577C1.14203 20.3577 0.633083 20.8666 0.633083 21.4997C0.633083 22.1328 1.14203 22.6418 1.77512 22.6418H41.2249C41.858 22.6418 42.3669 22.1328 42.3669 21.4997C42.3669 20.8666 41.858 20.3577 41.2249 20.3577H1.77512Z" fill="#070707"/>
<rect x="2.5" y="2.5" width="38" height="38" rx="1.5" fill="white" stroke="black"/>
<circle cx="21.5" cy="21.5" r="3.5" fill="#131112"/>
</svg>
