<svg width="69" height="110" viewBox="0 0 69 110" fill="none" xmlns="http://www.w3.org/2000/svg">
<path d="M2.5 91.5C2.5 91.5 1.5 86.5201 1.5 83C1.5 79.4799 2.5 74.5 2.5 74.5" stroke="#434242" stroke-width="3" stroke-linecap="round"/>
<path d="M2.5 63.5C2.5 63.5 1.5 58.5201 1.5 55C1.5 51.4799 2.5 46.5 2.5 46.5" stroke="#434242" stroke-width="3" stroke-linecap="round"/>
<path d="M2.5 35.5C2.5 35.5 1.5 30.5201 1.5 27C1.5 23.4799 2.5 18.5 2.5 18.5" stroke="#434242" stroke-width="3" stroke-linecap="round"/>
<path d="M8.69353 107.513C6.82537 107.226 5.44816 105.649 5.3757 103.76L3.5 54.8654L5.37377 6.02129C5.44709 4.10983 6.8557 2.52107 8.75012 2.25602C14.3406 1.47385 25.9745 -9.82392e-07 34.2639 -1.34473e-06C42.5681 -1.70772e-06 54.2287 1.4791 59.8076 2.2602C61.6885 2.52355 63.0924 4.09269 63.1824 5.98984L65.5 54.8654L63.18 103.791C63.0911 105.665 61.7183 107.223 59.8635 107.509C54.3088 108.364 42.6029 110 34.2639 110C25.9396 110 14.26 108.37 8.69353 107.513Z" fill="#A098AE"/>
<path d="M66.5 18.5C66.5 18.5 67.5 23.4799 67.5 27C67.5 30.5201 66.5 35.5 66.5 35.5" stroke="#434242" stroke-width="3" stroke-linecap="round"/>
<path d="M66.5 46.5C66.5 46.5 67.5 51.4799 67.5 55C67.5 58.5201 66.5 63.5 66.5 63.5" stroke="#434242" stroke-width="3" stroke-linecap="round"/>
<path d="M66.5 74.5C66.5 74.5 67.5 79.4799 67.5 83C67.5 86.5201 66.5 91.5 66.5 91.5" stroke="#434242" stroke-width="3" stroke-linecap="round"/>
</svg>
