<svg width="52" height="46" viewBox="0 0 52 46" fill="none" xmlns="http://www.w3.org/2000/svg">
<path d="M48.6416 19.9512V40.5384C48.6416 41.8433 48.1895 42.9478 47.2853 43.852C46.3812 44.7561 45.2766 45.2082 43.9717 45.2082H8.10313C6.79824 45.2082 5.69372 44.7561 4.78955 43.852C3.88538 42.9478 3.4333 41.8433 3.4333 40.5384V19.9016C2.39334 19.047 1.61252 17.9383 1.09086 16.5755C0.569245 15.2126 0.558481 13.7413 1.05857 12.1615L3.67174 3.62655C4.01619 2.54026 4.60075 1.66425 5.42544 0.998523C6.25012 0.332841 7.23543 0 8.38135 0H43.6438C44.7898 0 45.7685 0.317947 46.5799 0.953834C47.3913 1.58972 47.9825 2.46407 48.3534 3.57689L51.0162 12.1615C51.5163 13.7413 51.5056 15.2077 50.9839 16.5606C50.4623 17.9135 49.6815 19.0437 48.6416 19.9512ZM31.7207 18.0833C33.1317 18.0833 34.1923 17.6519 34.9028 16.7891C35.6132 15.9264 35.9038 14.9999 35.7746 14.0096L34.2048 3.87487H27.9749V14.0791C27.9749 15.1654 28.3425 16.1044 29.0778 16.896C29.8131 17.6875 30.694 18.0833 31.7207 18.0833ZM20.0957 18.0833C21.2848 18.0833 22.2494 17.6875 22.9897 16.896C23.7299 16.1044 24.1 15.1654 24.1 14.0791V3.87487H17.8701L16.3002 14.1089C16.1611 15.0264 16.4493 15.9181 17.1646 16.7842C17.88 17.6503 18.8571 18.0833 20.0957 18.0833ZM8.5999 18.0833C9.55707 18.0833 10.3801 17.7497 11.0691 17.0823C11.7579 16.4149 12.1835 15.5761 12.3458 14.566L13.866 3.87487H8.38135C8.09981 3.87487 7.87625 3.93698 7.71065 4.06119C7.54502 4.18541 7.42081 4.37173 7.33801 4.62016L4.85407 13.0259C4.5129 14.1354 4.67352 15.2557 5.33593 16.3867C5.99834 17.5178 7.08633 18.0833 8.5999 18.0833ZM43.4749 18.0833C44.8726 18.0833 45.9424 17.5344 46.6842 16.4365C47.4261 15.3385 47.605 14.2016 47.2208 13.0259L44.6077 4.57043C44.5249 4.32205 44.4006 4.14401 44.2351 4.03633C44.0695 3.92869 43.8459 3.87487 43.5644 3.87487H38.2088L39.7291 14.566C39.8913 15.5761 40.3169 16.4149 41.0058 17.0823C41.6947 17.7497 42.5177 18.0833 43.4749 18.0833ZM8.10313 41.3333H43.9717C44.2036 41.3333 44.394 41.2588 44.543 41.1097C44.6921 40.9607 44.7666 40.7702 44.7666 40.5384V21.7297C44.4851 21.8324 44.25 21.8961 44.0612 21.9209C43.8724 21.9458 43.677 21.9582 43.4749 21.9582C42.3124 21.9582 41.2898 21.7479 40.4072 21.3273C39.5246 20.9067 38.6693 20.2327 37.8413 19.3053C37.116 20.1134 36.2582 20.7576 35.2679 21.2378C34.2776 21.7181 33.1482 21.9582 31.8797 21.9582C30.7835 21.9582 29.7501 21.7305 28.7797 21.2751C27.8094 20.8197 26.8952 20.1631 26.0374 19.3053C25.2392 20.1631 24.3351 20.8197 23.3249 21.2751C22.3148 21.7305 21.2914 21.9582 20.2547 21.9582C19.0889 21.9582 17.996 21.7471 16.9759 21.3248C15.9558 20.9025 15.0582 20.2294 14.2832 19.3053C13.1969 20.3917 12.1959 21.1054 11.2801 21.4465C10.3644 21.7876 9.47096 21.9582 8.5999 21.9582C8.39789 21.9582 8.18924 21.9458 7.97396 21.9209C7.75864 21.8961 7.53673 21.8324 7.30824 21.7297V40.5384C7.30824 40.7702 7.38274 40.9607 7.53176 41.1097C7.68082 41.2588 7.87127 41.3333 8.10313 41.3333Z" fill="#F58634"/>
</svg>
