<?xml version="1.0" standalone="no"?>
<!DOCTYPE svg PUBLIC "-//W3C//DTD SVG 20010904//EN"
 "http://www.w3.org/TR/2001/REC-SVG-20010904/DTD/svg10.dtd">
<svg version="1.0" xmlns="http://www.w3.org/2000/svg"
width="20px" height="20px" viewBox="0 0 512.000000 512.000000"
 preserveAspectRatio="xMidYMid meet">

<g transform="translate(0.000000,512.000000) scale(0.100000,-0.100000)"
fill="#000000" stroke="none">
<path d="M542 4373 c-19 -18 -476 -550 -520 -607 -21 -27 -22 -37 -22 -228 0
-198 0 -199 25 -223 20 -21 34 -25 84 -25 l61 0 2 -1261 3 -1261 24 -19 c21
-17 41 -19 231 -19 198 0 208 1 226 21 18 20 19 60 24 1278 l5 1256 40 0 40 0
3 -957 2 -956 31 -26 c30 -25 34 -26 175 -26 110 0 152 4 174 15 17 9 31 17
32 18 2 1 5 436 8 967 l5 965 1365 0 1365 0 5 -965 c3 -531 6 -966 8 -967 1
-1 15 -9 32 -18 22 -11 64 -15 174 -15 141 0 145 1 175 26 l31 26 2 956 3 957
40 0 40 0 5 -1256 c5 -1218 6 -1258 24 -1278 18 -20 28 -21 226 -21 190 0 210
2 231 19 l24 19 3 1261 2 1261 61 0 c50 0 64 4 84 25 25 24 25 25 25 224 l0
199 -216 304 c-119 167 -225 313 -237 326 l-20 22 -2043 0 c-1930 0 -2043 -1
-2062 -17z m4172 -359 c81 -113 145 -208 143 -210 -2 -2 -1033 -3 -2292 -2
l-2288 3 178 208 178 207 1967 0 1966 0 148 -206z m236 -469 l0 -85 -2390 0
-2390 0 0 85 0 85 2390 0 2390 0 0 -85z m-4440 -1450 l0 -1195 -85 0 -85 0 0
1188 c0 654 3 1192 7 1195 3 4 42 7 85 7 l78 0 0 -1195z m510 295 l0 -900 -40
0 -40 0 0 900 0 900 40 0 40 0 0 -900z m3160 0 l0 -900 -40 0 -40 0 0 900 0
900 40 0 40 0 0 -900z m598 -297 l2 -1193 -85 0 -85 0 0 1195 0 1196 83 -3 82
-3 3 -1192z"/>
</g>
</svg>
