<?xml version="1.0" standalone="no"?>
<!DOCTYPE svg PUBLIC "-//W3C//DTD SVG 20010904//EN"
 "http://www.w3.org/TR/2001/REC-SVG-20010904/DTD/svg10.dtd">
<svg version="1.0" xmlns="http://www.w3.org/2000/svg"
 width="20px" height="20px" viewBox="0 0 512.000000 512.000000"
 preserveAspectRatio="xMidYMid meet">

<g transform="translate(0.000000,512.000000) scale(0.100000,-0.100000)"
fill="#000000" stroke="none">
<path d="M978 4405 c-600 -301 -952 -482 -962 -497 -13 -19 -16 -55 -16 -216
0 -115 4 -201 10 -213 6 -11 35 -33 65 -50 l55 -31 0 -758 0 -759 23 -18 c13
-10 61 -36 106 -58 l82 -39 104 52 105 52 0 655 c0 428 3 655 10 655 5 0 179
-84 385 -187 l375 -188 0 -153 c0 -87 4 -162 10 -173 11 -20 178 -109 205
-109 19 0 173 76 198 98 12 11 17 30 17 68 l0 54 692 -346 c596 -298 697 -345
725 -341 l33 6 2 -787 3 -787 90 -47 c50 -26 100 -47 113 -48 32 0 199 86 212
109 7 13 10 309 10 898 l0 878 375 188 c206 103 377 187 380 187 3 0 5 -344 5
-764 0 -422 4 -775 9 -788 6 -17 38 -38 109 -72 l100 -48 104 54 103 53 3 892
2 892 138 71 c102 51 142 77 150 95 8 17 12 92 12 213 0 155 -3 191 -16 210
-24 34 -3104 1572 -3146 1571 -23 0 -334 -151 -980 -474z m2432 -424 l1435
-718 -843 -422 -842 -421 -1442 721 -1443 721 835 419 c459 230 842 418 850
418 8 0 661 -323 1450 -718z m-1785 -983 l1445 -723 0 -72 c0 -40 -2 -73 -5
-73 -3 0 -655 325 -1450 722 l-1445 723 0 72 c0 40 2 73 5 73 3 0 655 -325
1450 -722z m-1325 -395 c0 -564 -3 -713 -12 -713 -7 0 -28 9 -45 20 l-33 20 0
715 0 715 45 -22 45 -22 0 -713z m130 647 l40 -20 0 -653 0 -653 -35 -17 c-20
-9 -40 -17 -45 -17 -6 0 -10 253 -10 690 0 380 2 690 5 690 3 0 24 -9 45 -20z
m4520 -203 l0 -72 -845 -423 c-465 -232 -850 -422 -855 -422 -6 0 -10 30 -10
70 l0 70 848 424 c466 234 850 425 855 425 4 1 7 -32 7 -72z m-3460 -447 l0
-120 -40 20 -40 20 0 120 0 120 40 -20 40 -20 0 -120z m135 53 c34 -16 35 -18
35 -75 0 -57 0 -58 -40 -78 l-40 -20 0 95 c0 52 2 95 5 95 2 0 20 -8 40 -17z
m3115 -823 l0 -840 -40 -20 c-21 -11 -42 -20 -45 -20 -3 0 -5 379 -5 843 l0
843 33 17 c17 8 38 16 45 16 9 1 12 -173 12 -839z m-170 -60 c0 -521 -4 -820
-10 -820 -5 0 -25 8 -45 17 l-35 17 0 783 0 783 38 19 c20 11 40 20 45 21 4 0
7 -369 7 -820z m-1030 -535 l0 -845 -40 -20 -40 -20 0 845 0 845 38 19 c20 11
38 20 40 21 1 0 2 -380 2 -845z m-170 -65 c0 -451 -2 -820 -5 -820 -2 0 -20 8
-40 17 l-35 17 0 786 0 786 33 17 c17 8 35 16 40 16 4 1 7 -368 7 -819z"/>
</g>
</svg>
