<svg width="21" height="22" viewBox="0 0 21 22" fill="none" xmlns="http://www.w3.org/2000/svg">
<g clip-path="url(#clip0_2102_3158)">
<path d="M8.42656 17.1935C7.37792 16.4827 6.49586 15.6368 5.80095 14.7233L5.80063 14.7228C4.81348 13.4283 4.1989 12.0022 3.99004 10.6447L3.99 10.6445C3.77726 9.26655 3.98058 7.97323 4.61072 6.93821L4.61117 6.93747C4.85953 6.52771 5.17745 6.15443 5.56599 5.83132L5.5664 5.83098C6.4783 5.07079 7.49934 4.68673 8.49487 4.69421L8.42656 17.1935ZM8.42656 17.1935C9.07928 16.7706 9.66818 16.2579 10.1838 15.6869V15.6849L10.292 15.5608C11.431 14.2548 12.2004 12.6561 12.5084 11.0918L12.5085 11.0915C12.8223 9.50381 12.6596 7.98024 11.9807 6.81179C11.7789 6.46526 11.5334 6.14843 11.2442 5.87379L11.2435 5.87315C10.4034 5.07217 9.44974 4.70171 8.495 4.69421L8.42656 17.1935ZM5.45185 9.3528C5.45207 10.9607 6.70125 12.2968 8.28652 12.2968C9.87011 12.2968 11.1225 10.9609 11.1225 9.35237C11.1225 7.74679 9.87161 6.40931 8.28652 6.40931C6.70216 6.40931 5.44895 7.74471 5.45185 9.3528ZM5.45185 9.3528C5.45185 9.35294 5.45185 9.35308 5.45185 9.35322L5.89106 9.35237H5.45185C5.45185 9.35251 5.45185 9.35266 5.45185 9.3528ZM2.54922 15.266H2.22128L2.12811 15.5804L0.937752 19.5975L0.770625 20.1615H1.35887H15.1954H15.7981L15.6135 19.5878L14.3213 15.5707L14.2233 15.266H13.9032H13.1565C13.1518 15.266 13.1438 15.2646 13.1337 15.2541C13.1233 15.2432 13.1145 15.2256 13.1145 15.2022C13.1145 15.1787 13.1233 15.1611 13.1337 15.1502C13.1438 15.1397 13.1518 15.1384 13.1565 15.1384H14.2707L15.9265 20.2863H0.646817L2.17208 15.1384H3.45271C3.45738 15.1384 3.46539 15.1397 3.4755 15.1502C3.48591 15.1611 3.49473 15.1787 3.49473 15.2022C3.49473 15.2256 3.48591 15.2432 3.47549 15.2541C3.46539 15.2646 3.45738 15.266 3.45271 15.266H2.54922Z" stroke="#666666" stroke-width="0.878431"/>
</g>
<defs>
<clipPath id="clip0_2102_3158">
<rect width="20.8627" height="20.8627" fill="white" transform="translate(0.0585938 0.960693)"/>
</clipPath>
</defs>
</svg>
