<svg width="31" height="31" viewBox="0 0 31 31" fill="none" xmlns="http://www.w3.org/2000/svg">
<g clip-path="url(#clip0_2025_2475)">
<path d="M24.5982 9.55617C24.5706 9.00332 24.1153 8.57019 23.5617 8.57019H19.9615L19.0928 3.0686C18.8121 1.29048 17.3018 0 15.5003 0C13.7002 0 12.1899 1.29048 11.9092 3.0686L11.0405 8.57019H7.44028C6.8867 8.57019 6.4314 9.00332 6.40375 9.55617L5.38604 29.9104C5.37191 30.1929 5.47563 30.4725 5.6706 30.6775C5.86557 30.8824 6.13968 31 6.42263 31H24.5794C24.8623 31 25.1363 30.8824 25.3313 30.6775C25.5263 30.4725 25.63 30.193 25.6159 29.9104L24.5982 9.55617ZM12.9012 3.22527C13.1045 1.93834 14.1975 1.00432 15.5017 1.00432C16.8045 1.00432 17.8976 1.93834 18.1008 3.22527L18.9448 8.57019H12.0573L12.9012 3.22527ZM24.6036 29.9853C24.5937 29.9957 24.5833 29.9957 24.5794 29.9957H6.42263C6.41868 29.9957 6.40831 29.9957 6.3984 29.9853C6.38849 29.9749 6.38902 29.9645 6.38922 29.9606L7.40693 9.60638C7.4078 9.58851 7.42253 9.57451 7.44041 9.57451H10.882L10.7199 10.6009C10.6767 10.8749 10.8637 11.132 11.1376 11.1753C11.1641 11.1795 11.1905 11.1815 11.2165 11.1815C11.4593 11.1815 11.6728 11.005 11.7119 10.7576L11.8987 9.57451H19.1033L19.2901 10.7576C19.3334 11.0315 19.5903 11.2183 19.8644 11.1753C20.1384 11.132 20.3254 10.8749 20.2821 10.6009L20.1201 9.57451H23.5617C23.5796 9.57451 23.5942 9.58851 23.5952 9.60638L24.6129 29.9606C24.613 29.9645 24.6135 29.9749 24.6036 29.9853Z" fill="#F58634"/>
<path d="M15.501 12.8553C15.2237 12.8553 14.9989 13.0801 14.9989 13.3575V16.0691H14.3963V13.3575C14.3963 13.0801 14.1714 12.8553 13.8941 12.8553C13.6168 12.8553 13.3919 13.0801 13.3919 13.3575V16.0691H12.7894V13.3575C12.7894 13.0801 12.5645 12.8553 12.2872 12.8553C12.0099 12.8553 11.785 13.0801 11.785 13.3575V17.1069C11.785 17.9745 12.4909 18.6803 13.3585 18.6803H13.3919V27.284C13.3919 27.5614 13.6168 27.7862 13.8941 27.7862C14.1714 27.7862 14.3963 27.5614 14.3963 27.284V18.6803H14.4297C15.2973 18.6803 16.0032 17.9745 16.0032 17.1069V13.3575C16.0032 13.0801 15.7783 12.8553 15.501 12.8553ZM14.9989 17.1069C14.9989 17.4207 14.7436 17.676 14.4297 17.676H13.3585C13.0446 17.676 12.7894 17.4207 12.7894 17.1069V17.0734H14.9989V17.1069Z" fill="#F58634"/>
<path d="M19.2651 13.8431C19.2104 13.2967 18.7551 12.8846 18.2058 12.8846C17.6189 12.8846 17.1413 13.3621 17.1413 13.9491V27.284C17.1413 27.5614 17.3662 27.7862 17.6435 27.7862C17.9208 27.7862 18.1457 27.5614 18.1457 27.284V24.0367H18.5954C19.0408 24.0367 19.4671 23.8468 19.7651 23.5157C20.063 23.1846 20.207 22.7406 20.1601 22.2977L19.2651 13.8431ZM19.0185 22.844C18.9091 22.9654 18.7589 23.0324 18.5955 23.0324H18.1457V13.9491C18.1457 13.9159 18.1726 13.8889 18.2058 13.8889C18.2369 13.8889 18.2627 13.9122 18.266 13.946L19.1614 22.4034C19.1786 22.5659 19.1278 22.7224 19.0185 22.844Z" fill="#F58634"/>
</g>
<defs>
<clipPath id="clip0_2025_2475">
<rect width="31" height="31" fill="white"/>
</clipPath>
</defs>
</svg>
