<svg width="18" height="18" viewBox="0 0 18 18" fill="none" xmlns="http://www.w3.org/2000/svg">
<path d="M12.75 9C10.68 9 9 10.68 9 12.75C9 14.82 10.68 16.5 12.75 16.5C14.82 16.5 16.5 14.82 16.5 12.75C16.5 10.68 14.82 9 12.75 9ZM13.9875 14.5125L12.375 12.9V10.5H13.125V12.5925L14.5125 13.98L13.9875 14.5125ZM13.5 2.25H11.115C10.8 1.38 9.975 0.75 9 0.75C8.025 0.75 7.2 1.38 6.885 2.25H4.5C3.675 2.25 3 2.925 3 3.75V15C3 15.825 3.675 16.5 4.5 16.5H9.0825C8.64 16.0725 8.28 15.5625 8.0175 15H4.5V3.75H6V6H12V3.75H13.5V7.56C14.0325 7.635 14.535 7.7925 15 8.01V3.75C15 2.925 14.325 2.25 13.5 2.25ZM9 3.75C8.5875 3.75 8.25 3.4125 8.25 3C8.25 2.5875 8.5875 2.25 9 2.25C9.4125 2.25 9.75 2.5875 9.75 3C9.75 3.4125 9.4125 3.75 9 3.75Z" fill="#666666"/>
</svg>
