<svg width="47" height="47" viewBox="0 0 47 47" fill="none" xmlns="http://www.w3.org/2000/svg">
<g clip-path="url(#clip0_2805_1248)">
<path d="M23.5 47C10.5213 47 0 36.4787 0 23.5C0 10.5213 10.5213 0 23.5 0C36.4787 0 47 10.5213 47 23.5C47 36.4787 36.4787 47 23.5 47Z" fill="#34E0A1"/>
<path d="M14.3025 28.3321C14.9458 28.3323 15.5747 28.1418 16.1096 27.7849C16.6444 27.428 17.0614 26.9207 17.3075 26.3271C17.5538 25.7335 17.6182 25.0803 17.4927 24.4502C17.3673 23.82 17.0575 23.2412 16.6027 22.7869C16.1478 22.3326 15.5683 22.0232 14.9373 21.8978C14.3064 21.7725 13.6525 21.8369 13.0582 22.0828C12.4639 22.3287 11.956 22.7451 11.5987 23.2794C11.2413 23.8137 11.0507 24.4417 11.0508 25.0843C11.0509 25.9456 11.3935 26.7717 12.0033 27.3807C12.6131 27.9898 13.4402 28.3321 14.3025 28.3321Z" fill="black"/>
<path d="M32.637 28.3327C34.4332 28.3327 35.8892 26.8784 35.8892 25.0843C35.8892 23.2903 34.4332 21.8359 32.637 21.8359C30.8409 21.8359 29.3848 23.2903 29.3848 25.0843C29.3848 26.8784 30.8409 28.3327 32.637 28.3327Z" fill="black"/>
<path d="M5.13644 25.0842C5.13644 30.1414 9.24035 34.24 14.3031 34.24C16.6142 34.2432 18.8405 33.3711 20.5332 31.7995L23.4717 34.9932L26.4101 31.8013C28.1027 33.3716 30.3282 34.2429 32.6384 34.2396C37.7016 34.2396 41.8091 30.1401 41.8091 25.0837C41.8105 23.8098 41.5449 22.5497 41.0297 21.3843C40.5145 20.219 39.7608 19.1741 38.8173 18.317L41.8168 15.0573H35.1673C31.7212 12.7152 27.6494 11.4626 23.4811 11.4626C19.3129 11.4626 15.2411 12.7152 11.7951 15.0573H5.12695L8.12645 18.317C7.18316 19.1743 6.42984 20.2193 5.91489 21.3847C5.39998 22.5502 5.13481 23.8103 5.13644 25.0842ZM38.8408 25.0842C38.8408 26.3097 38.477 27.5078 37.7953 28.5268C37.1136 29.5458 36.1447 30.34 35.0111 30.809C33.8775 31.278 32.6301 31.4006 31.4267 31.1616C30.2233 30.9225 29.1178 30.3323 28.2502 29.4657C27.3826 28.5991 26.7918 27.495 26.5524 26.2931C26.313 25.0911 26.4359 23.8451 26.9054 22.7129C27.375 21.5806 28.1701 20.6129 29.1904 19.932C30.2106 19.2511 31.41 18.8877 32.637 18.8877C34.2823 18.8877 35.8603 19.5406 37.0238 20.7026C38.1872 21.8647 38.8408 23.4408 38.8408 25.0842ZM23.4703 14.4581C25.8347 14.4552 28.1761 14.9228 30.3576 15.8335C26.4422 17.3299 23.4734 20.8284 23.4734 24.9054C23.4734 20.828 20.5038 17.329 16.5879 15.8331C18.7679 14.923 21.1076 14.4556 23.4703 14.4581ZM14.3031 18.8877C15.5301 18.8877 16.7296 19.2511 17.7498 19.932C18.77 20.6129 19.5652 21.5806 20.0347 22.7129C20.5043 23.8451 20.6271 25.0911 20.3878 26.2931C20.1484 27.495 19.5575 28.5991 18.6899 29.4657C17.8223 30.3323 16.7169 30.9225 15.5134 31.1616C14.31 31.4006 13.0626 31.278 11.929 30.809C10.7955 30.34 9.82657 29.5458 9.14486 28.5268C8.46318 27.5078 8.09932 26.3097 8.09932 25.0842C8.09932 23.4408 8.75296 21.8647 9.91638 20.7026C11.0798 19.5406 12.6578 18.8877 14.3031 18.8877Z" fill="black"/>
</g>
<defs>
<clipPath id="clip0_2805_1248">
<rect width="47" height="47" fill="white"/>
</clipPath>
</defs>
</svg>
