<svg width="20" height="20" viewBox="0 0 20 20" fill="none" xmlns="http://www.w3.org/2000/svg">
<path d="M19.9986 10.0004C19.9986 15.051 16.2549 19.2264 11.3915 19.904C10.9368 19.9671 10.4716 20 9.9993 20C9.45417 20 8.91886 19.9566 8.39756 19.8725C3.63649 19.1059 0 14.9774 0 10.0004C0 4.47746 4.4773 0 10 0C15.5227 0 20 4.47746 20 10.0004H19.9986Z" fill="#1C1C1B"/>
<path d="M4.05607 4.41016L8.6679 10.5763L4.02734 15.5898H5.07205L9.13525 11.2006L12.4179 15.5898H15.9724L11.1013 9.0768L15.421 4.41016H14.3763L10.6347 8.45248L7.61129 4.41016H4.05677H4.05607ZM5.59194 5.17952H7.22451L14.4351 14.8204H12.8026L5.59194 5.17952Z" fill="white"/>
</svg>
