<svg width="21" height="21" viewBox="0 0 21 21" fill="none" xmlns="http://www.w3.org/2000/svg">
<circle cx="10.5" cy="10.5" r="10.5" fill="#D9D9D9"/>
<path d="M10.5 7.06875C11.1525 7.06875 11.6813 7.5975 11.6813 8.25C11.6813 8.9025 11.1525 9.43125 10.5 9.43125C9.8475 9.43125 9.31875 8.9025 9.31875 8.25C9.31875 7.5975 9.8475 7.06875 10.5 7.06875ZM10.5 12.1312C12.1706 12.1312 13.9313 12.9525 13.9313 13.3125V13.9313H7.06875V13.3125C7.06875 12.9525 8.82938 12.1312 10.5 12.1312ZM10.5 6C9.25688 6 8.25 7.00688 8.25 8.25C8.25 9.49312 9.25688 10.5 10.5 10.5C11.7431 10.5 12.75 9.49312 12.75 8.25C12.75 7.00688 11.7431 6 10.5 6ZM10.5 11.0625C8.99813 11.0625 6 11.8162 6 13.3125V15H15V13.3125C15 11.8162 12.0019 11.0625 10.5 11.0625Z" fill="#7A7A7A"/>
</svg>
