<?xml version="1.0" standalone="no"?>
<!DOCTYPE svg PUBLIC "-//W3C//DTD SVG 20010904//EN"
 "http://www.w3.org/TR/2001/REC-SVG-20010904/DTD/svg10.dtd">
<svg version="1.0" xmlns="http://www.w3.org/2000/svg"
width="20px" height="20px" viewBox="0 0 512.000000 512.000000"
 preserveAspectRatio="xMidYMid meet">

<g transform="translate(0.000000,512.000000) scale(0.100000,-0.100000)"
fill="#000000" stroke="none">
<path d="M2311 4499 l-591 -620 1 -1317 0 -1317 525 -550 c288 -302 549 -575
579 -604 l54 -55 148 13 c81 7 158 15 171 18 l22 5 0 2509 c0 2383 -1 2509
-17 2509 -10 0 -76 7 -148 15 -71 8 -135 15 -141 15 -7 0 -278 -279 -603 -621z
m519 58 l0 -273 -84 -62 c-46 -33 -87 -58 -90 -55 -3 4 -6 118 -6 254 l0 247
87 81 c48 45 89 81 90 81 2 0 3 -123 3 -273z m-210 -176 l0 -250 -147 -106
-148 -106 -3 213 -3 213 146 143 c81 78 149 142 151 142 2 0 4 -112 4 -249z
m-320 -265 l0 -215 -104 -75 c-57 -42 -106 -76 -110 -76 -3 0 -6 83 -6 184 l0
184 108 106 c59 58 108 106 110 106 1 0 2 -96 2 -214z m523 -497 c-10 -10
-322 -149 -334 -149 -5 0 -9 105 -9 233 l0 233 173 116 172 116 3 -271 c1
-149 -1 -274 -5 -278z m-763 294 l0 -188 -83 -58 -82 -58 -3 163 -3 162 83 83
c45 46 84 83 85 83 2 0 3 -84 3 -187z m-180 -155 l0 -163 -68 -48 -67 -47 -3
147 -3 147 63 63 c34 35 66 63 70 63 4 0 8 -73 8 -162z m568 -79 l-3 -231
-109 -49 c-59 -26 -117 -51 -127 -54 -18 -6 -19 2 -19 194 l0 200 123 84 c67
47 125 85 130 86 4 1 6 -103 5 -230z m-278 -157 l0 -197 -95 -42 -95 -42 0
178 0 177 88 61 c48 34 90 62 95 62 4 1 7 -88 7 -197z m-210 -116 l0 -173 -70
-32 c-39 -17 -72 -31 -75 -31 -3 0 -5 71 -5 158 l0 157 73 47 c39 26 73 48 75
48 1 0 2 -78 2 -174z m870 -180 l0 -274 -63 -11 c-35 -6 -76 -11 -90 -11 l-27
0 2 252 3 252 75 32 c41 18 81 33 88 33 9 1 12 -60 12 -273z m-1030 89 l0
-155 -26 -10 c-14 -6 -27 -10 -30 -10 -2 0 -4 67 -4 149 0 143 1 149 23 164
12 9 25 16 30 16 4 1 7 -69 7 -154z m820 -145 l0 -250 -22 -5 c-27 -6 -262
-45 -272 -45 -3 0 -5 98 -4 218 l3 217 140 57 c77 31 143 57 148 57 4 1 7
-111 7 -249z m-320 -93 l0 -214 -87 -12 c-49 -7 -98 -15 -110 -18 l-23 -5 0
189 0 190 38 16 c84 37 158 65 170 66 9 1 12 -48 12 -212z m-242 -64 l-3 -188
-70 -12 c-38 -6 -76 -12 -82 -12 -10 -1 -13 39 -13 167 l0 167 78 32 c42 17
80 31 85 32 4 1 6 -83 5 -186z m-185 -214 c-5 -4 -36 -11 -70 -15 l-63 -7 0
149 0 149 68 26 67 26 3 -160 c1 -88 -1 -164 -5 -168z m957 -234 c0 -249 -2
-275 -17 -275 -22 0 -283 30 -310 36 l-23 4 0 235 c0 181 3 235 13 236 6 0 77
8 157 18 80 11 153 19 163 20 16 1 17 -18 17 -274z m-380 -5 c0 -126 -1 -230
-2 -230 -2 0 -57 7 -123 15 -65 8 -123 15 -127 15 -5 0 -7 91 -6 203 l3 202
85 11 c47 6 104 12 128 13 l42 1 0 -230z m-280 -1 c0 -167 -2 -200 -14 -196
-7 3 -50 9 -95 12 l-81 8 0 178 0 178 33 5 c48 8 88 13 125 15 l32 1 0 -201z
m-210 5 l0 -176 -67 7 c-38 4 -71 9 -75 12 -5 2 -8 73 -8 158 l0 154 33 5 c28
5 47 8 105 15 9 1 12 -40 12 -175z m-160 1 l0 -155 -30 0 -30 0 0 148 c0 82 3
152 7 155 3 4 17 7 30 7 l23 0 0 -155z m58 -232 c22 -5 22 -7 22 -170 0 -153
-1 -165 -17 -158 -10 4 -42 16 -70 27 l-53 19 0 151 0 150 48 -7 c26 -3 57 -9
70 -12z m107 -17 c22 -4 52 -9 68 -12 l27 -6 0 -185 c0 -172 -1 -185 -17 -179
-10 4 -48 19 -85 33 l-68 26 0 169 c0 156 1 169 18 165 9 -3 35 -8 57 -11z
m330 -58 c3 -3 4 -100 3 -216 l-3 -210 -105 42 -105 42 -3 190 -2 191 105 -17
c58 -9 107 -19 110 -22z m318 -48 c4 0 7 -112 7 -250 0 -137 -3 -250 -7 -250
-4 0 -72 26 -150 57 l-143 57 0 211 c0 116 2 214 5 217 3 3 67 -6 143 -18 75
-13 140 -24 145 -24z m140 -22 l77 -11 0 -279 0 -278 -47 19 c-27 10 -67 27
-90 36 l-43 17 0 254 c0 197 3 254 13 254 6 0 47 -5 90 -12z m-978 -210 l25
-11 0 -159 0 -159 -30 21 -30 21 0 150 c0 82 2 149 5 149 2 0 16 -5 30 -12z
m148 -66 l37 -15 0 -174 c0 -95 -2 -173 -5 -173 -3 0 -37 21 -75 46 l-70 47 0
159 0 158 38 -16 c20 -9 54 -23 75 -32z m173 -78 l74 -33 0 -201 0 -200 -92
64 -93 64 -3 177 c-3 204 -16 189 114 129z m237 -104 l117 -53 0 -228 c0 -126
-3 -229 -7 -228 -5 0 -62 37 -128 82 l-120 82 -3 204 c-2 161 0 202 10 198 7
-2 66 -28 131 -57z m324 -144 l168 -75 3 -276 c2 -221 0 -275 -10 -269 -7 4
-86 56 -175 116 l-163 108 0 235 c0 129 2 235 5 235 2 0 80 -33 172 -74z
m-834 -15 l57 -42 0 -167 0 -166 -70 69 -70 69 0 149 c0 118 3 147 13 140 6
-6 38 -29 70 -52z m185 -133 l52 -39 0 -185 0 -185 -85 77 -85 78 0 169 0 168
33 -22 c17 -13 56 -40 85 -61z m195 -141 l97 -70 0 -215 0 -214 -110 103 -110
102 0 189 c0 149 3 188 13 182 6 -4 56 -39 110 -77z m281 -204 l136 -98 0
-253 0 -254 -150 144 -149 143 -1 214 c0 178 2 212 14 208 7 -3 75 -50 150
-104z m265 -190 l80 -58 1 -280 0 -280 -90 90 -90 90 0 247 c0 154 4 248 10
248 5 0 45 -26 89 -57z"/>
<path d="M1580 1236 c0 -14 934 -1232 947 -1235 11 -2 6 11 -18 43 -19 25
-230 304 -469 620 -369 488 -460 601 -460 572z"/>
<path d="M1636 1228 c5 -7 235 -284 511 -615 438 -524 537 -637 521 -594 -8
23 -1015 1220 -1026 1220 -8 1 -10 -4 -6 -11z"/>
<path d="M1706 1208 c62 -67 1067 -1163 1075 -1172 4 -4 13 -6 20 -4 15 5
-1084 1202 -1109 1206 -12 3 -8 -5 14 -30z"/>
<path d="M3250 408 c0 -20 255 -302 278 -307 21 -4 19 -3 -127 159 -158 173
-151 167 -151 148z"/>
<path d="M3250 289 c0 -18 161 -199 177 -199 8 0 -26 47 -77 105 -50 58 -93
105 -96 105 -2 0 -4 -5 -4 -11z"/>
<path d="M3250 167 c0 -24 42 -87 58 -87 14 0 -1 32 -39 81 -15 20 -19 21 -19
6z"/>
</g>
</svg>
