<svg width="33" height="33" viewBox="0 0 33 33" fill="none" xmlns="http://www.w3.org/2000/svg">
<path d="M17.8178 9.36294H24.8258M15.5711 11.6083H24.8258M15.5711 13.9057H24.8258M15.5711 16.4941H21.5691M10.5934 19.7791C10.6655 19.9454 10.7377 20.1117 10.7892 20.278L10.0266 20.9953C7.24397 20.7874 9.26392 19.3113 4.1213 24.405C2.86399 25.642 -0.670921 28.1889 1.92615 30.9124C4.91485 34.0414 7.49131 29.9353 10.9541 26.484C13.242 24.2075 12.1702 24.3634 11.8713 23.1056L12.9946 22.2012L10.5934 19.7791ZM20.1984 1.02588C23.455 1.02588 26.4025 2.35648 28.5461 4.50831C30.6794 6.67054 31.9986 9.6436 31.9986 12.9285C31.9986 15.808 30.9886 18.4588 29.2984 20.5171L28.7522 17.9806C29.6179 16.5045 30.1126 14.7789 30.1126 12.9285C30.1126 7.4086 25.6708 2.92822 20.1984 2.92822C14.7259 2.92822 10.2841 7.4086 10.2841 12.9285C10.2841 18.4588 14.7259 22.9288 20.1984 22.9288C21.8782 22.9288 23.4756 22.5026 24.8669 21.7541L27.0517 22.6274C25.1142 24.0203 22.7542 24.8416 20.1984 24.8416C16.9417 24.8416 13.9839 23.5006 11.8506 21.3487C9.7173 19.1969 8.39815 16.2238 8.39815 12.9285C8.39815 9.6436 9.7173 6.67054 11.8506 4.50831C13.9839 2.35648 16.9417 1.02588 20.1984 1.02588ZM20.1984 4.47714C24.867 4.47714 28.6492 8.29222 28.6492 12.9909C28.6492 14.571 28.2267 16.0367 27.4846 17.305L28.3916 21.1096C28.4225 21.224 28.3813 21.3487 28.2988 21.4319C28.2061 21.5151 28.0927 21.5462 27.969 21.5151L24.1765 20.5171C22.9913 21.1512 21.6309 21.5151 20.1984 21.5151C15.5299 21.5151 11.7476 17.7 11.7476 12.9909C11.7476 8.29222 15.5299 4.47714 20.1984 4.47714Z" stroke="#FEFEFE" stroke-width="0.337355" stroke-miterlimit="22.9256" stroke-linecap="round"/>
</svg>
